<?xml version="1.0" encoding="UTF-8"?>
<svg width="52px" height="44px" viewBox="0 0 52 44" version="1.1" xmlns="http://www.w3.org/2000/svg" xmlns:xlink="http://www.w3.org/1999/xlink">
    <!-- Generator: Sketch 47 (45396) - http://www.bohemiancoding.com/sketch -->
    <title>001-editor</title>
    <desc>Created with Sketch.</desc>
    <defs></defs>
    <g id="دایره-خودتو-بساز" stroke="none" stroke-width="1" fill="none" fill-rule="evenodd">
        <g id="Desktop-HD" transform="translate(-374.000000, -183.000000)" fill-rule="nonzero">
            <g id="001-editor" transform="translate(374.000000, 183.000000)">
                <path d="M50.2069141,0 L1.79308594,0 C0.80275,0 0,0.816371136 0,1.82351118 L0,31 L52,31 L52,1.82351118 C52,0.816371136 51.19725,0 50.2069141,0 Z M49.3103203,28.2646816 L2.68967969,28.2646816 L2.68967969,2.73531842 L49.3103203,2.73531842 L49.3103203,28.2646816 Z" id="Shape" fill="#464655"></path>
                <g id="Group" transform="translate(3.000000, 3.000000)" fill="#FFFFFF">
                    <path d="M18.0881543,11.1443548 C18.3374587,11.1443548 18.53915,11.3433468 18.53915,11.5893145 L19.8920348,11.5893145 L19.8920348,10.2545363 L18.0881543,10.2545363 C17.83885,10.2545363 17.6371587,10.0555444 17.6371587,9.80957661 C17.6371587,9.56360887 17.83885,9.36461694 18.0881543,9.36461694 L19.8920348,9.36461694 L19.8920348,3.58044355 L11.7745217,3.58044355 L11.7745217,11.5893145 L17.6371587,11.5893145 C17.6372609,11.3433468 17.8389522,11.1443548 18.0881543,11.1443548 Z" id="Shape"></path>
                    <path d="M0.04935,24.9373992 L46.95065,24.9373992 L46.95065,0.0208669355 L0.04935,0.0208669355 L0.04935,24.9373992 Z M19.892137,22.7127016 L18.0882565,22.7127016 C17.8389522,22.7127016 17.6372609,22.5137097 17.6372609,22.2677419 C17.6372609,22.0217742 17.8389522,21.8227823 18.0882565,21.8227823 L19.892137,21.8227823 C20.1414413,21.8227823 20.3431326,22.0217742 20.3431326,22.2677419 C20.3431326,22.5137097 20.1413391,22.7127016 19.892137,22.7127016 Z M18.0881543,18.2633065 C18.3374587,18.2633065 18.53915,18.4622984 18.53915,18.7082661 L18.53915,20.488004 C18.53915,20.7339718 18.3374587,20.9329637 18.0881543,20.9329637 C17.83885,20.9329637 17.6371587,20.7339718 17.6371587,20.488004 L17.6371587,18.7082661 C17.6372609,18.4622984 17.8389522,18.2633065 18.0881543,18.2633065 Z M17.6372609,16.9285282 L17.6372609,15.1487903 C17.6372609,14.9028226 17.8389522,14.7038306 18.0882565,14.7038306 C18.3375609,14.7038306 18.5392522,14.9028226 18.5392522,15.1487903 L18.5392522,16.9285282 C18.5392522,17.174496 18.3375609,17.3734879 18.0882565,17.3734879 C17.8389522,17.3734879 17.6372609,17.174496 17.6372609,16.9285282 Z M23.4998978,22.7127016 L21.6960174,22.7127016 C21.446713,22.7127016 21.2450217,22.5137097 21.2450217,22.2677419 C21.2450217,22.0217742 21.446713,21.8227823 21.6960174,21.8227823 L23.4998978,21.8227823 C23.7492022,21.8227823 23.9508935,22.0217742 23.9508935,22.2677419 C23.9508935,22.5137097 23.7492022,22.7127016 23.4998978,22.7127016 Z M31.1664152,20.488004 C31.1664152,20.7339718 30.9647239,20.9329637 30.7154196,20.9329637 C30.4661152,20.9329637 30.2644239,20.7339718 30.2644239,20.488004 L30.2644239,18.7082661 C30.2644239,18.4622984 30.4661152,18.2633065 30.7154196,18.2633065 C30.9647239,18.2633065 31.1664152,18.4622984 31.1664152,18.7082661 L31.1664152,20.488004 Z M31.1664152,16.9285282 C31.1664152,17.174496 30.9647239,17.3734879 30.7154196,17.3734879 C30.4661152,17.3734879 30.2644239,17.174496 30.2644239,16.9285282 L30.2644239,15.1487903 C30.2644239,14.9028226 30.4661152,14.7038306 30.7154196,14.7038306 C30.9647239,14.7038306 31.1664152,14.9028226 31.1664152,15.1487903 L31.1664152,16.9285282 Z M31.1664152,13.3690524 C31.1664152,13.6150202 30.9647239,13.8140121 30.7154196,13.8140121 C30.4661152,13.8140121 30.2644239,13.6150202 30.2644239,13.3690524 L30.2644239,11.5893145 C30.2644239,11.3433468 30.4661152,11.1443548 30.7154196,11.1443548 C30.9647239,11.1443548 31.1664152,11.3433468 31.1664152,11.5893145 L31.1664152,13.3690524 Z M35.2253761,14.258871 L35.2253761,8.0297379 L35.2253761,2.69052419 C35.2253761,2.19909274 35.6292696,1.80060484 36.1273674,1.80060484 L44.2448804,1.80060484 C44.7429783,1.80060484 45.1468717,2.19909274 45.1468717,2.69052419 L45.1468717,8.02983871 L45.1468717,14.2589718 L45.1468717,22.2678427 C45.1468717,22.7592742 44.7429783,23.1577621 44.2448804,23.1577621 L36.1273674,23.1577621 C35.6292696,23.1577621 35.2253761,22.7592742 35.2253761,22.2678427 L35.2253761,14.258871 Z M28.9115391,9.36461694 L30.7154196,9.36461694 C30.9647239,9.36461694 31.1664152,9.56360887 31.1664152,9.80957661 C31.1664152,10.0555444 30.9647239,10.2545363 30.7154196,10.2545363 L28.9115391,10.2545363 C28.6622348,10.2545363 28.4605435,10.0555444 28.4605435,9.80957661 C28.4606457,9.56360887 28.662337,9.36461694 28.9115391,9.36461694 Z M28.9115391,21.8228831 L30.7154196,21.8228831 C30.9647239,21.8228831 31.1664152,22.021875 31.1664152,22.2678427 C31.1664152,22.5138105 30.9647239,22.7128024 30.7154196,22.7128024 L28.9115391,22.7128024 C28.6622348,22.7128024 28.4605435,22.5138105 28.4605435,22.2678427 C28.4605435,22.021875 28.662337,21.8228831 28.9115391,21.8228831 Z M25.3037783,9.36461694 L27.1076587,9.36461694 C27.356963,9.36461694 27.5586543,9.56360887 27.5586543,9.80957661 C27.5586543,10.0555444 27.356963,10.2545363 27.1076587,10.2545363 L25.3037783,10.2545363 C25.0544739,10.2545363 24.8527826,10.0555444 24.8527826,9.80957661 C24.8527826,9.56360887 25.0544739,9.36461694 25.3037783,9.36461694 Z M25.3037783,21.8228831 L27.1076587,21.8228831 C27.356963,21.8228831 27.5586543,22.021875 27.5586543,22.2678427 C27.5586543,22.5138105 27.356963,22.7128024 27.1076587,22.7128024 L25.3037783,22.7128024 C25.0544739,22.7128024 24.8527826,22.5138105 24.8527826,22.2678427 C24.8527826,22.021875 25.0544739,21.8228831 25.3037783,21.8228831 Z M9.9706413,2.69052419 C9.9706413,2.19868952 10.3745348,1.80060484 10.8726326,1.80060484 L20.7940261,1.80060484 C21.2921239,1.80060484 21.6960174,2.19858871 21.6960174,2.69052419 L21.6960174,9.36461694 L23.4998978,9.36461694 C23.7492022,9.36461694 23.9508935,9.56360887 23.9508935,9.80957661 C23.9508935,10.0555444 23.7492022,10.2545363 23.4998978,10.2545363 L21.6960174,10.2545363 L21.6960174,12.4792339 C21.6960174,12.5757056 21.6799761,12.6684476 21.6512652,12.7553427 L24.0181239,14.8474798 C24.2141957,15.0207661 24.1631087,15.3360887 23.9220804,15.440625 L23.0251978,15.8290323 L23.8262413,17.6291331 C23.9262696,17.8541331 23.8222565,18.1166331 23.5945109,18.215625 C23.5355565,18.2408266 23.4738435,18.2530242 23.4135609,18.2530242 C23.2395587,18.2530242 23.0744457,18.1539315 23.000063,17.9870968 L22.1989174,16.1867944 L21.3017283,16.5753024 C21.0607,16.6797379 20.7907565,16.5033266 20.7942304,16.2436492 L20.832137,13.3672379 C20.8193652,13.3678427 20.8069,13.3691532 20.7940261,13.3691532 L18.53915,13.3691532 C18.53915,13.615121 18.3374587,13.8141129 18.0881543,13.8141129 C17.83885,13.8141129 17.6371587,13.615121 17.6371587,13.3691532 L10.8725304,13.3691532 C10.3744326,13.3691532 9.97053913,12.9711694 9.97053913,12.4792339 L9.97053913,2.69052419 L9.9706413,2.69052419 Z M1.85323043,2.69052419 C1.85323043,2.19909274 2.25712391,1.80060484 2.75522174,1.80060484 L5.46109348,1.80060484 C5.9591913,1.80060484 6.36308478,2.19909274 6.36308478,2.69052419 L6.36308478,22.2678427 C6.36308478,22.7592742 5.9591913,23.1577621 5.46109348,23.1577621 L2.75522174,23.1577621 C2.25712391,23.1577621 1.85323043,22.7592742 1.85323043,22.2678427 L1.85323043,2.69052419 Z" id="Shape"></path>
                </g>
                <path d="M0,34.3333333 C0,35.2538469 0.802751568,36 1.79308944,36 L18.8275915,36 L33.1724085,36 L50.2069106,36 C51.1972484,36 52,35.2538469 52,34.3333333 L52,31 L0,31 L0,34.3333333 Z M26.0000508,32.2499764 C26.7427788,32.2499764 27.3448425,32.8096856 27.3448425,33.4999528 C27.3448425,34.19022 26.7426772,34.7499292 26.0000508,34.7499292 C25.2573228,34.7499292 24.6552591,34.19022 24.6552591,33.4999528 C24.6552591,32.8096856 25.2573228,32.2499764 26.0000508,32.2499764 Z" id="Shape" fill="#BEC8DC"></path>
                <polygon id="Shape" fill="#AFBBD0" points="18 42 34 42 33.4366456 38 18.5633544 38"></polygon>
                <path d="M17.9000357,42 C17.4030178,42 17,42.4477798 17,43 C17,43.5522202 17.4030178,44 17.9000357,44 L34.0999643,44 C34.5969822,44 35,43.5522202 35,43 C35,42.4477798 34.5969822,42 34.0999643,42 L33.9875108,42 L18.0125911,42 L17.9000357,42 Z" id="Shape" fill="#BEC8DC"></path>
                <g id="Group" transform="translate(19.000000, 32.000000)" fill="#96A5B9">
                    <polygon id="Shape" points="0.0176712329 5.94651724 14.9823288 5.94651724 14.7555822 4.12013793 0.244417808 4.12013793"></polygon>
                    <ellipse id="Oval" cx="7.5" cy="1.38051724" rx="1.36037671" ry="1.36975862"></ellipse>
                </g>
                <path d="M4.80001812,27 L7.19998188,27 C7.64176805,27 8,26.5895158 8,26.0832901 L8,5.91670993 C8,5.41048418 7.64176805,5 7.19998188,5 L4.80001812,5 C4.35823195,5 4,5.41048418 4,5.91670993 L4,26.0833939 C4,26.5896197 4.35814133,27 4.80001812,27 Z M5.59994563,6.83331603 L6.39996375,6.83331603 C6.84174993,6.83331603 7.19998188,7.24380021 7.19998188,7.75002596 C7.19998188,8.25625171 6.84174993,8.66673589 6.39996375,8.66673589 L5.59994563,8.66673589 C5.15815945,8.66673589 4.7999275,8.25625171 4.7999275,7.75002596 C4.80001812,7.24380021 5.15815945,6.83331603 5.59994563,6.83331603 Z M5.59994563,9.58334199 L6.39996375,9.58334199 C6.84174993,9.58334199 7.19998188,9.99382617 7.19998188,10.5000519 C7.19998188,11.0062777 6.84174993,11.4167619 6.39996375,11.4167619 L5.59994563,11.4167619 C5.15815945,11.4167619 4.7999275,11.0062777 4.7999275,10.5000519 C4.80001812,9.99382617 5.15815945,9.58334199 5.59994563,9.58334199 Z M5.59994563,12.3333679 L6.39996375,12.3333679 C6.84174993,12.3333679 7.19998188,12.7438521 7.19998188,13.2500779 C7.19998188,13.7563036 6.84174993,14.1667878 6.39996375,14.1667878 L5.59994563,14.1667878 C5.15815945,14.1667878 4.7999275,13.7563036 4.7999275,13.2500779 C4.7999275,12.7438521 5.15815945,12.3333679 5.59994563,12.3333679 Z M5.59994563,15.0833939 L6.39996375,15.0833939 C6.84174993,15.0833939 7.19998188,15.4938781 7.19998188,16.0001038 C7.19998188,16.5063296 6.84174993,16.9168138 6.39996375,16.9168138 L5.59994563,16.9168138 C5.15815945,16.9168138 4.7999275,16.5063296 4.7999275,16.0001038 C4.7999275,15.4938781 5.15815945,15.0833939 5.59994563,15.0833939 Z M5.59994563,17.833316 L6.39996375,17.833316 C6.84174993,17.833316 7.19998188,18.2438002 7.19998188,18.750026 C7.19998188,19.2562517 6.84174993,19.6667359 6.39996375,19.6667359 L5.59994563,19.6667359 C5.15815945,19.6667359 4.7999275,19.2562517 4.7999275,18.750026 C4.7999275,18.2438002 5.15815945,17.833316 5.59994563,17.833316 Z M4.80001812,22.416658 C4.80001812,21.9104323 5.15825007,21.4999481 5.60003625,21.4999481 L6.40005437,21.4999481 C6.84184055,21.4999481 7.2000725,21.9104323 7.2000725,22.416658 L7.2000725,24.249974 C7.2000725,24.7561998 6.84184055,25.166684 6.40005437,25.166684 L5.60003625,25.166684 C5.15825007,25.166684 4.80001812,24.7561998 4.80001812,24.249974 L4.80001812,22.416658 L4.80001812,22.416658 Z" id="Shape" fill="#BEC8DC"></path>
                <path d="M6,8 L7,8 C7.55222021,8 8,7.55222021 8,7 C8,6.44777979 7.55222021,6 7,6 L6,6 C5.44777979,6 5,6.44777979 5,7 C5.00011328,7.55233348 5.44777979,8 6,8 Z" id="Shape" fill="#E4EAF6"></path>
                <path d="M6,11 L7,11 C7.55222021,11 8,10.5522202 8,10 C8,9.44777979 7.55222021,9 7,9 L6,9 C5.44777979,9 5,9.44777979 5,10 C5.00011328,10.5523335 5.44777979,11 6,11 Z" id="Shape" fill="#96A5B9"></path>
                <g id="Group" transform="translate(5.000000, 12.000000)" fill="#E4EAF6">
                    <path d="M1.04925,1.76341667 L1.99510714,1.76341667 C2.51742857,1.76341667 2.94096429,1.37909722 2.94096429,0.905138889 C2.94096429,0.431180556 2.51742857,0.0468611111 1.99510714,0.0468611111 L1.04925,0.0468611111 C0.526928571,0.0468611111 0.103392857,0.431180556 0.103392857,0.905138889 C0.103392857,1.37909722 0.526928571,1.76341667 1.04925,1.76341667 Z" id="Shape"></path>
                    <path d="M1.04925,4.33815278 L1.99510714,4.33815278 C2.51742857,4.33815278 2.94096429,3.95383333 2.94096429,3.479875 C2.94096429,3.00591667 2.51742857,2.62159722 1.99510714,2.62159722 L1.04925,2.62159722 C0.526928571,2.62159722 0.103392857,3.00591667 0.103392857,3.479875 C0.103392857,3.95383333 0.526928571,4.33815278 1.04925,4.33815278 Z" id="Shape"></path>
                    <path d="M1.04925,6.91279167 L1.99510714,6.91279167 C2.51742857,6.91279167 2.94096429,6.52847222 2.94096429,6.05451389 C2.94096429,5.58055556 2.51742857,5.19623611 1.99510714,5.19623611 L1.04925,5.19623611 C0.526928571,5.19623611 0.103392857,5.58055556 0.103392857,6.05451389 C0.103392857,6.52847222 0.526928571,6.91279167 1.04925,6.91279167 Z" id="Shape"></path>
                </g>
                <path d="M6,24 L7,24 C7.55222021,24 8,23.6641556 8,23.2499788 L8,21.7500212 C8,21.3358444 7.55222021,21 7,21 L6,21 C5.44777979,21 5,21.3358444 5,21.7500212 L5,23.2499788 C5.00011328,23.6641556 5.44766652,24 6,24 Z" id="Shape" fill="#96A5B9"></path>
                <g id="Group" transform="translate(38.000000, 4.000000)" fill="#BEC8DC">
                    <path d="M9.98591837,1.00084507 C9.98591837,0.497323944 9.58255102,0.0890328638 9.08510204,0.0890328638 L0.978163265,0.0890328638 C0.480714286,0.0890328638 0.0773469388,0.497323944 0.0773469388,1.00084507 L0.0773469388,6.47151174 L9.98581633,6.47151174 L9.98581633,1.00084507 L9.98591837,1.00084507 Z M8.63479592,5.55969953 L5.03173469,5.55969953 L4.13091837,5.55969953 L1.42857143,5.55969953 C1.17979592,5.55969953 0.978163265,5.35560563 0.978163265,5.10379343 C0.978163265,4.85198122 1.17979592,4.64788732 1.42857143,4.64788732 L4.13091837,4.64788732 L5.03173469,4.64788732 L8.63479592,4.64788732 C8.88357143,4.64788732 9.08520408,4.85198122 9.08520408,5.10379343 C9.08520408,5.35560563 8.88346939,5.55969953 8.63479592,5.55969953 Z M8.63479592,3.73607512 L7.73397959,3.73607512 L6.83316327,3.73607512 L1.42857143,3.73607512 C1.17979592,3.73607512 0.978163265,3.53198122 0.978163265,3.28016901 C0.978163265,3.02835681 1.17979592,2.82426291 1.42857143,2.82426291 L6.83326531,2.82426291 L7.73408163,2.82426291 L8.63489796,2.82426291 C8.88367347,2.82426291 9.08530612,3.02835681 9.08530612,3.28016901 C9.08530612,3.53198122 8.88346939,3.73607512 8.63479592,3.73607512 Z M8.63479592,1.91255399 L3.23010204,1.91255399 L2.32928571,1.91255399 L1.42857143,1.91255399 C1.17979592,1.91255399 0.978163265,1.70846009 0.978163265,1.45664789 C0.978163265,1.20483568 1.17979592,1.00074178 1.42857143,1.00074178 L2.32938776,1.00074178 L3.23020408,1.00074178 L8.63489796,1.00074178 C8.88367347,1.00074178 9.08530612,1.20483568 9.08530612,1.45664789 C9.08530612,1.70846009 8.88346939,1.91255399 8.63479592,1.91255399 Z" id="Shape"></path>
                    <path d="M0.978163265,21.971493 L9.08510204,21.971493 C9.58255102,21.971493 9.98591837,21.5632019 9.98591837,21.0596808 L9.98591837,12.853784 L0.0774489796,12.853784 L0.0774489796,21.0596808 C0.0774489796,21.5633052 0.480714286,21.971493 0.978163265,21.971493 Z M5.03163265,13.7655962 L8.63469388,13.7655962 C8.88346939,13.7655962 9.08510204,13.9696901 9.08510204,14.2215023 C9.08510204,14.4733146 8.88346939,14.6774085 8.63469388,14.6774085 L5.03163265,14.6774085 C4.78285714,14.6774085 4.58122449,14.4733146 4.58122449,14.2215023 C4.58122449,13.9696901 4.78295918,13.7655962 5.03163265,13.7655962 Z M5.03163265,15.5891174 L8.63469388,15.5891174 C8.88346939,15.5891174 9.08510204,15.7932113 9.08510204,16.0450235 C9.08510204,16.2968357 8.88346939,16.5009296 8.63469388,16.5009296 L5.03163265,16.5009296 C4.78285714,16.5009296 4.58122449,16.2968357 4.58122449,16.0450235 C4.58132653,15.7932113 4.78295918,15.5891174 5.03163265,15.5891174 Z M5.03163265,17.4126385 L8.63469388,17.4126385 C8.88346939,17.4126385 9.08510204,17.6167324 9.08510204,17.8685446 C9.08510204,18.1203568 8.88346939,18.3244507 8.63469388,18.3244507 L5.03163265,18.3244507 C4.78285714,18.3244507 4.58122449,18.1203568 4.58122449,17.8685446 C4.58132653,17.6167324 4.78295918,17.4126385 5.03163265,17.4126385 Z M5.03163265,19.2361596 L8.63469388,19.2361596 C8.88346939,19.2361596 9.08510204,19.4402535 9.08510204,19.6920657 C9.08510204,19.9438779 8.88346939,20.1479718 8.63469388,20.1479718 L5.03163265,20.1479718 C4.78285714,20.1479718 4.58122449,19.9438779 4.58122449,19.6920657 C4.58132653,19.4403568 4.78295918,19.2361596 5.03163265,19.2361596 Z M3.23010204,13.7655962 L3.23010204,13.7655962 C3.47887755,13.7655962 3.6805102,13.9696901 3.6805102,14.2215023 C3.6805102,14.4733146 3.47887755,14.6774085 3.23010204,14.6774085 L3.23010204,14.6774085 C2.98132653,14.6774085 2.77969388,14.4733146 2.77969388,14.2215023 C2.77969388,13.9696901 2.98142857,13.7655962 3.23010204,13.7655962 Z M3.23010204,15.5891174 L3.23010204,15.5891174 C3.47887755,15.5891174 3.6805102,15.7932113 3.6805102,16.0450235 C3.6805102,16.2968357 3.47887755,16.5009296 3.23010204,16.5009296 L3.23010204,16.5009296 C2.98132653,16.5009296 2.77969388,16.2968357 2.77969388,16.0450235 C2.77969388,15.7932113 2.98142857,15.5891174 3.23010204,15.5891174 Z M3.23010204,17.4126385 L3.23010204,17.4126385 C3.47887755,17.4126385 3.6805102,17.6167324 3.6805102,17.8685446 C3.6805102,18.1203568 3.47887755,18.3244507 3.23010204,18.3244507 L3.23010204,18.3244507 C2.98132653,18.3244507 2.77969388,18.1203568 2.77969388,17.8685446 C2.77969388,17.6167324 2.98142857,17.4126385 3.23010204,17.4126385 Z M3.23010204,19.2361596 L3.23010204,19.2361596 C3.47887755,19.2361596 3.6805102,19.4402535 3.6805102,19.6920657 C3.6805102,19.9438779 3.47887755,20.1479718 3.23010204,20.1479718 L3.23010204,20.1479718 C2.98132653,20.1479718 2.77969388,19.9438779 2.77969388,19.6920657 C2.77969388,19.4403568 2.98142857,19.2361596 3.23010204,19.2361596 Z M1.42857143,13.7655962 L1.42857143,13.7655962 C1.67734694,13.7655962 1.87897959,13.9696901 1.87897959,14.2215023 C1.87897959,14.4733146 1.67734694,14.6774085 1.42857143,14.6774085 L1.42857143,14.6774085 C1.17979592,14.6774085 0.978163265,14.4733146 0.978163265,14.2215023 C0.978163265,13.9696901 1.17979592,13.7655962 1.42857143,13.7655962 Z M1.42857143,15.5891174 L1.42857143,15.5891174 C1.67734694,15.5891174 1.87897959,15.7932113 1.87897959,16.0450235 C1.87897959,16.2968357 1.67734694,16.5009296 1.42857143,16.5009296 L1.42857143,16.5009296 C1.17979592,16.5009296 0.978163265,16.2968357 0.978163265,16.0450235 C0.978163265,15.7932113 1.17979592,15.5891174 1.42857143,15.5891174 Z M1.42857143,17.4126385 L1.42857143,17.4126385 C1.67734694,17.4126385 1.87897959,17.6167324 1.87897959,17.8685446 C1.87897959,18.1203568 1.67734694,18.3244507 1.42857143,18.3244507 L1.42857143,18.3244507 C1.17979592,18.3244507 0.978163265,18.1203568 0.978163265,17.8685446 C0.978163265,17.6167324 1.17979592,17.4126385 1.42857143,17.4126385 Z M1.42857143,19.2361596 L1.42857143,19.2361596 C1.67734694,19.2361596 1.87897959,19.4402535 1.87897959,19.6920657 C1.87897959,19.9438779 1.67734694,20.1479718 1.42857143,20.1479718 L1.42857143,20.1479718 C1.17979592,20.1479718 0.978163265,19.9438779 0.978163265,19.6920657 C0.978163265,19.4403568 1.17979592,19.2361596 1.42857143,19.2361596 Z" id="Shape"></path>
                </g>
                <g id="Group" transform="translate(38.000000, 5.000000)" fill="#96A5B9">
                    <path d="M9.98591837,5.55051724 L0.0774489796,5.55051724 L0.0774489796,11.9428966 L9.98591837,11.9428966 L9.98591837,5.55051724 Z M2.32938776,11.0297586 L1.42857143,11.0297586 C1.17979592,11.0297586 0.978163265,10.8253448 0.978163265,10.5731379 C0.978163265,10.320931 1.17979592,10.1165172 1.42857143,10.1165172 L2.32938776,10.1165172 C2.57816327,10.1165172 2.77979592,10.320931 2.77979592,10.5731379 C2.77979592,10.8253448 2.57806122,11.0297586 2.32938776,11.0297586 Z M2.32938776,9.20337931 L1.42857143,9.20337931 C1.17979592,9.20337931 0.978163265,8.99896552 0.978163265,8.74675862 C0.978163265,8.49455172 1.17979592,8.29013793 1.42857143,8.29013793 L2.32938776,8.29013793 C2.57816327,8.29013793 2.77979592,8.49455172 2.77979592,8.74675862 C2.77979592,8.99896552 2.57806122,9.20337931 2.32938776,9.20337931 Z M2.32938776,7.37689655 L1.42857143,7.37689655 C1.17979592,7.37689655 0.978163265,7.17248276 0.978163265,6.92027586 C0.978163265,6.66806897 1.17979592,6.46365517 1.42857143,6.46365517 L2.32938776,6.46365517 C2.57816327,6.46365517 2.77979592,6.66806897 2.77979592,6.92027586 C2.77979592,7.17248276 2.57806122,7.37689655 2.32938776,7.37689655 Z M8.63479592,11.0297586 L4.13091837,11.0297586 C3.88214286,11.0297586 3.6805102,10.8253448 3.6805102,10.5731379 C3.6805102,10.320931 3.88214286,10.1165172 4.13091837,10.1165172 L8.63479592,10.1165172 C8.88357143,10.1165172 9.08520408,10.320931 9.08520408,10.5731379 C9.08520408,10.8253448 8.88346939,11.0297586 8.63479592,11.0297586 Z M8.63479592,9.20337931 L4.13091837,9.20337931 C3.88214286,9.20337931 3.6805102,8.99896552 3.6805102,8.74675862 C3.6805102,8.49455172 3.88214286,8.29013793 4.13091837,8.29013793 L8.63479592,8.29013793 C8.88357143,8.29013793 9.08520408,8.49455172 9.08520408,8.74675862 C9.08520408,8.99896552 8.88346939,9.20337931 8.63479592,9.20337931 Z M8.63479592,7.37689655 L4.13091837,7.37689655 C3.88214286,7.37689655 3.6805102,7.17248276 3.6805102,6.92027586 C3.6805102,6.66806897 3.88214286,6.46365517 4.13091837,6.46365517 L8.63479592,6.46365517 C8.88357143,6.46365517 9.08520408,6.66806897 9.08520408,6.92027586 C9.08520408,7.17248276 8.88346939,7.37689655 8.63479592,7.37689655 Z" id="Shape"></path>
                    <path d="M8.63479592,0.0713793103 L3.23010204,0.0713793103 C3.47887755,0.0713793103 3.6805102,0.275793103 3.6805102,0.528 C3.6805102,0.780206897 3.47887755,0.98462069 3.23010204,0.98462069 L8.63479592,0.98462069 C8.88357143,0.98462069 9.08520408,0.780206897 9.08520408,0.528 C9.08520408,0.275793103 8.88346939,0.0713793103 8.63479592,0.0713793103 Z" id="Shape"></path>
                    <path d="M1.87897959,0.527896552 C1.87897959,0.275689655 2.08061224,0.0712758621 2.32938776,0.0712758621 L1.42857143,0.0712758621 C1.17979592,0.0712758621 0.978163265,0.275689655 0.978163265,0.527896552 C0.978163265,0.780103448 1.17979592,0.984517241 1.42857143,0.984517241 L2.32938776,0.984517241 C2.08061224,0.984517241 1.87897959,0.780103448 1.87897959,0.527896552 Z" id="Shape"></path>
                    <path d="M8.63479592,3.72413793 L5.03173469,3.72413793 C5.2805102,3.72413793 5.48214286,3.92855172 5.48214286,4.18075862 C5.48214286,4.43296552 5.2805102,4.63737931 5.03173469,4.63737931 L8.63479592,4.63737931 C8.88357143,4.63737931 9.08520408,4.43296552 9.08520408,4.18075862 C9.08520408,3.92855172 8.88346939,3.72413793 8.63479592,3.72413793 Z" id="Shape"></path>
                    <path d="M3.6805102,4.18075862 C3.6805102,3.92855172 3.88214286,3.72413793 4.13091837,3.72413793 L1.42857143,3.72413793 C1.17979592,3.72413793 0.978163265,3.92855172 0.978163265,4.18075862 C0.978163265,4.43296552 1.17979592,4.63737931 1.42857143,4.63737931 L4.13091837,4.63737931 C3.88214286,4.63737931 3.6805102,4.43286207 3.6805102,4.18075862 Z" id="Shape"></path>
                </g>
                <path d="M45.5833176,12 L41.4166824,12 C41.1865348,12 41,12.2238333 41,12.5 C41,12.7761667 41.1865348,13 41.4166824,13 L45.5833176,13 C45.8134652,13 46,12.7761667 46,12.5 C46,12.2238333 45.8133708,12 45.5833176,12 Z" id="Shape" fill="#BEC8DC"></path>
                <g id="Group" transform="translate(39.000000, 7.000000)" fill="#96A5B9">
                    <path d="M5.28908642,0.4759 C5.28908642,0.2321 5.48424691,0.0345 5.72503704,0.0345 L0.49382716,0.0345 C0.253037037,0.0345 0.0578765432,0.2321 0.0578765432,0.4759 C0.0578765432,0.7197 0.253037037,0.9173 0.49382716,0.9173 L5.72503704,0.9173 C5.48424691,0.9172 5.28908642,0.7196 5.28908642,0.4759 Z" id="Shape"></path>
                    <path d="M7.46874074,0.0345 L6.59683951,0.0345 C6.83762963,0.0345 7.03279012,0.2321 7.03279012,0.4759 C7.03279012,0.7197 6.83762963,0.9173 6.59683951,0.9173 L7.46874074,0.9173 C7.70953086,0.9173 7.90469136,0.7197 7.90469136,0.4759 C7.90469136,0.2321 7.7094321,0.0345 7.46874074,0.0345 Z" id="Shape"></path>
                </g>
                <g id="Group" transform="translate(39.000000, 5.000000)" fill="#E4EAF6">
                    <path d="M3.00766667,0.496125 C3.00766667,0.259097222 2.78811111,0.0669861111 2.51722222,0.0669861111 L1.53633333,0.0669861111 C1.26544444,0.0669861111 1.04588889,0.259097222 1.04588889,0.496125 C1.04588889,0.733152778 1.26544444,0.925263889 1.53633333,0.925263889 L2.51722222,0.925263889 C2.78811111,0.925263889 3.00766667,0.733152778 3.00766667,0.496125 Z" id="Shape"></path>
                    <path d="M4.96933333,3.92913889 C4.96933333,3.69211111 4.74977778,3.5 4.47888889,3.5 L3.498,3.5 C3.22711111,3.5 3.00755556,3.69211111 3.00755556,3.92913889 C3.00755556,4.16616667 3.22711111,4.35827778 3.498,4.35827778 L4.47888889,4.35827778 C4.74977778,4.35827778 4.96933333,4.16606944 4.96933333,3.92913889 Z" id="Shape"></path>
                    <path d="M1.53644444,6.07473611 L0.555555556,6.07473611 C0.284666667,6.07473611 0.0651111111,6.26684722 0.0651111111,6.503875 C0.0651111111,6.74090278 0.284666667,6.93301389 0.555555556,6.93301389 L1.53644444,6.93301389 C1.80733333,6.93301389 2.02688889,6.74090278 2.02688889,6.503875 C2.02688889,6.26684722 1.80722222,6.07473611 1.53644444,6.07473611 Z" id="Shape"></path>
                </g>
                <path d="M45.5833176,13 L41.4166824,13 C41.1865348,13 41,13.2238333 41,13.5 C41,13.7761667 41.1865348,14 41.4166824,14 L45.5833176,14 C45.8134652,14 46,13.7761667 46,13.5 C46,13.2238333 45.8133708,13 45.5833176,13 Z" id="Shape" fill="#BEC8DC"></path>
                <path d="M40.5,13 L39.5,13 C39.2238333,13 39,13.2238333 39,13.5 C39,13.7761667 39.2238333,14 39.5,14 L40.5,14 C40.7761667,14 41,13.7761667 41,13.5 C41,13.2238333 40.7760535,13 40.5,13 Z" id="Shape" fill="#E4EAF6"></path>
                <path d="M45.5833176,15 L41.4166824,15 C41.1865348,15 41,15.2238333 41,15.5 C41,15.7761667 41.1865348,16 41.4166824,16 L45.5833176,16 C45.8134652,16 46,15.7761667 46,15.5 C46,15.2238333 45.8133708,15 45.5833176,15 Z" id="Shape" fill="#BEC8DC"></path>
                <g id="Group" transform="translate(39.000000, 15.000000)" fill="#E4EAF6">
                    <path d="M1.45557895,0.0793 L0.526315789,0.0793 C0.269684211,0.0793 0.0616842105,0.2769 0.0616842105,0.5207 C0.0616842105,0.7645 0.269684211,0.9621 0.526315789,0.9621 L1.45557895,0.9621 C1.71221053,0.9621 1.92021053,0.7645 1.92021053,0.5207 C1.92021053,0.2769 1.71210526,0.0793 1.45557895,0.0793 Z" id="Shape"></path>
                    <path d="M0.526315789,5.3759 L0.526315789,5.3759 C0.782947368,5.3759 0.990947368,5.1783 0.990947368,4.9345 C0.990947368,4.6907 0.782947368,4.4931 0.526315789,4.4931 L0.526315789,4.4931 C0.269684211,4.4931 0.0616842105,4.6907 0.0616842105,4.9345 C0.0616842105,5.1782 0.269684211,5.3759 0.526315789,5.3759 Z" id="Shape"></path>
                    <path d="M0.526315789,3.6103 L0.526315789,3.6103 C0.782947368,3.6103 0.990947368,3.4127 0.990947368,3.1689 C0.990947368,2.9251 0.782947368,2.7275 0.526315789,2.7275 L0.526315789,2.7275 C0.269684211,2.7275 0.0616842105,2.9251 0.0616842105,3.1689 C0.0616842105,3.4127 0.269684211,3.6103 0.526315789,3.6103 Z" id="Shape"></path>
                    <path d="M0.526315789,8.9069 L0.526315789,8.9069 C0.782947368,8.9069 0.990947368,8.7093 0.990947368,8.4655 C0.990947368,8.2217 0.782947368,8.0241 0.526315789,8.0241 L0.526315789,8.0241 C0.269684211,8.0241 0.0616842105,8.2217 0.0616842105,8.4655 C0.0616842105,8.7093 0.269684211,8.9069 0.526315789,8.9069 Z" id="Shape"></path>
                    <path d="M0.526315789,7.1414 L0.526315789,7.1414 C0.782947368,7.1414 0.990947368,6.9438 0.990947368,6.7 C0.990947368,6.4562 0.782947368,6.2586 0.526315789,6.2586 L0.526315789,6.2586 C0.269684211,6.2586 0.0616842105,6.4562 0.0616842105,6.7 C0.0616842105,6.9438 0.269684211,7.1414 0.526315789,7.1414 Z" id="Shape"></path>
                </g>
                <g id="Group" transform="translate(40.000000, 18.000000)" fill="#96A5B9">
                    <path d="M0.443333333,2.54847619 L0.443333333,2.54847619 C0.67552381,2.54847619 0.863714286,2.36028571 0.863714286,2.12809524 C0.863714286,1.89590476 0.67552381,1.70771429 0.443333333,1.70771429 L0.443333333,1.70771429 C0.211142857,1.70771429 0.022952381,1.89590476 0.022952381,2.12809524 C0.022952381,2.36019048 0.211238095,2.54847619 0.443333333,2.54847619 Z" id="Shape"></path>
                    <path d="M0.443333333,0.866952381 L0.443333333,0.866952381 C0.67552381,0.866952381 0.863714286,0.678761905 0.863714286,0.446571429 C0.863714286,0.214380952 0.67552381,0.0261904762 0.443333333,0.0261904762 L0.443333333,0.0261904762 C0.211142857,0.0261904762 0.022952381,0.214380952 0.022952381,0.446571429 C0.022952381,0.678761905 0.211238095,0.866952381 0.443333333,0.866952381 Z" id="Shape"></path>
                    <path d="M0.443333333,5.91133333 L0.443333333,5.91133333 C0.67552381,5.91133333 0.863714286,5.72314286 0.863714286,5.49095238 C0.863714286,5.2587619 0.67552381,5.07057143 0.443333333,5.07057143 L0.443333333,5.07057143 C0.211142857,5.07057143 0.022952381,5.2587619 0.022952381,5.49095238 C0.022952381,5.72314286 0.211238095,5.91133333 0.443333333,5.91133333 Z" id="Shape"></path>
                    <path d="M0.443333333,4.22990476 L0.443333333,4.22990476 C0.67552381,4.22990476 0.863714286,4.04171429 0.863714286,3.80952381 C0.863714286,3.57733333 0.67552381,3.38914286 0.443333333,3.38914286 L0.443333333,3.38914286 C0.211142857,3.38914286 0.022952381,3.57733333 0.022952381,3.80952381 C0.022952381,4.04171429 0.211238095,4.22990476 0.443333333,4.22990476 Z" id="Shape"></path>
                    <path d="M2.1247619,2.54847619 L5.48761905,2.54847619 C5.71980952,2.54847619 5.908,2.36028571 5.908,2.12809524 C5.908,1.89590476 5.71980952,1.70771429 5.48761905,1.70771429 L2.1247619,1.70771429 C1.89257143,1.70771429 1.70438095,1.89590476 1.70438095,2.12809524 C1.70447619,2.36019048 1.89266667,2.54847619 2.1247619,2.54847619 Z" id="Shape"></path>
                    <path d="M2.1247619,0.866952381 L5.48761905,0.866952381 C5.71980952,0.866952381 5.908,0.678761905 5.908,0.446571429 C5.908,0.214380952 5.71980952,0.0261904762 5.48761905,0.0261904762 L2.1247619,0.0261904762 C1.89257143,0.0261904762 1.70438095,0.214380952 1.70438095,0.446571429 C1.70438095,0.678761905 1.89266667,0.866952381 2.1247619,0.866952381 Z" id="Shape"></path>
                    <path d="M2.1247619,5.91133333 L5.48761905,5.91133333 C5.71980952,5.91133333 5.908,5.72314286 5.908,5.49095238 C5.908,5.2587619 5.71980952,5.07057143 5.48761905,5.07057143 L2.1247619,5.07057143 C1.89257143,5.07057143 1.70438095,5.2587619 1.70438095,5.49095238 C1.70447619,5.72314286 1.89266667,5.91133333 2.1247619,5.91133333 Z" id="Shape"></path>
                    <path d="M2.1247619,4.22990476 L5.48761905,4.22990476 C5.71980952,4.22990476 5.908,4.04171429 5.908,3.80952381 C5.908,3.57733333 5.71980952,3.38914286 5.48761905,3.38914286 L2.1247619,3.38914286 C1.89257143,3.38914286 1.70438095,3.57733333 1.70438095,3.80952381 C1.70447619,4.04171429 1.89266667,4.22990476 2.1247619,4.22990476 Z" id="Shape"></path>
                </g>
                <path d="M46,7.5 C46,7.22383326 45.7761667,7 45.5,7 L44.5,7 C44.2238333,7 44,7.22383326 44,7.5 C44,7.77616674 44.2238333,8 44.5,8 L45.5,8 C45.7761667,7.99988672 46,7.77605347 46,7.5 Z" id="Shape" fill="#E4EAF6"></path>
                <path d="M13.9230126,17 L20.8460774,17 L20.8460774,15.1538703 L14.8460252,15.1538703 L14.8460252,6.84623428 L23.1536612,6.84623428 L23.1536612,12.846182 C23.4088045,12.846182 23.6152197,13.0525972 23.6152197,13.3077406 C23.6152197,13.562884 23.4088045,13.7692991 23.1536612,13.7692991 L23.1536612,15.1538703 L21.76909,15.1538703 L21.76909,17 L24.0767783,17 C24.0899537,17 24.1027109,16.9986406 24.1157818,16.9980132 L24.1231015,16.4432855 C24.1272841,16.1251928 24.5038298,15.959977 24.7407785,16.1721434 L24.9541997,16.3632918 C24.983583,16.2730505 25,16.1769534 25,16.0768829 L25,13.7691946 C24.7448566,13.7691946 24.5384414,13.5627794 24.5384414,13.307636 C24.5384414,13.0524926 24.7448566,12.8460774 25,12.8460774 L25,5.92311714 C25,5.41293493 24.5866468,5 24.0768829,5 L13.9231172,5 C13.4133532,5 13,5.41283037 13,5.92311714 L13,16.0768829 C12.9998955,16.5871696 13.4132487,17 13.9230126,17 Z" id="Shape" fill="#FF6469"></path>
                <g id="Group" transform="translate(20.000000, 12.000000)" fill="#96A5B9">
                    <path d="M0.488276119,7.79466418 C0.724992537,7.79466418 0.9165,7.60315672 0.9165,7.3664403 L0.9165,5.65364179 C0.9165,5.41692537 0.724992537,5.22541791 0.488276119,5.22541791 C0.251559701,5.22541791 0.0600522388,5.41692537 0.0600522388,5.65364179 L0.0600522388,7.3664403 C0.0601492537,7.60315672 0.251656716,7.79466418 0.488276119,7.79466418 Z" id="Shape"></path>
                    <path d="M10.7651642,12.9330597 L12.4779627,12.9330597 C12.7146791,12.9330597 12.9061866,12.7415522 12.9061866,12.5048358 C12.9061866,12.2681194 12.7146791,12.0766119 12.4779627,12.0766119 L10.7651642,12.0766119 C10.5284478,12.0766119 10.3369403,12.2681194 10.3369403,12.5048358 C10.3369403,12.7415522 10.5285448,12.9330597 10.7651642,12.9330597 Z" id="Shape"></path>
                    <path d="M12.4780597,8.65101493 C12.2413433,8.65101493 12.0498358,8.84252239 12.0498358,9.07923881 L12.0498358,10.7920373 C12.0498358,11.0287537 12.2413433,11.2202612 12.4780597,11.2202612 C12.7147761,11.2202612 12.9062836,11.0287537 12.9062836,10.7920373 L12.9062836,9.07923881 C12.9061866,8.84252239 12.7146791,8.65101493 12.4780597,8.65101493 Z" id="Shape"></path>
                    <path d="M10.7651642,0.943373134 L12.4779627,0.943373134 C12.7146791,0.943373134 12.9061866,0.751865672 12.9061866,0.515149254 C12.9061866,0.278432836 12.7146791,0.0869253731 12.4779627,0.0869253731 L10.7651642,0.0869253731 C10.5284478,0.0869253731 10.3369403,0.278432836 10.3369403,0.515149254 C10.3370373,0.751865672 10.5285448,0.943373134 10.7651642,0.943373134 Z" id="Shape"></path>
                    <path d="M12.4780597,1.7998209 C12.2413433,1.7998209 12.0498358,1.99132836 12.0498358,2.22804478 L12.0498358,3.94084328 C12.0498358,4.1775597 12.2413433,4.36906716 12.4780597,4.36906716 C12.7147761,4.36906716 12.9062836,4.1775597 12.9062836,3.94084328 L12.9062836,2.22804478 C12.9061866,1.99132836 12.7146791,1.7998209 12.4780597,1.7998209 Z" id="Shape"></path>
                    <path d="M5.62676866,12.076709 L3.91397015,12.076709 C3.67725373,12.076709 3.48574627,12.2682164 3.48574627,12.5049328 C3.48574627,12.7416493 3.67725373,12.9331567 3.91397015,12.9331567 L5.62676866,12.9331567 C5.86348507,12.9331567 6.05499254,12.7416493 6.05499254,12.5049328 C6.05499254,12.2682164 5.86348507,12.076709 5.62676866,12.076709 Z" id="Shape"></path>
                    <path d="M0.488276119,1.7998209 C0.251559701,1.7998209 0.0600522388,1.99132836 0.0600522388,2.22804478 L0.0600522388,3.94084328 C0.0600522388,4.1775597 0.251559701,4.36906716 0.488276119,4.36906716 C0.724992537,4.36906716 0.9165,4.1775597 0.9165,3.94084328 L0.9165,2.22804478 C0.9165,1.99132836 0.724992537,1.7998209 0.488276119,1.7998209 Z" id="Shape"></path>
                    <path d="M2.20117164,12.076709 L0.488373134,12.076709 C0.251656716,12.076709 0.0601492537,12.2682164 0.0601492537,12.5049328 C0.0601492537,12.7416493 0.251656716,12.9331567 0.488373134,12.9331567 L2.20117164,12.9331567 C2.43788806,12.9331567 2.62939552,12.7416493 2.62939552,12.5049328 C2.62939552,12.2682164 2.43779104,12.076709 2.20117164,12.076709 Z" id="Shape"></path>
                    <path d="M0.0601492537,10.7920373 C0.0601492537,11.0287537 0.251656716,11.2202612 0.488373134,11.2202612 C0.725089552,11.2202612 0.916597015,11.0287537 0.916597015,10.7920373 L0.916597015,9.07923881 C0.916597015,8.84252239 0.725089552,8.65101493 0.488373134,8.65101493 C0.251656716,8.65101493 0.0601492537,8.84252239 0.0601492537,9.07923881 L0.0601492537,10.7920373 Z" id="Shape"></path>
                    <path d="M12.4780597,5.22541791 C12.2413433,5.22541791 12.0498358,5.41692537 12.0498358,5.65364179 L12.0498358,7.3664403 C12.0498358,7.60315672 12.2413433,7.79466418 12.4780597,7.79466418 C12.7147761,7.79466418 12.9062836,7.60315672 12.9062836,7.3664403 L12.9062836,5.65364179 C12.9061866,5.41692537 12.7146791,5.22541791 12.4780597,5.22541791 Z" id="Shape"></path>
                    <path d="M7.33956716,0.943373134 L9.05236567,0.943373134 C9.28908209,0.943373134 9.48058955,0.751865672 9.48058955,0.515149254 C9.48058955,0.278432836 9.28908209,0.0869253731 9.05236567,0.0869253731 L7.33956716,0.0869253731 C7.10285075,0.0869253731 6.91134328,0.278432836 6.91134328,0.515149254 C6.91134328,0.751865672 7.10285075,0.943373134 7.33956716,0.943373134 Z" id="Shape"></path>
                    <path d="M0.0601492537,0.515149254 C0.0601492537,0.751865672 0.251656716,0.943373134 0.488373134,0.943373134 L2.20117164,0.943373134 C2.43788806,0.943373134 2.62939552,0.751865672 2.62939552,0.515149254 C2.62939552,0.278432836 2.43788806,0.0869253731 2.20117164,0.0869253731 L0.488373134,0.0869253731 C0.251656716,0.0870223881 0.0601492537,0.278529851 0.0601492537,0.515149254 Z" id="Shape"></path>
                    <path d="M7.33956716,12.9330597 L9.05236567,12.9330597 C9.28908209,12.9330597 9.48058955,12.7415522 9.48058955,12.5048358 C9.48058955,12.2681194 9.28908209,12.0766119 9.05236567,12.0766119 L7.33956716,12.0766119 C7.10285075,12.0766119 6.91134328,12.2681194 6.91134328,12.5048358 C6.91134328,12.7415522 7.10285075,12.9330597 7.33956716,12.9330597 Z" id="Shape"></path>
                    <path d="M3.48574627,0.515149254 C3.48574627,0.751865672 3.67725373,0.943373134 3.91397015,0.943373134 L5.62676866,0.943373134 C5.86348507,0.943373134 6.05499254,0.751865672 6.05499254,0.515149254 C6.05499254,0.278432836 5.86348507,0.0869253731 5.62676866,0.0869253731 L3.91397015,0.0869253731 C3.67725373,0.0870223881 3.48574627,0.278529851 3.48574627,0.515149254 Z" id="Shape"></path>
                </g>
                <path d="M23.0404464,15.367055 L23.0340308,15.9227861 L23.0000281,18.9118966 C22.9970036,19.1818531 23.2389637,19.3651763 23.4552613,19.2565442 L24.2600536,18.8528142 L24.9786934,20.7236534 C25.0454158,20.8970248 25.1936163,21 25.3496073,21 C25.4036817,21 25.4590392,20.9874293 25.5119222,20.9611355 C25.7162135,20.8581602 25.8093315,20.5854801 25.7197879,20.3516645 L25.0012397,18.4810348 L25.805757,18.0774096 C26.0219631,17.9688822 26.0677888,17.6413099 25.8919095,17.4610247 L23.7688013,15.2869165 L23.5817405,15.0954224 C23.3741497,14.8827675 23.0440208,15.0483869 23.0404464,15.367055 Z" id="Shape" fill="#464655"></path>
            </g>
        </g>
    </g>
</svg>