<?xml version="1.0" encoding="UTF-8"?>
<svg width="34px" height="45px" viewBox="0 0 34 45" version="1.1" xmlns="http://www.w3.org/2000/svg" xmlns:xlink="http://www.w3.org/1999/xlink">
    <!-- Generator: Sketch 47 (45396) - http://www.bohemiancoding.com/sketch -->
    <title>003-smartphone</title>
    <desc>Created with Sketch.</desc>
    <defs></defs>
    <g id="دایره-خودتو-بساز" stroke="none" stroke-width="1" fill="none" fill-rule="evenodd">
        <g id="Desktop-HD" transform="translate(-865.000000, -177.000000)" fill-rule="nonzero">
            <g id="003-smartphone" transform="translate(865.000000, 177.000000)">
                <rect id="Rectangle-path" fill="#C8D2D6" x="15" y="36" width="18" height="9"></rect>
                <path d="M27,45 L15,45 L15,36 L22.0695,36 C24.79275,36 27,38.4079091 27,41.3787273 L27,45 Z" id="Shape" fill="#E7ECED"></path>
                <circle id="Oval" fill="#7383BF" cx="21" cy="41" r="2"></circle>
                <path d="M20.4362877,9 C21.3561623,8.59564309 22,7.67949866 22,6.61116085 C22,5.16905401 20.830946,4 19.3888392,4 C18.3197553,4 17.4036109,4.64383766 17,5.56371232 L20.4362877,9 Z" id="Shape" fill="#FBCE9D"></path>
                <path d="M24.4362877,12 C25.3561623,11.5956431 26,10.6794987 26,9.61116085 C26,8.16905401 24.830946,7 23.3888392,7 C22.3197553,7 21.4036109,7.64383766 21,8.56371232 L24.4362877,12 Z" id="Shape" fill="#FBCE9D"></path>
                <path d="M29.4362877,16 C30.3561623,15.5956431 31,14.6794987 31,13.6111608 C31,12.169054 29.830946,11 28.3888392,11 C27.3197553,11 26.4036109,11.6438377 26,12.5637123 L29.4362877,16 Z" id="Shape" fill="#FBCE9D"></path>
                <path d="M32.4362877,20 C33.3561623,19.5956431 34,18.6794987 34,17.6111608 C34,16.169054 32.830946,15 31.3888392,15 C30.3197553,15 29.4036109,15.6438377 29,16.5637123 L32.4362877,20 Z" id="Shape" fill="#FBCE9D"></path>
                <path d="M16.3235294,26 L8.67647059,26 C7.20441176,26 6,24.875 6,23.5 L6,23.5 C6,22.125 7.20441176,21 8.67647059,21 L16.3235294,21 C17.7955882,21 19,22.125 19,23.5 L19,23.5 C19,24.875 17.7955882,26 16.3235294,26 Z" id="Shape" fill="#FBCE9D"></path>
                <path d="M32.5270249,24 L23.7444603,32.6441666 C23.0368004,33.340675 21.8892225,33.340675 21.1823524,32.6441666 L13.5355187,25.1170564 L8.33153325,25.1170564 C7.87502944,25.3370474 6.62951646,24.5433698 7.10734484,24.9468161 L15.6466514,33.3189091 C15.7050965,33.3764332 15.7730192,33.417633 15.8346235,33.4697156 L15.8346235,36 L31.6306031,36 L31.6306031,32.4941375 C33.0672474,31.4299411 34,29.7438621 34,27.8377923 C33.9992102,26.3662629 33.4408223,25.0261061 32.5270249,24 Z" id="Shape" fill="#F7B563"></path>
                <path d="M13.9455917,2 L2,13.9452641 L7.82959002,19.7746942 C7.92557247,19.7647123 8.01848348,19.7455164 8.11600165,19.7455164 L15.7945976,19.7455164 C17.2727273,19.7455164 18.4821061,20.9548621 18.4821061,22.4329512 C18.4821061,23.9110404 17.2727273,25.1203861 15.7945976,25.1203861 L13.1754285,25.1203861 L18.0551762,30 L30,18.0547359 L13.9455917,2 Z" id="Shape" fill="#424A60"></path>
                <g id="Group" fill="#E7ECED">
                    <path d="M14.5033182,2.23240909 L12.7901818,0.519272727 C12.0978182,-0.173090909 10.9750455,-0.173090909 10.2834545,0.519272727 L0.768863636,10.0330909 C0.0765,10.7254545 0.0765,11.8482273 0.768863636,12.5405909 L2.482,14.2537273 L14.5033182,2.23240909 Z" id="Shape"></path>
                    <path d="M33.2311364,20.961 L30.6595,18.3893636 L18.6389545,30.4106818 L21.2098182,32.9815455 C21.9021818,33.6739091 23.0249545,33.6739091 23.7165455,32.9815455 L33.2303636,23.4677273 C33.9235,22.7761364 33.9235,21.6533636 33.2311364,20.961 Z" id="Shape"></path>
                </g>
                <circle id="Oval" fill="#FFFFFF" cx="28" cy="26" r="2"></circle>
                <path d="M7.00012498,9 C6.74415698,9 6.48818898,8.90200612 6.29321335,8.70701831 C5.90226222,8.31604275 5.90226222,7.68408224 6.29321335,7.29310668 L8.29296338,5.29323167 C8.68391451,4.90225611 9.31583552,4.90225611 9.70678665,5.29323167 C10.0977378,5.68420724 10.0977378,6.31616774 9.70678665,6.7071433 L7.70703662,8.70701831 C7.51206099,8.90200612 7.25609299,9 7.00012498,9 Z" id="Shape" fill="#424A60"></path>
            </g>
        </g>
    </g>
</svg>