<?xml version="1.0" encoding="UTF-8"?>
<svg width="42px" height="42px" viewBox="0 0 42 42" version="1.1" xmlns="http://www.w3.org/2000/svg" xmlns:xlink="http://www.w3.org/1999/xlink">
    <!-- Generator: Sketch 47 (45396) - http://www.bohemiancoding.com/sketch -->
    <title>at</title>
    <desc>Created with Sketch.</desc>
    <defs></defs>
    <g id="دایره-خودتو-بساز" stroke="none" stroke-width="1" fill="none" fill-rule="evenodd">
        <g id="Desktop-HD" transform="translate(-813.000000, -954.000000)" fill-rule="nonzero" fill="#FFFFFF">
            <g id="Footer" transform="translate(0.000000, 924.000000)">
                <g id="at" transform="translate(813.000000, 30.000000)">
                    <path d="M36.2000412,5.29498164 C32.3362832,1.76499388 27.530356,0 21.7909035,0 C15.7575633,0 10.6145297,2.00489596 6.37044659,6.02325581 C2.12636345,10.0416157 0,15.0367197 0,21.0171359 C0,26.749082 2.0226384,31.6756426 6.05927146,35.8053856 C10.113192,39.9351285 15.5587569,42 22.4132538,42 C26.5449681,42 30.5988887,41.1603427 34.5750154,39.4724602 C35.8715785,38.9241126 36.5025725,37.4504284 35.9753036,36.1566707 L35.9753036,36.1566707 C35.4307471,34.8200734 33.8921589,34.2031824 32.552377,34.7686659 C29.0948755,36.2423501 25.706524,36.9791922 22.40461,36.9791922 C17.1492077,36.9791922 13.0779996,35.3941248 10.1909858,32.2154223 C7.31261576,29.0452876 5.86910887,25.3182375 5.86910887,21.0428397 C5.86910887,16.3990208 7.41634081,12.5263158 10.5021609,9.41615667 C13.5793373,6.31456548 17.3739453,4.75520196 21.8686973,4.75520196 C26.0090554,4.75520196 29.5097757,6.03182375 32.3622144,8.58506732 C35.2146532,11.1383109 36.6408726,14.3512852 36.6408726,18.2239902 C36.6408726,20.871481 35.9839473,23.0820073 34.6787405,24.8384333 C33.3735336,26.6034272 32.0164643,27.4773562 30.6075324,27.4773562 C29.8468821,27.4773562 29.4665569,27.0746634 29.4665569,26.2607099 C29.4665569,25.6009792 29.5184194,24.8298654 29.6135007,23.9388005 L31.2212389,10.9069767 L25.6892365,10.9069767 L25.3348426,12.1835985 C23.9259107,11.0440636 22.3786787,10.4700122 20.7017905,10.4700122 C18.0395143,10.4700122 15.7575633,11.5238678 13.8645812,13.623011 C11.9629553,15.7221542 11.0207862,18.4296206 11.0207862,21.7368421 C11.0207862,24.9669523 11.8592303,27.5801714 13.5447623,29.5593635 C15.2302943,31.5471236 17.2529327,32.5324357 19.6213213,32.5324357 C21.739041,32.5324357 23.5455855,31.6499388 25.0495987,29.8935129 C26.1819304,31.5813953 27.8501749,32.4210526 30.0543322,32.4210526 C33.2957399,32.4210526 36.0963161,31.0244798 38.4560609,28.2227662 C40.8158057,25.4296206 42,22.0538556 42,18.1040392 C42,13.1003672 40.0724429,8.8249694 36.2000412,5.29498164 Z M23.459148,25.0097919 C22.4824038,26.3121175 21.315497,26.9718482 19.9584277,26.9718482 C19.033546,26.9718482 18.2901832,26.4920441 17.7283392,25.5324357 C17.1578514,24.5728274 16.8726075,23.3818849 16.8726075,21.9510404 C16.8726075,20.1860465 17.2702202,18.7637699 18.0654456,17.6842105 C18.8606709,16.6046512 19.8460589,16.0563035 21.0216094,16.0563035 C22.0415723,16.0563035 22.9491665,16.4589963 23.7443919,17.2729498 C24.5396172,18.0869033 24.9372299,19.1664627 24.9372299,20.5201958 C24.9285861,22.2080783 24.4358922,23.6988984 23.459148,25.0097919 Z" id="Shape"></path>
                </g>
            </g>
        </g>
    </g>
</svg>