<?xml version="1.0" encoding="UTF-8"?>
<svg width="148px" height="92px" viewBox="0 0 148 92" version="1.1" xmlns="http://www.w3.org/2000/svg" xmlns:xlink="http://www.w3.org/1999/xlink">
    <!-- Generator: Sketch 47 (45396) - http://www.bohemiancoding.com/sketch -->
    <title>icon</title>
    <desc>Created with Sketch.</desc>
    <defs></defs>
    <g id="Page-1" stroke="none" stroke-width="1" fill="none" fill-rule="evenodd">
        <g id="icon" transform="translate(1.000000, 0.000000)">
            <path d="M46,87.75 C67.3980172,87.75 84.75,70.1734768 84.75,48.5 C84.75,26.8259495 67.3990861,9.25 46,9.25 C24.6009139,9.25 7.25,26.8259495 7.25,48.5 C7.25,70.1734768 24.6019828,87.75 46,87.75 Z" id="Ellipse_1_copy_5-path" stroke="#FF692D" stroke-width="0.5"></path>
            <path d="M46.4983729,81.75 C67.0714805,81.75 83.75,65.071574 83.75,44.4991878 C83.75,23.9265512 67.0728572,7.25 46.4983729,7.25 C25.9239534,7.25 9.25,23.9248621 9.25,44.4991878 C9.25,65.0738269 25.9242666,81.75 46.4983729,81.75 Z" id="Ellipse_1_copy_5-path" stroke="#FF692D" stroke-width="0.5"></path>
            <path d="M49.9983661,86.75 C71.9514123,86.75 89.75,68.9525957 89.75,47 C89.75,25.0474043 71.9514123,7.25 49.9983661,7.25 C28.0453845,7.25 10.25,25.0457085 10.25,47 C10.25,68.9542915 28.0453845,86.75 49.9983661,86.75 Z" id="Ellipse_1_copy_5-path" stroke="#FF692D" stroke-width="0.5"></path>
            <path d="M46.2508147,84.7492757 L46.2508147,84.7483734 L46.5008147,84.7483734 C69.8337449,84.7483734 88.75,65.8316053 88.75,42.5 C88.75,19.1680815 69.8334318,0.25 46.5008147,0.25 C23.1678839,0.25 4.25,19.1683953 4.25,42.5 C4.25,65.7482195 23.0329036,84.6147181 46.2508147,84.7492757 Z" id="Ellipse_1_copy_5-path" stroke="#FF692D" stroke-width="0.5"></path>
            <path d="M42.4991853,91 C19.0272001,91 0,71.9719458 0,48.5 C0,25.0280542 19.0272001,6 42.4991853,6 C65.9711706,6 85,25.0313074 85,48.5 C85,71.9686926 65.9711706,91 42.4991853,91 L42.4991853,91 Z" id="Ellipse_1_copy_5-path" stroke="#FF692D" stroke-width="0.5"></path>
            <path d="M106.939368,39.475692 C101.377868,39.0950696 94.736466,40.1437232 88.102777,39.7320296 C80.8365736,39.2814969 73.5395158,39.436853 66.2887395,38.7144472 C64.1689197,38.529055 62.0354629,38.5733261 59.9250263,38.8464999 C58.1971818,39.0484628 57.3949683,39.9728315 57.4643906,41.8060333 C57.6186624,45.8608272 57.2792644,49.9233888 57.7497935,53.9704149 C57.8423566,54.7471953 57.8886381,55.5705826 56.7855945,55.6171894 C56.1222256,55.6560284 55.6439829,55.6171894 55.5745606,54.6151427 C55.4048616,51.8342687 55.4974247,49.0533948 55.4588567,46.2725208 C55.5093456,45.0926233 55.4369571,43.9106455 55.2428762,42.7459376 C54.7723471,40.6253271 56.6390363,37.4871341 59.4313565,37.3939205 C63.2264436,37.2696356 66.9906764,37.4949019 70.7626228,37.611419 C75.3290691,37.7512395 79.8955154,37.8289175 84.4465345,38.1240941 C90.1700196,38.4891809 95.8626503,38.1240941 101.570708,37.8599887 C104.324461,37.7512395 107.101354,38.2173077 109.862819,38.1240941 C112.624285,38.0308804 115.385751,38.364896 118.039227,37.3473136 C118.640887,37.1298151 119.381392,36.5705332 119.581945,37.6036512 C119.764585,38.4057963 119.267506,39.2053217 118.471188,39.3902462 L118.401765,39.3902462 C118.082696,39.4381616 117.759417,39.4511837 117.437566,39.4290852 L106.939368,39.4290852 L106.939368,39.475692 Z M38.7820713,55.0967465 C35.5852439,54.8419151 32.7997205,52.804842 31.569863,49.8224074 C30.9979137,48.576862 30.851452,47.1756974 31.1533291,45.8375238 C31.7034143,42.8964507 33.4262666,40.3108537 35.9203288,38.683376 C39.507149,36.259821 45.6008865,37.2696356 47.6989834,41.1146987 C50.0130609,45.3170809 49.1645658,49.162144 45.4466146,52.4479252 C42.9011293,54.7005885 41.3892654,55.2443348 38.7820713,55.0967465 Z M46.9816194,46.0161833 C47.2681646,42.2670989 44.5266382,38.9748516 40.810746,38.6056979 C37.0156588,38.2017721 32.8348921,42.1478167 32.4877805,46.6919822 C32.2486591,49.799104 36.0977414,53.6363993 39.3605907,53.8383622 C43.4950759,54.086932 47.0201873,49.4107138 46.9816194,46.0161833 Z M146.99605,46.2181462 C147.037016,46.9944364 146.75791,47.7533189 146.224691,48.3154533 C145.106642,49.6751869 143.861621,50.9237564 142.50674,52.0439994 C141.464808,52.9607295 140.511752,53.9751046 139.660424,55.0734431 C139.428902,55.4163989 139.105153,55.6858403 138.72708,55.8502235 C138.156001,56.1533502 137.450305,55.9839882 137.076371,55.4540655 C136.793994,54.9093305 136.967386,54.2377495 137.477478,53.9005047 C138.966201,52.5256033 140.524347,51.2206122 142.028497,49.8534786 C142.747635,49.2009632 143.430063,48.5085527 144.072599,47.7794748 C145.152502,46.5676974 145.090793,45.6743999 143.864332,44.4703902 C142.139162,42.8798316 140.301016,41.418191 138.364541,40.0971164 C138.195883,39.9998381 138.035875,39.888085 137.886298,39.7631008 C137.492905,39.3436394 136.829536,38.9241779 137.199789,38.2716824 C137.570041,37.6191868 138.225696,37.8755243 138.742507,38.3338248 C141.156861,40.4466676 143.995463,41.9303182 146.178409,44.40048 C146.702537,44.856249 147.001476,45.5208082 146.99605,46.2181462 L146.99605,46.2181462 Z M128.984813,51.0186493 C128.845969,52.3702472 129.19308,53.6519349 128.691697,54.9025514 C128.475716,55.4307621 128.344585,56.0444187 127.60408,55.8657592 C126.912261,55.8240762 126.384397,55.2264897 126.423901,54.5296968 C126.423901,54.5296968 126.423901,54.4597866 126.423901,54.4287154 C126.613312,51.6666662 126.613312,48.8947495 126.423901,46.1327003 C126.231061,44.1752136 126.261915,42.2021913 126.130784,40.2369368 C126.051777,39.4299169 126.334632,38.6295088 126.902144,38.0541838 C127.163237,37.7043745 127.640308,37.6016631 128.020614,37.8133819 C128.37932,37.9605202 128.574051,38.3527185 128.475716,38.7299828 C128.090037,40.5709524 128.529711,42.3886186 128.583707,44.2140527 C128.637702,46.0394867 128.915391,49.3485713 128.984813,51.0186493 Z M109.253446,49.1543762 C110.130789,48.928696 111.045078,49.3533917 111.444106,50.1719586 C111.852926,50.948739 112.092047,50.3583859 112.392877,50.0166025 C113.380217,48.8747353 114.606678,48.5562553 115.709722,49.1077694 C117.25244,49.8845498 117.607266,51.1662375 116.689348,52.8130121 C116.280528,53.5509535 114.537256,53.7529164 113.542203,53.1703311 C113.380217,53.0771174 113.249086,52.9372969 113.094814,52.8363155 C112.385164,52.3314082 111.837499,51.8575721 110.927295,52.8363155 C110.017091,53.8150588 108.173543,53.7762198 106.923941,52.9372969 C106.314034,52.6382423 105.96968,51.9730667 106.075446,51.2982902 C106.198863,50.4749029 106.376276,49.7447293 107.309621,49.4495528 C107.935455,49.2516165 108.59016,49.162308 109.245732,49.1854474 L109.253446,49.1543762 Z M108.674926,52.4789965 C108.372782,52.4708939 108.086354,52.341648 107.879247,52.1199587 C107.672139,51.8982694 107.561495,51.6024863 107.571883,51.2982902 L107.571883,51.2982902 C107.541795,50.9629481 107.663313,50.6317978 107.902714,50.3967418 C108.142114,50.1616858 108.473924,50.0477347 108.806057,50.0865127 C109.138199,50.0788377 109.456974,50.2182382 109.678156,50.4678821 C109.899338,50.717526 110.000671,51.0522946 109.955382,51.3837361 C109.978523,52.1605165 109.538849,52.4556931 108.690353,52.4945321 L108.674926,52.4789965 Z M115.740576,51.2206122 C115.75524,51.5256027 115.648816,51.8239386 115.444778,52.0498118 C115.24074,52.2756849 114.955854,52.410537 114.65296,52.4246218 L114.506402,52.4246218 C114.217916,52.4329804 113.937959,52.3255297 113.728179,52.1259309 C113.518399,51.9263321 113.395999,51.6509529 113.387931,51.3604326 C113.387931,51.3604326 113.387931,51.2905224 113.387931,51.2516834 C113.334346,50.6387728 113.78238,50.0973541 114.390698,50.0399059 L114.614392,50.0399059 C115.241872,50.0441755 115.748304,50.5576362 115.74829,51.1895409 L115.74829,51.1895409 L115.740576,51.2206122 Z" id="Shape" fill="#FF692D" fill-rule="nonzero"></path>
        </g>
    </g>
</svg>