<svg xmlns="http://www.w3.org/2000/svg" viewBox="0 0 124.43 111.86"><defs><style>.cls-1{fill:#c72327;}.cls-1,.cls-10,.cls-11,.cls-12,.cls-13,.cls-14,.cls-15,.cls-16,.cls-17,.cls-18,.cls-19,.cls-2,.cls-20,.cls-21,.cls-22,.cls-23,.cls-24,.cls-25,.cls-26,.cls-27,.cls-28,.cls-29,.cls-3,.cls-30,.cls-31,.cls-32,.cls-33,.cls-34,.cls-35,.cls-36,.cls-37,.cls-38,.cls-39,.cls-4,.cls-40,.cls-41,.cls-42,.cls-43,.cls-44,.cls-45,.cls-46,.cls-47,.cls-48,.cls-49,.cls-5,.cls-50,.cls-51,.cls-52,.cls-53,.cls-54,.cls-55,.cls-56,.cls-57,.cls-58,.cls-59,.cls-6,.cls-60,.cls-61,.cls-62,.cls-63,.cls-64,.cls-65,.cls-66,.cls-67,.cls-68,.cls-69,.cls-7,.cls-70,.cls-71,.cls-72,.cls-73,.cls-74,.cls-75,.cls-76,.cls-77,.cls-78,.cls-79,.cls-8,.cls-80,.cls-81,.cls-82,.cls-83,.cls-84,.cls-85,.cls-86,.cls-87,.cls-88,.cls-89,.cls-9,.cls-90,.cls-91,.cls-92,.cls-93{fill-rule:evenodd;}.cls-2{fill:#922534;}.cls-3{fill:#e84d37;}.cls-4{fill:#d8a673;}.cls-5{fill:#d73927;}.cls-6{fill:#d7966e;}.cls-7{fill:#861d1c;}.cls-8{fill:#b2632a;}.cls-9{fill:#c64b39;}.cls-10{fill:#d6815e;}.cls-11{fill:#ca5f37;}.cls-12{fill:#cd6b66;}.cls-13{fill:#a42522;}.cls-14{fill:#af2635;}.cls-15{fill:#d7824b;}.cls-16{fill:#916845;}.cls-17{fill:#d5b7a5;}.cls-18{fill:#e8a370;}.cls-19{fill:#d84e3a;}.cls-20{fill:#b73826;}.cls-21{fill:#d7704d;}.cls-22{fill:#b93a36;}.cls-23{fill:#e8604c;}.cls-24{fill:#ad4227;}.cls-25{fill:#d42227;}.cls-26{fill:#d79460;}.cls-27{fill:#d8954f;}.cls-28{fill:#c74c28;}.cls-29{fill:#d8705d;}.cls-30{fill:#d29088;}.cls-31{fill:#e79361;}.cls-32{fill:#ad8966;}.cls-33{fill:#b36c63;}.cls-34{fill:#d1ae8b;}.cls-35{fill:#978f5c;}.cls-36{fill:#e9704f;}.cls-37{fill:#e8b4a4;}.cls-38{fill:#ea9470;}.cls-39{fill:#90473a;}.cls-40{fill:#e9b481;}.cls-41{fill:#c84d4b;}.cls-42{fill:#c9713a;}.cls-43{fill:#ce6b28;}.cls-44{fill:#c8714d;}.cls-45{fill:#b3834a;}.cls-46{fill:#af493f;}.cls-47{fill:#e8815e;}.cls-48{fill:#e4cbc6;}.cls-49{fill:#e84d26;}.cls-50{fill:#e63d37;}.cls-51{fill:#af6844;}.cls-52{fill:#e85d3b;}.cls-53{fill:#d7c8c4;}.cls-54{fill:#d4c7aa;}.cls-55{fill:#e9824d;}.cls-56{fill:#ecad93;}.cls-57{fill:#d75f4d;}.cls-58{fill:#d73c38;}.cls-59{fill:#d0b1ab;}.cls-60{fill:#ca8b68;}.cls-61{fill:#d84e28;}.cls-62{fill:#e8836e;}.cls-63{fill:#f15e39;}.cls-64{fill:#d9d6c8;}.cls-65{fill:#b5a98f;}.cls-66{fill:#e73d27;}.cls-67{fill:#e5c6b6;}.cls-68{fill:#d7c5b7;}.cls-69{fill:#cad6d7;}.cls-70{fill:#e7a481;}.cls-71{fill:#eb9083;}.cls-72{fill:#c95e4c;}.cls-73{fill:#da96a4;}.cls-74{fill:#961f1f;}.cls-75{fill:#c63b28;}.cls-76{fill:#d64e4c;}.cls-77{fill:#e7705e;}.cls-78{fill:#e9a54f;}.cls-79{fill:#d3ae6a;}.cls-80{fill:#d7a65e;}.cls-81{fill:#c63f38;}.cls-82{fill:#cd8d3e;}.cls-83{fill:#e9954d;}.cls-84{fill:#c4b9b7;}.cls-85{fill:#d65e3b;}.cls-86{fill:#d7615d;}.cls-87{fill:#ad8e86;}.cls-88{fill:#d78338;}.cls-89{fill:#6f1d16;}.cls-90{fill:#dccb96;}.cls-91{fill:#d5713b;}.cls-92{fill:#c6c4c4;}.cls-93{fill:#eeb1aa;}</style></defs><title>Asset 1</title><g id="Layer_2" data-name="Layer 2"><g id="Objects"><path class="cls-1" d="M81.25,55c-.12,2,.57.94.45,2.72-.22,3.24,1.94,3.24,1.37,7.07-.68,1.11,1.14-.68-.68.34s.12.43-1.82.85c.57-2.73,1-3,.91-4.34-1.82,0-1-.35-1.82.76-.23-1-.23-.59-1.14-.43L78.07,59c-.12,0-.23-.17-.23-.17s-.12-.26-.23-.35c-.11-1.11-.11-.26.23-.34.91,1.11-.12.34,1.14.68.12-1.46.23-.68-.23-1.88,0,0-.22-.67-.22-.76l-1-.43c-.23-.17.11-.26-.8-.34l-1.37.34.91-.94c1.25-1,.45-.59,2.27-1.1V52.23c-1.25-.43-1.14,0-1.48.26s-.45.51-.79.85c-.8.85-.68.17-1.37,1.36l-.91.17.22-1.45a2.54,2.54,0,0,0,.91-.93c1.59-.43,2-.26,2.61-1.62v-.43l.23-.17.68-.59a3.78,3.78,0,0,1,.67-.51c.91-.85,0-.51,1.14-1,.8,1.62,0,3.58.23,5.37l.23.85c.22.68,0,.17.34.59Z"/><path class="cls-2" d="M92.61,73l-.12,1c-.91.77-2.73,6.13-3,7.16l-2.49,7c-.8,1.45-1.48,2.47-2.27,4s-1,3.32-1.82,4.6c-.57.85-.68.77-.8,1.79-.45.34-.11-.17-.67.59a6.39,6.39,0,0,0-.57.77c-.35.59-.57,1-1,1.7-.45-.26-.34.59-.45-.6,1.14-.93.45-.67,1-2.47l-.11-.76c.91-.85,1.24-2.05,1.93-3.16.91-1.78,1.37-1.36,2.05-3.49l3.4-10.91c1.82-2.73-.86-2.8-.67-5.8,0,.62.45.51,1.24.85l.12.68.45.94.46-.94,1.81-4.17c.8.26.46-.94.8.85l.23-1c.79,0,.67-.26.57.51Z"/><path class="cls-3" d="M73.63,55.47c.68.85.57.43.12,1.62l-1.36.09c.22-1.11.22-1.54,1.24-1.7ZM73.06,52l-2.49-.09v.18l-1,2,1,.68c-1.82,1.87-1,2.13-1.25,3.5-.12.59-.8.34-.68,1.28v1.19l-1,.51c0-.09-.12.17-.23.26l1.37.17c.23-.26-.45-.85,2.16-.17L71,60c1.82-.17.91.43,3.07.26l.22-.93c.35,1.7-.68,2,.23,3.75,1.14-.26.68-.09,1.93-1.11l-.91-1A7.7,7.7,0,0,1,75,59.3a10.09,10.09,0,0,1,1.82.17c.34,0-.12-.26.68.17l.11-1.11c-.11-1.11-.11-.26.23-.34l-.68-.85-.34-.17c-.8-.18-.57-.09-1.14-.68l.45,1.45c-1.37-.85-.45-.59-1.47-.09l.79-1.36c-.12-.09-.22-.26-.22-.17A2.24,2.24,0,0,1,74,54.86l.22-1.45a2.54,2.54,0,0,0,.91-.93Z"/><path class="cls-4" d="M102.72,37.48l.34-.51c.91-.51.8-.68,2.05-.35l.45.26.34-.26v.59s-.79,1-1.24,1.54c-.23.85-.12,1.45-1,2.05-.67.43-.11-.09-.79.67,0,.09-.12.18-.12.26l-.12.09-.45.93-.45.68c-3.19.59-.23-.08-2.16,1a7,7,0,0,1-.8-2.38c-1.37-1-.45.25-1.37-1.37.12-2.56.46-6.3,1.82-7.76.35,1.11-.12,1.28.68,1.88a3.84,3.84,0,0,0,.45-2.73c.91.09,1,.26,1.82,0-.34,1.54-1.37,4.09-.34,6.14,1.36.08.57.67.91-.77Z"/><path class="cls-5" d="M80.56,65.94l-.79.09c-.35-1.54-.57-1.79-2.27-1.45l-1,.26a7.47,7.47,0,0,1-1.59.25c-.79-.67-.12.6-.68-.76-.57-1.11-.22-.09,0-.51l.23,1.46c-1.25-.09-2,.34-2.73.25-1.14,0-.8-.51-2.27-.59l1.25-1.19c.57-.51.11.17.11-.26h-.11l-.91.17L69.55,63c-.46-1.37.11-.94-.8-1.45.23-.26-.45-.85,2.16-.17L71,60c1.82-.17.91.43,3.07.26l.22-.93c.35,1.7-.68,2,.23,3.75,1.14-.26.68-.09,1.93-1.11l-.91-1A7.7,7.7,0,0,1,75,59.3a10.09,10.09,0,0,1,1.82.17c.34,0-.12-.26.68.17l.11-1.11c.12.09.12.26.23.35s.12.17.23.17l.45,2.89c.91-.17.91-.59,1.14.43.79-1.11,0-.76,1.82-.76.11,1.36-.35,1.62-.91,4.34Z"/><path class="cls-6" d="M112.38,89.63c-1.82-.34-1.14.09-1.47-1.7,1.36.34,1.7.26,1.47,1.7Zm5.11.43a7,7,0,0,1-1.37,0L115,89.63c-.57-.51-.11.43-.34-.68.57-.76,0-.26.79-.59a2.9,2.9,0,0,1,2.39.17Zm3.18-.76c-1.25-1.46-.34.76-1.82-2.13L116.13,87c0-1.87.12-.67-.45-1.28a3.67,3.67,0,0,1-1,.68l.12,1.2c-.12.08-.45.25-.57.51a.65.65,0,0,0-.23.68c-1.14-.51-.68-.51-1.25-.85-.91-.51,0,.09-1.47-.09l-.57-1.78-2.16.08-.35.77c.12,0,1.14-1.2,2.05-.51,0,0,1.25.35-.12,2.13-.34.43.12.09-.57.51l2.61.59c-.79.94-.22.43-1.36.85a8.47,8.47,0,0,0-1.25.76V91l.12.67c0-.08-.23.18-.35.35l-1.59-.51c.12,0,.12.09.23.17l.68.35c.11,0,.67.17.79.17,2.16.09,3.64.09,5.8,0,2.39-.09,2.61-.51,4.55-.85l-.12-.17c-1.59-.09-.34.17-.8-.68a2.11,2.11,0,0,0,1-.43,3.36,3.36,0,0,0,.79-.76Z"/><path class="cls-7" d="M88.4,41.58l0-.15h0Z"/><path class="cls-7" d="M86.54,43.23c0,.1-.15-.14,0,0Z"/><path class="cls-7" d="M77.69,37s0,0,0,0Z"/><path class="cls-8" d="M78,36.8l1.82.43c.11.6-.35.43.57.35.45.85.11.43.91,1a2.88,2.88,0,0,0,.91.51c1.25.59,1.6.43,2.39,1.1l.68.68c.57.51.34.51,2,1q.06-.35.12-.7l.15,0a5.13,5.13,0,0,1-.15,2.44c-.34-.34-.23-.09-.79-.43l-.05,0a2.46,2.46,0,0,0-.18-.29l-.57-.6-1.37-.67a5.28,5.28,0,0,0-1.14-1l-2.95-1.36v-.17A2.5,2.5,0,0,0,78.52,38L78,37.48a1.12,1.12,0,0,0-.27-.49S77.82,37,78,36.8Z"/><path class="cls-9" d="M87.15,36.72a9.89,9.89,0,0,0-.45-1.62c-.11-.17-.34-.43-.45-.59-.34-.51-.12-.26-.45-.51V31.78c-.57-1.19-1.37-1.87-1.37-3.75-1,.51,0,.17-1.14.43-.22-1.11.12-.35-.67-.68l.11-.51v-.68c1.25.43,1,.18,1.25-.08-.22-.85.45-.68-1-.77-.68-3.66-2.73-2.8-3.29-4.77.91,1.36.91,1.19,2.73,1.78.68.18.8.68,1.37,1.37a5,5,0,0,1,1.36,2c-.68,1.28.8,5.71,1.7,6.65.34-1.46.34-.35.45-2,1.24,4.38.92,6.1,1.13,10.67h0c-.16-1,.2.2-.88-.53,0,.14,0,.26,0,.37l-.15,0A9.14,9.14,0,0,0,87.15,36.72Z"/><path class="cls-10" d="M95.67,82.81c-.79.94-.79.51-1,1.62.68.77-1.14.68,1.25.68L94.43,85l.11,1.36c.35-.26.35-.17,1-.34l-.23.59v2.47c.45.77-1,.68,1,.6l1.94-.35c.68-.59.68.77.57-1.19l.79.26a5.86,5.86,0,0,1,2.73.25c.91.43.79,1.2,2,.77l1.37.68c1.7.34,2.27.85,3.75.85l.12.67c0-.08-.23.18-.35.35l-1.59-.51-3.06-1c-.35-.43-.12-.34-.8-.59l-1-.17c-.68-.09-1.59-.43-1.82.25l-1.25.35-.79.17c-1.6.34-.23-.26-.8.85-.68-.68-.23.59-.45-.51L97,91.5c-.34-.51.12-.43-.8-.43a5.47,5.47,0,0,0-1.47.17c.57-.34.23.18.45-.51a7.7,7.7,0,0,0-.12-1.62c-.22-1.19-.91-1.19-.22-1.53.12,1.19.34.25,0,1.78a2.4,2.4,0,0,0-.23.85c-.45,1-.34.68-.57,1a67.58,67.58,0,0,1-.45-6.82,22.62,22.62,0,0,1,.57-5.54l.23-.34.67-.09c-.22,1.28-.11.68,0,1.46s0,.34.12.93c0,1,.45.68.45,2Z"/><path class="cls-11" d="M78.86,26.5c-.68-.35-.45-.26-.68-.51-.11,0-.11-.08-.22-.17s0-.09-.12-.09l-.12-.08L76.37,25c.45-.43-.12-1.54,2.84-1,1.14,2.39-.23,2.47-.35,2.56Zm-2.49-1.62L74,25c0-.09-.12-.17-.12-.26s0-.26-.12-.34v-.26a.27.27,0,0,0-.12-.26c.8-.43.68,0,1.82-.76.12.08.35.08.35.17.22.76.11.09.45.34Zm-.12-2c-2.05-.6-.23-.6-1.82-.94l-.34-.09c-.91-.08-.23-.34-1,.09l.23-2c-.68.51,0-.08-.57.43-1.82,1.45,1-1.19-.45.43-1.14-.76-.23.26-.68-1a4,4,0,0,0-1.7.76c.34.35-.12,0,.57.35a3.8,3.8,0,0,1,.57.26l1.37-.09h.22a.45.45,0,0,1,.23.09,9.21,9.21,0,0,0,0,1.78c.22,3.15.22,1.11-.23,2-2.16-.51-.34-.26-1.25-1.28-.57.51-.22-.34-.57,1,.8.94.46,2.13.46,3.24,1,.34.22-.43.79.68.91-.26.68-.35,1.37-.51L74.31,27c1.25-.93,1.59-.43,2.05-1.1,1.14.59.79.85,2,1,1.47.17.45.93,2,.17.35-.76.8.85.23-1-.12-.35-.34-.35-.68-.51l.68-.43c0-.17.12-.17.23-.17l-.12-.51a11.27,11.27,0,0,0-1.25-.85l-1.14-.43c.68-.34.12.18.34-.76l-1.81.34.11,1.2-.79-.35Z"/><path class="cls-12" d="M92.61,53.59l.22.94c1.37.26.35.09.68-.26l.8-1.45,1-1.54,1.14-.59v.94c.34,1.53-1.59,3.83-2.61,4.86l.22,2.64.68,5.63-.34.43-1.37-6.82c.34-1.7.8-2.39-.8-3.24l-.79-.51.34,3.32-1-4.78c-.8-.51-.12,0-.57-1-.12-.34-.34-.68-.45-1a10.88,10.88,0,0,1-1-2.65l.11-.51c1,.51-.57-.34.57.34.57.35-.57-.08.8.43-.34-1.28-.23-1.53-.8-2.21-.91-1.11-.79-.43-.91-2.13.91.85,1.94,3.32,2.5,4.51a25.83,25.83,0,0,1,1.59,4.69Z"/><path class="cls-13" d="M83.29,60.32l.35,2.21A4.8,4.8,0,0,1,83.86,65c-.34,1.62-.57.51-1,2.3,1.7-.17.68-.26,2.05-.68.45,2-.8,2,.34,3.41l1.26,2.3a6.57,6.57,0,0,1,.88,2.43c0,.26-.26.07-.23.31a6.21,6.21,0,0,0-1.46-2.21c-.34-.43-.67-1.81-1.46-2.24l-.12-.85a2.91,2.91,0,0,1-1.82-1.36c-2.27-.09-1.7,0-2.39.68l2.17.76.11.09.91.43-.35.17c-1.81-.09-.34-.26-1.47-.59-.8-.26-.34.59-1.14-.26-.91-.68-.12.08-.68-.85l-1.59-.68-1.37-.76L73.06,66c2.39-1,1.94,1.19,7.5,1.37-.22-.94.12-.68-.79-1.37l.79-.09c1.94-.43-.12.18,1.82-.85s0,.77.68-.34c.57-3.83-1.59-3.83-1.37-7.07l.35.43a1,1,0,0,0,.22.51c.45.85.45,1.36,1,1.7Z"/><path class="cls-14" d="M94.77,64.75c1-.09.91-.51,1.37-1.45.45-.26-.12.34.57-.51a4.9,4.9,0,0,0,.34-.68c.12,0,.34-.08.45-.08s.23.26.23.17.22.26.34.34l-.68.51A4.33,4.33,0,0,0,96,65.43c-.68.59-.68.17-1,1.36a3.26,3.26,0,0,0,.11,1.79l-.79,2.56c-.68.26.12-.26-.8.43a4.69,4.69,0,0,0-.79.59c.11-.76.22-.51-.57-.51l-.23,1c-.34-1.79,0-.59-.8-.85l.23-.43L91.47,70l.22-.85c.35-.43.12.35.57-.85a7.46,7.46,0,0,0,.23-.93A14.46,14.46,0,0,0,92.83,65c.35-2.05.12-1.54-.22-3.41A3.89,3.89,0,0,1,92.73,60c0-1.45-1.14-2,.34-1.62l1.37,6.82Z"/><path class="cls-15" d="M101.25,78.89c.45,1.2-.12.18,1.14.85v1.54l-.68,2.13-1.14,2.22c-.45.93,0,.17-1,.68.34-2.48.34-.94,0-2.56a3.3,3.3,0,0,1-2.39.85l.91-1.54a2.51,2.51,0,0,1-1.25.43l-.34-.77-.8-.76c0-.09.12-.17.12-.26l.45-.68a1.26,1.26,0,0,1,.23-.93,9,9,0,0,0,2.84.43,8.4,8.4,0,0,0,.8-2.56c.11,0,.22.08.22.17l.68.59c.12-.08.23.09.23.17Z"/><path class="cls-16" d="M108.4,30.5c-.8.43-.23.26-1.14.51-1.37.34-.12-.18-1.47.59-2.05-.85-.57-.43-2.5-.35L102,30.92l-.12.94-2,.17c-.8.68-.23.26-.68.93-1.36,1.46-1.7,5.2-1.82,7.76a6.72,6.72,0,0,0,.12,3,8.4,8.4,0,0,1,.35.85c.45,1-.12.34.57.85.45.59-.23.59.91.51-1.37.43-.91.51-1.94.34-1-3.07-1.36-8.52.12-11.25a8.63,8.63,0,0,1,2.5-4.78l.34,1,1.48-.67c-.46-1.2.22-.35-.35-.85-.34-.26-.22-.18-1-.26.23-.68.23-.59.34-.94l.46.09,1-.17c1.93.34.22,1.78,3.29,1.45l.57,1c2.5-2,2.27-.43,2.27-.43Z"/><path class="cls-17" d="M101.92,92.7c.46,1.28.68.85,1.6,1.78l-.23,3.15-.57.85a11.39,11.39,0,0,1-3.41.18c-1.82-.18-1.59-.68-2.73-.94.12-.76.57-.17,0-.76-2.16,0-.8,0-2.05-.68l-.34-1.11h1c1.14,1.19.45.34,1.7,1.11,1.48.85,0,1.36,2.73.76a7.67,7.67,0,0,1,.12-.76c.12-1.2-.57-.43,0-2.13,1.25-.35.57.43,1.82-.59-.57-1.62-.12-1.28-1.47-1.46-.35-.25,0,.09-.46-.25v-1c.68.35.23,0,.91.51,0,0,.34.43.45.43.45.43.57.59.91.94Z"/><path class="cls-18" d="M109.54,89l-1.14.08c-.23-1,.12-.25-.34-.93-2.5,2,0,1.28-3.64,1.28-1.25.43-1.14-.35-2-.77a5.86,5.86,0,0,0-2.73-.25l-.11-1a4.92,4.92,0,0,0,3.18.18c.34,0,1.14,1.28.8-.43l1.7-.51c.34,1,.22.34,1.36-.09a6.37,6.37,0,0,1,1.94-.43l-.35.77c.12,0,1.14-1.2,2.05-.51,0,0,1.25.35-.12,2.13-.34.43.12.09-.57.51Z"/><path class="cls-19" d="M104.43,51v.43l.45.77,2.05-.43.22.59c0,1.37.23,1.28-1,1.87-.34-.76.34-.43-.68-.59-.34.68.45.26-1,.68l.45-.35s.12-.08.12-.17a.48.48,0,0,0,.23-.08c-.57-.43.79-.43-1.25-.18.34-1.19.45-.67-.35-1.1-.11.08-.11,0-.22.17,0,.51-1.37,1.28.34,1.87l-1.59.17-.45.26c0,.09-.12.17-.12.26s-.12.17-.23.17-.11.17-.22.26L99.88,55l-1,1.28,1.36-4.94.57.59c.35-.85.23-.85,1.37-1a7.7,7.7,0,0,1,2.27.17Z"/><path class="cls-20" d="M99.54,56.91v1c-1.14.85-.46-.26-1.37,1.28-1.25,2.22-.45,1.79-.45,1.87,1.36.59.34-.43,1.14.77,0,1.36,0,1,.68,2,1.47.09,1.59-.08,2.61.77l1.14-.51,3.07-1.62c1.24-.35.57-.35,1.59-.85,1-.77.45-.85,1.82-.68-1.14,2-3.76,2-4.55,3.24-1.37.59-1.82,1.11-3.76.85-.79-.51-4.43-.26-5.45.43A4.33,4.33,0,0,1,97.38,63l.68-.51c-.12-.08-.22-.51-.34-.34s-.23-.17-.23-.17-.34.08-.45.08c-.23-2.56.57-3.75,1.59-5.54a1.23,1.23,0,0,1,.45.26c1.6.68-1.24-.26.46.09Z"/><path class="cls-21" d="M85.79,34c0,1.7.23,1,.57,2l.34,1.87c-2.84-.08-2.38,2.39-4.77.59-1-.85.45-.85-1.59-.93l-.23-.94-.8-.08c1-.6.57.25.8-1l.23.18c0,.08.11.17.11.17l1.6.85c.11,0,.22.08.34.08l.45-.34.23-.17.34-.26c.57-.43.45,0,.57-.51-.12.09.8.35-.34.09-.8-.17-.35-.09-.68-.34l1.14-.77a4.91,4.91,0,0,0,.68-.43c-.91-1.54-.8,0-1.82-1.87.34.09,1.7.26,1.82.34.91.43.68,1.79.79,1.28.12,0,.12.18.23.18Z"/><path class="cls-22" d="M73.18,31.44c-.68-.68-1.14-1.11-1.14-1.79,1,.26.23-.34.68.51a12.23,12.23,0,0,0,.45,1.28Zm.23-3.33c-.68.17-.45.26-1.37.51-.57-1.11.23-.35-.79-.68,0-1.11.34-2.3-.46-3.24l.12,1.62-.34-.43-.12.85-1,.25c.12,2-.12,2.13,1.14,3.41a12.5,12.5,0,0,1,1.14,1.46L72.84,33v-1c0-.08.12-.17.12-.26l2.16,2.39c.12,0,.12.09.12.17.91.94-.23.26,1.14,1-.23-1.2.22-1.46.57-2.48a3.27,3.27,0,0,1-3-.59l-.68-2.56c.45-.59-.23-.59,1.14-.34l-.12-.94-.91-.26Z"/><path class="cls-23" d="M68.63,59.47l-1,.26c-.57,1.1-.45,1.7-1.37,2.3l.23-.26-.23-1.45a11.43,11.43,0,0,0,1-3.41c.22-1.45.22-1-.35-2.22.12-.08.23-.08.23-.17l.34-.34c.45-.43,0,.25.45-.51l-.67-.59c-1.14.68.34-.09-.57.59a.51.51,0,0,1-.46.09v-1.7l.8-.18.12.68c1.36.09.68-.08,1.7.85l.34.17c0-.08-.57.94-.12-.43.46-1.1.35.26.8-1.36l.68.08v.18l-1,2,1,.68c-1.82,1.87-1,2.13-1.25,3.5-.12.59-.8.34-.68,1.28Z"/><path class="cls-19" d="M67.84,62.71c-1,.85-.35-.09-.8,1.1,1.94,1.79-1.37-.59,1.47.77,0,.08.12.08.23.17-1.14.51-3.52,0-4.88,0,.11-.43-.23-.43.34-.43l.91.43c.23-.34,2.27-3.67,3.41-2.56a3.66,3.66,0,0,1-.67.51Zm-.46-1.28c.12-.09.23-.35.23-.26l1-.51V59.47l-1,.26c-.57,1.1-.45,1.7-1.37,2.3-1.14,1.19-2,.93-2.84,1.7l.12,1.54c.8.76,3,.59,4.09.67l3.52.35c1.36-.17.45.17.79-.43l-3.18-.77.68-1,.22-.17H68.18c.57-1,.12-.85,1.37-.85-.46-1.37.11-.94-.8-1.45Z"/><path class="cls-4" d="M122.38,86.22l.23.43.22,1.79a13.45,13.45,0,0,0-2.16.85c-1.25-1.46-.34.76-1.82-2.13L116.13,87c0-1.87.12-.67-.45-1.28l-1-.67-1.59-.26c1.25,0,3.86-.26,4.77.17a14,14,0,0,0,4.55,1.28Z"/><path class="cls-11" d="M82.27,29.65c-2-.34,0-.43-2.16-.76l-.57,1.36,1.37.77L80,30.92c.35.76.12.34.23.94-1.25-.6.57.67-.8-.85-.68-.68-.45-.6-1.47-.68,0,2,.22.43,1.14,2.13-1.59,3-1.37.68-1.59,2.56a3.93,3.93,0,0,1,1.47.93l.34.6.8.08.23.94c-.91.08-.46.26-.57-.35-1.14-.59-.57-.43-1.37-1.1s-.91-.43-2-.77v-.08c-.23-1.2.22-1.46.57-2.48l.34-.34c-.57-.94-.34-1-.23-1.37a5.06,5.06,0,0,0,0-1.36l-.34-1.37a2.83,2.83,0,0,0,1.94.34c.91-.08.79-.34,1.47-.85l.8.18c.91.85,1.36.43,1.36,1.62Z"/><path class="cls-5" d="M103.06,59.3c-.57,1.36-.45,0-.22,1.78h1.93c.35,1.11.46.43-.11,1.37,1.7-.94,1.7,0,1.7,0l-3.07,1.62c-1-.08-.8-.26-1.37-.93l1.6-.26c-1.7-.59-1-1.54-2.5-1.11l-.91.43v-.94c-1-.76.34,1-1.25-1.19-.12-.09-.12-.17-.23-.26s-.12-.26-.22-.26a3.57,3.57,0,0,1,2.16-1.28c1.14.09.34,1.37.91,2.48.12-.09.12,0,.35-1Z"/><path class="cls-24" d="M78.29,18.66c.12.34.23.59.35,1,.67,1,.34.34,1,1.28.57,2,2.61,1.11,3.29,4.77,1.47.09.8-.08,1,.77-.22.26,0,.51-1.25.08v.68l-.45-.34c-.12-1.28-.45-.09.23-1.45-2.05-.68.22-.6-1.7-1a11.27,11.27,0,0,0-1.25-.85l-1.14-.43c.68-.34.12.18.34-.76-.34-.34.23-.09-.67-.59.11-3-.57-2.22-2.27-2v-.09l.34-1c-.8-.09-1.25-.26-1.59.34-.35-.26-.12-.26-.91-.34h-1l.23-.35.45-.34h1.59c.68.76-1.14.68,1.59.76a6.6,6.6,0,0,0,1.82-.08Z"/><path class="cls-25" d="M104.88,57.85v.77c-1.14,0-1.25.08-1.82.68l-1.24.43c-.23,1-.23.93-.35,1-.57-1.11.23-2.39-.91-2.48a3.57,3.57,0,0,0-2.16,1.28l-.46,1.11-.11.17c0,.09-.12.18-.12.26,0-.08-.8.35.45-1.87.91-1.54.23-.43,1.37-1.28v-1a5.55,5.55,0,0,0,1.24-.68,9.93,9.93,0,0,1,.91-.51h1.82c.67.85.22.35.57,1.11.45,1.11,0,.43.79,1Z"/><path class="cls-26" d="M100.11,78a8.4,8.4,0,0,1-.8,2.56,9,9,0,0,1-2.84-.43,1.26,1.26,0,0,0-.23.93l-.45.68c0,.09-.12.17-.12.26l.8.76-.8.09c0-1.28-.45-.94-.45-2-.12-.59,0-.26-.12-.93s-.22-.18,0-1.46c1-.43.35-.59,1.6-1.45l1.36.59c.8-1.1,0-.43,1.25-1,1.37,1.7-.12.85.8,1.37Z"/><path class="cls-27" d="M103.29,31.26l.34,1c-.34.67.23,0-.57.76l-1,.26.12,1.54a10.48,10.48,0,0,0,1.7-.09c1.25,0,0,.09,1.37-.17.11-.09.22-.26.22-.17s.8-.43.12-2.05l.57-.17,1.14.34c-.45,1.37-1.59,3.41-1.7,4.35l-.45-.26c-1.25-.34-1.14-.17-2.05.35.68-.43.23-.35.46-.85-2.17-.09-1.14-.35-1.6.76.35,1-.22.43.8.59-.34,1.45.45.85-.91.77-1-2.05,0-4.61.34-6.14-.8.26-.91.09-1.82,0L99.88,32l2-.17.12-.94Z"/><path class="cls-28" d="M82.27,26.92c-.68.59-.79.34-.45,1.19L80.91,28l-.8-.18c-.68.51-.57.77-1.47.85a2.83,2.83,0,0,1-1.94-.34L77,29.73l-.45-.09c0-1.11-.22-2-1.47-1.79-.8.18-.35,0-.8.51l-.91-.26L74.31,27c1.25-.93,1.59-.43,2.05-1.1,1.14.59.79.85,2,1,1.47.17.45.93,2,.17.35-.76.8.85.23-1-.12-.35-.34-.35-.68-.51l.68-.43c0-.17.12-.17.23-.17l-.12-.51c1.93.43-.35.35,1.7,1-.68,1.36-.35.17-.23,1.45Z"/><path class="cls-26" d="M114.65,85l1,.67a3.67,3.67,0,0,1-1,.68l.12,1.2c-.12.08-.45.25-.57.51a.65.65,0,0,0-.23.68c-1.14-.51-.68-.51-1.25-.85-.91-.51,0,.09-1.47-.09l-.57-1.78-2.16.08a6.37,6.37,0,0,0-1.94.43c-1.14.43-1,1.11-1.36.09.57-1,2.73-1.37,4.2-1.87l2.05-.09-.35,1.37a5.53,5.53,0,0,0,2.05-.17,2,2,0,0,0,1.47-.85Z"/><path class="cls-29" d="M79.31,36.55l-.34-.6V35a3.41,3.41,0,0,0,1.7-1.37c.68-1.19.34-.68,1.37-1.7.22-.17,1-.68.91.26,1,1.87.91.34,1.82,1.87a4.91,4.91,0,0,1-.68.43L83,35.27c.34.25-.12.17.68.34,1.14.26.22,0,.34-.09-.12.51,0,.09-.57.51l-.34.26-.23.17-.45.34c-.12,0-.23-.08-.34-.08l-1.6-.85s-.11-.09-.11-.17l-.23-.18c-.23,1.28.23.43-.8,1Z"/><path class="cls-30" d="M83.86,97.89l.12.26-1,1.28c-1.59,3.07-3.64,7.41-6.13,9.88-.57.6-.23.26-.91.6l.12-.77c1.48-.93,3.86-6.13,4.66-7.58l1.47-3c.12-1,.23-.94.8-1.79l1.7-.51Z"/><path class="cls-31" d="M99.54,86.31l-.12.59a1.82,1.82,0,0,0-2.16.26c-.8.51-1.48.85-1,1.19l.12,1.37c-2,.08-.57.17-1-.6V86.65c3,.26,1.37-.68,1.14-1.87-1-.43-.12-.17-.57.34-2.39,0-.57.09-1.25-.68.23-1.1.23-.67,1-1.62l.8-.09.34.77a2.51,2.51,0,0,0,1.25-.43l-.91,1.54a3.3,3.3,0,0,0,2.39-.85c.34,1.62.34.08,0,2.56Z"/><path class="cls-1" d="M79.77,66c.91.68.57.43.79,1.37C75,67.22,75.45,65,73.06,66l-1.14-.17-3.18-.77.68-1,.22-.17.12-.26.91-.17h.11c0,.43.46-.26-.11.26l-1.25,1.19c1.47.09,1.14.59,2.27.59.68.09,1.47-.34,2.73-.25l-.23-1.46c-.22.43-.57-.59,0,.51.57,1.37-.11.09.68.76a7.47,7.47,0,0,0,1.59-.25l1-.26c1.7-.35,1.93-.09,2.27,1.45Z"/><path class="cls-9" d="M77,29.73a5.06,5.06,0,0,1,0,1.36c-.11.35-.34.43.23,1.37l-.34.34a3.27,3.27,0,0,1-3-.59l-.68-2.56c.45-.59-.23-.59,1.14-.34l-.12-.94c.45-.51,0-.34.8-.51,1.25-.25,1.47.68,1.47,1.79Z"/><path class="cls-12" d="M87.27,71.05a.4.4,0,0,1,.45.18c-.22,2,.46,2.13.57,4.08-.79-.34-.75-.09-1.21-.51.22,3,2.46,2.73.64,5.46.12-1.54-1.36-4.17-1.93-5.62l-1.25-2.48,1.16.16a7.05,7.05,0,0,1,1.38,2.48c0-.18.29.14.25-.07a9.56,9.56,0,0,0-1.2-2.83L85.23,70c.45-.26-.68-.68.57-.08l.34.93c.46.51.12.09,1.14.17Z"/><path class="cls-32" d="M108.86,28.37l-.22-.59c-2.84-.09-1.48-.26-3.41,1-1.37-.17-2.27-1.11-3-.34l-1,.17c.34-1,.22-.77.91-1.37.34-.34.34-.17.68-.59.45-.59,0,0,.45-.76,5.45.34,1.82.17,4.43.85,1.25.34.45-.35,1.48.67,0,1.62,0,.51-.35.94Z"/><path class="cls-3" d="M108.64,56.14c.34,1.54-.12,1.37,1.59.94l.22-1.37v.51l.12.94a3.66,3.66,0,0,1,1.14.43c-.57.59-.12.34.12.76,0,.09.23.34.34.34l.35,1.2a3.51,3.51,0,0,0-2.27-.09c-1.14.35-.23.09-.45.26,0-1.37-.12.09.57-.76l.91-.85c-1.59-.43-1-.26-3-.26-.45.17-.22.17-.57.34l-2.84.09V57l.91-.17.67.17c.23-1.1.12-.76.57-1.28v1.2c1,0,.57.17,1.25-.43Z"/><path class="cls-1" d="M106.7,60.06c-.57,1.45.34,1.37-1.47,1.45.67-1.54-.12-.85,1.47-1.45Zm-3-.94c.12.18.35-.25.35.85-.12.94,0,.26-.46.68-.34-.59-.34.68-.22-.85a3.16,3.16,0,0,1,.34-.68Zm4.55-.93c-.45.17-.22.17-.57.34l-2.84.09c-1.14,0-1.25.08-1.82.68-.57,1.36-.45,0-.22,1.78h1.93c.35,1.11.46.43-.11,1.37,1.7-.94,1.7,0,1.7,0,1.24-.35.57-.35,1.59-.85l-.57-.35c-.12-.34-.57-1.7,0-1.53v-.94l.91.09Z"/><path class="cls-33" d="M87.27,71.05c-1-.08-.67.35-1.14-.17L85.79,70c-1.25-.6-.12-.18-.57.08-1.14-1.45.12-1.45-.34-3.41-1.37.43-.35.51-2.05.68.45-1.79.68-.68,1-2.3a4.8,4.8,0,0,0-.22-2.48c.68.6,2.27,2.73,2.39,3.75s0,2.39.11,2.64c.12.94.68.85,1.14,2.13Z"/><path class="cls-34" d="M100.11,92.1c1.36.18.91-.17,1.47,1.46-1.25,1-.57.25-1.82.59-.57,1.7.12.93,0,2.13a7.67,7.67,0,0,0-.12.76c-2.73.59-1.24.09-2.73-.76l.8-.26c-.23-.34-.68-.68-.12-1.87.68-1.45.45-.09,1.14-1.45h-.8c.46-1,0-.26.46-.51.79.34.91.26,1.24.76s-.91.68.91.35Z"/><path class="cls-9" d="M82.72,27.26l-.11.51,1,1.28c-.35,1.19-.12.26-.45,1.19a3.48,3.48,0,0,0,2.61,1.54V34c-.12,0-.12-.18-.23-.18-.11.51.12-.85-.79-1.28-.12-.08-1.48-.25-1.82-.34.12-.94-.68-.43-.91-.26l-1.6.59-.22-.67c-.12-.6.12-.18-.23-.94l.91.09c1.59-.09,1.59-.43,1.36-1.37,0-1.19-.45-.76-1.36-1.62l.91.08c-.34-.85-.23-.59.45-1.19Z"/><path class="cls-11" d="M87.15,36.72v3.67a6.53,6.53,0,0,1-2.61-.18c-.79-.67-1.14-.51-2.39-1.1a2.88,2.88,0,0,1-.91-.51c-.8-.59-.45-.17-.91-1,2,.08.57.08,1.59.93,2.39,1.79,1.93-.67,4.77-.59L86.36,36c-.34-1-.57-.34-.57-2,.34.25.12,0,.45.51.12.17.35.43.45.59a9.86,9.86,0,0,1,.45,1.62Z"/><path class="cls-35" d="M108.86,28.37l-.12,2-.34.17s.23-1.62-2.27.43l-.57-1c-3.07.34-1.37-1.11-3.29-1.45.68-.77,1.59.17,3,.34,1.93-1.28.57-1.11,3.41-1Z"/><path class="cls-8" d="M74.55,19c.22.68-.23.68,1.25.68v.09c-.46.25.34.17-.91.51.91,1.87.8,1,2.05,2.47l.11,1.2-.79-.35v-.67c-2.05-.6-.23-.6-1.82-.94l-.34-.09c-.91-.08-.23-.34-1,.09l.23-2c-.68.51,0-.08-.57.43-1.82,1.45,1-1.19-.45.43-1.14-.76-.23.26-.68-1a7.45,7.45,0,0,0,1-1.19h1c.8.08.57.08.91.34Z"/><path class="cls-36" d="M72.61,51.12a2.38,2.38,0,0,0,.45.85l-2.49-.09-.68-.08a4.62,4.62,0,0,1-1.47.08c-.57-.08.22-.08-.57-.17-1.37-.17-.46-.17-.8.17l-.8.18v1.7a.51.51,0,0,0,.46-.09c.91-.68-.57.09.57-.59l.67.59c-.45.76,0,.09-.45.51l-.34.34c0,.09-.12.09-.23.17.57,1.2.57.77.35,2.22-.23-.68-.12-.26-.68-.59-.12-2.73-1-.09-1.25-4.09,2.5-2.22,3.86-1.11,5.11-1.11Z"/><path class="cls-6" d="M102.49,86.82l1,.35c.34,1.7-.46.43-.8.43a4.92,4.92,0,0,1-3.18-.18l.11,1-.79-.26c.12,2,.12.59-.57,1.19l-1.94.35-.12-1.37c-.45-.34.23-.68,1-1.19a1.82,1.82,0,0,1,2.16-.26l.12-.59c1-.51.57.25,1-.68-.23.76-.23.59-.45,1.36,1.24.43,1.14.35,2.38-.17Z"/><path class="cls-37" d="M109.54,50.78l1,1.45c-.57.51-.34.08-.34.93h-.45c-.12-.51-.12-.17-.46-.43l-.79.35c-1.94.43-.23.34-1.14-.35,0,0-.12-.08-.12-.17s-.12-.17-.12-.17l-.22-.59-2.05.43-.45-.77a2.42,2.42,0,0,0,1.47-.34l.57-.43c.12-.09.35,0,.46-.34,0-.09.11-.09.11-.18l2.5.26Z"/><path class="cls-22" d="M93.06,58.36c-1.47-.43-.34.17-.34,1.62a3.89,3.89,0,0,0-.12,1.62c.34,1.87.57,1.36.22,3.41-.22-.26-.11,0-.34-.59l-.68-2.56a11.64,11.64,0,0,1,0-3.92l-.34-3.32.79.51c1.6.85,1.14,1.54.8,3.24Z"/><path class="cls-5" d="M77.5,55.8c-.57.34-.8-.34-.68,1.37-.8-.18-.57-.09-1.14-.68l.45,1.45c-1.37-.85-.45-.59-1.47-.09l.79-1.36c-.12-.09-.22-.26-.22-.17A2.24,2.24,0,0,1,74,54.86l.91-.17c.68-1.19.57-.51,1.37-1.36.34-.35.34-.6.79-.85s.23-.68,1.48-.26v1.54c-1.82.51-1,.08-2.27,1.1l-.91.94,1.37-.34c.91.08.57.17.8.34Z"/><path class="cls-6" d="M101.25,78.89c0-.08-.12-.25-.23-.17l-.68-.59c0-.09-.12-.17-.22-.17-.91-.51.57.34-.8-1.37-1.25.59-.45-.08-1.25,1L96.7,77c-1.25.85-.57,1-1.6,1.45l-.67.09a2.78,2.78,0,0,1,.45-1,2.57,2.57,0,0,1,.34-.51c1-1.7,1.94-1.62,4.66-1.45a17.56,17.56,0,0,1,1.37,3.32Z"/><path class="cls-21" d="M80.23,31.87l.22.67,1.6-.59c-1,1-.68.51-1.37,1.7A3.41,3.41,0,0,1,79,35v.93A3.93,3.93,0,0,0,77.5,35c.22-1.87,0,.43,1.59-2.56-.91-1.7-1.14-.09-1.14-2.13,1,.08.79,0,1.47.68,1.37,1.53-.45.25.8.85Z"/><path class="cls-38" d="M109.54,89l2.61.59c-.79.94-.22.43-1.36.85a8.47,8.47,0,0,0-1.25.76V91c-1.47,0-2-.51-3.75-.85l-1.37-.68c3.64,0,1.14.76,3.64-1.28.45.68.11-.09.34.93Z"/><path class="cls-10" d="M94,92.36l-.22.17v1.2l-.8-.17c-1.7-.6-1.25.08-2.73.08a2.28,2.28,0,0,1-1.47-.43c.57-.51.22-.43.45-.93,1.47-.85,2.49-.77,4.43-1l.23.51s0,.17.11.17v.43Z"/><path class="cls-17" d="M122.38,86.22a14,14,0,0,1-4.55-1.28c-.91-.43-3.52-.17-4.77-.17l-1.59-.09-2.05.09c1.37-.94,2.27-.43,4-.43,1,0,2.5-.35,3.52-.43,3.29-.17,4.43,1.54,5.45,2.3Z"/><path class="cls-26" d="M101.7,43.45c-.35.77-.45.85-.91,1.7-1.47.09-.34.68-2.38.26-.68-.51-.12.17-.57-.85a8.4,8.4,0,0,0-.35-.85,6.72,6.72,0,0,1-.12-3c.91,1.62,0,.34,1.37,1.37a7,7,0,0,0,.8,2.38c1.93-1.1-1-.43,2.16-1Z"/><path class="cls-5" d="M112.5,59.9h.22l-.11.43h-.23l-2.61.59c-1.37-.17-.8-.09-1.82.68l-.57-.35c-.12-.34-.57-1.7,0-1.53,1.14.51.34.76,1.7,0,.22-1.46.22-.35-.8-.85v-.68c1.94,0,1.37-.17,3,.26l-.91.85c-.68.85-.57-.6-.57.76.22-.17-.68.09.45-.26a3.51,3.51,0,0,1,2.27.09Z"/><path class="cls-39" d="M107.72,35.95c-.22-.43-.68.77-.34-.76.22-.94.68-.26.91-1.45l-.22-.59c-.8.43-.57,0-.91,1,0,0-.12.85-.12,1a6.5,6.5,0,0,0-.34,1.19c-.57,1.11.12.43-.8.85v-.59l-.34.26c.12-.94,1.25-3,1.7-4.35V31c.91-.26.34-.09,1.14-.51l.34-.17c0,2.39.23,3.67-1,5.62Z"/><path class="cls-40" d="M96.93,96.28c-1.25-.77-.57.08-1.7-1.11h-1L93.4,95a3.91,3.91,0,0,0-.45-1.45l.8.17.34.59c1.48.09,2.62-.43,2.84-1.54l1-.08h.8c-.68,1.36-.45,0-1.14,1.45-.57,1.19-.12,1.54.12,1.87Z"/><path class="cls-41" d="M90.22,93.63c-.34.35-.23.26-.57.59a3.88,3.88,0,0,0-.8.43,9.28,9.28,0,0,0-1.47.85L85,96.19c.57-1.45.91-.68.12-1.62-.57-.59-.91-.43.35-1v.85c.79-.26,1.59-.6,2-.77,1.25-.76,0-.68,1.7-1.36-.23.51.12.43-.45.93a2.28,2.28,0,0,0,1.47.43Z"/><path class="cls-41" d="M86.81,89.72a3,3,0,0,0-.57,1.1,3.44,3.44,0,0,0-.34.94,3.46,3.46,0,0,0-.45,1.79c-1.25.59-.91.43-.35,1,.8.93.45.17-.12,1.62l-.34.09-1.7.51c.8-1.28,1-3,1.82-4.6s1.47-2.56,2.27-4Z"/><path class="cls-42" d="M70.79,24.7c0-1.87-.34-1.45-.57-2.89l.8-.59,1.37-.09h.22a.45.45,0,0,1,.23.09,9.21,9.21,0,0,0,0,1.78c.22,3.15.22,1.11-.23,2-2.16-.51-.34-.26-1.25-1.28-.57.51-.22-.34-.57,1Z"/><path class="cls-25" d="M103.29,64.07l-1.14.51c-1-.85-1.14-.68-2.61-.77-.68-.93-.68-.59-.68-2,.45.08,1.14.34,1.25.34l.91-.43c1.47-.43.8.51,2.5,1.11l-1.6.26c.57.67.35.85,1.37.93Z"/><path class="cls-2" d="M75.28,109.77c.12-1,1.19-1.9,1.54-2.67.34-.43.68-1.28,1-1.79.68-1.45,1.47-2.3,2-3.66.46-.68.68-1.11,1-1.7a6.39,6.39,0,0,1,.57-.77c.57-.76.22-.26.67-.59l-1.47,3c-.8,1.45-2.93,7.42-4.42,8.35Z"/><path class="cls-43" d="M78.74,22.4l-1.81.34c-1.25-1.45-1.14-.59-2.05-2.47,1.25-.34.45-.26.91-.51,1.7-.18,2.38-.94,2.27,2,.91.51.34.26.67.59Z"/><path class="cls-22" d="M87.27,30.76c-.12,1.62-.12.51-.45,2-.91-.94-2.39-5.37-1.7-6.65.8.59.68,1.11,1.14,2.3a13.29,13.29,0,0,0,1,2.39Z"/><path class="cls-44" d="M98.18,91.34l.57-.09c-.68,1.54.23,0-.34.94-.46.26,0-.51-.46.51l-1,.08c-1-1-1.59-.68-3-.43v-.43c-.11,0-.11-.17-.11-.17l-.23-.51h.45c.23-.34.12,0,.57-1a2.4,2.4,0,0,1,.23-.85c.34-1.54.12-.59,0-1.78-.68.34,0,.34.22,1.53a7.7,7.7,0,0,1,.12,1.62c-.22.68.12.17-.45.51a5.47,5.47,0,0,1,1.47-.17c.91,0,.46-.08.8.43l.68-.68c.22,1.11-.23-.17.45.51Z"/><path class="cls-30" d="M81.25,55c-.34-.43-.12.09-.34-.59l-.23-.85c-.23-1.79.57-3.75-.23-5.37-1.14.51-.22.17-1.14,1a3.78,3.78,0,0,0-.67.51l-.68.59-.23.17.68-2.21.45-.68h2.27A13.59,13.59,0,0,1,81,51.29c0,1.54.35,2.48.23,3.67Z"/><path class="cls-22" d="M76.37,35.27v.08c-.23.85.45.77-.57.68,0,.09-.12.09-.12.17-.45,1,1-.68-.68.26A16,16,0,0,1,72.84,33v-1c0-.08.12-.17.12-.26l2.16,2.39c.12,0,.12.09.12.17.91.94-.23.26,1.14,1Z"/><path class="cls-29" d="M100.22,65.27c-4.43.59-2.49.08-4.31,2.64-.57.68-.34.35-.8.68A3.26,3.26,0,0,1,95,66.79c.34-1.19.34-.76,1-1.36,1-.68,4.66-.94,5.45-.43L100,64.92Z"/><path class="cls-45" d="M101,46.09a16.48,16.48,0,0,1-3,2.38l-.57-.17v-.85l-.12-1.19c1,.17.57.09,1.94-.34-1.14.08-.45.08-.91-.51,2,.43.91-.17,2.38-.26l-.22.77Z"/><path class="cls-46" d="M88.52,44.39c.12,1.7,0,1,.91,2.13.57.68.46.93.8,2.21-1.37-.51-.23-.08-.8-.43-1.14-.67.46.17-.57-.34l-.11.51c-.23-.51-.12-.17-.57-.42,0-.85-.12-1-.46-1.37l-1-2.89.91,1c.79-.35,1,.43.57-.94h.57Z"/><path class="cls-42" d="M78.86,26.5c-.68-.35-.45-.26-.68-.51-.11,0-.11-.08-.22-.17s0-.09-.12-.09l-.12-.08L76.37,25c.45-.43-.12-1.54,2.84-1,1.14,2.39-.23,2.47-.35,2.56Z"/><path class="cls-39" d="M71.59,19.85a4,4,0,0,0-1.7.76c.34.35-.12,0,.57.35a3.8,3.8,0,0,1,.57.26l-.8.59c.23,1.45.57,1,.57,2.89l.12,1.62-.34-.43-.35-2.22c-.11-.85-.79-.94-1-.59-.34-1.87.23-3.32,1.59-3.75.57,0,.68-.18.8.51Z"/><path class="cls-16" d="M105,41.15c-1,.76-1.25,1.7-2.27,2.56l.12-1.28.79-1.62c.91-.6.8-1.2,1-2.05.67-.17.79-.17,1.59-.34-.45,1.45-.91,1.45-1.25,2.73Z"/><path class="cls-47" d="M93.75,93.72v-1.2l.22-.17c1.37-.26,1.94-.59,3,.43-.22,1.11-1.36,1.62-2.84,1.54Z"/><path class="cls-48" d="M109.54,50.43l-2.5-.26c0,.09-.11.09-.11.18-.12.34-.35.25-.46.34l-.57.43a2.42,2.42,0,0,1-1.47.34V51l-.23-1.1,1,.34c1.14-.68,2.27-1.37,3.52-.76s.68,0,.8.93Z"/><path class="cls-49" d="M68.52,62.2a3.66,3.66,0,0,1-.67.51c-1,.85-.35-.09-.8,1.1,1.94,1.79-1.37-.59,1.47.77,0,.08.12.08.23.17-1.14.51-3.52,0-4.88,0,.11-.43-.23-.43.34-.43l.91.43c.23-.34,2.27-3.67,3.41-2.56Z"/><path class="cls-50" d="M105.79,56.82l-.91.17v.85c-.79-.59-.34.09-.79-1-.35-.76.11-.26-.57-1.11H101.7c0-.08.12-.43.22-.43A.41.41,0,0,1,102,55a.36.36,0,0,1,.12-.26l1.59-.17.68-.17v1.28c.8.34.91.26,1.37,1.19Z"/><path class="cls-51" d="M107.72,35.95l-.57,1.54c-.91.77-.45.43-.34.94h-.57c-.8.17-.91.17-1.59.34.45-.51,1.24-1.54,1.24-1.54.91-.43.23.26.8-.85a6.5,6.5,0,0,1,.34-1.19c0-.17.12-1,.12-1,.35-1,.12-.59.91-1l.22.59c-.22,1.19-.68.51-.91,1.45-.35,1.54.12.34.34.76Z"/><path class="cls-26" d="M115.44,88.35a2.9,2.9,0,0,1,2.39.17l-.34,1.54a7,7,0,0,1-1.37,0L115,89.63c-.57-.51-.11.43-.34-.68.57-.76,0-.26.79-.59Z"/><path class="cls-5" d="M107,55.21v.51c-.45.51-.34.18-.57,1.28l-.67-.17c-.46-.93-.57-.85-1.37-1.19V54.36c1.47-.43.68,0,1-.68,1,.17.35-.17.68.59l-.12,1.2Z"/><path class="cls-29" d="M104.2,49.93l.23,1.1a7.7,7.7,0,0,0-2.27-.17c-1.14.17-1,.17-1.37,1l-.57-.59-.11-1c.45,0,.34.09.22-.43l.91-.59c.34,1.45.11.76.91,1.45l.91-.85.91-.34v.17Z"/><path class="cls-20" d="M85.79,31.78a3.48,3.48,0,0,1-2.61-1.54c.34-.93.11,0,.45-1.19l-1-1.28c.79.34.45-.43.67.68,1.14-.26.12.08,1.14-.43,0,1.87.8,2.56,1.37,3.75Z"/><path class="cls-14" d="M84.2,70.63l-1.14-.25L82.15,70,82,69.86l-2.17-.76c.68-.68.12-.77,2.39-.68a2.91,2.91,0,0,0,1.82,1.36Z"/><path class="cls-10" d="M75.11,52.48,73.06,52a2.38,2.38,0,0,1-.45-.85h.8c.79,1,2,.34,2.73-.26h1.59c-.57,1.37-1,1.2-2.61,1.62Z"/><path class="cls-51" d="M107.27,32.54l-1.14-.34-.57.17-1.25.26a1.9,1.9,0,0,1-.68-.34l-.34-1c1.94-.08.45-.51,2.5.35,1.36-.77.11-.26,1.47-.59Z"/><path class="cls-19" d="M109.77,53.16l.67,2.56-1.14.18c.23-1.46.35-1.11-.34-2.13-1.14.67-.34-.51-1,1s-.57.26.34,1.11L107,55.72v-.51l1.48-2.13.79-.35c.35.26.35-.08.46.43Z"/><path class="cls-24" d="M79.77,37.23,78,36.8c-.45.51-.35-.25,0,.68l-.68-.08c-.68-1.11-.23-.77-1.47-1.11l.67,1.19H75.9l-.91-1c1.7-.94.23.76.68-.26,0-.08.12-.08.12-.17,1,.09.34.17.57-.68,1.14.35,1.24.09,2,.77s.23.51,1.37,1.1Z"/><path class="cls-52" d="M109.31,55.89l-.67.25-.35.35c-.68.59-.22.43-1.25.43v-1.2l1.25.18c-.91-.85-1,.51-.34-1.11s-.12-.35,1-1c.68,1,.57.67.34,2.13Z"/><path class="cls-53" d="M83.86,97.89l.8-1.62.34-.09,2.39-.68c-.68,1.28-.12,1.28-.68,2.39-.79-.08-.79-.51-1.47-.76-2,.93.23-.26-.8.34-.34.17-.22.17-.57.43Z"/><path class="cls-33" d="M70.57,25.9l-.12.85-1,.25-.23-3.91c.23-.35.91-.26,1,.59Z"/><path class="cls-46" d="M88.4,41.58l.35,2.3h-.57c.45,1.37.22.59-.57.94l-.91-1-.11-.51c.56.34.45.09.79.43a5.88,5.88,0,0,0,.12-2.81c1.14.77.68-.59.91.68Z"/><path class="cls-8" d="M105.23,34.59c-1.37.26-.12.17-1.37.17a10.48,10.48,0,0,1-1.7.09L102,33.31l1-.26c1.37.43.46.51,1.25.85h.35c.11,0,.34-.09.45-.09Z"/><path class="cls-21" d="M82.27,29.65c.23.94.23,1.28-1.36,1.37l-1.37-.77.57-1.36c2.16.34.12.43,2.16.76Z"/><path class="cls-30" d="M103.06,49.84l-.91.85c-.8-.68-.57,0-.91-1.45l-.91.59.12-2.3c.45-.43-.68-.51.8-.34.22,1.62,1.14.76.79,2.89Z"/><path class="cls-10" d="M67.27,56.91a11.43,11.43,0,0,1-1,3.41l.23,1.45c-1-.51-.12.43-.91-.59-.12-2.81,1-2.3,1-4.86.57.34.45-.09.68.59Z"/><path class="cls-51" d="M82.38,22.74c-1.82-.59-1.82-.43-2.73-1.78-.68-.94-.35-.26-1-1.28l1,.26c1.14-.09,2.16,1.87,2.73,2.8Z"/><path class="cls-33" d="M123.06,89.12h-.91c-.68,1.54-.8.6-1.82,1.88l-.68.17c-1.59-.09-.34.17-.8-.68a2.11,2.11,0,0,0,1-.43,3.36,3.36,0,0,0,.79-.76,13.45,13.45,0,0,1,2.16-.85Z"/><path class="cls-22" d="M84.54,40.21a6.53,6.53,0,0,0,2.61.18V36.72a9.94,9.94,0,0,1,.12,5.19c-1.7-.51-1.47-.51-2-1Z"/><path class="cls-42" d="M76.25,23.59l.12,1.28L74,25c0-.09-.12-.17-.12-.26s0-.26-.12-.34v-.26a.27.27,0,0,0-.12-.26c.8-.43.68,0,1.82-.76.12.08.35.08.35.17.22.76.11.09.45.34Z"/><path class="cls-54" d="M103.63,93.38a3.6,3.6,0,0,0,.8,1.46c-.68.76-.23-.09-.68.93,0,0,.12,0,.12.09.12.59.45-.17.57,1.11l-1.14.67.23-3.15c-.91-.93-1.14-.51-1.6-1.78,1.25.51.68.59,1.7.67Z"/><path class="cls-55" d="M95.34,86.65l.23-.59c-.68.17-.68.08-1,.34L94.43,85l1.47.08c.45-.51-.45-.76.57-.34.23,1.19,1.82,2.13-1.14,1.87Z"/><polygon class="cls-56" points="111.02 53.76 111.81 56.99 110.45 56.23 110.45 55.72 109.77 53.16 110.22 53.16 111.02 53.76"/><path class="cls-42" d="M114.65,85a2,2,0,0,1-1.47.85,5.53,5.53,0,0,1-2.05.17l.35-1.37,1.59.09Z"/><path class="cls-57" d="M77.84,58.19l-.68-.85c.68-.17.35-.17.35-1.54l1,.43c0,.09.22.76.22.76.46,1.2.35.43.23,1.88-1.25-.35-.23.43-1.14-.68Z"/><path class="cls-42" d="M105.56,32.37c.68,1.62-.12,2.05-.12,2.05s-.12.08-.22.17l-.12-.77c-.12,0-.35.09-.45.09h-.35c-.79-.34.12-.43-1.25-.85.8-.76.23-.09.57-.76a1.9,1.9,0,0,0,.68.34Z"/><path class="cls-6" d="M99.65,90.82v1c.46.34.12,0,.46.25l.45,1.2c-1.82.34-.57.26-.91-.35s-.45-.43-1.24-.76c.57-.94-.35.59.34-.94l-.57.09c.57-1.11-.8-.51.8-.85l.79-.17-.68.34c.23.26.35.09.57.17Z"/><path class="cls-56" d="M97.49,48.3c-.79.94-.57,1-1,1.79a16.34,16.34,0,0,0-1.14,1.19l-1,1.54a17.07,17.07,0,0,1,1.36-3,10.77,10.77,0,0,1,.8-1.37,5.68,5.68,0,0,1,.34-.59c.35-.34.23-.17.68-.43Z"/><path class="cls-58" d="M101.7,55.72a9.93,9.93,0,0,0-.91.51,5.55,5.55,0,0,1-1.24.68c-1.7-.35,1.14.59-.46-.09a1.23,1.23,0,0,0-.45-.26l.23-.34,1-1.28,1.25.68c.12-.09.22-.17.22-.26s.12-.17.23-.17.12-.17.12-.26l.45-.26A.36.36,0,0,0,102,55a.41.41,0,0,0-.12.34c-.11,0-.22.35-.22.43Z"/><path class="cls-59" d="M115.11,59.81c-1.47,0-1-.08-1.7.59l-.79-.08.11-.43.91-.43c1-.43.68-.09.79-1l-1.81-.6h1l1.59.09Z"/><path class="cls-60" d="M97.95,49.41a4,4,0,0,0-.57.85,3,3,0,0,1-.34.68c-.45.68.12,0-.57.68v-.94l-1.14.59a16.34,16.34,0,0,1,1.14-1.19c.45-.77.23-.85,1-1.79l.57.17Z"/><path class="cls-61" d="M100.11,62.2c-.12,0-.8-.26-1.25-.34-.8-1.2.22-.18-1.14-.77,0-.08.12-.17.12-.26l.11-.17.46-1.11c.11,0,.22.18.22.26s.12.17.23.26c1.59,2.22.22.43,1.25,1.19Z"/><path class="cls-62" d="M108.52,53.08,107,55.21l-1,.26.12-1.2c1.25-.59,1-.51,1-1.87,0,0,0,.17.12.17s.12.17.12.17c.91.68-.8.77,1.14.35Z"/><path class="cls-54" d="M101.25,28.63l-.46-.09c0-2.56.68-.76,1.25-2.72l1.25.09c-.45.76,0,.17-.45.76-.35.43-.35.26-.68.59-.68.59-.57.35-.91,1.37Z"/><path class="cls-36" d="M69.88,51.8c-.45,1.62-.34.26-.8,1.36-.45,1.37.12.35.12.43l-.34-.17c-1-.93-.35-.76-1.7-.85L67,51.88c.34-.34-.57-.34.8-.17.79.09,0,.09.57.17a4.62,4.62,0,0,0,1.47-.08Z"/><path class="cls-37" d="M102.49,86.82c-1.24.51-1.14.59-2.38.17.22-.76.22-.59.45-1.36l1.14-2.22-.57,2.9c.91.67,0,.34,1.36.51Z"/><path class="cls-57" d="M113.63,59.47l-.91.43h-.22l-.35-1.2c-.11,0-.34-.25-.34-.34-.23-.43-.68-.17-.12-.76h.45c.46,1,0,.76,1.7.76Z"/><path class="cls-3" d="M104.43,54.36l-.68.17c-1.7-.59-.34-1.37-.34-1.87.12-.17.12-.09.22-.17.8.43.68-.09.35,1.1,2-.25.68-.25,1.25.18a.48.48,0,0,1-.23.08c0,.09-.12.17-.12.17Z"/><path class="cls-60" d="M99.2,33c.45-.67-.12-.25.68-.93l.45.08a3.84,3.84,0,0,1-.45,2.73c-.8-.6-.34-.77-.68-1.88Z"/><path class="cls-46" d="M85.79,72.33l-1.25-.17-1.82-1.62.35-.17,1.14.25a5.47,5.47,0,0,1,1.59,1.7Z"/><path class="cls-32" d="M78.29,18.66a6.6,6.6,0,0,1-1.82.08c-2.73-.08-.91,0-1.59-.76A17.48,17.48,0,0,1,77,18a1.36,1.36,0,0,1,.8.17c.45.26.23.26.45.51Z"/><path class="cls-39" d="M100,30.24c.12-.51,0-.17.12-.59.11,0,.11,0,.11-.09s.12-.08.23-.08c.8.08.68,0,1,.26.57.51-.12-.35.35.85l-1.48.67Z"/><path class="cls-5" d="M108.64,56.14l.67-.25,1.14-.18-.22,1.37c-1.7.43-1.25.59-1.59-.94Z"/><path class="cls-63" d="M73.75,57.08l-1.36.09c.22-1.11.22-1.54,1.24-1.7.68.85.57.43.12,1.62Z"/><path class="cls-64" d="M122.38,90.57l.68-1.46.34-.85c.8,1.7.12.26.8,1.11.23.35.23-.43.23.85a2.49,2.49,0,0,0-2.05.35Z"/><path class="cls-65" d="M124.2,88.18l-.8.08-.34.85-.23-.67-.22-1.79c1.25.26,1.14.51,1.59,1.54Z"/><path class="cls-34" d="M122.38,90.57l-2,.43c1-1.28,1.14-.35,1.82-1.88h.91Z"/><path class="cls-51" d="M102.72,43.71l-1,1.54c.68-1.37.34-.26-.45-.77l-.46.68c.46-.85.57-.93.91-1.7l.45-.68.68-.34Z"/><path class="cls-18" d="M112.38,89.63c-1.82-.34-1.14.09-1.47-1.7,1.36.34,1.7.26,1.47,1.7Z"/><path class="cls-66" d="M107.38,59.73v-.94l.91.09c1,.51,1-.6.8.85-1.37.76-.57.51-1.7,0Z"/><path class="cls-67" d="M111,53.76l-.79-.6c0-.85-.23-.43.34-.93l-1-1.45,1.37.51Z"/><path class="cls-45" d="M103.06,37l-.34.51c-1-.17-.45.43-.8-.59.46-1.11-.57-.85,1.6-.76-.23.51.22.43-.46.85Z"/><path class="cls-30" d="M78,37.48l.57.51-2.16.34a3.1,3.1,0,0,1-.46-.85h.57l.8-.08Z"/><path class="cls-16" d="M101.7,45.24l.12.59-.8.26-.45-.17.22-.77.46-.68c.79.51,1.14-.59.45.77Z"/><path class="cls-26" d="M75.8,19.68c-1.48,0-1,0-1.25-.68.34-.59.79-.43,1.59-.34Z"/><path class="cls-68" d="M96.59,97.73c-.68-.26-.91-.34-1.48-.51-1.36-.43-.91.35-1-.59l.57.26-.12-.59c1.25.68-.11.68,2.05.68.57.59.12,0,0,.76Z"/><path class="cls-44" d="M72.61,18.66a7.45,7.45,0,0,1-1,1.19c-.12-.68-.23-.51-.8-.51.8-.94.57-.85,2.05-1Z"/><path class="cls-33" d="M92.95,72.76l-.34.26.12-.85a4.69,4.69,0,0,1,.79-.59c.91-.68.12-.17.8-.43-.57,1.37-.12,1.11-1.37,1.62Z"/><path class="cls-47" d="M106.7,60.06c-.57,1.45.34,1.37-1.47,1.45.67-1.54-.12-.85,1.47-1.45Z"/><path class="cls-69" d="M104,49.67V49.5c.45-.68.57-1,1.36-1.11l.12,1.11Z"/><path class="cls-33" d="M63.52,65.27l-1.25-.43c.46-1.2.23-.68,1.14-1.11Z"/><path class="cls-70" d="M113.63,59.47l.22-1.11c-1.7,0-1.24.26-1.7-.76l.46.25,1.81.6c-.11.93.23.59-.79,1Z"/><path class="cls-5" d="M69.77,63.64l-.12.26H68.18c.57-1,.12-.85,1.37-.85Z"/><path class="cls-60" d="M79.66,19.94l-1-.26c-.12-.43-.23-.68-.35-1,1.37,0,.91.17,1.37,1.28Z"/><path class="cls-2" d="M75.9,109.91v.17l-1.36.68c.45-.77-.12-.09.57-1,.91-1,.34-.34.91-.59Z"/><path class="cls-71" d="M77.16,57.34l-.34-.17c-.12-1.7.12-1,.68-1.37,0,1.37.34,1.37-.35,1.54Z"/><path class="cls-10" d="M111.81,57l-.12.6a3.66,3.66,0,0,0-1.14-.43l-.12-.94Z"/><path class="cls-72" d="M77.27,37.4l-.8.08-.67-1.19c1.24.34.79,0,1.47,1.11Z"/><path class="cls-47" d="M103.41,59.81a3.16,3.16,0,0,1,.34-.68c.12.18.35-.25.35.85-.12.94,0,.26-.46.68-.34-.59-.34.68-.22-.85Z"/><path class="cls-27" d="M102.84,42.43l-.68.34.45-.93.12-.09c0-.08.12-.17.12-.26.68-.76.12-.25.79-.67Z"/><path class="cls-13" d="M73.18,31.44c-.68-.68-1.14-1.11-1.14-1.79,1,.26.23-.34.68.51a12.23,12.23,0,0,0,.45,1.28Z"/><path class="cls-73" d="M93.52,54.27c-.34.35.68.51-.68.26l-.22-.94.22.18c0,.08.12.17.23.17Z"/><polygon class="cls-71" points="88.4 76 89.32 76 88.86 76.94 88.4 76"/><path class="cls-17" d="M47.84,57.38c.12.85,0,.26.34.85.68.94.45-.51,0,3.07-2,0,.45.76-3.86,1.19.34,1.45.12-.08.45,1.11-1.47.68-1.82,2.22-1.82,4.43L41.81,68c0,1-.11,2.3,0,3.32.23,1.45.35-.26.23,1.11-.23,2.3.12-1-.57,1.62,1.14.51.23-.08.8.68l.79,1.11c.57-.26.68-.09,1.48-1.45.67.17.45.67.34,1.53A4.71,4.71,0,0,1,44.43,77c-.35.68-.23.26-.35,1.28.8-.51.46-.17,1-.85a3.63,3.63,0,0,1,.91-.76c.57-1.37.45-1.7,2-2.22.23-1.87.12-1.11,1.82-2.64,0-.09-.22-.26-.22-.18l-1-.85c-.79-1.1.46-.59-.67-.93-.57-.51.34-.26-.57-.35-1.37-.08.45.26-.91.18L45,68.88c0-.08-.12-.08-.23-.17L45,65.9a12.22,12.22,0,0,0,3.29-.17V63.34c0-1.28.12-.85.45-1.7.45-1.19.12-.76.91-1.36a3.66,3.66,0,0,1,1.47-.43,6,6,0,0,0,1.47.34,7.57,7.57,0,0,0-.34-1.62c-.91-2.65-.12.17.23-2.56l-.91-.43.12.93c-1.47.85-.68-.25-1.25.94.35.68.68.59,1,1.19,0,.09.35.77-1,.17l-2.16-2Z"/><path class="cls-68" d="M49.88,71.79c.35-.6.45-.85.68-1.2l1.14-1-1.14.09c-.57-1.62-.12-.43-1.14-.94.57-1.28,1.14-1,3.07-1.19V65.73c1.14-.26.67.34,2.38-3l.35-1.87c-1.25.85-.23.85-2.5.76L51.37,60c0-.09-.12-.09-.23-.17a3.66,3.66,0,0,0-1.47.43c-.8.59-.46.17-.91,1.36-.34.85-.45.43-.45,1.7v2.39A12.22,12.22,0,0,1,45,65.9l-.23,2.81c.12.09.23.09.23.17l1.47.77c1.37.08-.45-.26.91-.18.91.09,0-.17.57.35,1.14.34-.12-.17.67.93l1,.85c0-.08.22.09.22.18Z"/><path class="cls-1" d="M43.18,37c.12,2-.57.94-.45,2.72.22,3.24-1.94,3.24-1.37,7.07.68,1.11-1.14-.68.68.34s-.12.43,1.82.85c-.57-2.72-1-3-.91-4.34,1.82,0,1-.35,1.82.76.23-1,.23-.59,1.14-.43l.45-2.89c.12,0,.23-.17.23-.17s.12-.26.23-.35c.11-1.11.11-.26-.23-.34-.91,1.11.12.34-1.14.68-.12-1.46-.23-.68.23-1.88,0,0,.22-.67.22-.76l1-.43c.23-.17-.11-.26.8-.34l1.37.34-.91-.94c-1.25-1-.45-.59-2.27-1.1V34.29c1.25-.43,1.14,0,1.48.26s.45.51.79.85c.8.85.68.17,1.37,1.36l.91.17-.22-1.45a2.54,2.54,0,0,1-.91-.93c-1.59-.43-2-.26-2.61-1.62V32.5l-.23-.17-.68-.59a3.79,3.79,0,0,0-.67-.51c-.91-.85,0-.51-1.14-1-.8,1.62,0,3.58-.23,5.37l-.23.85c-.22.68,0,.17-.34.59Z"/><path class="cls-2" d="M31.82,55.08l.12,1c.91.77,2.73,6.13,3,7.16l2.49,7c.8,1.45,1.48,2.47,2.27,4s1,3.32,1.82,4.6c.57.85.68.77.8,1.79.45.34.11-.17.67.59a6.38,6.38,0,0,1,.57.77c.35.59.57,1,1,1.7.45-.26.34.59.45-.6-1.14-.93-.45-.67-1-2.47l.11-.76c-.91-.85-1.24-2.05-1.93-3.16-.91-1.78-1.37-1.36-2.05-3.49l-3.4-10.91c-1.82-2.73.86-2.8.67-5.8,0,.62-.45.51-1.24.85l-.12.68-.45.94-.46-.94L33.3,53.89c-.8.26-.46-.94-.8.85l-.23-1c-.79,0-.67-.26-.57.51Z"/><path class="cls-3" d="M50.8,37.53c1,.17,1,.59,1.24,1.7l-1.36-.09c-.45-1.19-.57-.76.12-1.62Zm-1.48-3a2.54,2.54,0,0,0,.91.93l.22,1.45a2.24,2.24,0,0,1-1.25,1.46c0-.09-.11.08-.22.17l.79,1.36c-1-.51-.11-.76-1.47.09l.45-1.45c-.57.59-.34.51-1.14.68l-.34.17-.68.85c.34.08.34-.77.23.34l.11,1.11c.8-.43.35-.17.68-.17a10.09,10.09,0,0,1,1.82-.17A7.72,7.72,0,0,1,48.86,43L48,44c1.24,1,.79.85,1.93,1.11.91-1.79-.12-2,.23-3.75l.22.93c2.17.17,1.25-.43,3.07-.26l.12,1.46c2.61-.68,1.93-.09,2.16.17L57,43.5c-.12-.09-.23-.35-.23-.26l-1-.51V41.54c.12-.94-.57-.68-.68-1.28-.23-1.37.57-1.62-1.25-3.5l1-.68-1-2v-.18L51.37,34Z"/><path class="cls-4" d="M21.71,19.55,21.37,19c-.91-.51-.8-.68-2.05-.35l-.45.26-.34-.26v.59s.79,1,1.24,1.54c.23.85.12,1.45,1,2.05.67.43.11-.09.79.67,0,.09.12.18.12.26l.12.09.45.93.45.68c3.19.59.23-.08,2.16,1a7,7,0,0,0,.8-2.38c1.37-1,.45.25,1.37-1.37-.12-2.56-.46-6.3-1.82-7.76-.35,1.11.12,1.28-.68,1.88a3.84,3.84,0,0,1-.45-2.73c-.91.09-1,.26-1.82,0,.34,1.54,1.37,4.09.34,6.14-1.36.08-.57.67-.91-.77Z"/><path class="cls-5" d="M43.86,48l.79.09c.35-1.54.57-1.79,2.27-1.45l1,.26a7.47,7.47,0,0,0,1.59.25c.79-.67.12.6.68-.76.57-1.11.22-.09,0-.51L50,47.33c1.25-.09,2,.34,2.73.25,1.14,0,.8-.51,2.27-.59L53.74,45.8c-.57-.51-.11.17-.11-.26h.11l.91.17.22-.59c.46-1.37-.11-.94.8-1.45-.23-.26.45-.85-2.16-.17L53.41,42c-1.82-.17-.91.43-3.07.26l-.22-.93c-.35,1.7.68,2-.23,3.75C48.75,44.86,49.2,45,48,44l.91-1a7.72,7.72,0,0,0,.57-1.62,10.09,10.09,0,0,0-1.82.17c-.34,0,.12-.26-.68.17l-.11-1.11c-.12.09-.12.26-.23.35s-.12.17-.23.17L45.91,44c-.91-.17-.91-.59-1.14.43-.79-1.11,0-.76-1.82-.76-.11,1.36.35,1.62.91,4.34Z"/><path class="cls-13" d="M52.84,96.74l.57.68a4.6,4.6,0,0,1,1.47,1.28c.8.85.91.68,1.25,1.62-.57.18-6.7,1-8.18-.43l-1.82-.25-1.37-.09c.35,2-.22-.17.12.85.12.34-.12-.09.34.59,3.52.51,6.71,1.37,10.69,1.2,0-.09.11-.26.22-.26s.12-.09.12-.17c1.94-1.28,2-.68,4.09.34A5.81,5.81,0,0,1,62.5,104a11.42,11.42,0,0,1,3.07,2.56A14.06,14.06,0,0,0,67,107c1.25.59-.23-.08.57.35s.12.17.79.34c0-.68.23.51-.11-.26l-.12-.26a2.83,2.83,0,0,1-.45-1.87h.22l-.45-.17c-1.93-.43-1.37-.09-2.84-.94l-.91-.34c.34-.59-.23-.26.57-.59-.8-.43-1.94-1.11-2.05-2L61,99.9h-.46a4.4,4.4,0,0,1-2.73-1.28A17.77,17.77,0,0,0,56,96.91l-1.14.6c-.45-.85-.11-.6-.91-1.28Z"/><path class="cls-27" d="M72.73,80.55c.79,1.11,0,1.62-.35,2l-.67-1.11L72,82.77c-1.14.51-.68.34-1.82.26-.68,0,.12,0-.68.08a2.78,2.78,0,0,0-.79.09c1.93,1.45,1.59.94,1.93,2L69,84.9c.91,1.28.23.94.57,2.64.35,1,.68.77,1.14,1.88-1.36.76-1.14-.51-2.16.43,0,0,0,.08-.12.17s-.11.17-.11.17c-1.48,1.62-.91,0-1.25,1.37-.57-1.2.34-.51-.8-.94-.45,1.11-.79.51-1.14,1.11-.11,0-.11.08-.22.17-.35.68,0,1.28.12,2,.22.43-.23.34.67.43-.45-.94-.11-.35-.45-1.28,1.37.26.57,0,1.94.93A18.9,18.9,0,0,0,69,92.74c0-1.79-.11-.85,1.37-2,1.14-1.11.68-.94,1.47-2.22.46-.85,1-.68.57-2,0,.18-.45,0,.68.26.12-.26.35-.51.57-.93,1.14-2-.22-2.31,1.48-1.79l.22-1.87c-.79-.77-.68,1-.68-.94-1.24-.76.57-.68-1.36-2.21-.23,0-.45.25-.68.51Z"/><path class="cls-6" d="M12,71.7c-.23-1.45.12-1.37,1.47-1.7-.34,1.79.35,1.37-1.47,1.7ZM6.6,70.59A2.9,2.9,0,0,1,9,70.42c.79.34.22-.17.79.59-.23,1.11.23.17-.34.68l-1.14.43a7,7,0,0,1-1.37,0Zm-2.84.77a3.36,3.36,0,0,0,.79.76,2.11,2.11,0,0,0,1,.43c-.46.85.79.59-.8.68l-.12.17c1.94.34,2.16.76,4.55.85,2.16.09,3.64.09,5.8,0,.12,0,.68-.17.79-.17l.68-.35c.12-.08.12-.17.23-.17l-1.59.51c-.12-.17-.35-.43-.35-.35l.12-.67v.25a8.48,8.48,0,0,0-1.25-.76c-1.14-.43-.57.09-1.36-.85l2.61-.59c-.68-.43-.23-.09-.57-.51-1.37-1.78-.12-2.13-.12-2.13.91-.68,1.94.51,2.05.51l-.35-.77-2.16-.08-.57,1.78c-1.47.18-.57-.43-1.47.09-.57.34-.12.34-1.25.85a.65.65,0,0,0-.23-.68c-.12-.26-.45-.43-.57-.51l.12-1.2a3.67,3.67,0,0,1-1-.68c-.57.6-.45-.59-.45,1.28l-2.73.18c-1.48,2.89-.57.67-1.82,2.13Z"/><path class="cls-7" d="M36,23.64l0-.15h0Z"/><path class="cls-7" d="M37.89,25.3c0,.1.15-.14,0,0Z"/><path class="cls-7" d="M46.74,19.06s0,0,0,0Z"/><path class="cls-8" d="M46.47,18.87l-1.82.43c-.11.6.35.43-.57.35-.45.85-.11.43-.91,1a2.88,2.88,0,0,1-.91.51c-1.25.59-1.6.43-2.39,1.1L39.2,23c-.57.51-.34.51-2,1q-.06-.35-.12-.7l-.15,0A5.13,5.13,0,0,0,37,25.77c.34-.34.23-.09.79-.43l.05,0a2.47,2.47,0,0,1,.18-.29l.57-.6L40,23.73a5.27,5.27,0,0,1,1.14-1l2.95-1.36v-.17a2.5,2.5,0,0,1,1.82-1.11l.57-.51a1.12,1.12,0,0,1,.27-.49S46.61,19,46.47,18.87Z"/><path class="cls-74" d="M37.28,18.79a9.88,9.88,0,0,1,.45-1.62c.11-.17.34-.43.45-.59.34-.51.12-.26.45-.51V13.84C39.2,12.65,40,12,40,10.1c1,.51,0,.17,1.14.43.22-1.11-.12-.35.67-.68l-.11-.51V8.64c-1.25.43-1,.18-1.25-.08.22-.85-.45-.68,1-.77C42.16,4.13,44.2,5,44.77,3c-.91,1.36-.91,1.19-2.73,1.78-.68.18-.8.68-1.37,1.37a5,5,0,0,0-1.36,2c.68,1.28-.8,5.71-1.7,6.65-.34-1.46-.34-.35-.45-2-1.24,4.38-.92,6.1-1.13,10.67h0c.16-1-.2.2.88-.53,0,.14,0,.26,0,.37l.15,0A9.14,9.14,0,0,1,37.28,18.79Z"/><path class="cls-10" d="M28.75,64.88c.79.94.79.51,1,1.62-.68.77,1.14.68-1.25.68L30,67.1l-.11,1.36c-.35-.26-.35-.17-1-.34l.23.59v2.47c-.45.77,1,.68-1,.6l-1.94-.35c-.68-.59-.68.77-.57-1.19l-.79.26a5.86,5.86,0,0,0-2.73.25c-.91.43-.79,1.2-2,.77l-1.37.68c-1.7.34-2.27.85-3.75.85l-.12.67c0-.08.23.18.35.35l1.59-.51,3.06-1c.35-.43.12-.34.8-.59l1-.17c.68-.09,1.59-.43,1.82.25l1.25.35.79.17c1.6.34.23-.26.8.85.68-.68.23.59.45-.51l.68.68c.34-.51-.12-.43.8-.43a5.47,5.47,0,0,1,1.47.17c-.57-.34-.23.18-.45-.51a7.7,7.7,0,0,1,.12-1.62c.22-1.19.91-1.19.22-1.53-.12,1.19-.34.25,0,1.78a2.4,2.4,0,0,1,.23.85c.45,1,.34.68.57,1a67.61,67.61,0,0,0,.45-6.82A22.62,22.62,0,0,0,30.23,61L30,60.62l-.67-.09c.22,1.28.11.68,0,1.46s0,.34-.12.93c0,1-.45.68-.45,2Z"/><path class="cls-11" d="M45.57,8.56c-.12-.09-1.48-.17-.35-2.56,3-.51,2.39.59,2.84,1l-1.36.68-.12.08c-.12,0-.12.09-.12.09s-.12.17-.22.17c-.23.26,0,.17-.68.51Zm2.61-2.9c.35-.25.23.43.45-.34,0-.09.23-.09.35-.17,1.14.76,1,.34,1.82.76a.27.27,0,0,0-.12.26v.26c-.12.08-.12.26-.12.34s-.12.17-.12.26l-2.39-.09Zm0,0L47.39,6l.11-1.2-1.81-.34c.22.94-.35.43.34.76l-1.14.43a11.29,11.29,0,0,0-1.25.85L43.52,7c.12,0,.23,0,.23.17l.68.43c-.35.17-.57.17-.68.51-.57,1.87-.12.26.23,1,1.59.76.57,0,2-.17,1.25-.17.91-.43,2-1,.46.67.8.17,2.05,1.1L51,10.18c.68.17.45.26,1.37.51.57-1.11-.23-.35.79-.68,0-1.11-.34-2.3.46-3.24-.35-1.36,0-.51-.57-1-.91,1,.91.76-1.25,1.28-.45-.85-.45,1.19-.23-2a9.22,9.22,0,0,0,0-1.78.45.45,0,0,1,.23-.09H52l1.37.09A3.79,3.79,0,0,1,54,3c.68-.35.23,0,.57-.35a4,4,0,0,0-1.7-.76c-.45,1.28.45.26-.68,1-1.47-1.62,1.37,1-.45-.43-.57-.51.12.09-.57-.43l.23,2c-.8-.43-.12-.17-1-.09L50,4c-1.59.34.23.34-1.82.94Z"/><path class="cls-12" d="M31.82,35.65l-.22.94c-1.37.26-.35.09-.68-.26l-.8-1.45-1-1.54L28,32.76v.94c-.34,1.53,1.59,3.83,2.61,4.86l-.22,2.64-.68,5.63.34.43,1.37-6.82c-.34-1.7-.8-2.39.8-3.24l.79-.51L32.62,40l1-4.78c.8-.51.12,0,.57-1,.12-.34.34-.68.45-1a10.88,10.88,0,0,0,1-2.65L35.57,30c-1,.51.57-.34-.57.34-.57.35.57-.08-.8.43.34-1.28.23-1.53.8-2.21.91-1.11.79-.43.91-2.13C35,27.31,34,29.77,33.41,31a25.83,25.83,0,0,0-1.59,4.69Z"/><path class="cls-13" d="M41.14,42.39l-.35,2.21a4.8,4.8,0,0,0-.22,2.48c.34,1.62.57.51,1,2.3-1.7-.17-.68-.26-2.05-.68-.45,2,.8,2-.34,3.41l-1.26,2.3a6.57,6.57,0,0,0-.88,2.43c0,.26.26.07.23.31a6.21,6.21,0,0,1,1.46-2.21c.34-.43.67-1.81,1.46-2.24l.12-.85a2.91,2.91,0,0,0,1.82-1.36c2.27-.09,1.7,0,2.39.68l-2.17.76-.11.09-.91.43.35.17c1.81-.09.34-.26,1.47-.59.8-.26.34.59,1.14-.26.91-.68.12.08.68-.85l1.59-.68L48,49.46l3.41-1.37c-2.39-1-1.94,1.19-7.5,1.37.22-.94-.12-.68.79-1.37L43.86,48c-1.94-.43.12.18-1.82-.85s0,.77-.68-.34C40.79,43,42.95,43,42.73,39.74l-.35.43a1,1,0,0,1-.22.51c-.45.85-.45,1.36-1,1.7Z"/><path class="cls-14" d="M44.55,83.71c.57,1.36,1.36,2.21,2,3.66.34.51.68,1.37,1,1.79a5.23,5.23,0,0,1,.8,2c.57.26,0-.43.91.59.68.94.12.26.57,1A22.11,22.11,0,0,1,51.37,95a2.65,2.65,0,0,1,1.47,1.78L54,96.24c.8.67.45.43.91,1.28l1.14-.6L55.11,96,54,94.28c-.45-.09-.23.17-1-.68L50.68,90.7c-.57-.35-.57.34-.57-.35l-.23-.59v-.34c-.91-.77-.34-.6-1.25-1.62l-.34-.34-.68-1.37c-.22-.17.12.35-.57-.51a2.58,2.58,0,0,0-.34-.51A5,5,0,0,1,46,83.46c-.23-.09-.12.17-.45-.43,0-.09-.35-.68-.35-.85-.57-.94-.34-.85-1.24-1.54.57,1.79-.12,1.54,1,2.47-.12,1.2,0,.35-.45.6Z"/><path class="cls-75" d="M55.56,72.38l-.22,3.75-.68.17-1.59-.08L51.7,80.31c-.68-.6-.23-.43-.68-1.37-.68-1.28-.57-.43-.45-1.45.34-3.07.91-1.7.91-3.15-.11-2.22.23-.35-.57-1-.79,1.28-1.93,3.92-1.81,4.94.67.09.34-.17.79.17l.45,1.37V80l1.14,1.28.68-.26c.57-.34.57-.76.68-2l1.25,2.13.34-.43c-.45-.76.68-.51-1.14-.93.68-1.54.8-1.37.23-2.05L55,77.66c.8,0,.23-.34.68.51.23,1.62,0,.59.8,1,.91-.51-.68-1.45.45-2.81.34-.43.34-.26.68-.51l.22-2.8-.68-1.37c-.34.26-.67.34-.34,1.19-.23-1.87.12-.43-.68-1.19-.68.76,0-.76-.57.68Z"/><path class="cls-1" d="M33.87,95.47v.09c1.47,1.19.67.93,2.38.85a3.7,3.7,0,0,1-.79,2.3l-.57-.85c.22-.17.34.17.91-1.28l-1.93.34L33.3,98a3.06,3.06,0,0,1-.8-2.13H31.25a11.81,11.81,0,0,1-3.52.43c.57,1.11,0,.43.91,1.11-.35-.68.12.26-.35-.94l2.5-.17.34.85s.12.09.12.17a.25.25,0,0,1,.12.18c.45.59.23-.35.8,1l-.57.85c1.14,1.28.91.43.45.76-.68-.59-1.14-.43-2.05-.17l-1,.34c1.25.26.91.43,1.14.51a7.26,7.26,0,0,0,2.39.17c.91-1.36-1.37,1.2.68-.43l2.49-1.78.12.93.35.09c.79-.43,1-.35.79-1.11l-.22-.43c0-.09.11-.17.11-.26l.35-.51a.8.8,0,0,1,.22-.43c.57-.68,0-.26.8-.43l.57-.68-2-3.41c0,1-1.37,2.81-1.48,3Z"/><path class="cls-14" d="M29.66,46.82c-1-.09-.91-.51-1.37-1.45-.45-.26.12.34-.57-.51a4.9,4.9,0,0,1-.34-.68c-.12,0-.34-.08-.45-.08s-.23.26-.23.17-.22.26-.34.34l.68.51a4.33,4.33,0,0,1,1.36,2.39c.68.59.68.17,1,1.36a3.26,3.26,0,0,1-.11,1.79l.79,2.56c.68.26-.12-.26.8.43a4.68,4.68,0,0,1,.79.59c-.11-.76-.22-.51.57-.51l.23,1c.34-1.79,0-.59.8-.85l-.23-.43L33,52.1l-.22-.85c-.35-.43-.12.35-.57-.85a7.46,7.46,0,0,1-.23-.93,14.46,14.46,0,0,1-.34-2.39c-.35-2.05-.12-1.54.22-3.41A3.89,3.89,0,0,0,31.7,42c0-1.45,1.14-2-.34-1.62L30,47.24Z"/><path class="cls-14" d="M34.66,90.61l.57.68.35.68c.91.25.57-.09,1.14.59l2,3.41-.57.68c.12,1.28,1.59,2.47-1.25,2,.23.76,0,.68-.79,1.11a1.9,1.9,0,0,0,.57,1.36c1.81.26,2.49-.25,4.31-.08,1.47.08,2.73-.17,4.2-.09-.45-.68-.22-.26-.34-.59-.34-1,.23,1.19-.12-.85A8.07,8.07,0,0,1,40,98C40,95.56,38.87,95,38,93.26c-1.14-2.22-1-1.2-2.84-3.24,0-.09-.11-.09-.11-.17s-.12-.18-.23-.18Z"/><path class="cls-15" d="M23.18,61c-.45,1.2.12.18-1.14.85v1.54l.68,2.13,1.14,2.22c.45.93,0,.17,1,.68-.34-2.48-.34-.94,0-2.56a3.3,3.3,0,0,0,2.39.85l-.91-1.54a2.51,2.51,0,0,0,1.25.43l.34-.77.8-.76c0-.09-.12-.17-.12-.26l-.45-.68a1.26,1.26,0,0,0-.23-.93,9,9,0,0,1-2.84.43,8.39,8.39,0,0,1-.8-2.56c-.11,0-.22.08-.22.17l-.68.59c-.12-.08-.23.09-.23.17Z"/><path class="cls-26" d="M75.68,90.95c-.12,1.46,0,.6-.46,1-1.14-.51.68.76-.34-.26-.57-.59.45-.43-.45-.51-.91.26-1,.09-1.48,1l.57,1s.12.08.12.17l-.22.93,1,.35h.22a.55.55,0,0,0,.35.08c0-1.45-.12-1.19,1.36-1.45l-.22,1.54c2.49-.17-.12-.51,3.52-.94.11-.85-.23-1,.67-2,.68.85.68-.85.46,1.1s.57-1.36-.23.51c0,.09-.23.34-.23.51l.68,1.1h.57v-1.7l.12-2.89c-1.82-.51-.45,0-3-.09Z"/><path class="cls-16" d="M16,12.56c.8.43.23.26,1.14.51,1.37.34.12-.18,1.47.59,2.05-.85.57-.43,2.5-.35L22.39,13l.12.94,2,.17c.8.68.23.26.68.93,1.36,1.46,1.7,5.2,1.82,7.76a6.72,6.72,0,0,1-.12,3,8.41,8.41,0,0,0-.35.85c-.45,1,.12.34-.57.85-.45.59.23.59-.91.51,1.37.43.91.51,1.94.34,1-3.07,1.36-8.52-.12-11.25a8.63,8.63,0,0,0-2.5-4.78l-.34,1-1.48-.67c.46-1.2-.22-.35.35-.85.34-.26.22-.18,1-.26-.23-.68-.23-.59-.34-.94l-.46.09-1-.17c-1.93.34-.22,1.78-3.29,1.45l-.57,1c-2.5-2-2.27-.43-2.27-.43Z"/><path class="cls-34" d="M70.91,99c-1.14-.93-.45-.08-.8-.93,3-2.9,1.82-2.13,3.07-1.62,0,.09-.12.09-.12.26-.12,1-1.47,1.54-1.82,1.79ZM68.06,99l.34-.09c.23-.93-.11-.59.57-.85l.12.85.35.43c.79.77-.12.26.91.68l-.45.26.45.26h.91c0-.26-.11,0,.12-.85,3.29-1.11,1.14-1.79,3.86-1.46a4.54,4.54,0,0,0,2.39-.59,5.21,5.21,0,0,1-1.25-.17,10.64,10.64,0,0,0-1.14-.34l-.91-1.46c-.91-.93-.23.09-.91-1.28l.22-.93c0-.09-.12-.17-.12-.17l-.57-1c-1.24.6-2.84,2.81-3.41,4.09-1.24,2.56-1.14-.51-1.47,2.65Z"/><path class="cls-17" d="M22.5,74.77c-.46,1.28-.68.85-1.6,1.78l.23,3.15.57.85a11.39,11.39,0,0,0,3.41.18c1.82-.18,1.59-.68,2.73-.94-.12-.76-.57-.17,0-.76,2.16,0,.8,0,2.05-.68l.34-1.11h-1c-1.14,1.19-.45.34-1.7,1.11-1.48.85,0,1.36-2.73.76a7.68,7.68,0,0,0-.12-.76c-.12-1.2.57-.43,0-2.13-1.25-.35-.57.43-1.82-.59.57-1.62.12-1.28,1.47-1.46.35-.25,0,.09.46-.25v-1c-.68.35-.23,0-.91.51,0,0-.34.43-.45.43-.45.43-.57.59-.91.94Z"/><path class="cls-36" d="M28.19,91.8c0,.09-.12.18-.12.18l-1.37.51c-.12,1.79-.12.35-.34,1.28a2.15,2.15,0,0,0,.79.43l.68.77c-1.7,1.1-.57.34-3-.35l-.11,1.2h.34c1.14-.09.8-.18,1.7.08l.91.43a11.81,11.81,0,0,0,3.52-.43c.8-.85.57-.26.68-1.7a8.7,8.7,0,0,0,.23-1.87c-.12-.26,0,0-.23-.59s-.34-.35-.45-.68c-1.48.59-.35.85-1.14.68-1.25-.26-.57-.35-.8-1.45l.12,1.7Z"/><path class="cls-76" d="M21.71,97.17h-1l-.35.59a1.94,1.94,0,0,0,1.14,1.54c1.37.59,1.48-.43,2.39.77,1.94.25-.12.76,2.5.51,1.14-.17,1.36,0,2.39,1a21.33,21.33,0,0,1,2.38.09l1.25-.09c1.37-.25.57,0,.91-.43l-.8-.17a7.26,7.26,0,0,1-2.39-.17c-.22-.09.12-.26-1.14-.51l1-.34c1-.68.23-.09.8-.94l-.68.18c.12.93-1.14.51-3.41.25,0-.08-.12-.25-.12-.17l-.67-2-.46-.51Z"/><path class="cls-18" d="M14.89,71.1l1.14.08c.23-1-.12-.25.34-.93,2.5,2,0,1.28,3.64,1.28,1.25.43,1.14-.35,2-.77a5.86,5.86,0,0,1,2.73-.25l.11-1a4.92,4.92,0,0,1-3.18.18c-.34,0-1.14,1.28-.8-.43l-1.7-.51c-.34,1-.22.34-1.36-.09a6.37,6.37,0,0,0-1.94-.43l.35.77c-.12,0-1.14-1.2-2.05-.51,0,0-1.25.35.12,2.13.34.43-.12.09.57.51Z"/><path class="cls-19" d="M20,33.09v.43l-.45.77-2.05-.43-.22.59c0,1.37-.23,1.28,1,1.87.34-.76-.34-.43.68-.59.34.68-.45.26,1,.68l-.45-.35s-.12-.08-.12-.17a.48.48,0,0,1-.23-.08c.57-.43-.79-.43,1.25-.18-.34-1.19-.45-.67.35-1.1.11.08.11,0,.22.17,0,.51,1.37,1.28-.34,1.87l1.59.17.45.26c0,.09.12.17.12.26s.12.17.23.17.11.17.22.26L24.55,37l1,1.28-1.36-4.94-.57.59c-.35-.85-.23-.85-1.37-1a7.7,7.7,0,0,0-2.27.17Z"/><path class="cls-20" d="M24.88,39v1c1.14.85.46-.26,1.37,1.28,1.25,2.22.45,1.79.45,1.87-1.36.59-.34-.43-1.14.77,0,1.36,0,1-.68,2-1.47.09-1.59-.08-2.61.77l-1.14-.51-3.07-1.62c-1.24-.35-.57-.35-1.59-.85-1-.77-.45-.85-1.82-.68,1.14,2,3.76,2,4.55,3.24,1.37.59,1.82,1.11,3.76.85.79-.51,4.43-.26,5.45.43a4.33,4.33,0,0,0-1.36-2.39l-.68-.51c.12-.08.22-.51.34-.34s.23-.17.23-.17.34.08.45.08c.23-2.56-.57-3.75-1.59-5.54a1.24,1.24,0,0,0-.45.26c-1.6.68,1.24-.26-.46.09Z"/><path class="cls-21" d="M38.64,16.06c0,1.7-.23,1-.57,2L37.73,20c2.84-.08,2.38,2.39,4.77.59,1-.85-.45-.85,1.59-.93l.23-.94.8-.08c-1-.6-.57.25-.8-1l-.23.18c0,.08-.11.17-.11.17l-1.6.85c-.11,0-.22.08-.34.08l-.45-.34-.23-.17L41,18.1c-.57-.43-.45,0-.57-.51.12.09-.8.35.34.09.8-.17.35-.09.68-.34l-1.14-.77a4.87,4.87,0,0,1-.68-.43c.91-1.54.8,0,1.82-1.87-.34.09-1.7.26-1.82.34-.91.43-.68,1.79-.79,1.28-.12,0-.12.18-.23.18Z"/><path class="cls-54" d="M51.59,55.6l.91.43c-.35,2.73-1.14-.09-.23,2.56a7.57,7.57,0,0,1,.34,1.62,6,6,0,0,1-1.47-.34c.12.08.23.08.23.17l1.36,1.62c2.27.09,1.25.09,2.5-.76-.12-1.54-.35-1.45.57-2.22l.12-.67-1,.17-.11-2v-.51c-1.37-.51-.91-.17-1.7-1.19-1.7-.09-2.39-.59-4-.09l1.47.09.12.17c.12.09.12.17.22.26l.23.34c.12,0,.45.35.45.35Z"/><path class="cls-26" d="M66.7,78.26c2.5,0,1.25-.93,3-.43l-1,1.2-.34,1.53,1.7.18,1.81-.09v-.43l.91.34-.12-1c.23-.26.45-.51.68-.51,1.93,1.53.12,1.45,1.36,2.21,0,2-.11.17.68.94V80.64c-.79-.68-.12-.85-1-1.87-.57-.51-.91-.68-1.59-1.28-1.14-.26-2.16-1.11-3.29-.85a4.08,4.08,0,0,0-2.73,1.62Z"/><path class="cls-77" d="M28.52,85.24c-.45.94,0,.77-.8,1.46l-.22.67c.57,1.45-.12.43.79,1,.12-.34.8-.34-.34-1.19,1.14.17.91-.34,1.25.94.34,2-1.25-.77.45.93l.57.51c-1.7-.09-3-.26-4,.76,1.37,1.11.91-.26,1.94,1.45l1.47.18-.12-1.7c.23,1.1-.45,1.19.8,1.45.79.17-.35-.09,1.14-.68-.12-1.19-.35-.09.45-1.19-.8.08-.12.25-.8-.18l.35-1.36-1.37-.59c.23-1.45.35-.77,1.14-1.45l-1.36-2.39a3.05,3.05,0,0,1-1,1.11c-.34.93.12.93-.34.25Z"/><path class="cls-22" d="M51.25,13.5a12.22,12.22,0,0,0,.45-1.28c.45-.85-.34-.26.68-.51,0,.68-.45,1.11-1.14,1.79ZM51,10.18l-.91.26-.12.94c1.37-.26.68-.26,1.14.34l-.68,2.56a3.27,3.27,0,0,1-3,.59c.35,1,.8,1.28.57,2.48,1.37-.77.23-.09,1.14-1,0-.08,0-.17.12-.17l2.16-2.39c0,.09.12.18.12.26v1l1.14-1.1a12.52,12.52,0,0,1,1.14-1.46c1.25-1.28,1-1.45,1.14-3.41l-1-.25L53.86,8l-.34.43.12-1.62c-.8.94-.46,2.13-.46,3.24-1,.34-.22-.43-.79.68-.91-.26-.68-.35-1.37-.51Z"/><path class="cls-23" d="M55.8,41.54l1,.26c.57,1.1.45,1.7,1.37,2.3L58,43.83l.23-1.45a11.44,11.44,0,0,1-1-3.41c-.22-1.45-.22-1,.35-2.22-.12-.08-.23-.08-.23-.17l-.34-.34c-.45-.43,0,.25-.45-.51l.67-.59c1.14.68-.34-.09.57.59a.51.51,0,0,0,.46.09v-1.7l-.8-.18-.12.68c-1.36.09-.68-.08-1.7.85l-.34.17c0-.08.57.94.12-.43-.46-1.1-.35.26-.8-1.36l-.68.08v.18l1,2-1,.68c1.82,1.87,1,2.13,1.25,3.5.12.59.8.34.68,1.28Z"/><path class="cls-6" d="M76.13,94.87,75,94.78a.55.55,0,0,1-.35-.08h-.22l-1-.35c.67,1.37,0,.35.91,1.28l.91,1.46a10.64,10.64,0,0,1,1.14.34,5.21,5.21,0,0,0,1.25.17A4.62,4.62,0,0,0,79.77,97c.68-.51.8-1.11,1.25-1.79l-.68-1.1c0-.18.23-.43.23-.51.8-1.87,0,1.45.23-.51s.22-.25-.46-1.1c-.91.93-.57,1.1-.67,2-3.64.43-1,.77-3.52.94Z"/><path class="cls-47" d="M27.5,87.37c-.8.77-.12.35-.8.85l-.22,1.11-1.25.43v-.09c1.7.68.45,1.37.22,2.65l-2.38-.09v1.54l1.36.09c-.12,2.21.12.26-.34,1.7l.68.26.11-1.2c2.39.68,1.25,1.45,3,.35l-.68-.77a2.15,2.15,0,0,1-.79-.43c.22-.93.22.51.34-1.28L28.07,92s.12-.09.12-.18c-1-1.7-.57-.34-1.94-1.45,1-1,2.27-.85,4-.76l-.57-.51c-1.7-1.7-.12,1-.45-.93-.35-1.28-.12-.77-1.25-.94,1.14.85.45.85.34,1.19-.91-.59-.22.43-.79-1Z"/><path class="cls-19" d="M56.59,44.78a3.65,3.65,0,0,1-.67-.51c1.14-1.11,3.18,2.22,3.41,2.56l.91-.43c.57,0,.23,0,.34.43-1.36,0-3.75.51-4.88,0,.12-.09.23-.09.23-.17,2.84-1.37-.46,1,1.47-.77-.45-1.19.23-.25-.8-1.1Zm-.91-1.11c-.91.51-.34.08-.8,1.45,1.25,0,.8-.17,1.37.85H54.77l.22.17.68,1-3.18.77c.34.59-.57.26.79.43L56.82,48c1.14-.08,3.29.09,4.09-.67L61,45.8c-.8-.77-1.7-.51-2.84-1.7-.91-.59-.8-1.2-1.37-2.3l-1-.26v1.19l1,.51c0-.09.12.17.23.26Z"/><path class="cls-4" d="M2.05,68.29l-.23.43L1.6,70.51a13.44,13.44,0,0,1,2.16.85c1.25-1.46.34.76,1.82-2.13l2.73-.18c0-1.87-.12-.67.45-1.28l1-.67,1.59-.26c-1.25,0-3.86-.26-4.77.17a14,14,0,0,1-4.55,1.28Z"/><path class="cls-11" d="M42.16,11.71c2-.34,0-.43,2.16-.76l.57,1.36-1.37.77.91-.09c-.35.76-.12.34-.23.94,1.25-.6-.57.67.8-.85.68-.68.45-.6,1.47-.68,0,2-.22.43-1.14,2.13,1.59,3,1.37.68,1.59,2.56a3.92,3.92,0,0,0-1.47.93l-.34.6-.8.08-.23.94c.91.08.46.26.57-.35,1.14-.59.57-.43,1.37-1.1s.91-.43,2-.77v-.08c.23-1.2-.22-1.46-.57-2.48l-.34-.34c.57-.94.34-1,.23-1.37a5.06,5.06,0,0,1,0-1.36l.34-1.37a2.83,2.83,0,0,1-1.94.34c-.91-.08-.79-.34-1.47-.85l-.8.18c-.91.85-1.36.43-1.36,1.62Z"/><path class="cls-78" d="M65,85.07,67.16,85c.34,1,.34.43.11,1.53L68.4,87A4.71,4.71,0,0,1,66,88.31l.22,2.3c1.14.43.23-.26.8.94.34-1.37-.23.25,1.25-1.37,0,0,.11-.09.11-.17s.12-.17.12-.17c1-.94.8.34,2.16-.43-.45-1.11-.79-.85-1.14-1.88-.34-1.7.35-1.36-.57-2.64l-.22.09c-1.59-.35-1.14-.18-1.94-1.2l-1.14.26Z"/><path class="cls-5" d="M21.37,41.37c.57,1.36.45,0,.22,1.78H19.66c-.35,1.11-.46.43.11,1.37-1.7-.94-1.7,0-1.7,0l3.07,1.62c1-.08.8-.26,1.37-.93l-1.6-.26c1.7-.59,1-1.54,2.5-1.11l.91.43v-.94c1-.76-.34,1,1.25-1.19.12-.09.12-.17.23-.26s.12-.26.22-.26a3.57,3.57,0,0,0-2.16-1.28c-1.14.09-.34,1.37-.91,2.48-.12-.09-.12,0-.35-1Z"/><path class="cls-40" d="M41.81,65.73V68l1.14.08c0-2.21.35-3.75,1.82-4.43-.34-1.19-.12.34-.45-1.11,4.31-.43,1.82-1.19,3.86-1.19.45-3.58.68-2.13,0-3.07-.34-.59-.22,0-.34-.85l-.57-.08c-.35.34-.45,0-1,1.36.45,1.28.57.68.91,1.62l-2.61,1.19c0,.09-.23.17-.35.26-.68.68-.12.08-.57.68Z"/><path class="cls-79" d="M45,57.64,43.52,59v.25L42.38,61.3,41.71,64l.11,1.7,1.82-3.32c.45-.6-.12,0,.57-.68.12-.09.35-.17.35-.26l2.61-1.19c-.34-.94-.45-.35-.91-1.62.57-1.36.67-1,1-1.36l.12-.09c-1.37,0-1.14.26-2.39.43Z"/><path class="cls-24" d="M46.14.72c-.12.34-.23.59-.35,1-.67,1-.34.34-1,1.28-.57,2-2.61,1.11-3.29,4.77-1.47.09-.8-.08-1,.77.22.26,0,.51,1.25.08v.68L42.16,9c.12-1.28.45-.09-.23-1.45,2.05-.68-.22-.6,1.7-1a11.29,11.29,0,0,1,1.25-.85L46,5.23c-.68-.34-.12.18-.34-.76.34-.34-.23-.09.67-.59-.11-3,.57-2.22,2.27-2V1.74l-.34-1c.8-.09,1.25-.26,1.59.34C50.23.8,50,.8,50.8.72h1L51.59.38,51.14,0H49.55C48.86.8,50.68.72,48,.8A6.59,6.59,0,0,1,46.14.72Z"/><path class="cls-25" d="M19.55,39.91v.77c1.14,0,1.25.08,1.82.68l1.24.43c.23,1,.23.93.35,1,.57-1.11-.23-2.39.91-2.48A3.57,3.57,0,0,1,26,41.62l.46,1.11.11.17c0,.09.12.18.12.26,0-.08.8.35-.45-1.87-.91-1.54-.23-.43-1.37-1.28V39a5.54,5.54,0,0,1-1.24-.68,9.91,9.91,0,0,0-.91-.51H20.91c-.67.85-.22.35-.57,1.11-.45,1.11,0,.43-.79,1Z"/><path class="cls-80" d="M63.18,84.74l.34.26,1.7,2.21V90.1L64,90.87,64.09,92l.45,1.78.46.09c-.12-.68-.46-1.28-.12-2,.12-.09.12-.17.22-.17.35-.59.68,0,1.14-1.11L66,88.31A4.71,4.71,0,0,0,68.4,87l-1.14-.51c.23-1.1.23-.51-.11-1.53L65,85.07l-.57.51a1.36,1.36,0,0,1-.23.26c0-1.7.68-2.31.57-4.26-.91,1-.45,1.78-.91,2.64-.46.59,0,.09-.68.51Z"/><path class="cls-26" d="M24.32,60a8.39,8.39,0,0,0,.8,2.56A9,9,0,0,0,28,62.15a1.26,1.26,0,0,1,.23.93l.45.68c0,.09.12.17.12.26l-.8.76.8.09c0-1.28.45-.94.45-2,.12-.59,0-.26.12-.93s.22-.18,0-1.46c-1-.43-.35-.59-1.6-1.45l-1.36.59c-.8-1.1,0-.43-1.25-1-1.37,1.7.12.85-.8,1.37Z"/><path class="cls-27" d="M21.14,13.33l-.34,1c.34.67-.23,0,.57.76l1,.26-.12,1.54a10.49,10.49,0,0,1-1.7-.09c-1.25,0,0,.09-1.37-.17-.11-.09-.22-.26-.22-.17s-.8-.43-.12-2.05l-.57-.17-1.14.34C17.61,16,18.75,18,18.86,19l.45-.26c1.25-.34,1.14-.17,2.05.35-.68-.43-.23-.35-.46-.85,2.17-.09,1.14-.35,1.6.76-.35,1,.22.43-.8.59.34,1.45-.45.85.91.77,1-2.05,0-4.61-.34-6.14.8.26.91.09,1.82,0l.45-.08-2-.17L22.39,13Z"/><path class="cls-28" d="M42.16,9c.68.59.79.34.45,1.19l.91-.08.8-.18c.68.51.57.77,1.47.85a2.83,2.83,0,0,0,1.94-.34l-.34,1.37.45-.09c0-1.11.22-2,1.47-1.79.8.18.35,0,.8.51l.91-.26-.91-1.11c-1.25-.93-1.59-.43-2.05-1.1-1.14.59-.79.85-2,1-1.47.17-.45.93-2,.17-.35-.76-.8.85-.23-1,.12-.35.34-.35.68-.51l-.68-.43c0-.17-.12-.17-.23-.17l.12-.51c-1.93.43.35.35-1.7,1,.68,1.36.35.17.23,1.45Z"/><path class="cls-26" d="M9.77,67.1l-1,.67a3.67,3.67,0,0,0,1,.68l-.12,1.2c.12.08.45.25.57.51a.65.65,0,0,1,.23.68c1.14-.51.68-.51,1.25-.85.91-.51,0,.09,1.47-.09l.57-1.78,2.16.08a6.37,6.37,0,0,1,1.94.43c1.14.43,1,1.11,1.36.09-.57-1-2.73-1.37-4.2-1.87L13,66.75l.35,1.37A5.53,5.53,0,0,1,11.25,68a2,2,0,0,1-1.47-.85Z"/><path class="cls-29" d="M45.12,18.62l.34-.6v-.93a3.41,3.41,0,0,1-1.7-1.37c-.68-1.19-.34-.68-1.37-1.7-.22-.17-1-.68-.91.26-1,1.87-.91.34-1.82,1.87a4.87,4.87,0,0,0,.68.43l1.14.77c-.34.25.12.17-.68.34-1.14.26-.22,0-.34-.09.12.51,0,.09.57.51l.34.26.23.17.45.34c.12,0,.23-.08.34-.08l1.6-.85s.11-.09.11-.17l.23-.18c.23,1.28-.23.43.8,1Z"/><path class="cls-30" d="M40.57,80l-.12.26,1,1.28c1.59,3.07,3.64,7.41,6.13,9.88.57.6.23.26.91.6l-.12-.77c-1.48-.93-3.86-6.13-4.66-7.58l-1.47-3c-.12-1-.23-.94-.8-1.79l-1.7-.51Z"/><path class="cls-59" d="M40.11,73.23c.68,2.13,1.14,1.7,2.05,3.49.68,1.11,1,2.31,1.93,3.16V78.26c.12-1,0-.59.35-1.28a4.71,4.71,0,0,0,.45-1.11c.12-.85.34-1.36-.34-1.53-.8,1.36-.91,1.19-1.48,1.45l-.79-1.11c-.57-.76.34-.17-.8-.68.68-2.64.34.68.57-1.62.12-1.37,0,.34-.23-1.11-.11-1,0-2.3,0-3.32V65.73L41.71,64a3.17,3.17,0,0,0-.57,2.47c.22,2.22.79,2.39.22,6.57l-.91.17c-.12-.09-.23,0-.35,0Z"/><path class="cls-31" d="M24.88,68.38,25,69a1.82,1.82,0,0,1,2.16.26c.8.51,1.48.85,1,1.19l-.12,1.37c2,.08.57.17,1-.6V68.71c-3,.26-1.37-.68-1.14-1.87,1-.43.12-.17.57.34,2.39,0,.57.09,1.25-.68-.23-1.1-.23-.67-1-1.62l-.8-.09-.34.77a2.51,2.51,0,0,1-1.25-.43l.91,1.54a3.3,3.3,0,0,1-2.39-.85c-.34,1.62-.34.08,0,2.56Z"/><path class="cls-42" d="M65.68,94.28c.91.59.35.08.68.85.91.68,0,.26,1.25.51a25,25,0,0,1,3.29-4.08c.68-1.46,1.59-2.05,2.27-3.59s1.7-2.38,1.94-3.91c-1.7-.51-.35-.17-1.48,1.79-.22.43-.45.67-.57.93-1.14-.26-.68-.08-.68-.26.46,1.28-.11,1.11-.57,2-.79,1.28-.34,1.11-1.47,2.22-1.47,1.19-1.37.25-1.37,2a18.9,18.9,0,0,1-1.81,1.19c-1.37-.93-.57-.67-1.94-.93.35.93,0,.34.45,1.28Z"/><path class="cls-5" d="M51.7,72.89c-.45.09-.12-.25-.8.43.8.68.46-1.19.57,1,0,1.45-.57.08-.91,3.15-.12,1-.23.17.45,1.45.45.94,0,.76.68,1.37l1.37-4.09,1.59.08c.45-.76,0,.51.34-.85l-1.7-.17V72.89c-.45-.93.35,0-.57-.59Z"/><path class="cls-1" d="M44.65,48.09c-.91.68-.57.43-.79,1.37,5.57-.18,5.11-2.39,7.5-1.37l1.14-.17,3.18-.77-.68-1L54.77,46l-.12-.26-.91-.17h-.11c0,.43-.46-.26.11.26L55,47c-1.47.09-1.14.59-2.27.59-.68.09-1.47-.34-2.73-.25l.23-1.46c.22.43.57-.59,0,.51-.57,1.37.11.09-.68.76A7.47,7.47,0,0,1,48,46.91l-1-.26c-1.7-.35-1.93-.09-2.27,1.45Z"/><path class="cls-9" d="M47.39,11.8a5.06,5.06,0,0,0,0,1.36c.11.35.34.43-.23,1.37l.34.34a3.27,3.27,0,0,0,3-.59l.68-2.56c-.45-.59.23-.59-1.14-.34l.12-.94c-.45-.51,0-.34-.8-.51-1.25-.25-1.47.68-1.47,1.79Z"/><path class="cls-12" d="M37.16,53.12a.4.4,0,0,0-.45.18c.22,2-.46,2.13-.57,4.08.79-.34.75-.09,1.21-.51-.22,3-2.46,2.73-.64,5.46-.12-1.54,1.36-4.17,1.93-5.62l1.25-2.48-1.16.16a7.05,7.05,0,0,0-1.38,2.48c0-.18-.29.14-.25-.07A9.56,9.56,0,0,1,38.3,54l.91-1.87c-.45-.26.68-.68-.57-.08L38.3,53c-.46.51-.12.09-1.14.17Z"/><path class="cls-10" d="M23.41,90.95l-2.27-.25c-1.7,2.72.12,2.47.45,4.94-.22.43-.12.09-.45.26a2.81,2.81,0,0,1-.45,1.28h1l.23-.93c.57-1.79.57-.6-.12-2.39l1.25-.09V92.23l2.38.09c.23-1.28,1.48-2-.22-2.65-.12,1.37.22.68-.35,1.79-.91,0-.79.09-1.47-.51Z"/><path class="cls-32" d="M15.57,10.43l.22-.59c2.84-.09,1.48-.26,3.41,1,1.37-.17,2.27-1.11,3-.34l1,.17c-.34-1-.22-.77-.91-1.37-.34-.34-.34-.17-.68-.59-.45-.59,0,0-.45-.76-5.45.34-1.82.17-4.43.85-1.25.34-.45-.35-1.48.67,0,1.62,0,.51.35.94Z"/><path class="cls-30" d="M18.63,100.75c-.57,1.28-.34-.08-.79,1.2,1.14.93,1.7.68,3.18.59,1-.43.45-.34,1.48-.43.45-1,5.22-.59,6.25-.51-1-1-1.25-1.19-2.39-1-2.62.26-.57-.26-2.5-.51H22.61c0,.93.23.25-.11,1.1l-2.73.43c.23-1.28.23-.51.12-1.62l-.57-.17c-.34.93.45.26-.68.93Z"/><path class="cls-34" d="M46.47,56.36c1-.17.8,0,.91.85l-.12.09.57.08.45-.51,2.16,2c1.37.6,1-.08,1-.17-.34-.59-.67-.51-1-1.19.57-1.19-.22-.09,1.25-.94l-.12-.93s-.34-.35-.45-.35l-.23-.34c-.11-.09-.11-.17-.22-.26l-.12-.17-1.47-.09-1.37.85-.68.51a4.08,4.08,0,0,0-.57.59Z"/><path class="cls-81" d="M56.13,69.82a3,3,0,0,1,0,1.45c-1.25-1.11-.22-1.19,0-1.45Zm-2.61.85c-.12.51.12.34-.45.85-.12,0-.57.34-.68.34-.45.26-.12.09-.45.17l-.23.85,1-.59c.91.59.12-.34.57.59l.91.18,1-1.62.34.94c.57-1.45-.12.08.57-.68.8.76.45-.68.68,1.19-.34-.85,0-.93.34-1.19l.12-2.81-.12-.43-1.24-.26c-.91.85-1.25,1.7-2.39,2.48Z"/><path class="cls-3" d="M15.79,38.21c-.34,1.54.12,1.37-1.59.94L14,37.78v.51l-.12.94a3.65,3.65,0,0,0-1.14.43c.57.59.12.34-.12.76,0,.09-.23.34-.34.34L11.93,42a3.51,3.51,0,0,1,2.27-.09c1.14.35.23.09.45.26,0-1.37.12.09-.57-.76l-.91-.85c1.59-.43,1-.26,3-.26.45.17.22.17.57.34l2.84.09V39.06l-.91-.17-.67.17c-.23-1.1-.12-.76-.57-1.28V39c-1,0-.57.17-1.25-.43Z"/><path class="cls-1" d="M17.73,42.13c1.59.59.8-.09,1.47,1.45-1.81-.08-.91,0-1.47-1.45Zm3-.94a3.16,3.16,0,0,1,.34.68c.12,1.54.12.26-.22.85-.46-.43-.35.26-.46-.68,0-1.1.23-.67.35-.85Zm-4.55-.25.91-.09v.94c.57-.18.12,1.19,0,1.53l-.57.35c1,.51.35.51,1.59.85,0,0,0-.94,1.7,0-.57-.94-.45-.26-.11-1.37h1.93c.23-1.78.35-.43-.22-1.78-.57-.6-.68-.68-1.82-.68l-2.84-.09c-.35-.17-.12-.17-.57-.34Z"/><path class="cls-33" d="M37.16,53.12c1-.08.67.35,1.14-.17l.34-.93c1.25-.6.12-.18.57.08,1.14-1.45-.12-1.45.34-3.41,1.37.43.35.51,2.05.68-.45-1.79-.68-.68-1-2.3a4.8,4.8,0,0,1,.22-2.48c-.68.6-2.27,2.73-2.39,3.75s0,2.39-.11,2.64c-.12.94-.68.85-1.14,2.13Z"/><path class="cls-34" d="M24.32,74.16c-1.36.18-.91-.17-1.47,1.46,1.25,1,.57.25,1.82.59.57,1.7-.12.93,0,2.13a7.68,7.68,0,0,1,.12.76c2.73.59,1.24.09,2.73-.76l-.8-.26c.23-.34.68-.68.12-1.87-.68-1.45-.45-.09-1.14-1.45h.8c-.46-1,0-.26-.46-.51-.79.34-.91.26-1.24.76s.91.68-.91.35Z"/><path class="cls-79" d="M63.42,86.47l.16,1.05c.63,1.47-.35,1.37.51,4.46L64,90.87l1.25-.77V87.2L63.52,85c-.45.51.57-.1,0,.93-.22.43,0,.29-.11.55Z"/><path class="cls-9" d="M41.71,9.32l.11.51-1,1.28c.35,1.19.12.26.45,1.19a3.48,3.48,0,0,1-2.61,1.54v2.22c.12,0,.12-.18.23-.18.11.51-.12-.85.79-1.28.12-.08,1.48-.25,1.82-.34-.12-.94.68-.43.91-.26l1.6.59.22-.67c.12-.6-.12-.18.23-.94l-.91.09c-1.59-.09-1.59-.43-1.36-1.37,0-1.19.45-.76,1.36-1.62l-.91.08c.34-.85.23-.59-.45-1.19Z"/><path class="cls-79" d="M64.2,80.55l-1,4.18c.68-.43.22.08.68-.51.45-.85,0-1.62.91-2.64l-.23-.18c.12-1-.11-1.45.57-2.13a4.39,4.39,0,0,1,1.59-1,4.08,4.08,0,0,1,2.73-1.62c1.14-.26,2.16.59,3.29.85-.35-.68-.12-.43-.68-.94-.23-.26-.23-.17-.68-.59-2-1.87-6.82,1.62-7.16,4.6Z"/><path class="cls-11" d="M37.28,18.79v3.67a6.53,6.53,0,0,0,2.61-.18c.79-.67,1.14-.51,2.39-1.1a2.88,2.88,0,0,0,.91-.51c.8-.59.45-.17.91-1-2,.08-.57.08-1.59.93-2.39,1.79-1.93-.67-4.77-.59l.34-1.87c.34-1,.57-.34.57-2-.34.25-.12,0-.45.51-.12.17-.35.43-.45.59a9.87,9.87,0,0,0-.45,1.62Z"/><path class="cls-35" d="M15.57,10.43l.12,2,.34.17s-.23-1.62,2.27.43l.57-1c3.07.34,1.37-1.11,3.29-1.45-.68-.77-1.59.17-3,.34-1.93-1.28-.57-1.11-3.41-1Z"/><path class="cls-82" d="M66.7,78.26c-.67,2-.45,1.87-1.24,2.48a.48.48,0,0,1-.23.08c0,.09-.12.17-.22.17l-.46.43.23.18c.12,2-.57,2.56-.57,4.26a1.36,1.36,0,0,0,.23-.26l.57-.51.67-1c.45-1.19.57-.85.35-2.3.67-.59,1.14-.94,1.7-1.54-.35-.85-.23-.51-.8-1.11l1.7-.08,1-1.2c-1.7-.51-.45.43-3,.43Z"/><path class="cls-8" d="M49.88,1.06c-.22.68.23.68-1.25.68v.09c.46.25-.34.17.91.51-.91,1.87-.8,1-2.05,2.47L47.39,6l.79-.35V5c2.05-.6.23-.6,1.82-.94L50.34,4c.91-.08.23-.34,1,.09l-.23-2c.68.51,0-.08.57.43,1.82,1.45-1-1.19.45.43,1.14-.76.23.26.68-1a7.45,7.45,0,0,1-1-1.19h-1c-.8.08-.57.08-.91.34Z"/><path class="cls-36" d="M51.82,33.18a2.38,2.38,0,0,1-.45.85l2.49-.09.68-.08a4.62,4.62,0,0,0,1.47.08c.57-.08-.22-.08.57-.17,1.37-.17.46-.17.8.17l.8.18v1.7a.51.51,0,0,1-.46-.09c-.91-.68.57.09-.57-.59l-.67.59c.45.76,0,.09.45.51l.34.34c0,.09.12.09.23.17-.57,1.2-.57.77-.35,2.22.23-.68.12-.26.68-.59.12-2.73,1-.09,1.25-4.09-2.5-2.22-3.86-1.11-5.11-1.11Z"/><path class="cls-6" d="M21.94,68.88l-1,.35c-.34,1.7.46.43.8.43a4.92,4.92,0,0,0,3.18-.18l-.11,1,.79-.26c-.12,2-.12.59.57,1.19l1.94.35.12-1.37c.45-.34-.23-.68-1-1.19A1.82,1.82,0,0,0,25,69l-.12-.59c-1-.51-.57.25-1-.68.23.76.23.59.45,1.36-1.24.43-1.14.35-2.38-.17Z"/><path class="cls-57" d="M29.89,83.88l1.36,2.39c-.79.67-.91,0-1.14,1.45l1.37.59.68.93-.35-1.19A7.16,7.16,0,0,1,34,87.8,6.22,6.22,0,0,0,32.16,85c-.57-.51-.23-.18-.57-.85a5.25,5.25,0,0,1-.12-.51v-.17H30.23c.12.68.8.68-.34.43Z"/><path class="cls-83" d="M65.68,84.05l1.14-.26c.8,1,.35.85,1.94,1.2-.45-1.2-1-1-.91-1.54.8-1.37.57-.09.91-1.11.34-1.19,0-.68-.68-1.37,1.37,0,1.14.26,1.94-.25l-1.7-.18L68.63,79l-1.7.08c.57.59.45.26.8,1.11-.57.59-1,.94-1.7,1.54.22,1.45.11,1.11-.35,2.3Z"/><path class="cls-37" d="M14.89,32.85l-1,1.45c.57.51.34.08.34.93h.45c.12-.51.12-.17.46-.43l.79.35c1.94.43.23.34,1.14-.35,0,0,.12-.08.12-.17s.12-.17.12-.17l.22-.59,2.05.43.45-.77a2.42,2.42,0,0,1-1.47-.34L18,32.76c-.12-.09-.35,0-.46-.34,0-.09-.11-.09-.11-.18l-2.5.26Z"/><path class="cls-29" d="M25.91,97.34l.67,2c0-.08.12.09.12.17,2.27.26,3.52.68,3.41-.25-.91-1-.34,0-.57-1.2l.91.09c-.57-.59.22-.17-.68-.51a7.8,7.8,0,0,1-1.14-.17c-.91-.68-.35,0-.91-1.11l-.91-.43c-.91-.26-.57-.17-1.7-.08v1.1c1.82-.67,1.7-.85,2.5,0-1,.94-.35.6-1.7.43Z"/><path class="cls-22" d="M31.36,40.43c1.47-.43.34.17.34,1.62a3.89,3.89,0,0,1,.12,1.62c-.34,1.87-.57,1.36-.22,3.41.22-.26.11,0,.34-.59l.68-2.56a11.64,11.64,0,0,0,0-3.92L33,36.68l-.79.51c-1.6.85-1.14,1.54-.8,3.24Z"/><path class="cls-84" d="M51.7,69.57c.34-1.45-.16-.87,1-1.2.34.26.28-.24.28-.24a3.18,3.18,0,0,1,.34-.68c1.37-1.7,0-.85,1.25-1.79l.57-1.36c.23-.68.91-1.54-.23-1.54-1.7,3.32-1.24,2.72-2.38,3v1.79c-1.94.17-2.5-.09-3.07,1.19,1,.51.57-.68,1.14.94Z"/><path class="cls-5" d="M46.93,37.87c.57.34.8-.34.68,1.37.8-.18.57-.09,1.14-.68L48.29,40c1.37-.85.45-.59,1.47-.09L49,38.55c.12-.09.22-.26.22-.17a2.24,2.24,0,0,0,1.25-1.46l-.91-.17c-.68-1.19-.57-.51-1.37-1.36-.34-.35-.34-.6-.79-.85s-.23-.68-1.48-.26v1.54c1.82.51,1,.08,2.27,1.1l.91.94-1.37-.34c-.91.08-.57.17-.8.34Z"/><path class="cls-85" d="M32.16,92.32a8.7,8.7,0,0,1-.23,1.87c-.12,1.45.12.85-.68,1.7H32.5A3.06,3.06,0,0,0,33.3,98l.57-1.11,1.93-.34c-.57,1.45-.68,1.11-.91,1.28l.57.85a3.7,3.7,0,0,0,.79-2.3c-1.7.08-.91.34-2.38-.85-.8-.26-1-.77-1-1.7,0-.68.35-1.54.46-2.64l1.93.09-.57-.68c-.12.09.91.17-.57.09-.91,0,.23-.18-.79-.09-.91,1.37.11,1.7-1.14,1.7Z"/><path class="cls-62" d="M21.71,97.17l3.75-.34.46.51c1.36.18.67.51,1.7-.43-.8-.85-.68-.67-2.5,0v-1.1h-.34l-.68-.26c.45-1.45.22.51.34-1.7l-1.36-.09-1.25.09c.68,1.78.68.59.12,2.39Z"/><path class="cls-86" d="M19,98.19,18.3,98,18,98.8l1.36,1,.57.17c.12,1.11.12.34-.12,1.62l2.73-.43c.34-.85.11-.17.11-1.1h1.25c-.91-1.2-1-.18-2.39-.77a1.94,1.94,0,0,1-1.14-1.54,5.68,5.68,0,0,1-1.36.43Z"/><path class="cls-87" d="M49.09,86.35c-.57,1.45.22.85-.8,1.11l.34.34c.91,1,.35.85,1.25,1.62l-.34-.94c.79-1,.91-.85,1.25-2.21.57-1.79,0-1.7,1.7-2.22.11-.59-.12,0,.34-1l-1.37.26c-.11-.09-.11-.18-.22-.18s-.12-.17-.12-.17a.76.76,0,0,1-.23-.43c-.57-.68.12-.26-.79-.68.45,2.39,0,2.39-1,4.52Z"/><path class="cls-6" d="M23.18,61c0-.08.12-.25.23-.17l.68-.59c0-.09.12-.17.22-.17.91-.51-.57.34.8-1.37,1.25.59.45-.08,1.25,1l1.36-.59c1.25.85.57,1,1.6,1.45l.67.09a2.78,2.78,0,0,0-.45-1,2.57,2.57,0,0,0-.34-.51c-1-1.7-1.94-1.62-4.66-1.45A17.56,17.56,0,0,0,23.18,61Z"/><path class="cls-21" d="M44.2,13.93l-.22.67L42.38,14c1,1,.68.51,1.37,1.7a3.41,3.41,0,0,0,1.7,1.37V18a3.92,3.92,0,0,1,1.47-.93c-.22-1.87,0,.43-1.59-2.56.91-1.7,1.14-.09,1.14-2.13-1,.08-.79,0-1.47.68-1.37,1.53.45.25-.8.85Z"/><path class="cls-38" d="M14.89,71.1l-2.61.59c.79.94.22.43,1.36.85a8.48,8.48,0,0,1,1.25.76v-.25c1.47,0,2-.51,3.75-.85L20,71.53c-3.64,0-1.14.76-3.64-1.28-.45.68-.11-.09-.34.93Z"/><path class="cls-58" d="M32.16,89.24l-.23.6c-.8,1.1-.57,0-.45,1.19.12.34.12.17.45.68s.12.34.23.59c1.24,0,.22-.34,1.14-1.7,1-.09-.12.09.79.09,1.48.08.45,0,.57-.09l.12-.94-.45-1.1L34,87.8a7.16,7.16,0,0,0-2.16.26Z"/><path class="cls-10" d="M30.46,74.42l.22.17v1.2l.8-.17c1.7-.6,1.25.08,2.73.08a2.28,2.28,0,0,0,1.47-.43c-.57-.51-.22-.43-.45-.93-1.47-.85-2.49-.77-4.43-1l-.23.51s0,.17-.11.17v.43Z"/><path class="cls-17" d="M2.05,68.29A14,14,0,0,0,6.6,67c.91-.43,3.52-.17,4.77-.17L13,66.75l2.05.09c-1.37-.94-2.27-.43-4-.43-1,0-2.5-.35-3.52-.43-3.29-.17-4.43,1.54-5.45,2.3Z"/><path class="cls-26" d="M22.73,25.51c.35.77.45.85.91,1.7,1.47.09.34.68,2.38.26.68-.51.12.17.57-.85a8.41,8.41,0,0,1,.35-.85,6.72,6.72,0,0,0,.12-3c-.91,1.62,0,.34-1.37,1.37a7,7,0,0,1-.8,2.38c-1.93-1.1,1-.43-2.16-1Z"/><path class="cls-5" d="M11.93,42h-.22l.11.43H12l2.61.59c1.37-.17.8-.09,1.82.68l.57-.35c.12-.34.57-1.7,0-1.53-1.14.51-.34.76-1.7,0-.22-1.46-.22-.35.8-.85v-.68c-1.94,0-1.37-.17-3,.26l.91.85c.68.85.57-.6.57.76-.22-.17.68.09-.45-.26a3.51,3.51,0,0,0-2.27.09Z"/><path class="cls-39" d="M16.71,18c.22-.43.68.77.34-.76-.22-.94-.68-.26-.91-1.45l.22-.59c.8.43.57,0,.91,1,0,0,.12.85.12,1a6.49,6.49,0,0,1,.34,1.19c.57,1.11-.12.43.8.85V18.7l.34.26c-.12-.94-1.25-3-1.7-4.35V13.08c-.91-.26-.34-.09-1.14-.51l-.34-.17c0,2.39-.23,3.67,1,5.62Z"/><path class="cls-40" d="M27.5,78.34c1.25-.77.57.08,1.7-1.11h1l.8-.17a3.91,3.91,0,0,1,.45-1.45l-.8.17-.34.59c-1.48.09-2.62-.43-2.84-1.54l-1-.08h-.8c.68,1.36.45,0,1.14,1.45.57,1.19.12,1.54-.12,1.87Z"/><path class="cls-41" d="M34.21,75.7c.34.35.23.26.57.59a3.89,3.89,0,0,1,.8.43,9.29,9.29,0,0,1,1.47.85l2.39.68c-.57-1.45-.91-.68-.12-1.62.57-.59.91-.43-.35-1v.85c-.79-.26-1.59-.6-2-.77-1.25-.76,0-.68-1.7-1.36.23.51-.12.43.45.93a2.28,2.28,0,0,1-1.47.43Z"/><path class="cls-13" d="M56.48,79.2c-.91,1.7-.12,1.62-1.94,2.72l-.45-.68-1.25-2.13c-.12,1.2-.12,1.62-.68,2l-.68.26a2.68,2.68,0,0,0,.91.93l1.25-.34.57.26,1.47.17a24.17,24.17,0,0,1,1-2.47,11,11,0,0,1,.35-1.2c.22-1.11,0-.76.57-1.45V75.87c-.35.26-.35.09-.68.51-1.14,1.37.45,2.3-.45,2.81Z"/><path class="cls-41" d="M37.61,71.79a3,3,0,0,1,.57,1.1,3.43,3.43,0,0,1,.34.94A3.46,3.46,0,0,1,39,75.62c1.25.59.91.43.35,1-.8.93-.45.17.12,1.62l.34.09,1.7.51c-.8-1.28-1-3-1.82-4.6s-1.47-2.56-2.27-4Z"/><path class="cls-88" d="M68.75,85,69,84.9l1.7.26c-.34-1,0-.51-1.93-2a2.78,2.78,0,0,1,.79-.09c.8-.08,0-.08.68-.08,1.14.08.68.26,1.82-.26-.8,0-1.25.17-1.94-.43-.34-.43-.22-.09-.22-.59.68-.59.68-.59,1.82-.35l.11-.76L70,80.73c-.8.51-.57.25-1.94.25.68.68,1,.18.68,1.37-.35,1-.12-.26-.91,1.11-.11.51.46.34.91,1.54Z"/><path class="cls-42" d="M53.64,6.77c0-1.87.34-1.45.57-2.89l-.8-.59L52,3.19h-.22a.45.45,0,0,0-.23.09,9.22,9.22,0,0,1,0,1.78c-.22,3.15-.22,1.11.23,2,2.16-.51.34-.26,1.25-1.28.57.51.22-.34.57,1Z"/><path class="cls-25" d="M21.14,46.13l1.14.51c1-.85,1.14-.68,2.61-.77.68-.93.68-.59.68-2-.45.08-1.14.34-1.25.34l-.91-.43c-1.47-.43-.8.51-2.5,1.11l1.6.26c-.57.67-.35.85-1.37.93Z"/><path class="cls-34" d="M24.78,89l.11,2-1.47-.09c.68.6.57.51,1.47.51.57-1.11.23-.43.35-1.79v.09s-.12-1-.12-1.11l.12-.51.12-.18c0-.08.11-.17.11-.17-.57-2.21-.11-.59.35-1.19,1.14.59.57-.34.91,1.19v.43c.68-.51,0-.08.8-.85l.22-.67c-1.47-.68-2-1.7-3.29-1.2-.45.51-.22,2.65.35,3.5Z"/><path class="cls-12" d="M48.41,91.21a5.23,5.23,0,0,0-.8-2c-.34-.43-.68-1.28-1-1.79-.68-1.45-1.47-2.3-2-3.66-.46-.68-.68-1.11-1-1.7a6.38,6.38,0,0,0-.57-.77c-.57-.76-.22-.26-.67-.59l1.47,3c.8,1.45,3.18,6.65,4.66,7.58Z"/><path class="cls-43" d="M45.68,4.47l1.81.34c1.25-1.45,1.14-.59,2.05-2.47-1.25-.34-.45-.26-.91-.51-1.7-.18-2.38-.94-2.27,2-.91.51-.34.26-.67.59Z"/><path class="cls-2" d="M71.24,108.93l2.5,1.54c1.37.68,5.4,1.78,6.53,1.26-.68-.59-4.49-2.29-5.28-2.8s-.8-.43-1.7-.59Z"/><path class="cls-77" d="M33.87,95.56v-.09c0-.08.11-.17.22-.17l.68-.59L33.64,94c2.27-.94-.57.09,1.94-2l-.35-.68-1.93-.09c-.12,1.11-.46,2-.46,2.64,0,.93.23,1.45,1,1.7Z"/><path class="cls-89" d="M37.16,12.82c.12,1.62.12.51.45,2,.91-.94,2.39-5.37,1.7-6.65-.8.59-.68,1.11-1.14,2.3a13.28,13.28,0,0,1-1,2.39Z"/><path class="cls-30" d="M65.57,106.54A11.42,11.42,0,0,0,62.5,104a5.55,5.55,0,0,1-2.39-.93c-.34-.18-.91-.51-1.14-.6-.79-.43.12-.08-1-.43.68,1.37,5.8,4.26,7.62,4.52Z"/><path class="cls-41" d="M66.48,103.82l.91.26.12,1,.45.17-.22-.93.45-.26.12-2.22c.22-1.78.11-.34-.23-1.11l-1.82-.08Z"/><path class="cls-25" d="M53.29,72.89v2.39l1.7.17c-.34,1.37.12.09-.34.85l.68-.17.22-3.75-.34-.94-1,1.62Z"/><path class="cls-44" d="M26.25,73.4l-.57-.09c.68,1.54-.23,0,.34.94.46.26,0-.51.46.51l1,.08c1-1,1.59-.68,3-.43V74c.11,0,.11-.17.11-.17l.23-.51h-.45c-.23-.34-.12,0-.57-1a2.4,2.4,0,0,0-.23-.85c-.34-1.54-.12-.59,0-1.78.68.34,0,.34-.22,1.53a7.7,7.7,0,0,0-.12,1.62c.22.68-.12.17.45.51a5.47,5.47,0,0,0-1.47-.17c-.91,0-.46-.08-.8.43l-.68-.68c-.22,1.11.23-.17-.45.51Z"/><path class="cls-30" d="M43.18,37c.34-.43.12.09.34-.59l.23-.85c.23-1.79-.57-3.75.23-5.37,1.14.51.22.17,1.14,1a3.79,3.79,0,0,1,.67.51l.68.59.23.17L46,30.29l-.45-.68H43.3a13.59,13.59,0,0,0,.12,3.75c0,1.54-.35,2.48-.23,3.67Z"/><path class="cls-8" d="M48.06,17.34v.08c.23.85-.45.77.57.68,0,.09.12.09.12.17.45,1-1-.68.68.26A16.05,16.05,0,0,0,51.59,15V14c0-.08-.12-.17-.12-.26l-2.16,2.39c-.12,0-.12.09-.12.17-.91.94.23.26-1.14,1Z"/><path class="cls-29" d="M24.21,47.33c4.43.59,2.49.08,4.31,2.64.57.68.34.35.8.68a3.26,3.26,0,0,0,.11-1.79c-.34-1.19-.34-.76-1-1.36-1-.68-4.66-.94-5.45-.43L24.43,47Z"/><path class="cls-45" d="M23.41,28.16a16.48,16.48,0,0,0,3,2.38l.57-.17v-.85l.12-1.19c-1,.17-.57.09-1.94-.34,1.14.08.45.08.91-.51-2,.43-.91-.17-2.38-.26l.22.77Z"/><path class="cls-46" d="M35.91,26.45c-.12,1.7,0,1-.91,2.13-.57.68-.46.93-.8,2.21,1.37-.51.23-.08.8-.43,1.14-.67-.46.17.57-.34l.11.51c.23-.51.12-.17.57-.42,0-.85.12-1,.46-1.37l1-2.89-.91,1c-.79-.35-1,.43-.57-.94h-.57Z"/><path class="cls-81" d="M54.09,81.24l.45.68c1.82-1.11,1-1,1.94-2.72-.8-.43-.57.59-.8-1-.8.85,0,.76-1.25,1.36-.57-1.19-.12-1.28.57-1.87l-1.47.17c.57.68.45.51-.23,2.05,1.82.43.68.17,1.14.93Z"/><path class="cls-58" d="M33.87,95.47l1.36.09c.12-.17,1.48-2,1.48-3-.57-.68-.23-.35-1.14-.59-2.5,2.13.34,1.1-1.94,2l1.14.68-.68.59c-.12,0-.22.09-.22.17Z"/><path class="cls-60" d="M77.39,89.76c-.57.51.34.09-.8.51,0,.08-.8.25-.91.34v.34l3.06-.43c2.5.09,1.14-.43,3,.09l-.12,2.89.68-.08h0l.12-2.72c-1.7-1.7-2.27-.35-5-.94Z"/><path class="cls-42" d="M45.57,8.56c.68-.35.45-.26.68-.51.11,0,.11-.08.22-.17s0-.09.12-.09l.12-.08L48.06,7c-.45-.43.12-1.54-2.84-1-1.14,2.39.23,2.47.35,2.56Z"/><path class="cls-58" d="M28.64,97.43a7.8,7.8,0,0,0,1.14.17c.91.35.12-.08.68.51h.79L30.8,99c-.57.85.23.26-.8.94.91-.26,1.37-.43,2.05.17.45-.34.68.51-.45-.76l.57-.85c-.57-1.37-.35-.43-.8-1a.25.25,0,0,0-.12-.18c0-.08-.12-.17-.12-.17l-.34-.85-2.5.17c.46,1.2,0,.26.35.94Z"/><path class="cls-39" d="M52.84,1.91a4,4,0,0,1,1.7.76c-.34.35.12,0-.57.35a3.79,3.79,0,0,0-.57.26l.8.59c-.23,1.45-.57,1-.57,2.89l-.12,1.62L53.86,8l.35-2.22c.11-.85.79-.94,1-.59.34-1.87-.23-3.32-1.59-3.75-.57,0-.68-.18-.8.51Z"/><path class="cls-16" d="M19.43,23.21c1,.76,1.25,1.7,2.27,2.56l-.12-1.28-.79-1.62c-.91-.6-.8-1.2-1-2.05-.67-.17-.79-.17-1.59-.34.45,1.45.91,1.45,1.25,2.72Z"/><path class="cls-12" d="M55.91,102.2l2-.18c1.14.35.23,0,1,.43.23.09.8.43,1.14.6a5.55,5.55,0,0,0,2.39.93,5.81,5.81,0,0,0-2.16-1.87c-2.05-1-2.16-1.62-4.09-.34,0,.08-.12.25-.12.17s-.22.17-.22.26Z"/><path class="cls-47" d="M30.68,75.79v-1.2l-.22-.17c-1.37-.26-1.94-.59-3,.43.22,1.11,1.36,1.62,2.84,1.54Z"/><path class="cls-30" d="M65.45,103.06l.22.51c.45.35.23.17.8.26l-.23-3.15a5.85,5.85,0,0,0,.12-1.28c.45-1.7-.23-.77.8-.94l.45-2.81c-1.25-.25-.35.18-1.25-.51-.12,3-.57,4.43-.23,7.84Z"/><path class="cls-48" d="M14.89,32.5l2.5-.26c0,.09.11.09.11.18.12.34.35.25.46.34l.57.43a2.42,2.42,0,0,0,1.47.34v-.43l.23-1.1-1,.34c-1.14-.68-2.27-1.37-3.52-.76s-.68,0-.8.93Z"/><path class="cls-49" d="M55.91,44.26a3.65,3.65,0,0,0,.67.51c1,.85.35-.09.8,1.1-1.94,1.79,1.37-.59-1.47.77,0,.08-.12.08-.23.17,1.14.51,3.52,0,4.88,0-.11-.43.23-.43-.34-.43l-.91.43c-.23-.34-2.27-3.67-3.41-2.56Z"/><path class="cls-50" d="M18.63,38.89l.91.17v.85c.79-.59.34.09.79-1,.35-.76-.11-.26.57-1.11h1.82c0-.08-.12-.43-.22-.43a.41.41,0,0,0-.12-.34.36.36,0,0,0-.12-.26l-1.59-.17L20,36.42V37.7c-.8.34-.91.26-1.37,1.19Z"/><path class="cls-12" d="M49.55,80.64l.57,1.19c.91.43.22,0,.79.68a.76.76,0,0,0,.23.43s.12.09.12.17.12.09.22.18L52.84,83l.8-1.11-1.25.34a2.68,2.68,0,0,1-.91-.93L50.34,80c-.79.08-.67-.17-.79.59Z"/><path class="cls-46" d="M69,108c.46.43.12.26.91.51.34.17,1,.26,1.36.43l2.05-.59.12-.43c-1.6-.17-1.82-1-3.76-1.37l.68,1.28Z"/><path class="cls-51" d="M16.71,18l.57,1.54c.91.77.45.43.34.94h.57c.8.17.91.17,1.59.34-.45-.51-1.24-1.54-1.24-1.54-.91-.43-.23.26-.8-.85a6.49,6.49,0,0,0-.34-1.19c0-.17-.12-1-.12-1-.35-1-.12-.59-.91-1l-.22.59c.22,1.19.68.51.91,1.45.35,1.54-.12.34-.34.76Z"/><path class="cls-26" d="M9,70.42a2.9,2.9,0,0,0-2.39.17l.34,1.54a7,7,0,0,0,1.37,0l1.14-.43c.57-.51.11.43.34-.68-.57-.76,0-.26-.79-.59Z"/><path class="cls-5" d="M17.39,37.27v.51c.45.51.34.18.57,1.28l.67-.17C19.1,38,19.2,38,20,37.7V36.42c-1.47-.43-.68,0-1-.68-1,.17-.35-.17-.68.59l.12,1.2Z"/><path class="cls-29" d="M20.23,32,20,33.09a7.7,7.7,0,0,1,2.27-.17c1.14.17,1,.17,1.37,1l.57-.59.11-1c-.45,0-.34.09-.22-.43l-.91-.59c-.34,1.45-.11.76-.91,1.45l-.91-.85-.91-.34v.17Z"/><path class="cls-20" d="M38.64,13.84a3.48,3.48,0,0,0,2.61-1.54c-.34-.93-.11,0-.45-1.19l1-1.28c-.79.34-.45-.43-.67.68C40,10.26,41,10.6,40,10.1c0,1.87-.8,2.56-1.37,3.75Z"/><path class="cls-14" d="M40.22,52.69l1.14-.25.91-.43.11-.09,2.17-.76c-.68-.68-.12-.77-2.39-.68a2.91,2.91,0,0,1-1.82,1.36Z"/><path class="cls-10" d="M49.32,34.55,51.37,34a2.38,2.38,0,0,0,.45-.85H51c-.79,1-2,.34-2.73-.26H46.71c.57,1.37,1,1.2,2.61,1.62Z"/><path class="cls-51" d="M17.16,14.61l1.14-.34.57.17,1.25.26a1.89,1.89,0,0,0,.68-.34l.34-1c-1.94-.08-.45-.51-2.5.35-1.36-.77-.11-.26-1.47-.59Z"/><path class="cls-60" d="M56,96.91a17.77,17.77,0,0,1,1.82,1.7,4.4,4.4,0,0,0,2.73,1.28c-.79-1.53-4-3.32-5.45-3.91Z"/><path class="cls-19" d="M14.66,35.22,14,37.78l1.14.18c-.23-1.46-.35-1.11.34-2.13,1.14.67.34-.51,1,1s.57.26-.34,1.11l1.25-.18v-.51l-1.48-2.13-.79-.35c-.35.26-.35-.08-.46.43Z"/><path class="cls-24" d="M44.65,19.29l1.82-.43c.45.51.35-.25,0,.68l.68-.08c.68-1.11.23-.77,1.47-1.11L48,19.55h.57l.91-1c-1.7-.94-.23.76-.68-.26,0-.08-.12-.08-.12-.17-1,.09-.34.17-.57-.68-1.14.35-1.24.09-2,.77s-.23.51-1.37,1.1Z"/><path class="cls-52" d="M15.12,38l.67.25.35.35c.68.59.22.43,1.25.43v-1.2L16.14,38c.91-.85,1,.51.34-1.11s.12-.35-1-1c-.68,1-.57.67-.34,2.13Z"/><path class="cls-14" d="M68.4,107.65c.23.59-.22.51.57.34l1.37-.17-.68-1.28c0-.76-1.25-1-1.93-1.28a2.83,2.83,0,0,0,.45,1.87l.12.26c.34.77.11-.43.11.26Z"/><path class="cls-90" d="M71.24,98.54c.35-.26,1.7-.77,1.82-1.79,0-.17.12-.17.12-.26-1.25-.51-.12-1.28-3.07,1.62.35.85-.34,0,.8.93Z"/><path class="cls-53" d="M40.57,80l-.8-1.62-.34-.09L37,77.57c.68,1.28.12,1.28.68,2.39.79-.08.79-.51,1.47-.76,2,.93-.23-.26.8.34.34.17.22.17.57.43Z"/><path class="cls-33" d="M53.86,8l.12.85,1,.25.23-3.91c-.23-.35-.91-.26-1,.59Z"/><path class="cls-72" d="M66.24,100.67l1.82.08c.34.77.45-.67.23,1.11l.91-1.54.23-1h-1l-1.14,1.2a2.6,2.6,0,0,1-.11-2.05c-1,.17-.35-.76-.8.94a5.85,5.85,0,0,1-.12,1.28Z"/><path class="cls-89" d="M36,23.64l-.35,2.3h.57c-.45,1.37-.22.59.57.94l.91-1,.11-.51c-.56.34-.45.09-.79.43A5.88,5.88,0,0,1,36.93,23c-1.14.77-.68-.59-.91.68Z"/><path class="cls-8" d="M19.2,16.66c1.37.26.12.17,1.37.17a10.49,10.49,0,0,0,1.7.09l.12-1.54-1-.26c-1.37.43-.46.51-1.25.85h-.35c-.11,0-.34-.09-.45-.09Z"/><path class="cls-21" d="M42.16,11.71c-.23.94-.23,1.28,1.36,1.37l1.37-.77-.57-1.36c-2.16.34-.12.43-2.16.76Z"/><path class="cls-30" d="M21.37,31.9l.91.85c.8-.68.57,0,.91-1.45l.91.59L24,29.61c-.45-.43.68-.51-.8-.34C23,30.88,22,30,22.39,32.16Z"/><path class="cls-10" d="M57.15,39a11.44,11.44,0,0,0,1,3.41L58,43.83c1-.51.12.43.91-.59.12-2.81-1-2.3-1-4.86-.57.34-.45-.09-.68.59Z"/><path class="cls-51" d="M42,4.81c1.82-.59,1.82-.43,2.73-1.78.68-.94.35-.26,1-1.28l-1,.26C43.63,1.91,42.61,3.87,42,4.81Z"/><path class="cls-33" d="M1.37,71.18h.91c.68,1.54.8.6,1.82,1.88l.68.17c1.59-.09.34.17.8-.68a2.11,2.11,0,0,1-1-.43,3.36,3.36,0,0,1-.79-.76,13.44,13.44,0,0,0-2.16-.85Z"/><path class="cls-22" d="M39.89,22.27a6.53,6.53,0,0,1-2.61.18V18.79A9.94,9.94,0,0,0,37.16,24c1.7-.51,1.47-.51,2-1Z"/><path class="cls-42" d="M48.18,5.66l-.12,1.28L50.45,7c0-.09.12-.17.12-.26s0-.26.12-.34V6.17a.27.27,0,0,1,.12-.26c-.8-.43-.68,0-1.82-.76-.12.08-.35.08-.35.17-.22.76-.11.09-.45.34Z"/><path class="cls-22" d="M67.5,105.1l-.12-1-.91-.26c-.57-.09-.35.09-.8-.26l-.22-.51-.23.25-.91-.08c-.8.34-.23,0-.57.59l.91.34c1.47.85.91.51,2.84.94Z"/><path class="cls-54" d="M20.8,75.44A3.6,3.6,0,0,1,20,76.9c.68.76.23-.09.68.93,0,0-.12,0-.12.09-.12.59-.45-.17-.57,1.11l1.14.67-.23-3.15c.91-.93,1.14-.51,1.6-1.78-1.25.51-.68.59-1.7.67Z"/><path class="cls-55" d="M29.09,68.71l-.23-.59c.68.17.68.08,1,.34L30,67.1l-1.47.08c-.45-.51.45-.76-.57-.34C27.72,68,26.14,69,29.09,68.71Z"/><polygon class="cls-56" points="13.41 35.83 12.62 39.06 13.98 38.3 13.98 37.78 14.66 35.22 14.2 35.22 13.41 35.83"/><path class="cls-42" d="M9.77,67.1a2,2,0,0,0,1.47.85,5.53,5.53,0,0,0,2.05.17L13,66.75l-1.59.09Z"/><path class="cls-57" d="M46.59,40.26l.68-.85c-.68-.17-.35-.17-.35-1.54l-1,.43c0,.09-.22.76-.22.76-.46,1.2-.35.43-.23,1.88,1.25-.35.23.43,1.14-.68Z"/><path class="cls-42" d="M18.86,14.44c-.68,1.62.12,2.05.12,2.05s.12.08.22.17l.12-.77c.12,0,.35.09.45.09h.35c.79-.34-.12-.43,1.25-.85-.8-.76-.23-.09-.57-.76a1.89,1.89,0,0,1-.68.34Z"/><path class="cls-6" d="M24.78,72.89v1c-.46.34-.12,0-.46.25l-.45,1.2c1.82.34.57.26.91-.35s.45-.43,1.24-.76c-.57-.94.35.59-.34-.94l.57.09c-.57-1.11.8-.51-.8-.85l-.79-.17.68.34c-.23.26-.35.09-.57.17Z"/><path class="cls-56" d="M26.93,30.37c.79.94.57,1,1,1.79a16.34,16.34,0,0,1,1.14,1.19l1,1.54a17.07,17.07,0,0,0-1.36-3,10.77,10.77,0,0,0-.8-1.37,5.67,5.67,0,0,0-.34-.59c-.35-.34-.23-.17-.68-.43Z"/><path class="cls-72" d="M28.52,85.24c.45.68,0,.68.34-.25a3.05,3.05,0,0,0,1-1.11c1.14.26.45.26.34-.43h1.25c-.23-1.11-.23-1.62-1.37-1.28Z"/><path class="cls-81" d="M32.5,101l.8.17h1.24l1.25-1.45-.12-.93-2.49,1.78c-2.05,1.62.22-.93-.68.43Z"/><path class="cls-58" d="M22.73,37.78a9.91,9.91,0,0,1,.91.51,5.54,5.54,0,0,0,1.24.68c1.7-.35-1.14.59.46-.09a1.24,1.24,0,0,1,.45-.26l-.23-.34-1-1.28-1.25.68c-.12-.09-.22-.17-.22-.26s-.12-.17-.23-.17-.12-.17-.12-.26l-.45-.26a.36.36,0,0,1,.12.26.41.41,0,0,1,.12.34c.11,0,.22.35.22.43Z"/><path class="cls-59" d="M9.32,41.87c1.47,0,1-.08,1.7.59l.79-.08L11.71,42l-.91-.43c-1-.43-.68-.09-.79-1l1.81-.6h-1L9.21,40Z"/><path class="cls-4" d="M64.54,81.41,65,81c.11,0,.22-.08.22-.17a.48.48,0,0,0,.23-.08c.79-.6.57-.51,1.24-2.48a4.39,4.39,0,0,0-1.59,1c-.67.68-.45,1.11-.57,2.13Z"/><path class="cls-60" d="M26.48,31.48a4,4,0,0,1,.57.85,3,3,0,0,0,.34.68c.45.68-.12,0,.57.68v-.94l1.14.59A16.34,16.34,0,0,0,28,32.16c-.45-.77-.23-.85-1-1.79l-.57.17Z"/><path class="cls-61" d="M24.32,44.26c.12,0,.8-.26,1.25-.34.8-1.2-.22-.18,1.14-.77,0-.08-.12-.17-.12-.26l-.11-.17L26,41.62c-.11,0-.22.18-.22.26s-.12.17-.23.26c-1.59,2.22-.22.43-1.25,1.19Z"/><path class="cls-13" d="M36.93,98.71c2.84.43,1.37-.76,1.25-2-.8.17-.23-.26-.8.43a.8.8,0,0,0-.22.43l-.35.51c0,.09-.11.17-.11.26Z"/><path class="cls-62" d="M15.91,35.14l1.48,2.13,1,.26-.12-1.2c-1.25-.59-1-.51-1-1.87,0,0,0,.17-.12.17s-.12.17-.12.17c-.91.68.8.77-1.14.35Z"/><path class="cls-30" d="M51.47,95.72,51.37,95a22.11,22.11,0,0,0-1.48-2.13l-1.36-.68a10,10,0,0,0,1.36,2,3.53,3.53,0,0,0,1.59,1.62Z"/><path class="cls-54" d="M23.18,10.69l.46-.09c0-2.56-.68-.76-1.25-2.72L21.14,8c.45.76,0,.17.45.76.35.43.35.26.68.59.68.59.57.35.91,1.37Z"/><path class="cls-36" d="M54.54,33.87c.45,1.62.34.26.8,1.36.45,1.37-.12.35-.12.43l.34-.17c1-.93.35-.76,1.7-.85l.12-.68c-.34-.34.57-.34-.8-.17-.79.09,0,.09-.57.17a4.62,4.62,0,0,1-1.47-.08Z"/><path class="cls-37" d="M21.94,68.88c1.24.51,1.14.59,2.38.17-.22-.76-.22-.59-.45-1.36l-1.14-2.22.57,2.9c-.91.67,0,.34-1.36.51Z"/><path class="cls-57" d="M10.8,41.54l.91.43h.22l.35-1.2c.11,0,.34-.25.34-.34.23-.43.68-.17.12-.76h-.45c-.46,1,0,.76-1.7.76Z"/><path class="cls-3" d="M20,36.42l.68.17c1.7-.59.34-1.37.34-1.87-.12-.17-.12-.09-.22-.17-.8.43-.68-.09-.35,1.1-2-.25-.68-.25-1.25.18a.48.48,0,0,0,.23.08c0,.09.12.17.12.17Z"/><path class="cls-91" d="M72,82.77l-.34-1.37c-1.14-.25-1.14-.25-1.82.35,0,.51-.12.17.22.59.68.59,1.14.43,1.94.43Z"/><path class="cls-46" d="M64.32,103.22l.91.08c-.57-1.28-1.25-1.19-2.27-2h-.68c.12.85,1.25,1.54,2.05,2Z"/><path class="cls-71" d="M25.23,89.76l1.25-.43.22-1.11V87.8H25.45s-.11.09-.11.17l-.12.18-.12.51c0,.09.12,1.11.12,1.11Z"/><path class="cls-68" d="M18.63,100.75c1.14-.67.35,0,.68-.93L18,98.8,18.3,98c-.91,0-1.47.43-1,1.11s.68-.09,1.36,1.62Z"/><path class="cls-60" d="M25.23,15c-.45-.67.12-.25-.68-.93l-.45.08a3.84,3.84,0,0,0,.45,2.73c.8-.6.34-.77.68-1.88Z"/><path class="cls-46" d="M38.64,54.4l1.25-.17,1.82-1.62-.35-.17-1.14.25a5.47,5.47,0,0,0-1.59,1.7Z"/><path class="cls-32" d="M46.14.72A6.59,6.59,0,0,0,48,.8c2.73-.08.91,0,1.59-.76a17.48,17.48,0,0,0-2.16,0,1.36,1.36,0,0,0-.8.17c-.45.26-.23.26-.45.51Z"/><path class="cls-39" d="M24.43,12.31c-.12-.51,0-.17-.12-.59-.11,0-.11,0-.11-.09s-.12-.08-.23-.08c-.8.08-.68,0-1,.26-.57.51.12-.35-.35.85l1.48.67Z"/><path class="cls-5" d="M15.79,38.21,15.12,38,14,37.78l.22,1.37c1.7.43,1.25.59,1.59-.94Z"/><path class="cls-63" d="M50.68,39.15l1.36.09c-.22-1.11-.22-1.54-1.24-1.7-.68.85-.57.43-.12,1.62Z"/><path class="cls-12" d="M30.11,82.18c1.14-.35,1.14.17,1.37,1.28v.17a5.25,5.25,0,0,0,.12.51c.34.67,0,.34.57.85l-.35-2.64-.12-.68-1.24-.08c-.23.17-.12.34-.35.59Z"/><path class="cls-64" d="M2.05,72.64l-.68-1.46L1,70.33c-.8,1.7-.12.26-.8,1.11C0,71.79,0,71,0,72.29a2.5,2.5,0,0,1,2.05.35Z"/><path class="cls-18" d="M71.7,81.41l.67,1.11c.35-.34,1.14-.85.35-2l-.91-.34v.43Z"/><path class="cls-65" d="M.23,70.25l.8.08.34.85.23-.67.22-1.79C.57,69,.68,69.23.23,70.25Z"/><path class="cls-34" d="M2.05,72.64l2,.43c-1-1.28-1.14-.35-1.82-1.88H1.37Z"/><path class="cls-51" d="M21.71,25.77l1,1.54c-.68-1.37-.34-.26.45-.77l.46.68c-.46-.85-.57-.93-.91-1.7l-.45-.68-.68-.34Z"/><polygon class="cls-92" points="55.91 57.98 55.8 56.19 54.77 56.19 54.88 58.15 55.91 57.98"/><path class="cls-4" d="M45.57,56.53A8.82,8.82,0,0,1,45,57.64c1.25-.17,1-.43,2.39-.43-.12-.85.11-1-.91-.85Z"/><path class="cls-18" d="M12,71.7c1.82-.34,1.14.09,1.47-1.7-1.36.34-1.7.26-1.47,1.7Z"/><path class="cls-66" d="M17,41.79v-.94l-.91.09c-1,.51-1-.6-.8.85,1.37.76.57.51,1.7,0Z"/><path class="cls-68" d="M19,98.19a5.68,5.68,0,0,0,1.36-.43l.35-.59a2.81,2.81,0,0,0,.45-1.28A5,5,0,0,0,19,98.19Z"/><path class="cls-59" d="M48.63,79.79c-.11-.68-.22-.51.35-.51,1,.94.12.43,1.36.51l-.45-1.37c-.45-.34-.12-.08-.79-.17l-.68,1.11c-.23,1.19-.23-.09.22.43Z"/><path class="cls-67" d="M13.41,35.83l.79-.6c0-.85.23-.43-.34-.93l1-1.45-1.37.51Z"/><path class="cls-47" d="M55.68,78.18c-.45-.85.12-.51-.68-.51-.68.59-1.14.68-.57,1.87,1.25-.59.45-.51,1.25-1.36Z"/><path class="cls-15" d="M75,94.78l1.14.09.22-1.54c-1.47.26-1.36,0-1.36,1.45Z"/><path class="cls-45" d="M21.37,19l.34.51c1-.17.45.43.8-.59-.46-1.11.57-.85-1.6-.76.23.51-.22.43.46.85Z"/><path class="cls-30" d="M46.47,19.55l-.57.51,2.16.34a3.1,3.1,0,0,0,.46-.85H48l-.8-.08Z"/><path class="cls-30" d="M34.54,101.17a4.82,4.82,0,0,1,2.17,0,1.9,1.9,0,0,1-.57-1.36l-.35-.09Z"/><path class="cls-16" d="M22.73,27.31l-.12.59.8.26.45-.17-.22-.77-.46-.68c-.79.51-1.14-.59-.45.77Z"/><path class="cls-60" d="M69.43,99.3l-.35-.43H68.4l-.34.09-.34.85a1.68,1.68,0,0,1-.35-.68,1.59,1.59,0,0,1-.22-.68,2.6,2.6,0,0,0,.11,2.05l1.14-1.2Z"/><path class="cls-26" d="M48.63,1.74c1.48,0,1,0,1.25-.68-.34-.59-.79-.43-1.59-.34Z"/><path class="cls-56" d="M25.45,87.8H26.7c-.34-1.53.23-.59-.91-1.19-.45.59-.91-1-.35,1.19Z"/><path class="cls-37" d="M30.11,99.22,30.8,99l.45-.93h-.79L29.54,98c.23,1.2-.34.17.57,1.2Z"/><path class="cls-68" d="M27.84,79.79c.68-.26.91-.34,1.48-.51,1.36-.43.91.35,1-.59l-.57.26.12-.59c-1.25.68.11.68-2.05.68-.57.59-.12,0,0,.76Z"/><path class="cls-44" d="M51.82.72a7.45,7.45,0,0,0,1,1.19c.12-.68.23-.51.8-.51-.8-.94-.57-.85-2.05-1Z"/><path class="cls-33" d="M31.48,54.82l.34.26-.12-.85a4.68,4.68,0,0,0-.79-.59c-.91-.68-.12-.17-.8-.43.57,1.37.12,1.11,1.37,1.62Z"/><path class="cls-47" d="M17.73,42.13c.57,1.45-.34,1.37,1.47,1.45-.67-1.54.12-.85-1.47-1.45Z"/><polygon class="cls-30" points="62.27 101.26 62.95 101.26 62.38 100.07 61.02 99.9 62.27 101.26"/><path class="cls-69" d="M20.45,31.74v-.17c-.45-.68-.57-1-1.36-1.11L19,31.57Z"/><path class="cls-33" d="M60.91,47.33l1.25-.43c-.46-1.2-.23-.68-1.14-1.11Z"/><path class="cls-70" d="M10.8,41.54l-.22-1.11c1.7,0,1.24.26,1.7-.76l-.46.25-1.81.6c.11.93-.23.59.79,1Z"/><path class="cls-68" d="M43.52,59,45,57.64a8.82,8.82,0,0,0,.57-1.11l-1.25,1c-.68.59-.57.59-.8,1.45Z"/><path class="cls-70" d="M75.68,90.95v-.34c-1.25.17-.91-.09-1.25.59.91.09-.12-.08.45.51,1,1-.8-.26.34.26.46-.43.35.43.46-1Z"/><path class="cls-33" d="M51.47,95.72c.68.76.23.76,1.37,1A2.65,2.65,0,0,0,51.37,95Z"/><path class="cls-93" d="M54.66,45.71l.12.26h1.47c-.57-1-.12-.85-1.37-.85Z"/><path class="cls-60" d="M44.77,2l1-.26c.12-.43.23-.68.35-1-1.37,0-.91.17-1.37,1.28Z"/><path class="cls-33" d="M48.52,92v.17l1.36.68c-.45-.77.12-.09-.57-1-.91-1-.34-.34-.91-.59Z"/><path class="cls-63" d="M47.27,39.41l.34-.17c.12-1.7-.12-1-.68-1.37,0,1.37-.34,1.37.35,1.54Z"/><path class="cls-87" d="M48.86,80l.23.26c.57.51,0,.09.45.43.12-.76,0-.51.79-.59v-.26c-1.24-.09-.34.43-1.36-.51-.57,0-.45-.17-.35.51Z"/><path class="cls-70" d="M31.93,89.85l.23-.6-.68-.93-.35,1.36c.68.43,0,.26.8.18Z"/><path class="cls-10" d="M12.62,39.06l.12.6a3.65,3.65,0,0,1,1.14-.43L14,38.3Z"/><path class="cls-72" d="M47.16,19.47l.8.08.67-1.19c-1.24.34-.79,0-1.47,1.11Z"/><path class="cls-47" d="M21,41.87a3.16,3.16,0,0,0-.34-.68c-.12.18-.35-.25-.35.85.12.94,0,.26.46.68.34-.59.34.68.22-.85Z"/><path class="cls-27" d="M21.59,24.49l.68.34-.45-.93-.12-.09c0-.08-.12-.17-.12-.26-.68-.76-.12-.25-.79-.67Z"/><path class="cls-13" d="M51.25,13.5c.68-.68,1.14-1.11,1.14-1.79-1,.26-.23-.34-.68.51a12.22,12.22,0,0,1-.45,1.28Z"/><path class="cls-85" d="M56.13,69.82c-.22.26-1.25.34,0,1.45a3,3,0,0,0,0-1.45Z"/><path class="cls-60" d="M69.2,100.32l.68-.08.45-.26c-1-.43-.12.09-.91-.68Z"/><path class="cls-73" d="M30.91,36.33c.34.35-.68.51.68.26l.22-.94-.22.18c0,.08-.12.17-.23.17Z"/><path class="cls-70" d="M68.4,98.88h.68L69,98c-.67.26-.34-.08-.57.85Z"/><polygon class="cls-71" points="36.02 58.06 35.11 58.06 35.57 59 36.02 58.06"/><path class="cls-87" d="M50.68,90.7l-.8-.94.23.59c0,.68,0,0,.57.35Z"/></g></g></svg>