<svg id="Layer_1" data-name="Layer 1" xmlns="http://www.w3.org/2000/svg" viewBox="0 0 214.6 17.98"><title>Untitled-1</title><path d="M406.19,228c-1.51,0-3,0-4.57,0v0h0v0a39.77,39.77,0,0,0-4.85-.12c.69-.16,1.66-.22,2.25-.43s.34-.36-.59-.35c-2.06,0-4-.23-6-.14h-4.3l.63.13h-.21a.91.91,0,0,0-.42-.14,4.36,4.36,0,0,1-.53,0l-.16,0a.65.65,0,0,0-.35,0,5.14,5.14,0,0,0-.6,0,32.64,32.64,0,0,0-4.29-.12,5,5,0,0,0-1.59-.39H380c.18-.08.34-.18.53-.27a3.12,3.12,0,0,0,1.08-.13h1.62a3.63,3.63,0,0,0,1.07-.12h1.12a5.92,5.92,0,0,0,1.6,0c.17,0,.35,0,.51,0h1.08c.33-.09.82-.06,1.05-.12h1.7a4.53,4.53,0,0,1,1.64,0h1.07a24.87,24.87,0,0,0,3.8-.12h4.82l.51-.14h1.62c.29-.08.81,0,1.09-.12l2.16,0,.53-.12c1.25,0,2.51,0,3.78,0,.31-.07.79,0,1.11-.12h1.6c1.59,0,1.59,0,1.1-.26h-1.64a8.43,8.43,0,0,0-2.16-.13h-1.05a1,1,0,0,1-.22,0,.9.9,0,0,1-.35,0H407a7.68,7.68,0,0,0-2-.14H397.9a9.64,9.64,0,0,0-2.17-.13h-9.27a14.64,14.64,0,0,0-2.67-.13h-1c-1-.27-2.52,0-3.51-.21.89-.65.74-.74-2-.69-3.32.06-6.42-.19-9.47-.37-3.46-.19-6.92-.19-10.38-.28s-7-.07-10.46,0c-5.41.07-10.87,0-16.29,0-.74,0-1.51,0-2.16,0-4,.17-8,.16-12,.26-1.25,0-2.47.08-3.67.11s-2.33-.08-3.52-.11c-4-.1-8.06-.07-12-.24-.73,0-1.43,0-2.16,0-5.46,0-11,0-16.38,0-3.49,0-7,0-10.41,0s-6.91.08-10.34.28c-3.07.17-6.18.42-9.45.35-2.83,0-3,.06-2.06.7-1,.2-2.53-.06-3.47.2l-1.11,0a12.85,12.85,0,0,0-2.63.12H230a8.88,8.88,0,0,0-2.17.12l-2.12,0h-5a7.66,7.66,0,0,0-2,.12h-3.81a1,1,0,0,1-.36,0,1.12,1.12,0,0,1-.23,0h-1.08a8.42,8.42,0,0,0-2.13.13h-1.62c-.49.24-.44.24,1.1.27h1.61c.31.09.79,0,1.05.13,1.31,0,2.57,0,3.81,0a4.25,4.25,0,0,1,.57.11h2.12c.31.08.88,0,1.12.12h1.6a3.93,3.93,0,0,1,.57.13h4.81a26,26,0,0,0,3.81.13h1.05a4,4,0,0,1,1.62,0H236c.33.08.79,0,1.08.14s.76,0,1.11,0l.49,0a6,6,0,0,0,1.57,0h1.19a3.32,3.32,0,0,0,1,.12h1.59a3.89,3.89,0,0,0,1.07.13,4,4,0,0,1,.55.26h-.5a5.23,5.23,0,0,0-1.67.39,29.67,29.67,0,0,0-4.29.13h-.54a.77.77,0,0,0-.34,0c-.15,0-.18,0-.18,0h-.53c-.25,0-.25.09-.41.14h-.18c.18-.06.4-.1.59-.14h-4.3c-2-.09-4,.14-6.07.14-.86,0-1.09.16-.53.35a19.26,19.26,0,0,0,2.23.42,36.29,36.29,0,0,0-4.82.13h0v0c-1.54,0-3.08,0-4.59,0-3.6,0-7.11.06-10.66.13-1.09,0-2.21-.1-3.33,0-.08.23.55.35,1.1.35a45.24,45.24,0,0,0,5,0c.38,0,.78,0,1.08,0,2.59.12,5.22.32,7.8.35,5.56.11,11,.43,16.37.69a4.68,4.68,0,0,1,1.77.37h0v0l0,0a8.91,8.91,0,0,0-2.17.15h0c-4.14-.09-8.11.16-12.26.13a25.36,25.36,0,0,0-2.54.14c-1,.08-1,.23-.24.38a2.41,2.41,0,0,0,1,.14,6.58,6.58,0,0,0,1.72.38h0c-.1.29.19.51,1.6.53,0,0,0,0,0,0h0l0,0a2.94,2.94,0,0,0,1.07.13v0h0s0,0,0,0a47.42,47.42,0,0,0,5.92.66l.07,0h0l-.08,0a19.91,19.91,0,0,1,3.76.78l.11,0h-.11a3.18,3.18,0,0,0,1.06.14s0,0,0,0h0a1.76,1.76,0,0,0,1.12,0h2.69A8.31,8.31,0,0,1,243,234v.12a3.35,3.35,0,0,0,.57.14c.08.21.61.48-.94.54a2.58,2.58,0,0,0-1.75.53h0a9.57,9.57,0,0,1-1.62.39h0a5.93,5.93,0,0,0-.6.12,52.73,52.73,0,0,0-10.52,1c-.81.19-.57.39.16.51,0,0,0,0-.1,0a.77.77,0,0,0,.23,0,3.23,3.23,0,0,0,.4.11h.56c.95,0,1.91,0,2.76.11.18,0,.18.12.34.17s.81.3.72.5c0,0,.08,0,.09,0h0l-.08,0a15.76,15.76,0,0,0-3.73.54c-.47.12-1.18,0-1.64.13a8.3,8.3,0,0,0-2.12.13h-1.09a6.33,6.33,0,0,0-2,.27s0,.14.13.17a6.16,6.16,0,0,0,2.41,0h0a1.11,1.11,0,0,1,.39,0c.13,0,.18,0,.18,0h.52a13.41,13.41,0,0,0,2.7-.12H230c1.76,0,3.54,0,5.29-.06a6.28,6.28,0,0,1,2,.13c.43.22-.62.27-1.14.36a40.34,40.34,0,0,1-4,.52c1.16.26,2.74.18,3.88.34h0a25.09,25.09,0,0,0,5.91,0h.49a11.15,11.15,0,0,0,2.74-.12,12.32,12.32,0,0,0,2.76-.13h0a21.66,21.66,0,0,0,3.75-.13,3.33,3.33,0,0,1,.47,0,8.6,8.6,0,0,0,2.22-.13h.5a2.47,2.47,0,0,1,1.1,0,3.09,3.09,0,0,0,.35,0c.12,0,.18,0,.18,0H257a3.76,3.76,0,0,1,.53.12l1.21,0a27.68,27.68,0,0,0,5.79,0,3.11,3.11,0,0,0,1.14-.13,2.83,2.83,0,0,1,.53,0,23.25,23.25,0,0,0,4.07,0,26.53,26.53,0,0,1,2.82,0,4.27,4.27,0,0,0,1.47-.1,4.09,4.09,0,0,1,1.2-.1,23,23,0,0,0,3.66,0h.83c2.09.08,4.16.13,6.34,0h.83l.29,0a2.22,2.22,0,0,1,.83.17l-3.47.26c4.2,0,8.33.21,12.46,0,1,0,2.16,0,3.2,0,1.55,0,3.07,0,4.53-.11,1.83-.18,3.83-.17,5.75-.16h3.75c2,0,3.82,0,5.65.16,1.48.14,3,.11,4.53.12,1.06,0,2.18,0,3.28,0,4,.24,8.22,0,12.39,0-1.13-.1-2.31-.18-3.46-.26a2.1,2.1,0,0,1,.82-.17,1.38,1.38,0,0,1,.3,0h.87c2.15.12,4.24.07,6.35,0h.81a24.11,24.11,0,0,0,3.65,0,3.66,3.66,0,0,1,1.2.1,4.4,4.4,0,0,0,1.45.09c1-.12,2,0,2.88,0,1.34,0,2.64.32,4,0,.19,0,.34,0,.53,0a3.28,3.28,0,0,0,1.11.12,28.65,28.65,0,0,0,5.89,0c.33,0,.74,0,1.12,0a5,5,0,0,1,.51-.12l.59,0s0,0,.18,0a.8.8,0,0,0,.34,0,3.16,3.16,0,0,1,1.12,0c.18,0,.37,0,.54,0a7.78,7.78,0,0,0,2.14.12h.55a22.55,22.55,0,0,0,3.77.13h0a12.32,12.32,0,0,0,2.68.14,12.1,12.1,0,0,0,2.75.12h.46a26,26,0,0,0,5.91,0h0c1.2-.18,2.75-.08,4-.34a37.61,37.61,0,0,1-4-.52c-.55-.11-1.62-.16-1.19-.36a6.23,6.23,0,0,1,2-.14c1.72.08,3.48,0,5.29,0,.36,0,.71,0,1.05,0a13.91,13.91,0,0,0,2.72.12H400s0,0,.16,0a.71.71,0,0,1,.35,0h0a6,6,0,0,0,2.37,0c.14,0,.26-.13.14-.17a5.3,5.3,0,0,0-2-.27c-.31,0-.71,0-1,0a8.26,8.26,0,0,0-2.14-.13c-.45-.12-1.24,0-1.64-.13a15.84,15.84,0,0,0-3.75-.54h0c-.14-.2.52-.34.7-.52a2.89,2.89,0,0,1,.36-.16c.88-.07,1.82-.11,2.77-.11h.52a2.26,2.26,0,0,0,.46-.09h.15l0,0c.69-.13,1-.33.11-.51a50.48,50.48,0,0,0-10.5-1c-.24,0-.32-.09-.6-.12h0a12.57,12.57,0,0,1-1.58-.39h0a3.34,3.34,0,0,0-1.8-.53c-1.55-.06-1-.33-.92-.55l.59-.14V234a5,5,0,0,1,1.59-.39h2.72a1.65,1.65,0,0,0,1.11,0h0a3.08,3.08,0,0,0,1.05-.13l0,0h0l0,0a20.1,20.1,0,0,1,3.81-.78l-.07,0v0s.07,0,.07,0a48.48,48.48,0,0,0,5.91-.66s0,0-.1,0h.07l0,0a3.82,3.82,0,0,0,1.1-.13l-.13,0h0l.13,0c1.32,0,1.63-.24,1.59-.53h-.07l.07,0a6.16,6.16,0,0,0,1.67-.4,3.11,3.11,0,0,0,1-.12c.73-.17.73-.3-.27-.38-.84-.07-1.69-.15-2.62-.15-4.13,0-8.12-.23-12.22-.13h0l0,0a8.8,8.8,0,0,0-2.14-.14h0a4.42,4.42,0,0,1,1.74-.38c5.46-.26,10.86-.57,16.36-.68,2.63-.07,5.19-.24,7.78-.38h1.1a44.09,44.09,0,0,0,5.07,0c.49,0,1.12-.13,1-.35-1.15-.09-2.18,0-3.29,0C413.28,228.12,409.74,228,406.19,228Zm-8.52-.7h0v0Zm3-2.23h0Zm-2.33-.08.17,0h.35l.27,0h-.44a1.77,1.77,0,0,0-.47,0Zm-15.21-.43h0Zm-158.44.52h0Zm2.42,0h-.21c.13,0,.21,0,.34,0a1.1,1.1,0,0,0,.18,0l.15,0A1.73,1.73,0,0,0,227.08,225.09Zm15.32-.46h0a.64.64,0,0,0,.17,0c.09,0,.09,0,.1,0Zm-14.34,2.74,0,0h0Zm-2.88.87v0h0Zm3.68-.07h0c.06,0,.18,0,.18-.08Zm.56.53v0s0,0,.09,0Zm8.78,2.79h-.11l.16,0S238.2,231.47,238.2,231.49Zm2.64-2s.07,0,.07,0l.18,0C241,229.54,240.91,229.52,240.85,229.52Zm.52.26h0v0h0Zm0,3.23s0,0,0,0l0,0Zm-7.51,5.21v0c.07,0,.07,0,.07,0Zm1.45-.29v0s.1,0,.1-.07l.08,0s0,0,0,0C235.33,237.83,235.33,237.87,235.3,237.92Zm2.43,1.83h-.09a2.52,2.52,0,0,0,1-.21Zm9.87-16s-.09,0,0-.06h.07C247.6,223.66,247.6,223.69,247.6,223.72Zm2.35,3.35s.07,0,.12,0l.13,0A1.74,1.74,0,0,1,250,227.07Zm1.7,3.76h0c.08,0,.07,0,.12,0Zm4.75.24v0c.35.09.43.16.08.3C256.83,231.21,256.67,231.14,256.41,231.07Zm2.24,6.86v0h0v0s0,0,.11,0Zm2.17-1.3h0A0,0,0,0,1,260.82,236.63Zm.64,1.2h0Zm1.41,2.18s0,0,0,0,0,0,0,0Zm10.64-12.38a2.17,2.17,0,0,0-.23,0,0,0,0,0,1,0,0Zm-.18,4s0,0-.07,0v0l-.1,0h.1a3,3,0,0,1,.35.11A.64.64,0,0,1,273.34,231.66Zm3.15-6.5h.08c-.06,0-.08,0-.08,0Zm.41.55a1,1,0,0,0-.33.11h-.08A2.94,2.94,0,0,0,276.9,225.72Zm-.41.76h0Zm-.21,8a4.89,4.89,0,0,0,.55,0,3.56,3.56,0,0,1-.45,0C276.32,234.57,276.32,234.55,276.29,234.51Zm1.81,4.61a1.58,1.58,0,0,1-.31,0s0-.07-.16-.09a1.53,1.53,0,0,0,.47.08h0a.16.16,0,0,1,.1,0Zm-.23-4a7.32,7.32,0,0,1-1.22.24c1,0,1.55-.11,1.62-.38a.67.67,0,0,0,.17.06A2,2,0,0,0,277.87,235.15Zm3.43-5.24Zm2.78,4.1c-.08,0,0,0-.08,0h.08S284.1,234,284.08,234Zm3.18,1.69Zm2.87-6-.14,0h0l.14,0Zm2.29-5.9c.19,0,.16,0,.31,0v0Zm3.45,3.76h0Zm2.72,1.86h0Zm.81,7.83c-.07,0,0,0-.07,0h.31C299.59,237.21,299.47,237.21,299.4,237.23Zm4.17-2.58s-.12,0-.12,0v0s.15,0,.24,0Zm1.49-.75v0h.07C305.06,233.87,305.17,233.87,305.06,233.9Zm.63-10.37h.21c0,.12.26.14.6.18A1.25,1.25,0,0,1,305.69,223.53Zm10.15,16.25h.07c-.42,0-.79,0-1.19,0-1.69,0-3.29-.1-4.9,0H310c-.5,0-1,0-1.44,0h.94a.83.83,0,0,1,.36,0l2.85,0c1.1,0,2.18,0,3.23,0a1.31,1.31,0,0,1,.42,0h-.48Zm3.41-16.06c.27-.06.58-.08.58-.18H320C319.91,223.65,319.68,223.72,319.25,223.72Zm1.39,10.17s0,0,0,0,0,0,0,0Zm1.64.75s-.07,0-.07,0H322c.07,0,.21,0,.24,0Zm4,2.59c-.1,0-.14,0-.28,0h.31S326.44,237.21,326.33,237.22Zm.82-7.83h0s0,0,0,0S327.15,229.37,327.15,229.39Zm2.69-1.86,0,0s0,0,0,0Zm3.22-3.75v-.06c.07,0,.07,0,.21,0Zm2.7,5.87s0,0-.13,0h0s.13,0,.13,0Zm2.75,6.07h0Zm3.14-1.71h0Zm2.74-4.09Zm4.89-4.75v0c-.08,0-.11,0-.11,0Zm0,.67a.27.27,0,0,1-.11,0,.87.87,0,0,0-.32-.1C349,225.74,349.11,225.8,349.28,225.82Zm0,.66Zm-1.41,12.65s-.2,0-.2,0-.1,0-.1,0a.17.17,0,0,0,.1,0v0c.2,0,.24-.07.42-.09C347.92,239.06,348,239.1,347.87,239.13Zm0-4a1.92,1.92,0,0,0-.57-.07s.09,0,.17-.06c.08.26.6.38,1.64.38A7.28,7.28,0,0,1,347.86,235.13Zm1.49-.55-.49,0,.61,0S349.47,234.57,349.35,234.58Zm3.15-6.92s-.09,0-.09,0-.08,0-.21,0Zm0,4h0l-.09,0a.84.84,0,0,1-.26.07,1,1,0,0,1,.34-.11h.07C352.5,231.61,352.5,231.61,352.5,231.62ZM362.78,240s.07,0,.07,0a.06.06,0,0,0,0,0Zm1.41-2.21h.07v0S364.25,237.81,364.19,237.81Zm.77-1.18s-.06,0-.06,0h0s0,0,.08,0S365,236.63,365,236.63Zm2.17,1.31-.06,0h0s0,0,0,0v0l.06,0Zm2.23-6.89c-.29.09-.44.16-.11.26-.36-.12-.24-.21.11-.28Zm4.71-.22-.14,0a1.58,1.58,0,0,0,.2,0S374.12,230.83,374.07,230.83Zm1.42-3.8h.17s.11,0,.16,0Zm2.68-3.34c-.06,0,0,0-.11,0h.11S378.11,223.68,378.17,223.69Zm13.7,14.5Zm-1.6-.4v0s.16.06.16.09h0s0-.07-.17-.1Zm-2.22,2h0c-.28-.07-.61-.16-.94-.21A2.67,2.67,0,0,0,388.05,239.75ZM384.39,233h-.06l.06,0C384.34,233,384.39,233,384.39,233Zm0-3.2s0,0,0,0h0Zm.3-.27.13,0s0,0,0,0Zm2.91,1.95s0,0,0,0-.11,0-.11,0Zm8.73-2.78h-.08a.1.1,0,0,0,.08,0Zm.52-.53c-.08,0-.08-.06-.18-.07s.1,0,.18.07Zm3.69.08s0,0,0,0h0S400.55,228.22,400.55,228.24Z" transform="translate(-205.56 -222.75)" fill="#f15a29" fill-rule="evenodd"/></svg>