<?xml version="1.0" encoding="UTF-8"?>
<svg width="53px" height="52px" viewBox="0 0 53 52" version="1.1" xmlns="http://www.w3.org/2000/svg" xmlns:xlink="http://www.w3.org/1999/xlink">
    <!-- Generator: Sketch 47 (45396) - http://www.bohemiancoding.com/sketch -->
    <title>002-presentation</title>
    <desc>Created with Sketch.</desc>
    <defs></defs>
    <g id="دایره-خودتو-بساز" stroke="none" stroke-width="1" fill="none" fill-rule="evenodd">
        <g id="Desktop-HD" transform="translate(-854.000000, -409.000000)" fill-rule="nonzero">
            <g id="002-presentation" transform="translate(854.000000, 409.000000)">
                <rect id="Rectangle-path" fill="#556080" x="1" y="0" width="51" height="5"></rect>
                <rect id="Rectangle-path" fill="#ECF0F1" x="3" y="6" width="48" height="37"></rect>
                <path d="M32,39 C31.447,39 31,38.6424 31,38.2 L31,35.8 C31,35.3576 31.447,35 32,35 C32.553,35 33,35.3576 33,35.8 L33,38.2 C33,38.6424 32.553,39 32,39 Z" id="Shape" fill="#8697CB"></path>
                <path d="M35,39 C34.447,39 34,38.6026667 34,38.1111111 L34,31.8888889 C34,31.3973333 34.447,31 35,31 C35.553,31 36,31.3973333 36,31.8888889 L36,38.1111111 C36,38.6026667 35.553,39 35,39 Z" id="Shape" fill="#F3D55B"></path>
                <path d="M39,39 C38.447,39 38,38.6168571 38,38.1428571 L38,33.8571429 C38,33.3831429 38.447,33 39,33 C39.553,33 40,33.3831429 40,33.8571429 L40,38.1428571 C40,38.6168571 39.553,39 39,39 Z" id="Shape" fill="#8697CB"></path>
                <path d="M43,39 C42.447,39 42,38.6168571 42,38.1428571 L42,27.8571429 C42,27.3831429 42.447,27 43,27 C43.553,27 44,27.3831429 44,27.8571429 L44,38.1428571 C44,38.6168571 43.553,39 43,39 Z" id="Shape" fill="#71C285"></path>
                <path d="M46,39 C45.447,39 45,38.5977 45,38.1 L45,30.9 C45,30.4023 45.447,30 46,30 C46.553,30 47,30.4023 47,30.9 L47,38.1 C47,38.5977 46.553,39 46,39 Z" id="Shape" fill="#8697CB"></path>
                <path d="M18.0833333,35 L8.91666667,35 C8.40975,35 8,34.553 8,34 C8,33.447 8.40975,33 8.91666667,33 L18.0833333,33 C18.59025,33 19,33.447 19,34 C19,34.553 18.59025,35 18.0833333,35 Z" id="Shape" fill="#D1D4D1"></path>
                <path d="M22.1176471,39 L8.88235294,39 C8.39441176,39 8,38.553 8,38 C8,37.447 8.39441176,37 8.88235294,37 L22.1176471,37 C22.6055882,37 23,37.447 23,38 C23,38.553 22.6055882,39 22.1176471,39 Z" id="Shape" fill="#D1D4D1"></path>
                <circle id="Oval" fill="#26B99A" cx="17.5" cy="19.5" r="9.5"></circle>
                <path d="M17.0127273,10.0099897 C17.0081818,10.0145351 17.0045455,10.0181715 17,10.0227169 L17,19.9663636 C17,19.9845454 17.0145455,20 17.0336364,20 L26.9772831,20 C26.9818285,19.9954545 26.9854649,19.9918182 26.9900103,19.9872727 C27.243647,14.3663578 22.6336422,9.75635303 17.0127273,10.0099897 Z" id="Shape" fill="#F3D55B"></path>
                <path d="M42.1,17 L34.9,17 C34.4023,17 34,16.553 34,16 C34,15.447 34.4023,15 34.9,15 L42.1,15 C42.5977,15 43,15.447 43,16 C43,16.553 42.5977,17 42.1,17 Z" id="Shape" fill="#D1D4D1"></path>
                <path d="M46,17 C45.74,17 45.479,16.8893082 45.29,16.7081761 C45.109,16.5169811 45,16.2553459 45,15.9937107 C45,15.7320755 45.109,15.469434 45.29,15.2792453 C45.66,14.9069182 46.34,14.9069182 46.71,15.2792453 C46.89,15.469434 47,15.7320755 47,15.9937107 C47,16.2553459 46.89,16.5169811 46.71,16.7081761 C46.52,16.8893082 46.26,17 46,17 Z" id="Shape" fill="#D1D4D1"></path>
                <path d="M45.2,12 L42.8,12 C42.3576,12 42,11.553 42,11 C42,10.447 42.3576,10 42.8,10 L45.2,10 C45.6424,10 46,10.447 46,11 C46,11.553 45.6424,12 45.2,12 Z" id="Shape" fill="#D1D4D1"></path>
                <path d="M37,12 L35,12 C34.447,12 34,11.553 34,11 C34,10.447 34.447,10 35,10 L37,10 C37.553,10 38,10.447 38,11 C38,11.553 37.553,12 37,12 Z" id="Shape" fill="#D1D4D1"></path>
                <path d="M40,12 C39.74,12 39.479,11.8893082 39.29,11.7081761 C39.109,11.5169811 39,11.2553459 39,10.9937107 C39,10.7320755 39.109,10.469434 39.29,10.2792453 C39.66,9.90691824 40.34,9.90691824 40.71,10.2792453 C40.89,10.469434 41,10.7210063 41,10.9937107 C41,11.2553459 40.89,11.5169811 40.71,11.7081761 C40.52,11.8893082 40.26,12 40,12 Z" id="Shape" fill="#D1D4D1"></path>
                <path d="M52.1166667,44 L0.883333333,44 C0.39485,44 0,43.553 0,43 C0,42.447 0.39485,42 0.883333333,42 L52.1166667,42 C52.60515,42 53,42.447 53,43 C53,43.553 52.60515,44 52.1166667,44 Z" id="Shape" fill="#556080"></path>
                <path d="M27,46 C26.447,46 26,45.6424 26,45.2 L26,42.8 C26,42.3576 26.447,42 27,42 C27.553,42 28,42.3576 28,42.8 L28,45.2 C28,45.6424 27.553,46 27,46 Z" id="Shape" fill="#556080"></path>
                <path d="M26.5,52 C24.56975,52 23,50.43025 23,48.5 C23,46.56975 24.56975,45 26.5,45 C28.43025,45 30,46.56975 30,48.5 C30,50.43025 28.43025,52 26.5,52 Z M26.5,46.75 C25.534875,46.75 24.75,47.534875 24.75,48.5 C24.75,49.465125 25.534875,50.25 26.5,50.25 C27.465125,50.25 28.25,49.465125 28.25,48.5 C28.25,47.534875 27.465125,46.75 26.5,46.75 Z" id="Shape" fill="#556080"></path>
            </g>
        </g>
    </g>
</svg>