<?xml version="1.0" encoding="UTF-8"?>
<svg width="60px" height="34px" viewBox="0 0 60 34" version="1.1" xmlns="http://www.w3.org/2000/svg" xmlns:xlink="http://www.w3.org/1999/xlink">
    <!-- Generator: Sketch 47 (45396) - http://www.bohemiancoding.com/sketch -->
    <title>004-search-engine</title>
    <desc>Created with Sketch.</desc>
    <defs></defs>
    <g id="دایره-خودتو-بساز" stroke="none" stroke-width="1" fill="none" fill-rule="evenodd">
        <g id="Desktop-HD" transform="translate(-1298.000000, -184.000000)" fill-rule="nonzero">
            <g id="004-search-engine" transform="translate(1298.000000, 184.000000)">
                <path d="M50.437513,19 L2.56243213,19 C1.15217272,19 0,17.8270456 0,16.4027438 L0,2.58794708 C0,1.16364527 1.15217272,0 2.56243213,0 L50.437513,0 C51.8477724,0 52.9999451,1.16364527 52.9999451,2.58794708 L52.9999451,16.4027438 C53.0091625,17.8270456 51.8569897,19 50.437513,19 Z" id="Shape" fill="#EFEFEF"></path>
                <g id="Group" transform="translate(44.000000, 18.000000)" fill="#002833">
                    <rect id="Rectangle-path" transform="translate(10.440166, 10.585978) rotate(135.000000) translate(-10.440166, -10.585978) " x="8.25618678" y="5.30493465" width="4.36795811" height="10.5620858"></rect>
                    <polygon id="Shape" points="2.03245714 11.8010935 0.0534857143 0.0140431655 11.4637714 2.06756835"></polygon>
                </g>
                <g id="Group" transform="translate(8.000000, 5.000000)" fill="#FF5F5F">
                    <path d="M1.57987879,0.010109589 L2.68533333,4.5569589 C2.92484848,5.55312329 3.14593939,6.48024658 3.30254545,7.40736986 L3.35781818,7.40736986 C3.55127273,6.4999726 3.81842424,5.54326027 4.104,4.57668493 L5.46739394,0.010109589 L6.74787879,0.010109589 L8.04678788,4.48791781 C8.36,5.5629863 8.59951515,6.4999726 8.7929697,7.40736986 L8.84824242,7.40736986 C8.98642424,6.4999726 9.20751515,5.55312329 9.48387879,4.50764384 L10.6722424,0.0199726027 L12.1738182,0.0199726027 L9.48387879,8.96572603 L8.10206061,8.96572603 L6.82157576,4.6950411 C6.52678788,3.69887671 6.28727273,2.81120548 6.07539394,1.75586301 L6.03854545,1.75586301 C5.83587879,2.83093151 5.57793939,3.74819178 5.28315152,4.71476712 L3.93818182,8.96572603 L2.55636364,8.96572603 L0.0322424242,0.0199726027 L1.57987879,0.0199726027 L1.57987879,0.010109589 L1.57987879,0.010109589 Z" id="Shape"></path>
                    <path d="M14.4860606,0.010109589 L15.5915152,4.5569589 C15.8310303,5.55312329 16.0521212,6.48024658 16.2087273,7.40736986 L16.264,7.40736986 C16.4574545,6.4999726 16.7246061,5.54326027 17.0101818,4.57668493 L18.3735758,0.010109589 L19.6540606,0.010109589 L20.9529697,4.48791781 C21.2661818,5.5629863 21.505697,6.4999726 21.6991515,7.40736986 L21.7544242,7.40736986 C21.8926061,6.4999726 22.113697,5.55312329 22.3900606,4.50764384 L23.5784242,0.0199726027 L25.08,0.0199726027 L22.3900606,8.96572603 L21.0082424,8.96572603 L19.7277576,4.6950411 C19.4329697,3.69887671 19.1934545,2.81120548 18.9815758,1.75586301 L18.9447273,1.75586301 C18.7420606,2.83093151 18.4841212,3.74819178 18.1893333,4.71476712 L16.8443636,8.96572603 L15.4625455,8.96572603 L12.9384242,0.0199726027 L14.4860606,0.0199726027 L14.4860606,0.010109589 Z" id="Shape"></path>
                    <path d="M27.4014545,0.010109589 L28.5069091,4.5569589 C28.7464242,5.55312329 28.9675152,6.48024658 29.1241212,7.40736986 L29.1793939,7.40736986 C29.3728485,6.4999726 29.64,5.54326027 29.9255758,4.57668493 L31.2889697,0.010109589 L32.5694545,0.010109589 L33.8683636,4.48791781 C34.1815758,5.5629863 34.4210909,6.4999726 34.6145455,7.40736986 L34.6698182,7.40736986 C34.808,6.4999726 35.0290909,5.55312329 35.3054545,4.50764384 L36.4938182,0.0199726027 L37.9953939,0.0199726027 L35.3054545,8.96572603 L33.9236364,8.96572603 L32.6431515,4.6950411 C32.3483636,3.69887671 32.1088485,2.81120548 31.8969697,1.75586301 L31.8509091,1.75586301 C31.6482424,2.83093151 31.390303,3.74819178 31.0955152,4.71476712 L29.7505455,8.96572603 L28.3687273,8.96572603 L25.8446061,0.0199726027 L27.4014545,0.0199726027 L27.4014545,0.010109589 Z" id="Shape"></path>
                </g>
            </g>
        </g>
    </g>
</svg>