<?xml version="1.0" encoding="UTF-8"?>
<svg width="52px" height="43px" viewBox="0 0 52 43" version="1.1" xmlns="http://www.w3.org/2000/svg" xmlns:xlink="http://www.w3.org/1999/xlink">
    <!-- Generator: Sketch 47 (45396) - http://www.bohemiancoding.com/sketch -->
    <title>old-typical-phone</title>
    <desc>Created with Sketch.</desc>
    <defs></defs>
    <g id="دایره-خودتو-بساز" stroke="none" stroke-width="1" fill="none" fill-rule="evenodd">
        <g id="Desktop-HD" transform="translate(-414.000000, -953.000000)" fill-rule="nonzero" fill="#FFFFFF">
            <g id="Footer" transform="translate(0.000000, 924.000000)">
                <g id="old-typical-phone" transform="translate(414.000000, 29.000000)">
                    <path d="M25.989,8.274 C34.652,8.359 40.079,7.82 40.812,17.422 L51.376,17.422 C51.376,2.547 38.403,0.542 25.714,0.542 C13.024,0.542 0.052,2.547 0.052,17.422 L10.534,17.422 C11.345,7.637 17.398,8.19 25.989,8.274 Z" id="Shape"></path>
                    <path d="M5.291,22.204 C7.864,22.204 10.005,22.358 10.481,19.827 C10.545,19.483 10.582,19.093 10.582,18.642 L10.46,18.642 L0,18.642 C0,22.407 2.369,22.204 5.291,22.204 Z" id="Shape"></path>
                    <path d="M40.88,18.642 L40.781,18.642 C40.781,19.096 40.82,19.487 40.893,19.827 C41.395,22.161 43.533,22.016 46.097,22.016 C49.033,22.016 51.413,22.209 51.413,18.642 L40.88,18.642 Z" id="Shape"></path>
                    <path d="M35.719,16.078 L35.719,14.582 C35.719,13.913 34.948,13.871 33.996,13.871 L32.441,13.871 C31.49,13.871 30.719,13.913 30.719,14.582 L30.719,15.871 L30.719,16.871 L19.719,16.871 L19.719,15.871 L19.719,14.582 C19.719,13.913 18.948,13.871 17.997,13.871 L16.441,13.871 C15.49,13.871 14.719,13.913 14.719,14.582 L14.719,16.078 L14.719,17.384 C12.213,19.988 4.013,31.073 3.715,32.415 L3.719,41.37 C3.719,42.197 4.392,42.87 5.219,42.87 L45.219,42.87 C46.046,42.87 46.719,42.197 46.719,41.37 L46.719,32.37 C46.424,31.067 38.226,19.987 35.719,17.383 L35.719,16.078 Z M19.177,33.62 C18.372,33.62 17.719,32.968 17.719,32.162 C17.719,31.356 18.372,30.704 19.177,30.704 C19.982,30.704 20.635,31.356 20.635,32.162 C20.635,32.968 19.982,33.62 19.177,33.62 Z M19.177,28.62 C18.372,28.62 17.719,27.968 17.719,27.162 C17.719,26.356 18.372,25.704 19.177,25.704 C19.982,25.704 20.635,26.356 20.635,27.162 C20.635,27.968 19.982,28.62 19.177,28.62 Z M19.177,23.621 C18.372,23.621 17.719,22.969 17.719,22.163 C17.719,21.358 18.372,20.705 19.177,20.705 C19.982,20.705 20.635,21.358 20.635,22.163 C20.635,22.969 19.982,23.621 19.177,23.621 Z M25.177,33.62 C24.372,33.62 23.719,32.968 23.719,32.162 C23.719,31.356 24.372,30.704 25.177,30.704 C25.983,30.704 26.635,31.356 26.635,32.162 C26.635,32.968 25.983,33.62 25.177,33.62 Z M25.177,28.62 C24.372,28.62 23.719,27.968 23.719,27.162 C23.719,26.356 24.372,25.704 25.177,25.704 C25.983,25.704 26.635,26.356 26.635,27.162 C26.635,27.968 25.983,28.62 25.177,28.62 Z M25.177,23.621 C24.372,23.621 23.719,22.969 23.719,22.163 C23.719,21.358 24.372,20.705 25.177,20.705 C25.983,20.705 26.635,21.358 26.635,22.163 C26.635,22.969 25.983,23.621 25.177,23.621 Z M31.177,33.62 C30.371,33.62 29.719,32.968 29.719,32.162 C29.719,31.356 30.371,30.704 31.177,30.704 C31.983,30.704 32.635,31.356 32.635,32.162 C32.635,32.968 31.983,33.62 31.177,33.62 Z M31.177,28.62 C30.371,28.62 29.719,27.968 29.719,27.162 C29.719,26.356 30.371,25.704 31.177,25.704 C31.983,25.704 32.635,26.356 32.635,27.162 C32.635,27.968 31.983,28.62 31.177,28.62 Z M31.177,23.621 C30.371,23.621 29.719,22.969 29.719,22.163 C29.719,21.358 30.371,20.705 31.177,20.705 C31.983,20.705 32.635,21.358 32.635,22.163 C32.635,22.969 31.983,23.621 31.177,23.621 Z" id="Shape"></path>
                </g>
            </g>
        </g>
    </g>
</svg>