<?xml version="1.0" encoding="UTF-8"?>
<svg width="40px" height="40px" viewBox="0 0 40 40" version="1.1" xmlns="http://www.w3.org/2000/svg" xmlns:xlink="http://www.w3.org/1999/xlink">
    <!-- Generator: Sketch 47 (45396) - http://www.bohemiancoding.com/sketch -->
    <title>seo-tag</title>
    <desc>Created with Sketch.</desc>
    <defs></defs>
    <g id="دایره-خودتو-بساز" stroke="none" stroke-width="1" fill="none" fill-rule="evenodd">
        <g id="Desktop-HD" transform="translate(-1323.000000, -411.000000)" fill-rule="nonzero">
            <g id="seo-tag" transform="translate(1323.000000, 411.000000)">
                <path d="M30.590774,0 L22.3876466,1.08613148 L0,23.4919753 L16.495387,40 L38.8831118,17.5953299 L40,9.418278 L30.590774,0 Z M30.604222,11.0712637 C29.6850665,11.0712637 28.9392494,10.3248222 28.9392494,9.40356671 C28.9392494,8.48246774 29.6850665,7.73586973 30.604222,7.73586973 C31.5246286,7.73586973 32.2717748,8.48238949 32.2717748,9.40356671 C32.2717748,10.3248222 31.5246286,11.0712637 30.604222,11.0712637 Z" id="Shape" fill="#ED5564"></path>
                <path d="M30.5006158,13 L30.5006158,13 C29.5649945,13 28.6868439,12.6359008 28.0254395,11.97438 C27.3640351,11.3141731 27,10.4346362 27,9.5 C27,7.57053703 28.5702607,6 30.4993842,6 C31.4351697,6 32.3131561,6.36418131 32.9745605,7.02561997 C33.636047,7.68590902 34,8.56536377 34,9.5 C34,10.4346362 33.6359649,11.3141731 32.9745605,11.97438 C32.313074,12.6359008 31.4350876,13 30.5006158,13 L30.5006158,13 Z M30.4993021,7.74995894 C29.5354382,7.74995894 28.7509647,8.53465265 28.7509647,9.5 C28.7509647,9.96797504 28.9316686,10.4063886 29.2623708,10.737149 C29.593073,11.0679093 30.0328052,11.2499589 30.4993021,11.2499589 L30.5006158,11.2499589 C30.9672769,11.2499589 31.406927,11.0679093 31.7375471,10.737149 C32.0682493,10.4063886 32.2503489,9.96797504 32.2503489,9.5 C32.2503489,9.03210708 32.0682493,8.59361143 31.7375471,8.26285104 C31.406927,7.93200854 30.9671948,7.74995894 30.4993021,7.74995894 Z" id="Shape" fill="#DA4453"></path>
                <g id="Group" transform="translate(10.000000, 12.000000)" fill="#FFCE54">
                    <path d="M3.96187013,13.1145517 C2.66376623,13.8389741 2.0858961,14.342819 1.64431169,13.9018966 C1.28049351,13.5409655 1.37298701,13.0224569 1.88633766,12.511319 C2.47885714,11.9225948 3.07005195,11.8571121 3.60545455,12.3054052 L4.66020779,11.2538793 C3.50571429,10.1467241 2.15766234,10.5222414 1.08825974,11.5882759 C-0.0966233766,12.7681293 -0.267038961,14.1296897 0.652753247,15.0454397 C1.68685714,16.0750862 2.68566234,15.4936552 3.74774026,14.904931 C5.09571429,14.1587069 5.50932468,13.8897931 5.90844156,14.2871121 C6.32937662,14.7062328 6.22963636,15.3167586 5.64444156,15.8982672 C4.96683117,16.5741983 4.2465974,16.7510172 3.54093506,16.0896724 L2.43514286,17.1919397 C3.59820779,18.3209741 5.07506494,18.1706897 6.45101299,16.799431 C7.48511688,15.7697845 8.09828571,14.279819 6.9,13.0855345 C6.0518961,12.2424052 5.12493506,12.4677931 3.96187013,13.1145517 Z" id="Shape"></path>
                    <polygon id="Shape" points="8.48384416 10.2025086 10.9657403 7.73200862 10.0884935 6.8574569 7.60667532 9.33036207 6.50212987 8.22871552 9.20407792 5.53701724 8.29161039 4.62856034 4.48379221 8.42012069 9.56174026 13.4756379 13.4195065 9.63566379 12.4852208 8.70478448 9.73215584 11.4453621"></polygon>
                    <path d="M11.601974,1.09148276 C10.0824935,2.60317241 10.1396104,4.64912069 11.7516623,6.25422414 C13.3417403,7.83737069 15.4098701,7.89439655 16.9147792,6.39589655 C18.4051948,4.91206034 18.3418442,2.84547414 16.7578442,1.26830172 C15.1677662,-0.314844828 13.084987,-0.38637931 11.601974,1.09148276 Z M16.0023117,5.47285345 C15.1324675,6.32443966 13.9475065,6.19719828 12.8574545,5.11068103 C11.8014545,4.05915517 11.6590909,2.85268966 12.4997922,2.01452586 C13.348987,1.16899138 14.540026,1.30468966 15.6093506,2.36940517 C16.6934026,3.4487069 16.8430909,4.63468966 16.0023117,5.47285345 Z" id="Shape"></path>
                </g>
            </g>
        </g>
    </g>
</svg>