<svg id="Layer_1" data-name="Layer 1" xmlns="http://www.w3.org/2000/svg" viewBox="0 0 150.38 24.37"><title>icon</title><path d="M98.42,3.14C91.21,2.65,82.6,4,74,3.47c-9.42-.58-18.88-.38-28.28-1.31a38.55,38.55,0,0,0-8.25.17c-2.24.26-3.28,1.45-3.19,3.81.2,5.22-.24,10.45.37,15.66.12,1,.18,2.06-1.25,2.12-.86.05-1.48,0-1.57-1.29-.22-3.58-.1-7.16-.15-10.74a21.77,21.77,0,0,0-.28-4.54C30.79,4.62,33.21.58,36.83.46,41.75.3,46.63.59,51.52.74c5.92.18,11.84.28,17.74.66,7.42.47,14.8,0,22.2-.34,3.57-.14,7.17.46,10.75.34s7.16.31,10.6-1c.78-.28,1.74-1,2,.33a1.92,1.92,0,0,1-1.44,2.3l-.09,0a5.8,5.8,0,0,1-1.25.05H98.42ZM10.06,23.25A11.07,11.07,0,0,1,.71,16.46a8,8,0,0,1-.54-5.13A14.08,14.08,0,0,1,6.35,2.12C11-1,18.9.3,21.62,5.25c3,5.41,1.9,10.36-2.92,14.59-3.3,2.9-5.26,3.6-8.64,3.41ZM20.69,11.56a8.9,8.9,0,0,0-8-9.54C7.77,1.5,2.35,6.58,1.9,12.43c-.31,4,4.68,8.94,8.91,9.2C16.17,21.95,20.74,15.93,20.69,11.56Zm129.66.26a3.63,3.63,0,0,1-1,2.7,35.53,35.53,0,0,1-4.82,4.8,28.31,28.31,0,0,0-3.69,3.9,2.81,2.81,0,0,1-1.21,1,1.67,1.67,0,0,1-2.14-.51,1.54,1.54,0,0,1,.52-2c1.93-1.77,3.95-3.45,5.9-5.21a33.74,33.74,0,0,0,2.65-2.67c1.4-1.56,1.32-2.71-.27-4.26a62.32,62.32,0,0,0-7.13-5.63,4.38,4.38,0,0,1-.62-.43c-.51-.54-1.37-1.08-.89-1.92s1.33-.51,2,.08c3.13,2.72,6.81,4.63,9.64,7.81A3.06,3.06,0,0,1,150.35,11.82ZM127,18c-.18,1.74.27,3.39-.38,5-.28.68-.45,1.47-1.41,1.24a1.63,1.63,0,0,1-1.53-1.72s0-.09,0-.13a77.51,77.51,0,0,0,0-10.68c-.25-2.52-.21-5.06-.38-7.59a3.5,3.5,0,0,1,1-2.81A1.13,1.13,0,0,1,125.75,1a1,1,0,0,1,.59,1.18c-.5,2.37.07,4.71.14,7.06S126.91,15.85,127,18Zm-25.58-2.4a2.48,2.48,0,0,1,2.84,1.31c.53,1,.84.24,1.23-.2,1.28-1.47,2.87-1.88,4.3-1.17,2,1,2.46,2.65,1.27,4.77-.53.95-2.79,1.21-4.08.46-.21-.12-.38-.3-.58-.43-.92-.65-1.63-1.26-2.81,0s-3.57,1.21-5.19.13a2,2,0,0,1-1.1-2.11c.16-1.06.39-2,1.6-2.38a7.5,7.5,0,0,1,2.51-.34Zm-.75,4.28a1.47,1.47,0,0,1-1.43-1.52v0a1.44,1.44,0,0,1,1.6-1.56,1.47,1.47,0,0,1,1.49,1.67C102.36,19.47,101.79,19.85,100.69,19.9Zm9.16-1.62a1.48,1.48,0,0,1-1.41,1.55h-.19a1.41,1.41,0,0,1-1.45-1.37s0-.09,0-.14a1.44,1.44,0,0,1,1.3-1.56h.29a1.48,1.48,0,0,1,1.47,1.48v0Z" transform="translate(0.03 -0.01)"/></svg>