<?xml version="1.0" encoding="utf-8"?>
<!-- Generator: Adobe Illustrator 16.0.0, SVG Export Plug-In . SVG Version: 6.00 Build 0)  -->
<!DOCTYPE svg PUBLIC "-//W3C//DTD SVG 1.1//EN" "http://www.w3.org/Graphics/SVG/1.1/DTD/svg11.dtd">
<svg version="1.1" id="Layer_1" xmlns="http://www.w3.org/2000/svg" xmlns:xlink="http://www.w3.org/1999/xlink" x="0px" y="0px"
	 width="335.986px" height="235.19px" viewBox="0 0 335.986 235.19" enable-background="new 0 0 335.986 235.19"
	 xml:space="preserve">
<g>
	<g>
		<rect y="-0.007" fill="#0E3C54" width="335.986" height="235.19"/>
	</g>
</g>
<g>
	<path fill="#FFFFFF" d="M119.812,185.443h2.882c0.833,0,1.598,0.117,2.293,0.354c0.695,0.238,1.29,0.564,1.782,0.98
		c0.491,0.416,0.875,0.916,1.149,1.498s0.412,1.213,0.412,1.895s-0.138,1.314-0.412,1.896s-0.658,1.08-1.149,1.496
		c-0.492,0.418-1.087,0.744-1.782,0.98s-1.46,0.355-2.293,0.355h-2.882V185.443z M122.837,193.053c0.473,0,0.903-0.066,1.292-0.199
		c0.388-0.133,0.721-0.322,1-0.568s0.495-0.547,0.646-0.9c0.151-0.355,0.228-0.76,0.228-1.215c0-0.453-0.076-0.859-0.228-1.213
		c-0.151-0.355-0.367-0.656-0.646-0.902s-0.612-0.436-1-0.568c-0.389-0.131-0.819-0.197-1.292-0.197h-0.696v5.764H122.837z"/>
	<path fill="#FFFFFF" d="M132.051,194.898h-2.328v-9.455h2.328V194.898z"/>
	<path fill="#FFFFFF" d="M138.723,185.271c1.23,0,2.263,0.193,3.095,0.578l-0.312,1.75c-0.814-0.32-1.666-0.482-2.556-0.482
		c-0.474,0-0.899,0.062-1.278,0.186c-0.378,0.123-0.702,0.314-0.972,0.574c-0.271,0.262-0.479,0.592-0.625,0.994
		c-0.147,0.402-0.22,0.883-0.22,1.441c0,0.984,0.257,1.727,0.773,2.229c0.516,0.502,1.275,0.752,2.278,0.752
		c0.218,0,0.426-0.016,0.625-0.049c0.198-0.033,0.364-0.074,0.497-0.121v-2.641h2.087v3.898c-0.407,0.201-0.926,0.365-1.555,0.494
		c-0.63,0.129-1.285,0.193-1.967,0.193c-0.795,0-1.505-0.115-2.129-0.348c-0.625-0.232-1.155-0.557-1.591-0.973
		s-0.769-0.916-1.001-1.498c-0.231-0.582-0.348-1.229-0.348-1.938c0-0.758,0.116-1.445,0.348-2.066
		c0.232-0.619,0.57-1.15,1.016-1.59c0.444-0.439,0.989-0.781,1.633-1.021C137.166,185.393,137.899,185.271,138.723,185.271z"/>
	<path fill="#FFFFFF" d="M146.219,194.898h-2.328v-9.455h2.328V194.898z"/>
	<path fill="#FFFFFF" d="M154.821,185.443v1.846h-2.541v7.609h-2.328v-7.609h-2.541v-1.846H154.821z"/>
	<path fill="#FFFFFF" d="M161.154,193.066h-3.621l-0.582,1.832h-2.399l3.521-9.455h2.556l3.521,9.455h-2.399L161.154,193.066z
		 M158.13,191.221h2.428l-1.207-3.99L158.13,191.221z"/>
	<path fill="#FFFFFF" d="M167.571,185.443v7.609h3.479v1.846h-5.807v-9.455H167.571z"/>
	<path fill="#FFFFFF" d="M181.613,193.393h-2.243l-1.846-3.791l-0.284,5.297h-2.285l0.709-9.455h2.102l2.726,5.777l2.727-5.777
		h2.101l0.71,9.455h-2.285l-0.284-5.297L181.613,193.393z"/>
	<path fill="#FFFFFF" d="M187.548,185.443h5.892v1.846h-3.563v1.902h3.394v1.846h-3.394v2.016h3.606v1.846h-5.935V185.443z"/>
	<path fill="#FFFFFF" d="M195.087,185.443h2.882c0.833,0,1.598,0.117,2.293,0.354c0.695,0.238,1.29,0.564,1.782,0.98
		c0.491,0.416,0.875,0.916,1.149,1.498s0.412,1.213,0.412,1.895s-0.138,1.314-0.412,1.896s-0.658,1.08-1.149,1.496
		c-0.492,0.418-1.087,0.744-1.782,0.98s-1.46,0.355-2.293,0.355h-2.882V185.443z M198.111,193.053c0.473,0,0.903-0.066,1.292-0.199
		c0.388-0.133,0.721-0.322,1-0.568s0.495-0.547,0.646-0.9c0.151-0.355,0.228-0.76,0.228-1.215c0-0.453-0.076-0.859-0.228-1.213
		c-0.151-0.355-0.367-0.656-0.646-0.902s-0.612-0.436-1-0.568c-0.389-0.131-0.819-0.197-1.292-0.197h-0.696v5.764H198.111z"/>
	<path fill="#FFFFFF" d="M207.325,194.898h-2.328v-9.455h2.328V194.898z"/>
	<path fill="#FFFFFF" d="M215.091,193.066h-3.621l-0.582,1.832h-2.399l3.521-9.455h2.556l3.521,9.455h-2.399L215.091,193.066z
		 M212.066,191.221h2.428l-1.207-3.99L212.066,191.221z"/>
</g>
<g>
	<path fill="#83CCCD" d="M106.115,199.965h0.388v2.678h1.283v0.326h-1.671V199.965z"/>
	<path fill="#83CCCD" d="M110.095,201.873c0,0.797-0.552,1.145-1.073,1.145c-0.584,0-1.034-0.428-1.034-1.109
		c0-0.723,0.473-1.145,1.069-1.145C109.677,200.764,110.095,201.213,110.095,201.873z M108.384,201.895
		c0,0.473,0.272,0.828,0.655,0.828c0.374,0,0.655-0.352,0.655-0.838c0-0.365-0.183-0.828-0.646-0.828
		C108.585,201.057,108.384,201.484,108.384,201.895z"/>
	<path fill="#83CCCD" d="M110.592,201.484c0-0.254-0.004-0.473-0.018-0.672h0.343l0.014,0.422h0.018
		c0.098-0.289,0.334-0.471,0.597-0.471c0.045,0,0.076,0.004,0.111,0.012v0.371c-0.04-0.01-0.08-0.014-0.133-0.014
		c-0.276,0-0.473,0.209-0.526,0.504c-0.009,0.053-0.018,0.115-0.018,0.182v1.15h-0.388V201.484z"/>
	<path fill="#83CCCD" d="M112.224,201.961c0.009,0.531,0.347,0.748,0.739,0.748c0.28,0,0.45-0.049,0.597-0.111l0.067,0.281
		c-0.139,0.062-0.374,0.135-0.718,0.135c-0.664,0-1.061-0.438-1.061-1.088s0.384-1.162,1.012-1.162c0.704,0,0.892,0.619,0.892,1.016
		c0,0.08-0.01,0.143-0.014,0.182H112.224z M113.373,201.68c0.004-0.248-0.103-0.637-0.544-0.637c-0.396,0-0.57,0.365-0.602,0.637
		H113.373z"/>
	<path fill="#83CCCD" d="M114.239,201.395c0-0.223-0.005-0.404-0.018-0.582h0.343l0.018,0.348h0.014
		c0.12-0.205,0.321-0.396,0.678-0.396c0.294,0,0.517,0.178,0.61,0.432h0.009c0.066-0.121,0.151-0.215,0.24-0.281
		c0.129-0.098,0.271-0.15,0.477-0.15c0.285,0,0.709,0.186,0.709,0.936v1.27h-0.384v-1.221c0-0.414-0.151-0.664-0.468-0.664
		c-0.223,0-0.396,0.164-0.463,0.355c-0.018,0.055-0.031,0.125-0.031,0.197v1.332h-0.383v-1.293c0-0.342-0.152-0.592-0.45-0.592
		c-0.245,0-0.424,0.195-0.486,0.393c-0.021,0.057-0.031,0.123-0.031,0.191v1.301h-0.383V201.395z"/>
	<path fill="#83CCCD" d="M119.341,200.205c0.005,0.135-0.094,0.242-0.249,0.242c-0.139,0-0.236-0.107-0.236-0.242
		c0-0.137,0.103-0.244,0.245-0.244C119.247,199.961,119.341,200.068,119.341,200.205z M118.904,202.969v-2.156h0.393v2.156H118.904z
		"/>
	<path fill="#83CCCD" d="M119.948,201.516c0-0.275-0.009-0.498-0.018-0.703h0.352l0.019,0.369h0.009
		c0.16-0.264,0.414-0.418,0.766-0.418c0.521,0,0.914,0.439,0.914,1.096c0,0.775-0.473,1.158-0.98,1.158
		c-0.285,0-0.535-0.125-0.664-0.34h-0.009v1.172h-0.388V201.516z M120.336,202.09c0,0.059,0.009,0.111,0.018,0.16
		c0.071,0.273,0.308,0.459,0.588,0.459c0.415,0,0.655-0.338,0.655-0.832c0-0.432-0.228-0.803-0.642-0.803
		c-0.268,0-0.517,0.191-0.593,0.486c-0.013,0.049-0.026,0.107-0.026,0.16V202.09z"/>
	<path fill="#83CCCD" d="M122.432,202.566c0.116,0.076,0.321,0.156,0.518,0.156c0.285,0,0.418-0.143,0.418-0.32
		c0-0.188-0.111-0.289-0.4-0.396c-0.388-0.139-0.57-0.352-0.57-0.611c0-0.346,0.28-0.631,0.744-0.631c0.218,0,0.41,0.061,0.53,0.133
		l-0.099,0.285c-0.084-0.053-0.24-0.125-0.44-0.125c-0.232,0-0.361,0.135-0.361,0.295c0,0.178,0.129,0.258,0.41,0.365
		c0.374,0.143,0.565,0.33,0.565,0.65c0,0.379-0.294,0.646-0.807,0.646c-0.235,0-0.454-0.059-0.605-0.148L122.432,202.566z"/>
	<path fill="#83CCCD" d="M126.056,202.381c0,0.223,0.004,0.418,0.018,0.588h-0.348l-0.022-0.352h-0.009
		c-0.103,0.174-0.329,0.4-0.713,0.4c-0.338,0-0.744-0.188-0.744-0.945v-1.26h0.393v1.193c0,0.41,0.125,0.686,0.481,0.686
		c0.263,0,0.445-0.182,0.517-0.355c0.022-0.059,0.035-0.129,0.035-0.201v-1.322h0.393V202.381z"/>
	<path fill="#83CCCD" d="M126.708,201.395c0-0.223-0.005-0.404-0.018-0.582h0.343l0.018,0.348h0.014
		c0.12-0.205,0.321-0.396,0.678-0.396c0.294,0,0.517,0.178,0.61,0.432h0.009c0.066-0.121,0.151-0.215,0.24-0.281
		c0.129-0.098,0.271-0.15,0.477-0.15c0.285,0,0.709,0.186,0.709,0.936v1.27h-0.384v-1.221c0-0.414-0.151-0.664-0.468-0.664
		c-0.223,0-0.396,0.164-0.463,0.355c-0.018,0.055-0.031,0.125-0.031,0.197v1.332h-0.383v-1.293c0-0.342-0.152-0.592-0.45-0.592
		c-0.245,0-0.424,0.195-0.486,0.393c-0.021,0.057-0.031,0.123-0.031,0.191v1.301h-0.383V201.395z"/>
	<path fill="#83CCCD" d="M133.235,199.805v2.607c0,0.191,0.005,0.408,0.018,0.557h-0.352l-0.018-0.375h-0.009
		c-0.121,0.24-0.384,0.424-0.735,0.424c-0.521,0-0.923-0.441-0.923-1.096c-0.004-0.719,0.441-1.158,0.967-1.158
		c0.33,0,0.553,0.154,0.651,0.328h0.009v-1.287H133.235z M132.844,201.689c0-0.049-0.005-0.115-0.019-0.164
		c-0.058-0.25-0.271-0.455-0.565-0.455c-0.405,0-0.646,0.355-0.646,0.834c0,0.436,0.214,0.797,0.638,0.797
		c0.263,0,0.503-0.174,0.574-0.469c0.014-0.053,0.019-0.105,0.019-0.168V201.689z"/>
	<path fill="#83CCCD" d="M135.84,201.873c0,0.797-0.552,1.145-1.073,1.145c-0.584,0-1.034-0.428-1.034-1.109
		c0-0.723,0.473-1.145,1.069-1.145C135.422,200.764,135.84,201.213,135.84,201.873z M134.129,201.895
		c0,0.473,0.272,0.828,0.655,0.828c0.374,0,0.655-0.352,0.655-0.838c0-0.365-0.183-0.828-0.646-0.828
		C134.33,201.057,134.129,201.484,134.129,201.895z"/>
	<path fill="#83CCCD" d="M136.337,199.805h0.393v3.164h-0.393V199.805z"/>
	<path fill="#83CCCD" d="M139.341,201.873c0,0.797-0.552,1.145-1.073,1.145c-0.584,0-1.034-0.428-1.034-1.109
		c0-0.723,0.473-1.145,1.069-1.145C138.923,200.764,139.341,201.213,139.341,201.873z M137.63,201.895
		c0,0.473,0.272,0.828,0.655,0.828c0.374,0,0.655-0.352,0.655-0.838c0-0.365-0.183-0.828-0.646-0.828
		C137.831,201.057,137.63,201.484,137.63,201.895z"/>
	<path fill="#83CCCD" d="M139.838,201.484c0-0.254-0.004-0.473-0.018-0.672h0.343l0.014,0.422h0.018
		c0.098-0.289,0.334-0.471,0.597-0.471c0.045,0,0.076,0.004,0.111,0.012v0.371c-0.04-0.01-0.08-0.014-0.133-0.014
		c-0.276,0-0.473,0.209-0.526,0.504c-0.009,0.053-0.018,0.115-0.018,0.182v1.15h-0.388V201.484z"/>
	<path fill="#83CCCD" d="M142.188,202.566c0.116,0.076,0.321,0.156,0.518,0.156c0.285,0,0.418-0.143,0.418-0.32
		c0-0.188-0.111-0.289-0.4-0.396c-0.388-0.139-0.57-0.352-0.57-0.611c0-0.346,0.28-0.631,0.744-0.631c0.218,0,0.41,0.061,0.53,0.133
		l-0.099,0.285c-0.084-0.053-0.24-0.125-0.44-0.125c-0.232,0-0.361,0.135-0.361,0.295c0,0.178,0.129,0.258,0.41,0.365
		c0.374,0.143,0.565,0.33,0.565,0.65c0,0.379-0.294,0.646-0.807,0.646c-0.235,0-0.454-0.059-0.605-0.148L142.188,202.566z"/>
	<path fill="#83CCCD" d="M144.443,200.205c0.005,0.135-0.094,0.242-0.249,0.242c-0.139,0-0.236-0.107-0.236-0.242
		c0-0.137,0.103-0.244,0.245-0.244C144.35,199.961,144.443,200.068,144.443,200.205z M144.007,202.969v-2.156h0.393v2.156H144.007z"
		/>
	<path fill="#83CCCD" d="M145.523,200.193v0.619h0.562v0.297h-0.562v1.164c0,0.268,0.075,0.418,0.294,0.418
		c0.103,0,0.178-0.014,0.228-0.025l0.018,0.293c-0.076,0.031-0.196,0.055-0.348,0.055c-0.183,0-0.33-0.059-0.424-0.166
		c-0.111-0.115-0.151-0.307-0.151-0.561v-1.178h-0.334v-0.297h0.334v-0.518L145.523,200.193z"/>
	<path fill="#83CCCD" d="M148.667,202.969l-0.031-0.271h-0.014c-0.12,0.168-0.352,0.32-0.659,0.32c-0.437,0-0.659-0.309-0.659-0.619
		c0-0.521,0.463-0.807,1.296-0.803v-0.045c0-0.178-0.049-0.498-0.49-0.498c-0.2,0-0.409,0.062-0.561,0.16l-0.09-0.258
		c0.179-0.117,0.438-0.191,0.709-0.191c0.659,0,0.819,0.449,0.819,0.881v0.807c0,0.188,0.009,0.369,0.036,0.518H148.667z
		 M148.609,201.867c-0.428-0.008-0.914,0.068-0.914,0.486c0,0.254,0.17,0.375,0.37,0.375c0.28,0,0.459-0.18,0.521-0.361
		c0.013-0.041,0.022-0.086,0.022-0.125V201.867z"/>
	<path fill="#83CCCD" d="M149.622,201.395c0-0.223-0.005-0.404-0.018-0.582h0.343l0.018,0.348h0.014
		c0.12-0.205,0.321-0.396,0.678-0.396c0.294,0,0.517,0.178,0.61,0.432h0.009c0.066-0.121,0.151-0.215,0.24-0.281
		c0.129-0.098,0.271-0.15,0.477-0.15c0.285,0,0.709,0.186,0.709,0.936v1.27h-0.384v-1.221c0-0.414-0.151-0.664-0.468-0.664
		c-0.223,0-0.396,0.164-0.463,0.355c-0.018,0.055-0.031,0.125-0.031,0.197v1.332h-0.383v-1.293c0-0.342-0.152-0.592-0.45-0.592
		c-0.245,0-0.424,0.195-0.486,0.393c-0.021,0.057-0.031,0.123-0.031,0.191v1.301h-0.383V201.395z"/>
	<path fill="#83CCCD" d="M153.561,201.961c0.009,0.531,0.348,0.748,0.739,0.748c0.28,0,0.45-0.049,0.597-0.111l0.067,0.281
		c-0.139,0.062-0.374,0.135-0.718,0.135c-0.664,0-1.061-0.438-1.061-1.088s0.384-1.162,1.012-1.162c0.704,0,0.892,0.619,0.892,1.016
		c0,0.08-0.01,0.143-0.014,0.182H153.561z M154.71,201.68c0.004-0.248-0.103-0.637-0.544-0.637c-0.396,0-0.57,0.365-0.602,0.637
		H154.71z"/>
	<path fill="#83CCCD" d="M156.049,200.193v0.619h0.562v0.297h-0.562v1.164c0,0.268,0.075,0.418,0.294,0.418
		c0.103,0,0.178-0.014,0.228-0.025l0.018,0.293c-0.076,0.031-0.196,0.055-0.348,0.055c-0.183,0-0.33-0.059-0.424-0.166
		c-0.111-0.115-0.151-0.307-0.151-0.561v-1.178h-0.334v-0.297h0.334v-0.518L156.049,200.193z"/>
	<path fill="#83CCCD" d="M156.786,203.516c0.098-0.262,0.219-0.738,0.268-1.064l0.437-0.045c-0.103,0.379-0.299,0.873-0.424,1.084
		L156.786,203.516z"/>
	<path fill="#83CCCD" d="M160.445,202.889c-0.103,0.053-0.33,0.125-0.619,0.125c-0.65,0-1.074-0.441-1.074-1.102
		c0-0.664,0.455-1.145,1.159-1.145c0.231,0,0.437,0.057,0.543,0.111l-0.089,0.303c-0.094-0.053-0.24-0.102-0.454-0.102
		c-0.495,0-0.763,0.365-0.763,0.814c0,0.498,0.321,0.807,0.749,0.807c0.223,0,0.37-0.059,0.481-0.107L160.445,202.889z"/>
	<path fill="#83CCCD" d="M162.83,201.873c0,0.797-0.552,1.145-1.073,1.145c-0.584,0-1.034-0.428-1.034-1.109
		c0-0.723,0.473-1.145,1.069-1.145C162.412,200.764,162.83,201.213,162.83,201.873z M161.119,201.895
		c0,0.473,0.272,0.828,0.655,0.828c0.374,0,0.655-0.352,0.655-0.838c0-0.365-0.183-0.828-0.646-0.828
		C161.32,201.057,161.119,201.484,161.119,201.895z"/>
	<path fill="#83CCCD" d="M163.327,201.395c0-0.223-0.005-0.404-0.018-0.582h0.348l0.022,0.355h0.009
		c0.106-0.205,0.356-0.404,0.713-0.404c0.298,0,0.762,0.178,0.762,0.916v1.289h-0.393v-1.244c0-0.348-0.129-0.637-0.499-0.637
		c-0.258,0-0.459,0.184-0.525,0.4c-0.018,0.049-0.026,0.117-0.026,0.184v1.297h-0.393V201.395z"/>
	<path fill="#83CCCD" d="M165.749,202.566c0.116,0.076,0.321,0.156,0.518,0.156c0.285,0,0.418-0.143,0.418-0.32
		c0-0.188-0.111-0.289-0.4-0.396c-0.388-0.139-0.57-0.352-0.57-0.611c0-0.346,0.28-0.631,0.744-0.631
		c0.218,0,0.409,0.061,0.53,0.133l-0.099,0.285c-0.084-0.053-0.24-0.125-0.44-0.125c-0.232,0-0.361,0.135-0.361,0.295
		c0,0.178,0.129,0.258,0.41,0.365c0.374,0.143,0.565,0.33,0.565,0.65c0,0.379-0.294,0.646-0.807,0.646
		c-0.235,0-0.454-0.059-0.605-0.148L165.749,202.566z"/>
	<path fill="#83CCCD" d="M167.787,201.961c0.009,0.531,0.348,0.748,0.739,0.748c0.28,0,0.45-0.049,0.597-0.111l0.067,0.281
		c-0.139,0.062-0.374,0.135-0.718,0.135c-0.664,0-1.061-0.438-1.061-1.088s0.384-1.162,1.012-1.162c0.704,0,0.892,0.619,0.892,1.016
		c0,0.08-0.01,0.143-0.014,0.182H167.787z M168.937,201.68c0.004-0.248-0.103-0.637-0.544-0.637c-0.396,0-0.57,0.365-0.602,0.637
		H168.937z"/>
	<path fill="#83CCCD" d="M171.34,202.889c-0.103,0.053-0.33,0.125-0.619,0.125c-0.65,0-1.074-0.441-1.074-1.102
		c0-0.664,0.455-1.145,1.159-1.145c0.231,0,0.437,0.057,0.543,0.111l-0.089,0.303c-0.094-0.053-0.24-0.102-0.454-0.102
		c-0.495,0-0.763,0.365-0.763,0.814c0,0.498,0.321,0.807,0.749,0.807c0.223,0,0.37-0.059,0.481-0.107L171.34,202.889z"/>
	<path fill="#83CCCD" d="M172.332,200.193v0.619h0.562v0.297h-0.562v1.164c0,0.268,0.075,0.418,0.294,0.418
		c0.103,0,0.178-0.014,0.228-0.025l0.018,0.293c-0.076,0.031-0.196,0.055-0.348,0.055c-0.183,0-0.33-0.059-0.424-0.166
		c-0.111-0.115-0.151-0.307-0.151-0.561v-1.178h-0.334v-0.297h0.334v-0.518L172.332,200.193z"/>
	<path fill="#83CCCD" d="M173.527,201.961c0.009,0.531,0.348,0.748,0.739,0.748c0.28,0,0.45-0.049,0.597-0.111l0.067,0.281
		c-0.139,0.062-0.374,0.135-0.718,0.135c-0.664,0-1.061-0.438-1.061-1.088s0.384-1.162,1.012-1.162c0.704,0,0.892,0.619,0.892,1.016
		c0,0.08-0.01,0.143-0.014,0.182H173.527z M174.677,201.68c0.004-0.248-0.103-0.637-0.544-0.637c-0.396,0-0.57,0.365-0.602,0.637
		H174.677z"/>
	<path fill="#83CCCD" d="M176.016,200.193v0.619h0.562v0.297h-0.562v1.164c0,0.268,0.075,0.418,0.294,0.418
		c0.103,0,0.178-0.014,0.228-0.025l0.018,0.293c-0.076,0.031-0.196,0.055-0.348,0.055c-0.183,0-0.33-0.059-0.424-0.166
		c-0.111-0.115-0.151-0.307-0.151-0.561v-1.178h-0.334v-0.297h0.334v-0.518L176.016,200.193z"/>
	<path fill="#83CCCD" d="M178.824,202.381c0,0.223,0.004,0.418,0.018,0.588h-0.348l-0.022-0.352h-0.009
		c-0.103,0.174-0.329,0.4-0.713,0.4c-0.338,0-0.744-0.188-0.744-0.945v-1.26h0.393v1.193c0,0.41,0.125,0.686,0.481,0.686
		c0.263,0,0.445-0.182,0.517-0.355c0.022-0.059,0.035-0.129,0.035-0.201v-1.322h0.393V202.381z"/>
	<path fill="#83CCCD" d="M179.477,201.484c0-0.254-0.004-0.473-0.018-0.672h0.343l0.014,0.422h0.018
		c0.098-0.289,0.334-0.471,0.597-0.471c0.045,0,0.076,0.004,0.111,0.012v0.371c-0.04-0.01-0.08-0.014-0.133-0.014
		c-0.276,0-0.473,0.209-0.526,0.504c-0.009,0.053-0.018,0.115-0.018,0.182v1.15h-0.388V201.484z"/>
	<path fill="#83CCCD" d="M183.074,202.969l-0.031-0.271h-0.014c-0.12,0.168-0.352,0.32-0.659,0.32c-0.437,0-0.659-0.309-0.659-0.619
		c0-0.521,0.463-0.807,1.296-0.803v-0.045c0-0.178-0.049-0.498-0.489-0.498c-0.201,0-0.41,0.062-0.562,0.16l-0.09-0.258
		c0.179-0.117,0.437-0.191,0.709-0.191c0.659,0,0.819,0.449,0.819,0.881v0.807c0,0.188,0.009,0.369,0.036,0.518H183.074z
		 M183.016,201.867c-0.428-0.008-0.913,0.068-0.913,0.486c0,0.254,0.17,0.375,0.37,0.375c0.28,0,0.459-0.18,0.521-0.361
		c0.013-0.041,0.021-0.086,0.021-0.125V201.867z"/>
	<path fill="#83CCCD" d="M185.892,199.805v2.607c0,0.191,0.005,0.408,0.018,0.557h-0.352l-0.018-0.375h-0.009
		c-0.121,0.24-0.384,0.424-0.735,0.424c-0.521,0-0.923-0.441-0.923-1.096c-0.004-0.719,0.441-1.158,0.967-1.158
		c0.33,0,0.553,0.154,0.651,0.328h0.009v-1.287H185.892z M185.5,201.689c0-0.049-0.005-0.115-0.019-0.164
		c-0.058-0.25-0.271-0.455-0.565-0.455c-0.405,0-0.646,0.355-0.646,0.834c0,0.436,0.214,0.797,0.638,0.797
		c0.263,0,0.503-0.174,0.574-0.469c0.014-0.053,0.019-0.105,0.019-0.168V201.689z"/>
	<path fill="#83CCCD" d="M186.981,200.205c0.005,0.135-0.094,0.242-0.249,0.242c-0.139,0-0.236-0.107-0.236-0.242
		c0-0.137,0.103-0.244,0.245-0.244C186.888,199.961,186.981,200.068,186.981,200.205z M186.545,202.969v-2.156h0.393v2.156H186.545z
		"/>
	<path fill="#83CCCD" d="M187.589,201.516c0-0.275-0.009-0.498-0.018-0.703h0.352l0.019,0.369h0.009
		c0.16-0.264,0.414-0.418,0.766-0.418c0.521,0,0.914,0.439,0.914,1.096c0,0.775-0.473,1.158-0.98,1.158
		c-0.285,0-0.535-0.125-0.664-0.34h-0.009v1.172h-0.388V201.516z M187.977,202.09c0,0.059,0.009,0.111,0.018,0.16
		c0.071,0.273,0.308,0.459,0.588,0.459c0.415,0,0.655-0.338,0.655-0.832c0-0.432-0.228-0.803-0.642-0.803
		c-0.268,0-0.517,0.191-0.593,0.486c-0.013,0.049-0.026,0.107-0.026,0.16V202.09z"/>
	<path fill="#83CCCD" d="M190.562,200.205c0.005,0.135-0.094,0.242-0.249,0.242c-0.139,0-0.236-0.107-0.236-0.242
		c0-0.137,0.103-0.244,0.245-0.244C190.469,199.961,190.562,200.068,190.562,200.205z M190.126,202.969v-2.156h0.393v2.156H190.126z
		"/>
	<path fill="#83CCCD" d="M191.116,202.566c0.116,0.076,0.321,0.156,0.518,0.156c0.285,0,0.418-0.143,0.418-0.32
		c0-0.188-0.111-0.289-0.4-0.396c-0.388-0.139-0.57-0.352-0.57-0.611c0-0.346,0.28-0.631,0.744-0.631
		c0.218,0,0.409,0.061,0.53,0.133l-0.099,0.285c-0.084-0.053-0.24-0.125-0.44-0.125c-0.232,0-0.361,0.135-0.361,0.295
		c0,0.178,0.129,0.258,0.41,0.365c0.374,0.143,0.565,0.33,0.565,0.65c0,0.379-0.294,0.646-0.807,0.646
		c-0.235,0-0.454-0.059-0.605-0.148L191.116,202.566z"/>
	<path fill="#83CCCD" d="M194.473,202.889c-0.103,0.053-0.33,0.125-0.619,0.125c-0.65,0-1.074-0.441-1.074-1.102
		c0-0.664,0.455-1.145,1.159-1.145c0.231,0,0.437,0.057,0.543,0.111l-0.089,0.303c-0.094-0.053-0.24-0.102-0.454-0.102
		c-0.495,0-0.763,0.365-0.763,0.814c0,0.498,0.321,0.807,0.749,0.807c0.223,0,0.37-0.059,0.481-0.107L194.473,202.889z"/>
	<path fill="#83CCCD" d="M195.37,200.205c0.005,0.135-0.094,0.242-0.249,0.242c-0.139,0-0.236-0.107-0.236-0.242
		c0-0.137,0.103-0.244,0.245-0.244C195.276,199.961,195.37,200.068,195.37,200.205z M194.934,202.969v-2.156h0.393v2.156H194.934z"
		/>
	<path fill="#83CCCD" d="M195.978,201.395c0-0.223-0.005-0.404-0.018-0.582h0.348l0.022,0.355h0.009
		c0.106-0.205,0.356-0.404,0.713-0.404c0.298,0,0.762,0.178,0.762,0.916v1.289h-0.393v-1.244c0-0.348-0.129-0.637-0.499-0.637
		c-0.258,0-0.459,0.184-0.525,0.4c-0.018,0.049-0.026,0.117-0.026,0.184v1.297h-0.393V201.395z"/>
	<path fill="#83CCCD" d="M200.312,200.812c-0.009,0.154-0.019,0.328-0.019,0.592v1.252c0,0.494-0.098,0.797-0.307,0.984
		c-0.21,0.197-0.513,0.26-0.784,0.26c-0.259,0-0.544-0.062-0.718-0.18l0.098-0.299c0.143,0.09,0.365,0.17,0.633,0.17
		c0.401,0,0.695-0.209,0.695-0.752v-0.242h-0.009c-0.12,0.201-0.353,0.361-0.687,0.361c-0.534,0-0.918-0.453-0.918-1.051
		c0-0.73,0.478-1.145,0.972-1.145c0.374,0,0.579,0.195,0.673,0.373h0.009l0.018-0.324H200.312z M199.905,201.662
		c0-0.066-0.004-0.125-0.021-0.178c-0.071-0.227-0.264-0.414-0.549-0.414c-0.374,0-0.642,0.316-0.642,0.814
		c0,0.424,0.214,0.775,0.638,0.775c0.24,0,0.459-0.15,0.544-0.4c0.021-0.066,0.03-0.143,0.03-0.209V201.662z"/>
	<path fill="#83CCCD" d="M202.11,201.961c0.009,0.531,0.347,0.748,0.739,0.748c0.28,0,0.45-0.049,0.597-0.111l0.067,0.281
		c-0.139,0.062-0.374,0.135-0.718,0.135c-0.664,0-1.061-0.438-1.061-1.088s0.384-1.162,1.012-1.162c0.704,0,0.892,0.619,0.892,1.016
		c0,0.08-0.01,0.143-0.014,0.182H202.11z M203.26,201.68c0.004-0.248-0.103-0.637-0.544-0.637c-0.396,0-0.57,0.365-0.602,0.637
		H203.26z"/>
	<path fill="#83CCCD" d="M204.126,199.805h0.393v3.164h-0.393V199.805z"/>
	<path fill="#83CCCD" d="M205.615,200.205c0.005,0.135-0.094,0.242-0.249,0.242c-0.139,0-0.236-0.107-0.236-0.242
		c0-0.137,0.103-0.244,0.245-0.244C205.521,199.961,205.615,200.068,205.615,200.205z M205.179,202.969v-2.156h0.393v2.156H205.179z
		"/>
	<path fill="#83CCCD" d="M206.695,200.193v0.619h0.562v0.297h-0.562v1.164c0,0.268,0.075,0.418,0.294,0.418
		c0.103,0,0.178-0.014,0.228-0.025l0.018,0.293c-0.076,0.031-0.196,0.055-0.348,0.055c-0.183,0-0.33-0.059-0.424-0.166
		c-0.111-0.115-0.151-0.307-0.151-0.561v-1.178h-0.334v-0.297h0.334v-0.518L206.695,200.193z"/>
	<path fill="#83CCCD" d="M207.593,202.736c0-0.164,0.111-0.281,0.268-0.281s0.263,0.117,0.263,0.281c0,0.16-0.103,0.281-0.268,0.281
		C207.7,203.018,207.593,202.896,207.593,202.736z"/>
	<path fill="#83CCCD" d="M209.568,200.006c0.236-0.037,0.517-0.062,0.824-0.062c0.557,0,0.953,0.129,1.216,0.373
		c0.268,0.246,0.424,0.594,0.424,1.078c0,0.49-0.151,0.893-0.433,1.168c-0.28,0.281-0.744,0.432-1.327,0.432
		c-0.276,0-0.509-0.012-0.704-0.035V200.006z M209.956,202.66c0.098,0.018,0.24,0.023,0.392,0.023c0.829,0,1.279-0.463,1.279-1.275
		c0.004-0.707-0.396-1.158-1.217-1.158c-0.2,0-0.352,0.018-0.454,0.041V202.66z"/>
	<path fill="#83CCCD" d="M214.493,201.873c0,0.797-0.552,1.145-1.073,1.145c-0.584,0-1.034-0.428-1.034-1.109
		c0-0.723,0.473-1.145,1.069-1.145C214.075,200.764,214.493,201.213,214.493,201.873z M212.782,201.895
		c0,0.473,0.272,0.828,0.655,0.828c0.374,0,0.655-0.352,0.655-0.838c0-0.365-0.183-0.828-0.646-0.828
		C212.983,201.057,212.782,201.484,212.782,201.895z"/>
	<path fill="#83CCCD" d="M214.99,201.395c0-0.223-0.004-0.404-0.018-0.582h0.348l0.021,0.355h0.01
		c0.106-0.205,0.356-0.404,0.713-0.404c0.298,0,0.762,0.178,0.762,0.916v1.289h-0.393v-1.244c0-0.348-0.129-0.637-0.499-0.637
		c-0.258,0-0.459,0.184-0.525,0.4c-0.018,0.049-0.026,0.117-0.026,0.184v1.297h-0.393V201.395z"/>
	<path fill="#83CCCD" d="M217.685,201.961c0.009,0.531,0.347,0.748,0.739,0.748c0.28,0,0.45-0.049,0.597-0.111l0.067,0.281
		c-0.139,0.062-0.374,0.135-0.718,0.135c-0.664,0-1.061-0.438-1.061-1.088s0.384-1.162,1.012-1.162c0.704,0,0.892,0.619,0.892,1.016
		c0,0.08-0.01,0.143-0.014,0.182H217.685z M218.834,201.68c0.004-0.248-0.103-0.637-0.544-0.637c-0.396,0-0.57,0.365-0.602,0.637
		H218.834z"/>
	<path fill="#83CCCD" d="M221.237,202.889c-0.103,0.053-0.329,0.125-0.619,0.125c-0.65,0-1.074-0.441-1.074-1.102
		c0-0.664,0.455-1.145,1.159-1.145c0.231,0,0.437,0.057,0.543,0.111l-0.089,0.303c-0.094-0.053-0.24-0.102-0.454-0.102
		c-0.495,0-0.763,0.365-0.763,0.814c0,0.498,0.321,0.807,0.749,0.807c0.223,0,0.37-0.059,0.481-0.107L221.237,202.889z"/>
	<path fill="#83CCCD" d="M222.795,200.812l0.424,1.211c0.071,0.197,0.129,0.375,0.174,0.553h0.013
		c0.049-0.178,0.111-0.355,0.183-0.553l0.419-1.211h0.41l-0.847,2.156h-0.374l-0.82-2.156H222.795z"/>
	<path fill="#83CCCD" d="M225.226,200.205c0.005,0.135-0.094,0.242-0.249,0.242c-0.139,0-0.236-0.107-0.236-0.242
		c0-0.137,0.103-0.244,0.245-0.244C225.132,199.961,225.226,200.068,225.226,200.205z M224.789,202.969v-2.156h0.393v2.156H224.789z
		"/>
	<path fill="#83CCCD" d="M226.306,200.193v0.619h0.562v0.297h-0.562v1.164c0,0.268,0.075,0.418,0.294,0.418
		c0.103,0,0.178-0.014,0.227-0.025l0.019,0.293c-0.076,0.031-0.196,0.055-0.348,0.055c-0.183,0-0.33-0.059-0.424-0.166
		c-0.111-0.115-0.151-0.307-0.151-0.561v-1.178h-0.334v-0.297h0.334v-0.518L226.306,200.193z"/>
	<path fill="#83CCCD" d="M228.504,202.969l-0.031-0.271h-0.014c-0.12,0.168-0.352,0.32-0.659,0.32c-0.437,0-0.659-0.309-0.659-0.619
		c0-0.521,0.463-0.807,1.296-0.803v-0.045c0-0.178-0.049-0.498-0.489-0.498c-0.201,0-0.41,0.062-0.562,0.16l-0.09-0.258
		c0.179-0.117,0.437-0.191,0.709-0.191c0.659,0,0.819,0.449,0.819,0.881v0.807c0,0.188,0.009,0.369,0.036,0.518H228.504z
		 M228.445,201.867c-0.428-0.008-0.913,0.068-0.913,0.486c0,0.254,0.17,0.375,0.37,0.375c0.28,0,0.459-0.18,0.521-0.361
		c0.013-0.041,0.021-0.086,0.021-0.125V201.867z"/>
	<path fill="#83CCCD" d="M229.678,201.961c0.009,0.531,0.348,0.748,0.739,0.748c0.28,0,0.45-0.049,0.597-0.111l0.067,0.281
		c-0.139,0.062-0.374,0.135-0.718,0.135c-0.664,0-1.061-0.438-1.061-1.088s0.384-1.162,1.012-1.162c0.704,0,0.892,0.619,0.892,1.016
		c0,0.08-0.01,0.143-0.014,0.182H229.678z M230.827,201.68c0.004-0.248-0.103-0.637-0.544-0.637c-0.396,0-0.57,0.365-0.602,0.637
		H230.827z"/>
	<path fill="#83CCCD" d="M108.923,207.92c0.116,0.076,0.321,0.156,0.518,0.156c0.285,0,0.418-0.143,0.418-0.32
		c0-0.188-0.111-0.291-0.4-0.396c-0.388-0.139-0.57-0.354-0.57-0.611c0-0.348,0.28-0.633,0.744-0.633
		c0.218,0,0.409,0.062,0.53,0.133l-0.099,0.285c-0.084-0.053-0.24-0.123-0.44-0.123c-0.232,0-0.361,0.133-0.361,0.293
		c0,0.178,0.129,0.258,0.41,0.365c0.374,0.143,0.565,0.33,0.565,0.65c0,0.379-0.294,0.646-0.807,0.646
		c-0.235,0-0.454-0.059-0.605-0.146L108.923,207.92z"/>
	<path fill="#83CCCD" d="M110.961,207.314c0.009,0.529,0.348,0.748,0.739,0.748c0.28,0,0.45-0.049,0.597-0.111l0.067,0.281
		c-0.139,0.062-0.374,0.133-0.718,0.133c-0.664,0-1.061-0.436-1.061-1.088c0-0.65,0.384-1.162,1.012-1.162
		c0.704,0,0.892,0.619,0.892,1.016c0,0.08-0.01,0.143-0.014,0.184H110.961z M112.11,207.033c0.004-0.25-0.103-0.637-0.544-0.637
		c-0.396,0-0.57,0.365-0.602,0.637H112.11z"/>
	<path fill="#83CCCD" d="M112.977,206.748c0-0.223-0.004-0.406-0.018-0.584h0.343l0.018,0.348h0.014
		c0.12-0.205,0.321-0.396,0.678-0.396c0.294,0,0.517,0.178,0.61,0.432h0.009c0.066-0.119,0.151-0.213,0.24-0.279
		c0.129-0.1,0.271-0.152,0.477-0.152c0.285,0,0.709,0.188,0.709,0.936v1.27h-0.384V207.1c0-0.414-0.151-0.664-0.468-0.664
		c-0.223,0-0.396,0.166-0.463,0.357c-0.018,0.053-0.031,0.125-0.031,0.195v1.332h-0.384v-1.291c0-0.344-0.151-0.594-0.449-0.594
		c-0.245,0-0.424,0.197-0.486,0.393c-0.021,0.059-0.031,0.125-0.031,0.191v1.301h-0.383V206.748z"/>
	<path fill="#83CCCD" d="M116.696,206.869c0-0.277-0.009-0.5-0.018-0.705h0.352l0.019,0.369h0.009
		c0.16-0.262,0.414-0.418,0.766-0.418c0.521,0,0.914,0.441,0.914,1.096c0,0.775-0.473,1.158-0.98,1.158
		c-0.285,0-0.535-0.125-0.664-0.338h-0.009v1.172h-0.388V206.869z M117.084,207.443c0,0.059,0.009,0.111,0.018,0.16
		c0.071,0.271,0.308,0.459,0.588,0.459c0.415,0,0.655-0.338,0.655-0.834c0-0.432-0.228-0.801-0.642-0.801
		c-0.268,0-0.517,0.191-0.593,0.484c-0.013,0.049-0.026,0.107-0.026,0.162V207.443z"/>
	<path fill="#83CCCD" d="M119.452,207.314c0.009,0.529,0.347,0.748,0.739,0.748c0.28,0,0.45-0.049,0.597-0.111l0.067,0.281
		c-0.139,0.062-0.374,0.133-0.718,0.133c-0.664,0-1.061-0.436-1.061-1.088c0-0.65,0.384-1.162,1.012-1.162
		c0.704,0,0.892,0.619,0.892,1.016c0,0.08-0.01,0.143-0.014,0.184H119.452z M120.602,207.033c0.004-0.25-0.103-0.637-0.544-0.637
		c-0.396,0-0.57,0.365-0.602,0.637H120.602z"/>
	<path fill="#83CCCD" d="M121.468,206.838c0-0.254-0.005-0.473-0.018-0.674h0.343l0.014,0.424h0.018
		c0.098-0.289,0.334-0.473,0.597-0.473c0.045,0,0.076,0.004,0.112,0.014v0.369c-0.041-0.008-0.081-0.014-0.134-0.014
		c-0.276,0-0.473,0.211-0.526,0.504c-0.009,0.055-0.018,0.115-0.018,0.184v1.148h-0.388V206.838z"/>
	<path fill="#83CCCD" d="M125.342,207.986h-0.009c-0.116,0.215-0.356,0.383-0.704,0.383c-0.504,0-0.914-0.436-0.914-1.092
		c0-0.805,0.521-1.162,0.977-1.162c0.334,0,0.557,0.164,0.663,0.375h0.009l0.014-0.326h0.37c-0.009,0.184-0.014,0.369-0.014,0.594
		v2.445h-0.392V207.986z M125.342,207.037c0-0.053-0.005-0.115-0.019-0.164c-0.058-0.24-0.267-0.445-0.561-0.445
		c-0.406,0-0.651,0.342-0.651,0.828c0,0.428,0.205,0.803,0.638,0.803c0.254,0,0.472-0.156,0.562-0.428
		c0.018-0.055,0.031-0.129,0.031-0.188V207.037z"/>
	<path fill="#83CCCD" d="M128.187,207.732c0,0.223,0.004,0.42,0.018,0.588h-0.348l-0.022-0.352h-0.009
		c-0.103,0.174-0.329,0.4-0.713,0.4c-0.338,0-0.744-0.186-0.744-0.943v-1.262h0.393v1.195c0,0.408,0.125,0.686,0.481,0.686
		c0.263,0,0.445-0.184,0.517-0.357c0.022-0.057,0.035-0.129,0.035-0.199v-1.324h0.393V207.732z"/>
	<path fill="#83CCCD" d="M130.033,208.32l-0.031-0.271h-0.014c-0.12,0.17-0.352,0.32-0.659,0.32c-0.437,0-0.659-0.307-0.659-0.619
		c0-0.521,0.463-0.807,1.296-0.801v-0.045c0-0.178-0.049-0.5-0.489-0.5c-0.201,0-0.41,0.062-0.562,0.16l-0.09-0.258
		c0.179-0.115,0.437-0.191,0.709-0.191c0.659,0,0.819,0.449,0.819,0.883v0.807c0,0.186,0.009,0.369,0.036,0.516H130.033z
		 M129.975,207.221c-0.428-0.01-0.913,0.066-0.913,0.484c0,0.254,0.17,0.375,0.37,0.375c0.28,0,0.459-0.178,0.521-0.361
		c0.013-0.039,0.021-0.084,0.021-0.125V207.221z"/>
	<path fill="#83CCCD" d="M130.988,206.748c0-0.223-0.004-0.406-0.018-0.584h0.343l0.018,0.348h0.014
		c0.12-0.205,0.321-0.396,0.678-0.396c0.294,0,0.517,0.178,0.61,0.432h0.009c0.066-0.119,0.151-0.213,0.24-0.279
		c0.129-0.1,0.271-0.152,0.477-0.152c0.285,0,0.709,0.188,0.709,0.936v1.27h-0.384V207.1c0-0.414-0.151-0.664-0.468-0.664
		c-0.223,0-0.396,0.166-0.463,0.357c-0.018,0.053-0.031,0.125-0.031,0.195v1.332h-0.384v-1.291c0-0.344-0.151-0.594-0.449-0.594
		c-0.245,0-0.424,0.197-0.486,0.393c-0.021,0.059-0.031,0.125-0.031,0.191v1.301h-0.383V206.748z"/>
	<path fill="#83CCCD" d="M134.454,208.869c0.098-0.264,0.219-0.74,0.268-1.064l0.437-0.045c-0.103,0.379-0.299,0.873-0.424,1.082
		L134.454,208.869z"/>
	<path fill="#83CCCD" d="M138.047,207.986h-0.009c-0.116,0.215-0.356,0.383-0.704,0.383c-0.504,0-0.914-0.436-0.914-1.092
		c0-0.805,0.521-1.162,0.977-1.162c0.334,0,0.557,0.164,0.663,0.375h0.009l0.014-0.326h0.37c-0.009,0.184-0.014,0.369-0.014,0.594
		v2.445h-0.392V207.986z M138.047,207.037c0-0.053-0.005-0.115-0.019-0.164c-0.058-0.24-0.267-0.445-0.561-0.445
		c-0.406,0-0.651,0.342-0.651,0.828c0,0.428,0.205,0.803,0.638,0.803c0.254,0,0.472-0.156,0.562-0.428
		c0.018-0.055,0.031-0.129,0.031-0.188V207.037z"/>
	<path fill="#83CCCD" d="M140.892,207.732c0,0.223,0.004,0.42,0.018,0.588h-0.348l-0.022-0.352h-0.009
		c-0.103,0.174-0.329,0.4-0.713,0.4c-0.338,0-0.744-0.186-0.744-0.943v-1.262h0.393v1.195c0,0.408,0.125,0.686,0.481,0.686
		c0.263,0,0.445-0.184,0.517-0.357c0.022-0.057,0.035-0.129,0.035-0.199v-1.324h0.393V207.732z"/>
	<path fill="#83CCCD" d="M141.98,205.559c0.005,0.133-0.094,0.24-0.249,0.24c-0.139,0-0.236-0.107-0.236-0.24
		c0-0.139,0.103-0.246,0.245-0.246C141.887,205.312,141.98,205.42,141.98,205.559z M141.544,208.32v-2.156h0.393v2.156H141.544z"/>
	<path fill="#83CCCD" d="M142.534,207.92c0.116,0.076,0.321,0.156,0.518,0.156c0.285,0,0.418-0.143,0.418-0.32
		c0-0.188-0.111-0.291-0.4-0.396c-0.388-0.139-0.57-0.354-0.57-0.611c0-0.348,0.28-0.633,0.744-0.633
		c0.218,0,0.409,0.062,0.53,0.133l-0.099,0.285c-0.084-0.053-0.24-0.123-0.44-0.123c-0.232,0-0.361,0.133-0.361,0.293
		c0,0.178,0.129,0.258,0.41,0.365c0.374,0.143,0.565,0.33,0.565,0.65c0,0.379-0.294,0.646-0.807,0.646
		c-0.235,0-0.454-0.059-0.605-0.146L142.534,207.92z"/>
	<path fill="#83CCCD" d="M145.299,206.869c0-0.277-0.009-0.5-0.018-0.705h0.352l0.018,0.369h0.01
		c0.16-0.262,0.414-0.418,0.766-0.418c0.521,0,0.914,0.441,0.914,1.096c0,0.775-0.473,1.158-0.98,1.158
		c-0.285,0-0.535-0.125-0.664-0.338h-0.009v1.172h-0.388V206.869z M145.687,207.443c0,0.059,0.009,0.111,0.018,0.16
		c0.071,0.271,0.308,0.459,0.589,0.459c0.414,0,0.654-0.338,0.654-0.834c0-0.432-0.227-0.801-0.642-0.801
		c-0.268,0-0.517,0.191-0.593,0.484c-0.013,0.049-0.026,0.107-0.026,0.162V207.443z"/>
	<path fill="#83CCCD" d="M149.787,207.225c0,0.797-0.552,1.145-1.073,1.145c-0.584,0-1.034-0.428-1.034-1.109
		c0-0.721,0.473-1.145,1.069-1.145C149.369,206.115,149.787,206.564,149.787,207.225z M148.076,207.246
		c0,0.473,0.272,0.83,0.655,0.83c0.374,0,0.655-0.352,0.655-0.838c0-0.365-0.183-0.828-0.646-0.828
		C148.277,206.41,148.076,206.838,148.076,207.246z"/>
	<path fill="#83CCCD" d="M150.284,206.838c0-0.254-0.005-0.473-0.018-0.674h0.343l0.014,0.424h0.018
		c0.098-0.289,0.334-0.473,0.597-0.473c0.045,0,0.076,0.004,0.112,0.014v0.369c-0.041-0.008-0.081-0.014-0.134-0.014
		c-0.276,0-0.473,0.211-0.526,0.504c-0.009,0.055-0.018,0.115-0.018,0.184v1.148h-0.388V206.838z"/>
	<path fill="#83CCCD" d="M152.322,205.545v0.619h0.562v0.299h-0.562v1.162c0,0.268,0.075,0.42,0.294,0.42
		c0.103,0,0.178-0.014,0.228-0.027l0.018,0.295c-0.076,0.031-0.196,0.053-0.348,0.053c-0.183,0-0.33-0.059-0.424-0.164
		c-0.111-0.117-0.151-0.309-0.151-0.562v-1.176h-0.334v-0.299h0.334v-0.516L152.322,205.545z"/>
	<path fill="#83CCCD" d="M153.799,205.545v0.619h0.562v0.299h-0.562v1.162c0,0.268,0.075,0.42,0.294,0.42
		c0.103,0,0.178-0.014,0.228-0.027l0.018,0.295c-0.076,0.031-0.196,0.053-0.348,0.053c-0.183,0-0.33-0.059-0.424-0.164
		c-0.111-0.117-0.151-0.309-0.151-0.562v-1.176h-0.334v-0.299h0.334v-0.516L153.799,205.545z"/>
	<path fill="#83CCCD" d="M155.239,205.559c0.005,0.133-0.094,0.24-0.249,0.24c-0.139,0-0.236-0.107-0.236-0.24
		c0-0.139,0.103-0.246,0.245-0.246C155.146,205.312,155.239,205.42,155.239,205.559z M154.803,208.32v-2.156h0.393v2.156H154.803z"
		/>
	<path fill="#83CCCD" d="M156.319,205.545v0.619h0.562v0.299h-0.562v1.162c0,0.268,0.075,0.42,0.294,0.42
		c0.103,0,0.178-0.014,0.227-0.027l0.019,0.295c-0.076,0.031-0.196,0.053-0.348,0.053c-0.183,0-0.33-0.059-0.424-0.164
		c-0.111-0.117-0.151-0.309-0.151-0.562v-1.176h-0.334v-0.299h0.334v-0.516L156.319,205.545z"/>
	<path fill="#83CCCD" d="M159.247,207.225c0,0.797-0.552,1.145-1.073,1.145c-0.584,0-1.034-0.428-1.034-1.109
		c0-0.721,0.473-1.145,1.069-1.145C158.829,206.115,159.247,206.564,159.247,207.225z M157.536,207.246
		c0,0.473,0.272,0.83,0.655,0.83c0.374,0,0.655-0.352,0.655-0.838c0-0.365-0.183-0.828-0.646-0.828
		C157.737,206.41,157.536,206.838,157.536,207.246z"/>
	<path fill="#83CCCD" d="M159.744,206.838c0-0.254-0.004-0.473-0.018-0.674h0.343l0.014,0.424h0.018
		c0.098-0.289,0.334-0.473,0.597-0.473c0.045,0,0.076,0.004,0.111,0.014v0.369c-0.04-0.008-0.08-0.014-0.133-0.014
		c-0.276,0-0.473,0.211-0.526,0.504c-0.009,0.055-0.018,0.115-0.018,0.184v1.148h-0.388V206.838z"/>
	<path fill="#83CCCD" d="M164.01,205.158v2.605c0,0.191,0.005,0.41,0.018,0.557h-0.352l-0.018-0.373h-0.009
		c-0.121,0.24-0.384,0.422-0.735,0.422c-0.521,0-0.923-0.439-0.923-1.096c-0.004-0.717,0.441-1.158,0.967-1.158
		c0.33,0,0.553,0.156,0.651,0.33h0.009v-1.287H164.01z M163.618,207.043c0-0.051-0.005-0.117-0.019-0.166
		c-0.058-0.25-0.271-0.455-0.565-0.455c-0.405,0-0.646,0.357-0.646,0.834c0,0.438,0.214,0.797,0.638,0.797
		c0.263,0,0.503-0.174,0.574-0.467c0.014-0.055,0.019-0.107,0.019-0.17V207.043z"/>
	<path fill="#83CCCD" d="M166.468,207.732c0,0.223,0.004,0.42,0.018,0.588h-0.348l-0.022-0.352h-0.009
		c-0.103,0.174-0.329,0.4-0.713,0.4c-0.338,0-0.744-0.186-0.744-0.943v-1.262h0.393v1.195c0,0.408,0.125,0.686,0.481,0.686
		c0.263,0,0.445-0.184,0.517-0.357c0.022-0.057,0.035-0.129,0.035-0.199v-1.324h0.393V207.732z"/>
	<path fill="#83CCCD" d="M167.557,205.559c0.005,0.133-0.094,0.24-0.249,0.24c-0.139,0-0.236-0.107-0.236-0.24
		c0-0.139,0.103-0.246,0.245-0.246C167.463,205.312,167.557,205.42,167.557,205.559z M167.12,208.32v-2.156h0.393v2.156H167.12z"/>
	<path fill="#83CCCD" d="M168.07,208.09c0-0.166,0.111-0.281,0.268-0.281s0.263,0.115,0.263,0.281c0,0.16-0.103,0.279-0.268,0.279
		C168.178,208.369,168.07,208.25,168.07,208.09z"/>
	<path fill="#83CCCD" d="M171.601,206.912h-1.167v1.084h1.301v0.324h-1.688v-3.002h1.622v0.324h-1.234v0.949h1.167V206.912z"/>
	<path fill="#83CCCD" d="M172.687,205.545v0.619h0.562v0.299h-0.562v1.162c0,0.268,0.075,0.42,0.294,0.42
		c0.103,0,0.178-0.014,0.227-0.027l0.019,0.295c-0.076,0.031-0.196,0.053-0.348,0.053c-0.183,0-0.33-0.059-0.424-0.164
		c-0.111-0.117-0.151-0.309-0.151-0.562v-1.176h-0.334v-0.299h0.334v-0.516L172.687,205.545z"/>
	<path fill="#83CCCD" d="M174.127,205.559c0.005,0.133-0.094,0.24-0.249,0.24c-0.139,0-0.236-0.107-0.236-0.24
		c0-0.139,0.103-0.246,0.245-0.246C174.033,205.312,174.127,205.42,174.127,205.559z M173.69,208.32v-2.156h0.393v2.156H173.69z"/>
	<path fill="#83CCCD" d="M175.928,208.32l-0.031-0.271h-0.014c-0.12,0.17-0.352,0.32-0.659,0.32c-0.437,0-0.659-0.307-0.659-0.619
		c0-0.521,0.463-0.807,1.296-0.801v-0.045c0-0.178-0.049-0.5-0.489-0.5c-0.201,0-0.41,0.062-0.562,0.16l-0.09-0.258
		c0.179-0.115,0.437-0.191,0.709-0.191c0.659,0,0.819,0.449,0.819,0.883v0.807c0,0.186,0.009,0.369,0.036,0.516H175.928z
		 M175.869,207.221c-0.428-0.01-0.913,0.066-0.913,0.484c0,0.254,0.17,0.375,0.37,0.375c0.28,0,0.459-0.178,0.521-0.361
		c0.013-0.039,0.021-0.084,0.021-0.125V207.221z"/>
	<path fill="#83CCCD" d="M176.884,206.748c0-0.223-0.005-0.406-0.018-0.584h0.343l0.018,0.348h0.014
		c0.12-0.205,0.321-0.396,0.678-0.396c0.294,0,0.517,0.178,0.61,0.432h0.009c0.066-0.119,0.151-0.213,0.24-0.279
		c0.129-0.1,0.271-0.152,0.477-0.152c0.285,0,0.709,0.188,0.709,0.936v1.27h-0.384V207.1c0-0.414-0.151-0.664-0.468-0.664
		c-0.223,0-0.396,0.166-0.463,0.357c-0.018,0.053-0.031,0.125-0.031,0.195v1.332h-0.383v-1.291c0-0.344-0.152-0.594-0.45-0.594
		c-0.245,0-0.424,0.197-0.486,0.393c-0.021,0.059-0.031,0.125-0.031,0.191v1.301h-0.383V206.748z"/>
	<path fill="#83CCCD" d="M183.353,207.732c0,0.223,0.004,0.42,0.018,0.588h-0.348L183,207.969h-0.009
		c-0.103,0.174-0.329,0.4-0.713,0.4c-0.338,0-0.744-0.186-0.744-0.943v-1.262h0.393v1.195c0,0.408,0.125,0.686,0.481,0.686
		c0.263,0,0.445-0.184,0.517-0.357c0.022-0.057,0.035-0.129,0.035-0.199v-1.324h0.393V207.732z"/>
	<path fill="#83CCCD" d="M184.478,205.545v0.619h0.562v0.299h-0.562v1.162c0,0.268,0.075,0.42,0.294,0.42
		c0.103,0,0.178-0.014,0.227-0.027l0.019,0.295c-0.076,0.031-0.196,0.053-0.348,0.053c-0.183,0-0.33-0.059-0.424-0.164
		c-0.111-0.117-0.151-0.309-0.151-0.562v-1.176h-0.334v-0.299h0.334v-0.516L184.478,205.545z"/>
	<path fill="#83CCCD" d="M187.621,208.32l-0.031-0.271h-0.014c-0.12,0.17-0.352,0.32-0.659,0.32c-0.437,0-0.659-0.307-0.659-0.619
		c0-0.521,0.463-0.807,1.296-0.801v-0.045c0-0.178-0.049-0.5-0.489-0.5c-0.201,0-0.41,0.062-0.562,0.16l-0.09-0.258
		c0.179-0.115,0.437-0.191,0.709-0.191c0.659,0,0.819,0.449,0.819,0.883v0.807c0,0.186,0.009,0.369,0.036,0.516H187.621z
		 M187.562,207.221c-0.428-0.01-0.913,0.066-0.913,0.484c0,0.254,0.17,0.375,0.37,0.375c0.28,0,0.459-0.178,0.521-0.361
		c0.013-0.039,0.021-0.084,0.021-0.125V207.221z"/>
	<path fill="#83CCCD" d="M190.382,207.732c0,0.223,0.004,0.42,0.018,0.588h-0.348l-0.022-0.352h-0.009
		c-0.103,0.174-0.329,0.4-0.713,0.4c-0.338,0-0.744-0.186-0.744-0.943v-1.262h0.393v1.195c0,0.408,0.125,0.686,0.481,0.686
		c0.263,0,0.445-0.184,0.517-0.357c0.022-0.057,0.035-0.129,0.035-0.199v-1.324h0.393V207.732z"/>
	<path fill="#83CCCD" d="M192.893,206.164c-0.01,0.156-0.019,0.33-0.019,0.594v1.252c0,0.494-0.098,0.797-0.307,0.984
		c-0.21,0.195-0.513,0.258-0.784,0.258c-0.259,0-0.544-0.062-0.718-0.178l0.098-0.299c0.143,0.09,0.366,0.17,0.633,0.17
		c0.401,0,0.695-0.211,0.695-0.754v-0.24h-0.009c-0.12,0.201-0.353,0.361-0.687,0.361c-0.534,0-0.918-0.455-0.918-1.053
		c0-0.73,0.478-1.145,0.972-1.145c0.374,0,0.579,0.195,0.673,0.375h0.009l0.018-0.326H192.893z M192.486,207.016
		c0-0.066-0.004-0.125-0.021-0.178c-0.071-0.229-0.264-0.416-0.549-0.416c-0.374,0-0.642,0.316-0.642,0.816
		c0,0.424,0.214,0.775,0.638,0.775c0.24,0,0.459-0.152,0.543-0.4c0.022-0.068,0.031-0.143,0.031-0.211V207.016z"/>
	<path fill="#83CCCD" d="M195.331,207.732c0,0.223,0.004,0.42,0.018,0.588h-0.348l-0.022-0.352h-0.009
		c-0.103,0.174-0.329,0.4-0.713,0.4c-0.338,0-0.744-0.186-0.744-0.943v-1.262h0.393v1.195c0,0.408,0.125,0.686,0.481,0.686
		c0.263,0,0.445-0.184,0.517-0.357c0.022-0.057,0.035-0.129,0.035-0.199v-1.324h0.393V207.732z"/>
	<path fill="#83CCCD" d="M196.202,207.314c0.009,0.529,0.347,0.748,0.739,0.748c0.28,0,0.45-0.049,0.597-0.111l0.067,0.281
		c-0.139,0.062-0.374,0.133-0.718,0.133c-0.664,0-1.061-0.436-1.061-1.088c0-0.65,0.384-1.162,1.012-1.162
		c0.704,0,0.892,0.619,0.892,1.016c0,0.08-0.01,0.143-0.014,0.184H196.202z M197.352,207.033c0.004-0.25-0.103-0.637-0.544-0.637
		c-0.396,0-0.57,0.365-0.602,0.637H197.352z"/>
	<path fill="#83CCCD" d="M199.163,206.869c0-0.277-0.009-0.5-0.018-0.705h0.352l0.019,0.369h0.009
		c0.16-0.262,0.414-0.418,0.766-0.418c0.521,0,0.914,0.441,0.914,1.096c0,0.775-0.473,1.158-0.98,1.158
		c-0.285,0-0.535-0.125-0.664-0.338h-0.009v1.172h-0.388V206.869z M199.551,207.443c0,0.059,0.009,0.111,0.018,0.16
		c0.071,0.271,0.308,0.459,0.588,0.459c0.415,0,0.655-0.338,0.655-0.834c0-0.432-0.228-0.801-0.642-0.801
		c-0.268,0-0.517,0.191-0.593,0.484c-0.013,0.049-0.026,0.107-0.026,0.162V207.443z"/>
	<path fill="#83CCCD" d="M201.7,205.158h0.393v1.346h0.009c0.062-0.113,0.16-0.211,0.28-0.277c0.116-0.066,0.254-0.111,0.401-0.111
		c0.289,0,0.753,0.178,0.753,0.922v1.283h-0.393v-1.238c0-0.348-0.129-0.641-0.499-0.641c-0.254,0-0.454,0.178-0.525,0.391
		c-0.022,0.055-0.026,0.111-0.026,0.188v1.301H201.7V205.158z"/>
	<path fill="#83CCCD" d="M205.371,208.32l-0.031-0.271h-0.014c-0.12,0.17-0.352,0.32-0.659,0.32c-0.437,0-0.659-0.307-0.659-0.619
		c0-0.521,0.463-0.807,1.296-0.801v-0.045c0-0.178-0.049-0.5-0.489-0.5c-0.201,0-0.41,0.062-0.562,0.16l-0.09-0.258
		c0.179-0.115,0.437-0.191,0.709-0.191c0.659,0,0.819,0.449,0.819,0.883v0.807c0,0.186,0.009,0.369,0.036,0.516H205.371z
		 M205.312,207.221c-0.428-0.01-0.913,0.066-0.913,0.484c0,0.254,0.17,0.375,0.37,0.375c0.28,0,0.459-0.178,0.521-0.361
		c0.013-0.039,0.021-0.084,0.021-0.125V207.221z"/>
	<path fill="#83CCCD" d="M206.325,206.838c0-0.254-0.005-0.473-0.018-0.674h0.343l0.014,0.424h0.018
		c0.098-0.289,0.334-0.473,0.597-0.473c0.045,0,0.076,0.004,0.112,0.014v0.369c-0.041-0.008-0.081-0.014-0.134-0.014
		c-0.276,0-0.473,0.211-0.526,0.504c-0.009,0.055-0.018,0.115-0.018,0.184v1.148h-0.388V206.838z"/>
	<path fill="#83CCCD" d="M207.958,207.314c0.009,0.529,0.347,0.748,0.739,0.748c0.28,0,0.45-0.049,0.597-0.111l0.067,0.281
		c-0.139,0.062-0.374,0.133-0.718,0.133c-0.664,0-1.061-0.436-1.061-1.088c0-0.65,0.384-1.162,1.012-1.162
		c0.704,0,0.892,0.619,0.892,1.016c0,0.08-0.01,0.143-0.014,0.184H207.958z M209.107,207.033c0.004-0.25-0.103-0.637-0.544-0.637
		c-0.396,0-0.57,0.365-0.602,0.637H209.107z"/>
	<path fill="#83CCCD" d="M210.446,205.545v0.619h0.562v0.299h-0.562v1.162c0,0.268,0.075,0.42,0.294,0.42
		c0.103,0,0.178-0.014,0.227-0.027l0.019,0.295c-0.076,0.031-0.196,0.053-0.348,0.053c-0.183,0-0.33-0.059-0.424-0.164
		c-0.111-0.117-0.151-0.309-0.151-0.562v-1.176h-0.334v-0.299h0.334v-0.516L210.446,205.545z"/>
	<path fill="#83CCCD" d="M211.45,206.838c0-0.254-0.005-0.473-0.018-0.674h0.343l0.014,0.424h0.018
		c0.098-0.289,0.334-0.473,0.597-0.473c0.045,0,0.076,0.004,0.112,0.014v0.369c-0.041-0.008-0.081-0.014-0.134-0.014
		c-0.276,0-0.473,0.211-0.526,0.504c-0.009,0.055-0.018,0.115-0.018,0.184v1.148h-0.388V206.838z"/>
	<path fill="#83CCCD" d="M214.08,208.32l-0.031-0.271h-0.014c-0.12,0.17-0.352,0.32-0.659,0.32c-0.437,0-0.659-0.307-0.659-0.619
		c0-0.521,0.463-0.807,1.296-0.801v-0.045c0-0.178-0.049-0.5-0.489-0.5c-0.201,0-0.41,0.062-0.562,0.16l-0.09-0.258
		c0.179-0.115,0.437-0.191,0.709-0.191c0.659,0,0.819,0.449,0.819,0.883v0.807c0,0.186,0.009,0.369,0.036,0.516H214.08z
		 M214.021,207.221c-0.428-0.01-0.913,0.066-0.913,0.484c0,0.254,0.17,0.375,0.37,0.375c0.28,0,0.459-0.178,0.521-0.361
		c0.013-0.039,0.021-0.084,0.021-0.125V207.221z"/>
	<path fill="#83CCCD" d="M214.781,208.869c0.098-0.264,0.219-0.74,0.268-1.064l0.437-0.045c-0.103,0.379-0.299,0.873-0.424,1.082
		L214.781,208.869z"/>
	<path fill="#83CCCD" d="M216.903,205.158h0.393v3.162h-0.393V205.158z"/>
	<path fill="#83CCCD" d="M219.15,208.32l-0.031-0.271h-0.014c-0.12,0.17-0.352,0.32-0.659,0.32c-0.437,0-0.659-0.307-0.659-0.619
		c0-0.521,0.463-0.807,1.296-0.801v-0.045c0-0.178-0.049-0.5-0.489-0.5c-0.201,0-0.41,0.062-0.562,0.16l-0.09-0.258
		c0.179-0.115,0.437-0.191,0.709-0.191c0.659,0,0.819,0.449,0.819,0.883v0.807c0,0.186,0.009,0.369,0.036,0.516H219.15z
		 M219.092,207.221c-0.428-0.01-0.913,0.066-0.913,0.484c0,0.254,0.17,0.375,0.37,0.375c0.28,0,0.459-0.178,0.521-0.361
		c0.013-0.039,0.021-0.084,0.021-0.125V207.221z"/>
	<path fill="#83CCCD" d="M221.643,208.24c-0.103,0.055-0.33,0.125-0.619,0.125c-0.65,0-1.074-0.441-1.074-1.1
		c0-0.664,0.455-1.146,1.159-1.146c0.231,0,0.437,0.059,0.543,0.111l-0.089,0.303c-0.094-0.053-0.24-0.102-0.454-0.102
		c-0.495,0-0.763,0.365-0.763,0.814c0,0.5,0.321,0.807,0.749,0.807c0.223,0,0.37-0.057,0.481-0.105L221.643,208.24z"/>
	<path fill="#83CCCD" d="M222.54,205.559c0.005,0.133-0.094,0.24-0.249,0.24c-0.139,0-0.236-0.107-0.236-0.24
		c0-0.139,0.103-0.246,0.245-0.246C222.446,205.312,222.54,205.42,222.54,205.559z M222.104,208.32v-2.156h0.393v2.156H222.104z"/>
	<path fill="#83CCCD" d="M223.147,206.748c0-0.223-0.005-0.406-0.018-0.584h0.348l0.022,0.357h0.009
		c0.106-0.205,0.356-0.406,0.713-0.406c0.298,0,0.762,0.178,0.762,0.918v1.287h-0.393v-1.242c0-0.348-0.129-0.637-0.499-0.637
		c-0.258,0-0.459,0.182-0.525,0.4c-0.018,0.049-0.026,0.115-0.026,0.182v1.297h-0.393V206.748z"/>
	<path fill="#83CCCD" d="M226.06,205.559c0.005,0.133-0.094,0.24-0.249,0.24c-0.139,0-0.236-0.107-0.236-0.24
		c0-0.139,0.103-0.246,0.245-0.246C225.966,205.312,226.06,205.42,226.06,205.559z M225.623,208.32v-2.156h0.393v2.156H225.623z"/>
	<path fill="#83CCCD" d="M227.861,208.32l-0.031-0.271h-0.014c-0.12,0.17-0.352,0.32-0.659,0.32c-0.437,0-0.659-0.307-0.659-0.619
		c0-0.521,0.463-0.807,1.296-0.801v-0.045c0-0.178-0.049-0.5-0.489-0.5c-0.201,0-0.41,0.062-0.562,0.16l-0.09-0.258
		c0.179-0.115,0.437-0.191,0.709-0.191c0.659,0,0.819,0.449,0.819,0.883v0.807c0,0.186,0.009,0.369,0.036,0.516H227.861z
		 M227.803,207.221c-0.428-0.01-0.913,0.066-0.913,0.484c0,0.254,0.17,0.375,0.37,0.375c0.28,0,0.459-0.178,0.521-0.361
		c0.013-0.039,0.021-0.084,0.021-0.125V207.221z"/>
	<path fill="#83CCCD" d="M154.178,212.1c0-0.223-0.004-0.406-0.018-0.584h0.343l0.018,0.348h0.014
		c0.12-0.205,0.321-0.396,0.678-0.396c0.294,0,0.517,0.178,0.61,0.432h0.009c0.066-0.119,0.151-0.213,0.24-0.279
		c0.129-0.1,0.271-0.152,0.477-0.152c0.285,0,0.709,0.188,0.709,0.936v1.27h-0.384v-1.221c0-0.414-0.151-0.664-0.468-0.664
		c-0.223,0-0.396,0.166-0.463,0.357c-0.018,0.053-0.031,0.125-0.031,0.195v1.332h-0.384v-1.291c0-0.344-0.151-0.594-0.449-0.594
		c-0.245,0-0.424,0.197-0.486,0.393c-0.021,0.059-0.031,0.125-0.031,0.191v1.301h-0.383V212.1z"/>
	<path fill="#83CCCD" d="M159.092,213.672l-0.031-0.271h-0.014c-0.12,0.17-0.352,0.32-0.659,0.32c-0.437,0-0.659-0.307-0.659-0.619
		c0-0.521,0.463-0.807,1.296-0.801v-0.045c0-0.178-0.049-0.5-0.489-0.5c-0.201,0-0.41,0.062-0.562,0.16l-0.09-0.258
		c0.179-0.115,0.437-0.191,0.709-0.191c0.659,0,0.819,0.449,0.819,0.883v0.807c0,0.186,0.009,0.369,0.036,0.516H159.092z
		 M159.033,212.572c-0.428-0.01-0.913,0.066-0.913,0.484c0,0.254,0.17,0.375,0.37,0.375c0.28,0,0.459-0.178,0.521-0.361
		c0.013-0.039,0.021-0.084,0.021-0.125V212.572z"/>
	<path fill="#83CCCD" d="M161.852,213.084c0,0.223,0.004,0.42,0.018,0.588h-0.348l-0.022-0.352h-0.009
		c-0.103,0.174-0.329,0.4-0.713,0.4c-0.338,0-0.744-0.186-0.744-0.943v-1.262h0.393v1.195c0,0.408,0.125,0.686,0.481,0.686
		c0.263,0,0.445-0.184,0.517-0.357c0.022-0.057,0.035-0.129,0.035-0.199v-1.324h0.393V213.084z"/>
	<path fill="#83CCCD" d="M162.504,212.189c0-0.254-0.004-0.473-0.018-0.674h0.343l0.014,0.424h0.018
		c0.098-0.289,0.334-0.473,0.597-0.473c0.045,0,0.076,0.004,0.111,0.014v0.369c-0.04-0.008-0.08-0.014-0.133-0.014
		c-0.276,0-0.473,0.211-0.526,0.504c-0.009,0.055-0.018,0.115-0.018,0.184v1.148h-0.388V212.189z"/>
	<path fill="#83CCCD" d="M164.416,210.91c0.005,0.133-0.094,0.24-0.249,0.24c-0.139,0-0.236-0.107-0.236-0.24
		c0-0.139,0.103-0.246,0.245-0.246C164.322,210.664,164.416,210.771,164.416,210.91z M163.979,213.672v-2.156h0.393v2.156H163.979z"
		/>
	<path fill="#83CCCD" d="M164.97,213.271c0.116,0.076,0.321,0.156,0.518,0.156c0.285,0,0.418-0.143,0.418-0.32
		c0-0.188-0.111-0.291-0.4-0.396c-0.388-0.139-0.57-0.354-0.57-0.611c0-0.348,0.28-0.633,0.744-0.633
		c0.218,0,0.409,0.062,0.53,0.133l-0.099,0.285c-0.084-0.053-0.24-0.123-0.44-0.123c-0.232,0-0.361,0.133-0.361,0.293
		c0,0.178,0.129,0.258,0.41,0.365c0.374,0.143,0.565,0.33,0.565,0.65c0,0.379-0.294,0.646-0.807,0.646
		c-0.235,0-0.454-0.059-0.605-0.146L164.97,213.271z"/>
	<path fill="#83CCCD" d="M169.597,210.51v2.605c0,0.191,0.005,0.41,0.018,0.557h-0.352l-0.018-0.373h-0.009
		c-0.121,0.24-0.384,0.422-0.735,0.422c-0.521,0-0.923-0.439-0.923-1.096c-0.004-0.717,0.441-1.158,0.967-1.158
		c0.33,0,0.553,0.156,0.651,0.33h0.009v-1.287H169.597z M169.205,212.395c0-0.051-0.005-0.117-0.019-0.166
		c-0.058-0.25-0.271-0.455-0.565-0.455c-0.405,0-0.646,0.357-0.646,0.834c0,0.438,0.214,0.797,0.638,0.797
		c0.263,0,0.503-0.174,0.574-0.467c0.014-0.055,0.019-0.107,0.019-0.17V212.395z"/>
	<path fill="#83CCCD" d="M171.444,213.672l-0.031-0.271h-0.014c-0.12,0.17-0.352,0.32-0.659,0.32c-0.437,0-0.659-0.307-0.659-0.619
		c0-0.521,0.463-0.807,1.296-0.801v-0.045c0-0.178-0.049-0.5-0.49-0.5c-0.2,0-0.409,0.062-0.561,0.16l-0.09-0.258
		c0.179-0.115,0.438-0.191,0.709-0.191c0.659,0,0.819,0.449,0.819,0.883v0.807c0,0.186,0.009,0.369,0.036,0.516H171.444z
		 M171.387,212.572c-0.428-0.01-0.914,0.066-0.914,0.484c0,0.254,0.17,0.375,0.37,0.375c0.28,0,0.459-0.178,0.521-0.361
		c0.013-0.039,0.022-0.084,0.022-0.125V212.572z"/>
	<path fill="#83CCCD" d="M172.399,212.221c0-0.277-0.009-0.5-0.018-0.705h0.352l0.019,0.369h0.009
		c0.16-0.262,0.414-0.418,0.766-0.418c0.521,0,0.914,0.441,0.914,1.096c0,0.775-0.473,1.158-0.98,1.158
		c-0.285,0-0.535-0.125-0.664-0.338h-0.009v1.172h-0.388V212.221z M172.787,212.795c0,0.059,0.009,0.111,0.018,0.16
		c0.071,0.271,0.308,0.459,0.588,0.459c0.415,0,0.655-0.338,0.655-0.834c0-0.432-0.228-0.801-0.642-0.801
		c-0.268,0-0.517,0.191-0.593,0.484c-0.013,0.049-0.026,0.107-0.026,0.162V212.795z"/>
	<path fill="#83CCCD" d="M175.373,210.91c0.005,0.133-0.094,0.24-0.249,0.24c-0.139,0-0.236-0.107-0.236-0.24
		c0-0.139,0.103-0.246,0.245-0.246C175.279,210.664,175.373,210.771,175.373,210.91z M174.937,213.672v-2.156h0.393v2.156H174.937z"
		/>
	<path fill="#83CCCD" d="M175.963,213.672c0.009-0.146,0.018-0.365,0.018-0.557v-2.605h0.388v1.354h0.009
		c0.139-0.24,0.388-0.396,0.735-0.396c0.534,0,0.913,0.445,0.909,1.102c0,0.77-0.486,1.152-0.967,1.152
		c-0.312,0-0.562-0.119-0.723-0.404h-0.013l-0.018,0.355H175.963z M176.368,212.809c0,0.049,0.009,0.098,0.018,0.143
		c0.076,0.271,0.304,0.459,0.589,0.459c0.409,0,0.654-0.334,0.654-0.83c0-0.432-0.223-0.801-0.642-0.801
		c-0.268,0-0.517,0.182-0.597,0.48c-0.009,0.045-0.022,0.098-0.022,0.16V212.809z"/>
	<path fill="#83CCCD" d="M180.322,213.084c0,0.223,0.004,0.42,0.018,0.588h-0.348l-0.022-0.352h-0.009
		c-0.103,0.174-0.329,0.4-0.713,0.4c-0.338,0-0.744-0.186-0.744-0.943v-1.262h0.393v1.195c0,0.408,0.125,0.686,0.481,0.686
		c0.263,0,0.445-0.184,0.517-0.357c0.022-0.057,0.035-0.129,0.035-0.199v-1.324h0.393V213.084z"/>
	<path fill="#83CCCD" d="M180.921,213.271c0.116,0.076,0.321,0.156,0.518,0.156c0.285,0,0.418-0.143,0.418-0.32
		c0-0.188-0.111-0.291-0.4-0.396c-0.388-0.139-0.57-0.354-0.57-0.611c0-0.348,0.28-0.633,0.744-0.633
		c0.218,0,0.409,0.062,0.53,0.133l-0.099,0.285c-0.084-0.053-0.24-0.123-0.44-0.123c-0.232,0-0.361,0.133-0.361,0.293
		c0,0.178,0.129,0.258,0.41,0.365c0.374,0.143,0.565,0.33,0.565,0.65c0,0.379-0.294,0.646-0.807,0.646
		c-0.235,0-0.454-0.059-0.605-0.146L180.921,213.271z"/>
	<path fill="#83CCCD" d="M182.598,213.441c0-0.166,0.111-0.281,0.268-0.281s0.263,0.115,0.263,0.281c0,0.16-0.103,0.279-0.268,0.279
		C182.705,213.721,182.598,213.602,182.598,213.441z"/>
</g>
<path fill="#FFFFFF" d="M283.981,212.994c1.268-0.141,2.468-0.549,3.524-1.168l1.639,1.799l2.43-2.218l-1.583-1.738
	c0.776-0.973,1.358-2.116,1.677-3.373l2.366,0.11l0.153-3.286l-2.309-0.105c-0.154-1.293-0.586-2.508-1.235-3.577l1.741-1.593
	l-2.215-2.431l-1.721,1.57c-0.983-0.76-2.133-1.317-3.39-1.614l0.112-2.415l-3.285-0.153l-0.113,2.407
	c-1.256,0.164-2.435,0.6-3.477,1.24l-1.686-1.848l-2.43,2.214l1.672,1.839c-0.73,0.955-1.271,2.067-1.572,3.283l-2.56-0.12
	l-0.151,3.284l2.521,0.119c0.154,1.234,0.564,2.395,1.174,3.429l-1.898,1.731l2.216,2.431l1.853-1.688
	c0.943,0.75,2.051,1.312,3.265,1.631l-0.117,2.515l3.286,0.153L283.981,212.994z M282.779,207.416
	c-1.841-0.109-3.239-1.692-3.127-3.531c0.109-1.836,1.696-3.238,3.533-3.13c1.838,0.114,3.24,1.697,3.125,3.535
	C286.2,206.129,284.617,207.527,282.779,207.416"/>
<path fill="#FFAD00" d="M311.732,196.101c1.094-0.771,2.054-1.673,2.859-2.675l3.05,1.868l1.718-2.804l-3.021-1.854
	c0.568-1.197,0.965-2.467,1.184-3.773l3.482,0.094l0.089-3.29l-3.419-0.091c-0.096-1.323-0.377-2.647-0.859-3.934l2.932-1.59
	l-1.568-2.891l-2.867,1.555c-0.785-1.166-1.719-2.186-2.766-3.041l1.658-2.708l-2.801-1.717l-1.63,2.656
	c-1.259-0.609-2.603-1.034-3.989-1.253l0.085-3.049l-3.29-0.084l-0.08,3.01c-1.385,0.109-2.768,0.425-4.109,0.959l-1.426-2.627
	l-2.893,1.57l1.426,2.629c-1.18,0.83-2.201,1.815-3.048,2.918l-2.567-1.574l-1.721,2.805l2.602,1.593
	c-0.572,1.276-0.953,2.632-1.129,4.024l-3.115-0.084l-0.086,3.29l3.172,0.084c0.146,1.341,0.489,2.68,1.041,3.976l-2.869,1.555
	l1.568,2.892l2.932-1.593c0.814,1.107,1.771,2.066,2.826,2.866l-1.786,2.917l2.804,1.718l1.824-2.97
	c1.211,0.53,2.495,0.895,3.808,1.068l-0.097,3.546l3.286,0.087l0.101-3.577c1.277-0.126,2.559-0.437,3.801-0.933l1.715,3.164
	l2.892-1.568L311.732,196.101z M306.027,189.229c-2.5,1.359-5.627,0.429-6.987-2.071c-1.354-2.505-0.425-5.631,2.075-6.989
	c2.502-1.355,5.633-0.428,6.986,2.076C309.457,184.742,308.531,187.873,306.027,189.229"/>
<path fill="#FFFFFF" d="M25.366,184.928h3.985v-10.709c0-0.034,0-0.063-0.002-0.1l0.018-0.414c0.207-4.754,4.091-8.473,8.846-8.473
	c4.75,0,8.629,3.719,8.84,8.473l0.021,0.393v10.83h3.989v-11.309l-0.25-1.995c-1.15-5.952-6.359-10.38-12.6-10.38
	c-6.243,0-11.455,4.428-12.604,10.38l-0.243,2.275c-0.005,0.068-0.005,0.13-0.005,0.196c0,0.06,0,0.129,0.005,0.195V184.928z"/>
<path fill="#EB4C49" d="M57.307,207.467c0,4.02-3.26,7.272-7.273,7.272H26.389c-4.018,0-7.275-3.253-7.275-7.272v-19.281
	c0-4.01,3.258-7.27,7.275-7.27h23.645c4.014,0,7.273,3.26,7.273,7.27V207.467z"/>
<path fill="#27414E" d="M43.394,193.426c0-2.868-2.32-5.188-5.187-5.188c-2.861,0-5.184,2.319-5.184,5.188
	c0,2.15,1.312,3.99,3.178,4.779l-2.09,7.504h8.197l-2.088-7.504C42.086,197.416,43.394,195.576,43.394,193.426"/>
<path fill="#FFAD00" d="M43.518,116.882c0-5.45-5.11-9.867-11.414-9.867c-6.303,0-11.412,4.417-11.412,9.867
	c0,7.245,7.508,19.748,10.266,24.095c0.435,0.684,1.57,0.682,2.006,0.001C35.775,136.575,43.518,123.836,43.518,116.882"/>
<path fill="#FFFFFF" d="M38.214,117.97c0,3.473-2.736,6.281-6.11,6.281c-3.371,0-6.106-2.809-6.106-6.281
	c0-3.472,2.735-6.284,6.106-6.284C35.478,111.686,38.214,114.498,38.214,117.97"/>
<g>
	<path fill="#FFAD00" d="M85.127,24.653c0.711,0.305,1.41,0.652,2.093,1.042l2.338-2.777l5.856,4.934l-2.341,2.774
		c1.902,2.311,3.243,4.951,4.007,7.73l3.615-0.307l0.653,7.625l-3.614,0.311c-0.279,2.867-1.153,5.696-2.634,8.295l2.775,2.337
		l-4.933,5.858l-2.775-2.339c-2.312,1.901-4.949,3.243-7.729,4.011l0.31,3.613l-7.629,0.652l-0.309-3.614
		c-2.113-0.208-4.209-0.737-6.205-1.593l2.161-5.043c6.103,2.615,13.442,1.082,17.94-4.26c5.51-6.542,4.674-16.308-1.867-21.818
		c-1.197-1.008-2.504-1.802-3.873-2.389L85.127,24.653z M71.293,23.713l-0.31-3.615l7.628-0.652l0.311,3.616
		c2.115,0.207,4.207,0.736,6.205,1.592l-2.16,5.043c-6.104-2.619-13.442-1.082-17.942,4.258c-5.509,6.541-4.673,16.309,1.867,21.817
		l0,0c1.2,1.008,2.505,1.806,3.875,2.392l-2.161,5.043c-0.711-0.309-1.408-0.656-2.092-1.042l-2.338,2.774l-5.857-4.93l2.338-2.777
		c-1.898-2.312-3.241-4.949-4.004-7.729l-3.619,0.307l-0.651-7.627l3.616-0.307c0.279-2.869,1.154-5.698,2.635-8.3l-2.777-2.339
		l4.932-5.854l2.777,2.337C65.875,25.82,68.516,24.478,71.293,23.713z"/>
	<path fill="#FFFFFF" d="M47.111,72.231l1.119,2.213l-5.484,2.768l-1.118-2.214c-1.644,0.425-3.322,0.553-5.007,0.378l-0.777,2.357
		l-4.283-1.408l2.729-6.367c2.562,1.102,5.527,1.045,8.105-0.258c4.717-2.386,6.619-8.164,4.236-12.883l0,0
		c-0.59-1.166-1.391-2.18-2.377-3.01c-0.738-0.622-1.551-1.119-2.406-1.486l2.729-6.366l1.549,0.513l-0.773,2.354
		c1.448,0.858,2.742,1.971,3.807,3.278l2.215-1.12l2.771,5.483l-2.216,1.12c0.425,1.642,0.551,3.32,0.378,5.006l2.356,0.777
		L52.744,69.2l-2.36-0.776C49.525,69.883,48.424,71.162,47.111,72.231z M31.561,76.325l-1.551-0.512l0.775-2.355
		c-1.449-0.859-2.744-1.971-3.807-3.273l-2.215,1.116l-2.768-5.481l2.213-1.119c-0.425-1.641-0.552-3.323-0.377-5.01l-2.357-0.772
		l1.918-5.834l2.358,0.772c0.86-1.459,1.961-2.734,3.274-3.807l-1.117-2.214l5.482-2.769l1.118,2.214
		c1.641-0.425,3.323-0.552,5.008-0.376l0.776-2.357l4.283,1.407l-2.729,6.366c-2.564-1.099-5.526-1.044-8.104,0.256
		c-4.721,2.389-6.62,8.167-4.236,12.887c0.588,1.166,1.389,2.178,2.379,3.011c0.736,0.62,1.548,1.117,2.402,1.483L31.561,76.325z"/>
	<path fill="#EB4C49" d="M71.876,92.878l0.982,1.944l-4.813,2.429l-0.982-1.943c-1.442,0.373-2.915,0.486-4.396,0.334l-0.682,2.068
		l-3.76-1.236l2.395-5.59c2.251,0.965,4.853,0.918,7.114-0.225c4.144-2.097,5.812-7.168,3.721-11.312l0,0
		c-0.519-1.023-1.22-1.912-2.087-2.644c-0.647-0.546-1.361-0.98-2.112-1.303l2.396-5.589l1.359,0.449l-0.68,2.068
		c1.273,0.75,2.41,1.727,3.344,2.875l1.945-0.98l2.432,4.811l-1.945,0.984c0.373,1.44,0.484,2.916,0.33,4.396l2.069,0.683
		l-1.683,5.121l-2.071-0.683C73.998,90.816,73.031,91.938,71.876,92.878z M58.225,96.474l-1.361-0.45l0.68-2.067
		c-1.271-0.754-2.408-1.73-3.34-2.877l-1.947,0.982l-2.43-4.811l1.944-0.983c-0.373-1.44-0.483-2.917-0.33-4.396l-2.069-0.682
		l1.684-5.121l2.066,0.681c0.758-1.283,1.725-2.404,2.878-3.341l-0.981-1.948l4.812-2.431l0.982,1.944
		c1.44-0.371,2.918-0.481,4.396-0.33l0.68-2.069l3.762,1.237L67.255,75.4c-2.251-0.964-4.851-0.916-7.112,0.226
		c-4.144,2.093-5.812,7.168-3.722,11.312c0.519,1.023,1.22,1.912,2.087,2.644c0.647,0.546,1.359,0.979,2.111,1.302L58.225,96.474z"
		/>
</g>
<g>
	<g>
		<path fill="none" stroke="#FFFFFF" stroke-width="2" stroke-linejoin="round" stroke-miterlimit="10" d="M303.544,134.37
			c3.238,0,6.474,0,9.712,0"/>
	</g>
	
		<line fill="none" stroke="#FFFFFF" stroke-width="2" stroke-linejoin="round" stroke-miterlimit="10" x1="315.991" y1="134.37" x2="321.466" y2="134.37"/>
</g>
<g>
	<g>
		<path fill="none" stroke="#FFFFFF" stroke-width="2" stroke-linejoin="round" stroke-miterlimit="10" d="M296.539,142.625
			c4.77,0,9.536,0,14.306,0"/>
	</g>
	
		<line fill="none" stroke="#FFFFFF" stroke-width="2" stroke-linejoin="round" stroke-miterlimit="10" x1="308.986" y1="142.625" x2="314.461" y2="142.625"/>
</g>
<g>
	<g>
		<path fill="none" stroke="#FFFFFF" stroke-width="2" stroke-linejoin="round" stroke-miterlimit="10" d="M76.768,220.884
			c4.77,0,9.536,0,14.306,0"/>
	</g>
	
		<line fill="none" stroke="#FFFFFF" stroke-width="2" stroke-linejoin="round" stroke-miterlimit="10" x1="89.215" y1="220.884" x2="94.689" y2="220.884"/>
</g>
<g>
	<g>
		<path fill="none" stroke="#FFFFFF" stroke-width="2" stroke-linejoin="round" stroke-miterlimit="10" d="M69.544,213.217
			c3.238,0,6.474,0,9.712,0"/>
	</g>
	
		<line fill="none" stroke="#FFFFFF" stroke-width="2" stroke-linejoin="round" stroke-miterlimit="10" x1="81.991" y1="213.217" x2="87.466" y2="213.217"/>
</g>
<g>
	<g>
		<path fill="none" stroke="#FFFFFF" stroke-width="2" stroke-linejoin="round" stroke-miterlimit="10" d="M215.682,14.5
			c3.238,0,6.474,0,9.712,0"/>
	</g>
	
		<line fill="none" stroke="#FFFFFF" stroke-width="2" stroke-linejoin="round" stroke-miterlimit="10" x1="228.129" y1="14.5" x2="233.604" y2="14.5"/>
</g>
<g>
	<g>
		<path fill="none" stroke="#FFFFFF" stroke-width="2" stroke-linejoin="round" stroke-miterlimit="10" d="M17.783,28.688
			c3.238,0,6.474,0,9.712,0"/>
	</g>
	
		<line fill="none" stroke="#FFFFFF" stroke-width="2" stroke-linejoin="round" stroke-miterlimit="10" x1="30.23" y1="28.688" x2="35.705" y2="28.688"/>
</g>
<g>
	<g>
		<path fill="none" stroke="#FFFFFF" stroke-width="2" stroke-linejoin="round" stroke-miterlimit="10" d="M29.767,21.166
			c3.238,0,11.946,0,15.185,0"/>
	</g>
	
		<line fill="none" stroke="#FFFFFF" stroke-width="2" stroke-linejoin="round" stroke-miterlimit="10" x1="42.214" y1="21.166" x2="47.688" y2="21.166"/>
</g>
<g>
	<g>
		<path fill="none" stroke="#FFFFFF" stroke-width="2" stroke-linejoin="round" stroke-miterlimit="10" d="M225.751,220.739
			c3.238,0,6.474,0,9.712,0"/>
	</g>
	
		<line fill="none" stroke="#FFFFFF" stroke-width="2" stroke-linejoin="round" stroke-miterlimit="10" x1="238.198" y1="220.739" x2="243.673" y2="220.739"/>
</g>
<g>
	<g>
		<path fill="none" stroke="#FFFFFF" stroke-width="2" stroke-linejoin="round" stroke-miterlimit="10" d="M237.734,213.217
			c3.238,0,11.946,0,15.185,0"/>
	</g>
	
		<line fill="none" stroke="#FFFFFF" stroke-width="2" stroke-linejoin="round" stroke-miterlimit="10" x1="250.182" y1="213.217" x2="255.656" y2="213.217"/>
</g>
<g>
	<g>
		<path fill="none" stroke="#FFFFFF" stroke-width="2" stroke-linejoin="round" stroke-miterlimit="10" d="M134.842,19.445
			c-4.184,0-8.366,0-12.552,0"/>
	</g>
	
		<line fill="none" stroke="#FFFFFF" stroke-width="2" stroke-linejoin="round" stroke-miterlimit="10" x1="118.754" y1="19.445" x2="111.678" y2="19.445"/>
</g>
<g>
	
		<line fill="none" stroke="#FFFFFF" stroke-width="2" stroke-linejoin="round" stroke-miterlimit="10" x1="229.439" y1="30.896" x2="236.761" y2="38.217"/>
	
		<line fill="none" stroke="#FFFFFF" stroke-width="2" stroke-linejoin="round" stroke-miterlimit="10" x1="229.439" y1="38.217" x2="236.761" y2="30.896"/>
</g>
<g>
	
		<line fill="none" stroke="#FFFFFF" stroke-width="2" stroke-linejoin="round" stroke-miterlimit="10" x1="85.729" y1="105.838" x2="93.05" y2="113.158"/>
	
		<line fill="none" stroke="#FFFFFF" stroke-width="2" stroke-linejoin="round" stroke-miterlimit="10" x1="85.729" y1="113.158" x2="93.05" y2="105.838"/>
</g>
<g>
	
		<line fill="none" stroke="#FFFFFF" stroke-width="2" stroke-linejoin="round" stroke-miterlimit="10" x1="76.341" y1="181.268" x2="83.662" y2="188.588"/>
	
		<line fill="none" stroke="#FFFFFF" stroke-width="2" stroke-linejoin="round" stroke-miterlimit="10" x1="76.341" y1="188.588" x2="83.662" y2="181.268"/>
</g>
<g>
	
		<line fill="none" stroke="#FFFFFF" stroke-width="2" stroke-linejoin="round" stroke-miterlimit="10" x1="290.526" y1="110.194" x2="297.848" y2="117.515"/>
	
		<line fill="none" stroke="#FFFFFF" stroke-width="2" stroke-linejoin="round" stroke-miterlimit="10" x1="290.526" y1="117.515" x2="297.848" y2="110.194"/>
</g>
<g id="Creative_Campaigns_8_">
	<g id="Bulb_1_">
		<path fill="#FFD054" d="M164.678,43.209v-0.013c0.107-0.009,0.224-0.009,0.322-0.016c0.594-0.037,1.195-0.059,1.791-0.073
			c0.4-0.015,0.794-0.043,1.199-0.043c25.793,0,46.687,20.9,46.687,46.685c0,17.07-12.898,33.106-22.854,45.528
			c-2.276,2.843-4.539,7.578-5.304,9.239h-18.946h-2.896h-15.221c-0.768-1.661-3.031-6.396-5.306-9.239
			c-9.956-12.422-22.854-28.458-22.854-45.528C121.297,65.081,140.434,44.907,164.678,43.209z"/>
		<path fill="#FAB62F" d="M168.148,43.073c25.713,0.08,46.528,20.944,46.528,46.676c0,17.07-12.898,33.106-22.854,45.528
			c-2.276,2.843-4.539,7.578-5.304,9.239h-18.371V43.073z"/>
		<g>
			<path fill="#E05560" d="M170.217,99.214h0.037c-0.01-0.108-0.037-0.219-0.037-0.332c0-4.244,3.441-7.686,7.691-7.686
				c4.242,0,7.684,3.441,7.684,7.686c0,4.242-3.441,7.687-7.684,7.687c-1.07,0-2.089-0.219-3.015-0.618v40.107h-4.677V99.214z"/>
			<path fill="#ED6872" d="M160.963,105.95v40.107h4.684V99.214h-0.037c0.004-0.108,0.037-0.219,0.037-0.332
				c0-4.244-3.443-7.686-7.688-7.686c-4.252,0-7.693,3.441-7.693,7.686c0,4.242,3.441,7.687,7.693,7.687
				C159.025,106.568,160.037,106.35,160.963,105.95z"/>
		</g>
		<polygon fill="#FFFFFF" points="149.426,160.48 149.408,160.48 149.408,144.278 186.548,144.278 186.56,160.495 181.039,167.329 
			154.916,167.329 		"/>
		<path fill="#FFAD00" d="M147.678,145.002l40.609,2.95v2.401l-40.609-2.95V145.002z M147.678,152.102l40.609,2.957v-2.407
			l-40.609-2.951V152.102z M147.678,156.801l40.609,2.95v-2.398l-40.609-2.951V156.801z"/>
	</g>
</g>
<g>
	<path fill="#EB4C49" d="M265.123,148.738c-0.662,2.021-1.717,3.844-3.123,5.373l10.666,14.903
		c5.387-4.647,9.26-11.007,10.729-18.256L265.123,148.738z"/>
	<path fill="#FFFFFF" d="M254.229,129.846c6.217,1.285,10.928,6.527,11.542,12.963l18.253,2.017c0-0.209,0.029-0.415,0.029-0.62
		c0-17.111-13.104-31.146-29.824-32.654V129.846z"/>
	<path fill="#FFAD00" d="M240.438,134.37c2.043-2.247,4.737-3.888,7.83-4.524v-18.295c-9.731,0.88-18.213,6.01-23.625,13.511
		L240.438,134.37z"/>
	<path fill="#EB4C49" d="M257.168,157.601c-1.814,0.804-3.809,1.265-5.919,1.265c-8.103,0-14.668-6.562-14.668-14.66
		c0-1.651,0.331-3.211,0.837-4.693l-15.799-9.307c-2.014,4.245-3.174,8.982-3.174,14c0,18.12,14.684,32.801,32.804,32.801
		c6.048,0,11.694-1.662,16.563-4.52L257.168,157.601z"/>
</g>
<g>
	<polygon fill="#FFAD00" points="281.736,21.215 297.105,34.559 312.477,47.899 281.736,47.899 250.997,47.899 266.367,34.559 	"/>
	<path fill="#E66A44" d="M305.867,42.056l6.638,5.925v39.023c0,2.214-1.79,4.005-4.001,4.005h-53.537
		c-2.209,0-3.999-1.791-3.999-4.005V47.98l6.636-5.372"/>
	<path fill="#1B5E8F" d="M305.867,42.056l6.638,5.925v39.023c0,2.214-1.79,4.005-4.001,4.005h-53.537
		c-2.209,0-3.999-1.791-3.999-4.005V47.98l6.636-5.372"/>
	<polyline fill="#FFFFFF" points="257.973,72.502 257.973,29.466 305.5,29.466 305.5,72.502 	"/>
	<g>
		<rect x="264.488" y="38.772" fill="#A6DAE9" width="20.637" height="1.54"/>
		<rect x="264.488" y="44.623" fill="#A6DAE9" width="34.496" height="1.542"/>
		<rect x="264.488" y="50.477" fill="#A6DAE9" width="34.496" height="1.539"/>
		<rect x="264.488" y="56.328" fill="#A6DAE9" width="34.496" height="1.54"/>
		<rect x="264.488" y="62.18" fill="#A6DAE9" width="34.496" height="1.54"/>
	</g>
	<path fill="#FD6120" d="M274.443,67.724l-23.205,20.695c0.57,1.509,2.02,2.59,3.729,2.59h53.537c1.71,0,3.16-1.081,3.73-2.59
		l-23.205-20.695H274.443z"/>
	<g>
		<path fill="#EB4C49" d="M289.146,67.829l23.088,20.59c-0.075,0.201-0.168,0.394-0.274,0.576l0.009,0.006
			c0.338-0.587,0.536-1.268,0.536-1.997v-39.02L289.146,67.829z"/>
		<path fill="#EB4C49" d="M251.238,88.419l23.088-20.59l-23.358-19.845v39.02c0,0.729,0.196,1.41,0.536,1.997l0.008-0.006
			C251.406,88.812,251.314,88.62,251.238,88.419z"/>
	</g>
</g>
<g>
	<polygon fill="#FFFFFF" points="100.336,124.557 104.41,128.524 93.395,141.373 81.304,130.868 62.954,149.292 62.954,158.614 
		81.477,139.996 93.639,150.578 108.839,132.843 112.795,136.695 115.824,120.273 	"/>
	<path fill="#FAB62F" d="M118.459,159.67H62.391c-0.559,0-1.01-0.477-1.01-1.056v-43.743c0-0.576,0.451-1.053,1.01-1.053
		c0.557,0,1.01,0.477,1.01,1.053v42.689h55.059c0.561,0,1.011,0.47,1.011,1.054C119.47,159.193,119.02,159.67,118.459,159.67z"/>
</g>
<path fill="none" stroke="#FFFFFF" stroke-width="2" stroke-linejoin="round" stroke-miterlimit="10" stroke-dasharray="8.778" d="
	M107.036,90.255c0-33.813,27.411-61.225,61.226-61.225s61.225,27.411,61.225,61.225"/>
</svg>
