<svg xmlns="http://www.w3.org/2000/svg" viewBox="0 0 128.56 146.55"><defs><style>.cls-1{fill:#f76966;}.cls-1,.cls-10,.cls-11,.cls-12,.cls-13,.cls-14,.cls-15,.cls-16,.cls-17,.cls-18,.cls-19,.cls-2,.cls-20,.cls-21,.cls-22,.cls-23,.cls-24,.cls-25,.cls-26,.cls-27,.cls-28,.cls-29,.cls-3,.cls-30,.cls-31,.cls-32,.cls-33,.cls-34,.cls-35,.cls-36,.cls-37,.cls-38,.cls-39,.cls-4,.cls-40,.cls-41,.cls-42,.cls-43,.cls-44,.cls-45,.cls-46,.cls-47,.cls-48,.cls-49,.cls-5,.cls-50,.cls-51,.cls-52,.cls-53,.cls-54,.cls-55,.cls-56,.cls-57,.cls-58,.cls-59,.cls-6,.cls-60,.cls-61,.cls-62,.cls-63,.cls-64,.cls-65,.cls-66,.cls-67,.cls-68,.cls-69,.cls-7,.cls-70,.cls-71,.cls-72,.cls-73,.cls-74,.cls-75,.cls-76,.cls-77,.cls-78,.cls-79,.cls-8,.cls-80,.cls-81,.cls-82,.cls-83,.cls-84,.cls-85,.cls-86,.cls-87,.cls-88,.cls-89,.cls-9,.cls-90,.cls-91{fill-rule:evenodd;}.cls-2{fill:#e55a47;}.cls-3{fill:#e8c9c7;}.cls-4{fill:#e64946;}.cls-5{fill:#e9b798;}.cls-6{fill:#e7bab6;}.cls-7{fill:#f65947;}.cls-8{fill:#e98827;}.cls-9{fill:#e8a679;}.cls-10{fill:#e98876;}.cls-11{fill:#e76a58;}.cls-12{fill:#e99887;}.cls-13{fill:#e75956;}.cls-14{fill:#f79986;}.cls-15{fill:#d43842;}.cls-16{fill:#e8dad5;}.cls-17{fill:#f88867;}.cls-18{fill:#d9d8c8;}.cls-19{fill:#d89778;}.cls-20{fill:#f9a788;}.cls-21{fill:#e9a897;}.cls-22{fill:#ecced1;}.cls-23{fill:#e9a689;}.cls-24{fill:#f8b8a7;}.cls-25{fill:#d73a36;}.cls-26{fill:#e9b7a8;}.cls-27{fill:#e94f15;}.cls-28{fill:#e9b489;}.cls-29{fill:#e86749;}.cls-30{fill:#eb7749;}.cls-31{fill:#f4932f;}.cls-32{fill:#f87757;}.cls-33{fill:#da5439;}.cls-34{fill:#d2716c;}.cls-35{fill:#eb7985;}.cls-36{fill:#e89a95;}.cls-37{fill:#f89777;}.cls-38{fill:#ed8994;}.cls-39{fill:#f79a96;}.cls-40{fill:#cc2f2d;}.cls-41{fill:#ea9678;}.cls-42{fill:#f76957;}.cls-43{fill:#e55739;}.cls-44{fill:#d97758;}.cls-45{fill:#e26353;}.cls-46{fill:#d1d3b6;}.cls-47{fill:#df5a64;}.cls-48{fill:#da7767;}.cls-49{fill:#d7c4a7;}.cls-50{fill:#eb8659;}.cls-51{fill:#c83a29;}.cls-52{fill:#e8c6b9;}.cls-53{fill:#f96848;}.cls-54{fill:#f97767;}.cls-55{fill:#e4d4d4;}.cls-56{fill:#da6657;}.cls-57{fill:#e88a85;}.cls-58{fill:#eac5a9;}.cls-59{fill:#e74836;}.cls-60{fill:#e8d5c9;}.cls-61{fill:#e76a65;}.cls-62{fill:#f88758;}.cls-63{fill:#e97758;}.cls-64{fill:#efdde1;}.cls-65{fill:#e87866;}.cls-66{fill:#ebadb2;}.cls-67{fill:#e96c76;}.cls-68{fill:#f8cac6;}.cls-69{fill:#f98976;}.cls-70{fill:#d6b799;}.cls-71{fill:#faa679;}.cls-72{fill:#e86d0d;}.cls-73{fill:#f7a996;}.cls-74{fill:#f9b697;}.cls-75{fill:#f8aaa4;}.cls-76{fill:#ebd4d4;}.cls-77{fill:#f8d5c9;}.cls-78{fill:#d38956;}.cls-79{fill:#ea8768;}.cls-80{fill:#da5747;}.cls-81{fill:#fa8a86;}.cls-82{fill:#f7bab6;}.cls-83{fill:#f0af4f;}.cls-84{fill:#e4dcdc;}.cls-85{fill:#e7a9a6;}.cls-86{fill:#e69ca2;}.cls-87{fill:#f59748;}.cls-88{fill:#d98878;}.cls-89{fill:#af2f2a;}.cls-90{fill:#ca4636;}.cls-91{fill:#daa9a6;}</style></defs><title>Asset 8</title><g id="Layer_2" data-name="Layer 2"><g id="Objects"><path class="cls-1" d="M57.35,8.2c-.15.69-.62,1.87-.71,2.3-.32,1.59.24,1-.11,2.58l-1.21,3.47c-.69,1.21.47-.19-.88.65L53.67,12c-.22.28-.56.28-.86.52-.47.24-.39-.75-.39.65-.62.52-.26-.15,0,.75,0,1.49.84,2.56,1.33,4.15l.84,4.41-2.65,12c3-.37,1.23-1.36,3.47-2.2l-.3,1.23c.11-.06.28-.28.34-.19L57,32c-.62-1.33.28-4.37.77-5.77L61.16,7.76,61.4,5c-1.21,1.25-.73,1.51-1.25,3.4-.28-.86-.73-.17-1-.65l1-3.23c-2.76.24-1.31,1.55-2.78,3.66Z"/><path class="cls-2" d="M21.72,26.32c0,.86.24,1.57-.5,1.57l-.75,2.93.5.39c-.15,4.93,1.1,3.25-.6,6.54,1.64,4,1.31,6.87,1.92,8.07l-1.38.77a29.27,29.27,0,0,0,3.29,7.84c.8,1.31,1.21,2.09,1.94,3.44l1.42,2.45c.5.73-.09.6.65.5a2.79,2.79,0,0,0,.88-.5A6.36,6.36,0,0,0,31.62,63c.09,0,.24.11.34.17l-.69.75c.3.41,0,.26.62.54,1.08.56.65.28,1.29.32l1.49.34c-.93-1.74-.32-.28-1.51-1.16s-.24-.71-.9-1.79a21.49,21.49,0,0,1-4.87-5.86c-.67-1.33,0-.62-1-1.79l-1.16-2.13-.9-1.85c-.86-1.1-.34-.43-.71-1.64a11.25,11.25,0,0,0-.75-1.7,11.13,11.13,0,0,1-.56-3.53L22,41.73c1.46-.69.6.06,1.05-.9-.41-.41-.88-.75-1.38-1.16a3.82,3.82,0,0,1,1.29-2.91c.77-1.1-.37-.39,1.38-.9a15.62,15.62,0,0,0,2.5,4.59l.71,3c.56.84,1,2.6-.11,2.15l0,.62c1-.15,1.68-.43,2,.54.13-1.05.26-2-.39-2.48,1.14-1.77-.52-.37,1.42-.88a21.39,21.39,0,0,0-.69-2.17c-.77-1.61.32-.39-1.4-1.16a27.6,27.6,0,0,0-1.66-7.17,6.88,6.88,0,0,0-1.38-.65l-3.38-2.37c.71-.69.13.84.6-1.31a5.18,5.18,0,0,0,.22-2c-.56-.3.58-1-1-.28Z"/><path class="cls-3" d="M106.39,81.19l-.39.34a5.55,5.55,0,0,1-.6,1.1c-.37.52-.24.26-.65.62-1.18,1.16-1.29,2-2.41,3.06l-3,2.54c-1-.56-.75-.28-1.14-1.29-.73.6-.5.73-.95,2.2,1.55-.3,1.21-.41,2,.62l-1.21.47-.19.52a22.84,22.84,0,0,0-.47,4.39c.43,4.48-.26,8.93-.41,12.72,2,.06,2,.45,2.32-1.14l2.69,1.77.11-.17c-.22-2.32-.24-.47.67-1.21.11-.69,0-.47.37-.8,0,0,.19.69-1,.45-.09,0-.19-.09-.28-.11l-1.38-1.1a23.74,23.74,0,0,1-2.3,1.55c0-3.4.67-12.79-.39-15,.62-.43.65-.58,1.29-1a12.68,12.68,0,0,1,1.79-.9c4.37-2.17,5.12-3.25,8.89-6.09a12.8,12.8,0,0,0,2.71-2.3L118.55,72c-1.23.62-.15,0-.9.54-.09.06-.15.15-.24.22a1.65,1.65,0,0,0-.19.19,9.31,9.31,0,0,1-.88.65,17.91,17.91,0,0,0-4.26,5.79,9.93,9.93,0,0,1-3.21-.45Z"/><path class="cls-4" d="M45.12,49.46c0-.09-.19,0-.3,0-.13-2.09-.8-1.7-.86-4.35a4.59,4.59,0,0,0,.47.22l1.44,1a13.66,13.66,0,0,1,1.4,1l-.39,1.53ZM53,25.83c-.65.69-.43.71-.8,1.21-.82,1.12-1.16.11-1.89,3.66S48.22,35.28,48.72,37l1.4-.82c.13,2,0,2-1.49,3.06l-.13-1.21-2.24,6.82c-.28-.19.13.26-.47-.43-.34-.39.09-.15-.5-.69l-.84-.34c0-.09-.13,0-.19,0-.3.47-.75-.58.09,2.37l-.84.69c.15,1.05.88,6.48,1.23,7.38l-.47,2.54c1,.5.67.5,1.61.3,0-3.23-.15-.6.77-1.68.84.82.11.13.52-.3a1.5,1.5,0,0,0,.13-.19c1.16-1.36.24-.9.13-1-.8-.8-.26-.45-.13-1.33.06-.37.17-.93.22-1.38l1.44-.6A27.46,27.46,0,0,0,50.63,46c.6-1.85,1.42-2.8,1.79-4.39.65-.52.26.15,0-.75L50.52,42.9a12.29,12.29,0,0,1-.6,1.61c-1,1.79-.11.47-1.16,1.14.65-4.28,1.23-5.14,2.67-8.55A5.72,5.72,0,0,0,53.75,36c.3-.32.45-.84.69-1.14.52-.67.43-.45,1.05-.95l-.39-.39.3-1.23c-2.24.84-.43,1.83-3.47,2.2l2.65-12c-.47,1.38-1,1.87-1.61,3.36Z"/><path class="cls-5" d="M124.84,96.74l.84,0A8.62,8.62,0,0,0,123.61,99l-8,5.64a13.53,13.53,0,0,1-3.49,2.41c-.73.39-1.05.54-1.77.95-2,1.14-1.81.26-2,.11,1.31-1.51,1.36-.58,2.78-1.72.67-.56.41-.45,1-.95a5.83,5.83,0,0,1,1.1-.82c-.26-.67-.32-.75-1.31-.22l-.41.37s-.11.13-.15.15a.46.46,0,0,1-.15.06c-.06,0-.13,0-.6-.26l-3.55,2-.86.43c.6.75.15.75,1.31.93-2,.58-2-2.3-2.71,2.2,1.49.45,1.27.41,2.26.11v.8c.19.52.77.32,0,.37a2.26,2.26,0,0,0-.28,1c1.12-.52,1.23-.77,2.39-1.31.82-.39,1.21-.65,2.13-1.1l.39-.93a9.35,9.35,0,0,1,3.44-.41,12,12,0,0,1,2.26-1.87l.8-.26,3.1-.93c.95.52.26.73,1.25-.26,1.31-1.33,1.57-3.12,2-3.83,1.16-2,2.35-2.15,2.63-5.12l.65-2.32c-1.55.32-3.27.82-2.88,2.48Z"/><path class="cls-6" d="M111.25,110.19c.47.41,2.22-.9.28,1.21-.41.45-5.79,3.75-7.81,4.22,1.12-1.31,1.27-.82,2-2.37-2.54.3-1-.11-2.76,1.59-1.77.88-.86,1.49-3,1.72l2.63.17c0,1.7.17,2.26-2,2.58l0,1.44a10.46,10.46,0,0,1-5,1c.62.62-.54.6,1.92.65.86,0,1.83,0,2.71,0,.56-1.57,5.08-2.93,5.45-3,3.16-.67,3-.34,5.32-2a15.25,15.25,0,0,0,4.22-3.79c-1.38.6-1.46.26-2.35.69s-.34.65-2,1a4.93,4.93,0,0,1,3-3.83,31.25,31.25,0,0,1,4.41-1.72l-.22,1.14,1.51-1.83c1.38-1.44,1.49-1.08,1.83-3.16l-3.1.93-.8.26a12,12,0,0,0-2.26,1.87,9.35,9.35,0,0,0-3.44.41Z"/><path class="cls-7" d="M66.45,108.81c-.82,1.89-1.42,1.53-2.88,2.69a32.63,32.63,0,0,1-3.06,1.81c-.77.84.69,0-1,.77l-3.64.62.17,1.12c-.39.58-.67,1.23-1.21,2-.65-.9-.45-1.23-.82-2.28-2.58,0-.9.09-1.55-.69.24-2.58,0-.24,2-2.09l2-.26c.32-3.4,1.83-1,1.33-4.41l-.52.67c-.06.06-.13.17-.17.22-1.25,1.64-1.33,1.77-3.14,1.83l-.26-.13c-.19.22-.28.24-.32.34l-1,.56c-.24.9-.06.58,0,1.16-.82,1.51-.52,1.33-1.53,1.94.06,1.94.62,2.73.6,4-1.25-.19-.86-.06-1.38-1.14-.45.47-.77-.82-.19,2.13l-1.08.82.41,0L50.2,123l-.43-1.44c1.68-1.23.82-.22,1.51-2.39.06.09.17.11.19.28s.15.19.17.28c.5,1.31,0,1.12.71,2.24,1.4-1,.86-.32,1.59-1.94l-1.61-.3c.93-1.23,1.85-.8,2.32-.17.11-1.94,0-.56.45-1.1l2.24.52c.9-2.37,2-1.51,2.11-1.51a13.43,13.43,0,0,1-.43-1.31c1.68-.17.15-.06,1.16-.26,1.53-.32,0-.09,1.08.09,2.2.39,1.44-.15,3.47-.56l.73.43c.39-.47.13-.39.22-.82a6.93,6.93,0,0,1,1.12-1.4,3.59,3.59,0,0,1,1.38-1.05c.47-.19.41.41,1.08-1.08s-.47-.56,1.25-1.46v-.9c-1.31-.06-1.36.15-2,1-2.15,2.82-2.22,1.74-3.64,3.62l.06-1.79c.77-.52,1.21-1.21,2.09-1.94.67-.56,2.88-1.7,1.23-2.07-1.14.15-.93.13-1.81.86Z"/><path class="cls-2" d="M52.83,92c.26-2,.67-.95,1.61-1.81,1.79-1.59-.8-1.72,3.79-2.41,1.59-.24.15-.17,1.79.28-2.82.47-4,5.32-7.19,3.94Zm6-8.37-6,6c-.43,1.64-1.16,2.95-3,2.11-.52,1.74-.11,1.55-1.25,2.71l-1.74,2c-.54-1.23-.93-1.68-.13-3,1.38-2.35.58.88,1-2.71,1.66.45-.3.43.67-2,1.05,1.08.26.47.77,1.57l.69.9c.67-.9.26.73.54-1.36l.84-4.26c-1.08.5-.73-.17-.82.77a11.51,11.51,0,0,0-3.12,3.66l-.82,1.64c-1.25,1.81-1.14,5-1,7.41-1.21,0,.09,0,.3.75.28,1-1,1.49-.26,3.12h0A5.44,5.44,0,0,1,47,101.49c.24-.8-.32-.19.39-1.55L49,99.41c.67,0,.88-1,1.08-1.49l-.65-.58A6.71,6.71,0,0,0,52,95c1.14-1.44,1-1.92,3-2l.54,0c.77-1.77-.24-.19,2.63-2.65,1.27-1.08,1.83-1.87,3.1-2.35-.06-1.94-.41-.84.6-2l-2.69-.19,1.36-2.67Z"/><path class="cls-8" d="M87.72,32.56l.3,3.7c-.06,0-.71.47-.75.52l-1.81.77-.13-.19c0,1.81.39.52.86,2.39l1.66,1.55a8.31,8.31,0,0,1-.73,4c1.55-.3.58,0,1.46-.47l-.09-5.51c.52-1.64,0-.54,1.23-1,.82,1.14.47,1.36.8,3.77,1.36,1.46.67,1.7,1.53,3.4.58-2,.32-1.36,1.51-2.28-.09,2.22-.39,3.21.37,5.06.62,1.57-.24,2.67-.37,4.33-1.14,0-.8.11-1.49.6l.47,2.11.54,4.61.26-.17L95,52.76a42.21,42.21,0,0,0,.19-6.57c-.24-1.92-.37-.41-.8-2.28-.26-1.12-.26-2.3-.41-3.47l.39-.41c-2.09-1.14-2.26-2-3.1-4.18a53,53,0,0,1-1.64-5.12l-.86-.43a1.75,1.75,0,0,0-.82,0Z"/><path class="cls-9" d="M102.79,75c-1-.56-.56-.52-1.29,1a19.66,19.66,0,0,0-1,2.13c-.52,1.33-1.89,3.27-1.21,4.56l-.15,1.74a4.6,4.6,0,0,1,2.2-.54l.3.78c1.31-.9,1-2,3.29-3.42l-.22,2c.41-.37.28-.11.65-.62a5.55,5.55,0,0,0,.6-1.1l-1.36-.13c.3-2.2,2-3.4,3.36-5.12h-1.14c-.24-2.24-.15-1.05-.6-1.66l-.34-.43a2.18,2.18,0,0,0-.22-.69L107,71.72c.43-2.22-.15-1,.58-1.12,1.05,1.44.52.56.22,1.92-.71,3.14,0,1.74.75,2.37.43-1.16,1.72-6.48,1.92-7.58.8-.11,2.2.26,2.09-1.1-.13-1.7.67-.24-.75-1l-.34-.37c0-.11-.17-.09-.15-.13l-.8,1.61c-1-.39-.47-.32-1.42-.37-1.14,4.76-1.27,2.5-2.82,4.91l-1.7,2.11c-1.21,1.25-.34,2.09-1.79,2.09Z"/><path class="cls-10" d="M70.89,76.2c2.13-.88,1-.82,2.67-1.92,1.81,3.72.9,4.09,3.08,7.69l2.69,5h1.16v-.45c1.85.58,1.25.13,2.5,1,.39.3.52.37.86.67,1.23,1,.3-.09,1.25,1.36l-2.69-.24-1.53-2,.28,2c.3.52,0,.15.43.73a12.74,12.74,0,0,0,.9,1l2.8,3.36c.06,0,.13.13.19.17,1.53,1.42,2,1.89,3.08,1.94l2.3.65c-.28-1.42-.34-1.89-1.4-2.71l-.73-.5c-1.4-.52-.28-.22-.84.13a2.67,2.67,0,0,1,.11-.93,2.52,2.52,0,0,1,.11-.24l.39-.45.24-.19a4.92,4.92,0,0,1-.8-1.81l1.08.32c-.32-.67.69-.45-1.05-.6l-1.29.6c-1-1.7,1.38,1.16-.52-.62l-.93-1,1.83,0c-.52-1.59-.69-2-2.32-2.48-2.54-.71-1.4-.6-1.81-2.69l-2.13-.39c-1.61-.37-1.29,0-2.63-1.77L76.4,79.66c.13-1.94-1.51-5.81-2.24-6.09L72,73.94c-.75,1.12-.69.58-1.14,2.26Z"/><path class="cls-11" d="M60.06,75.21l-.56,1.36c.06.09.24.37.26.26s.17.26.17.41c-1.83.93-.26.11-1.42,1.12-.22.19-.56.41-.69.52-1.53,1.18-2.26,1.74-2.32,3.49-1.85.73.77-.32-.9.52l-2,.22c-.75,1.87.39,1.74-1.31,2.32l-.84,4.26c-.28,2.09.13.45-.54,1.36l-.69-.9c-.52-1.1.28-.5-.77-1.57-1,2.48,1,2.5-.67,2-.43,3.59.37.37-1,2.71-.8,1.33-.41,1.79.13,3l1.74-2c1.14-1.16.73-1,1.25-2.71,1.83.84,2.56-.47,3-2.11a1.39,1.39,0,0,0-.82.58c-.65-.45-.67,1-.47-.93,1.05-2.09,2.82-3.25,4.15-5l.19-.26.34-.47c.11-.15.37-.47.52-.67,2-2.5,1-2.22,2.91-3.19,1.38-1.83,1.55-1.27,2-2.69,1.79,1.05.37-.37,1.08,1.53a19,19,0,0,0,2.32-.75l-.5,1.14c1.36-.73,1.36-1.77,3.16-2.32l-.37-1.14.37-.78c-1.25.69-1,.52-1.85,1.66-1.25,1.59-.45.84-1.94,1.29a7.22,7.22,0,0,1,2.28-4.65c-.54-.5.54-.54-1.05-.34s-3.32,1.66-5.17,2.6Z"/><path class="cls-12" d="M51.21,55.43c.09.06.22,0,.26.15.19.58.15.09.54.26.84.34-.06-.15.69.28,1.16-.06.73-.37.9.37.13-.11.32-.43.37-.34s.24-.24.3-.3l.45-.8c1.4,0-.06.93-.32,1.16,1,1.33-.32.56,1.1,1.16-.09,1.25-.11,1.18-1.16,1.59-.8-.95-.06-.15-.75-.73l-2.82.32s.39-.93.43-1.05c-1.68.13-.3-.06-.86.52-.82.84-.28.45-.45.84l1,.84c-.24.22-.32-.19.77-.67l1.44,1-.15,1a3.69,3.69,0,0,0,2.39-1.14,15.52,15.52,0,0,1,1.89-1.55c1.85-2.07,4.22-3.1,5.47-4.59-.9-.06-.22.22-.77-.28l.47-.41c.06-.06.17-.13.24-.19l.62-.93c-1.29-.56-1.83,0-1.57-2-2.26,1.27-.95.17-1.08,0a6.52,6.52,0,0,0,2.63-1.46,4.74,4.74,0,0,1,2.65-1.23c-.77-1.4,1.08-1.14-1.14-1.14-3.4,2.56-3.7,2.28-7.17,4.37-.54.34-1.1.73-1.59,1.1Z"/><path class="cls-13" d="M26.22,108.23c1.25,2.32,3.14,3.7,3.51,6.35-1.57-.28-.9.13-1.94-.75a26,26,0,0,1-4.71-2.28c-2.11-.17-1.87-.5-3.38-1.42-.9-.56-.69-.62-1.31-1a5.31,5.31,0,0,0-1.42-.62c-1.14.32-.41.06-1,.8.84,1.25-1.44-.75.71.71l.65.28s.11.13.13.15l2.32,2.65c.8.37,1.79.95,2.69,1.27C23.7,116,23.9,115.66,24.3,116a11.26,11.26,0,0,1,2.91.43c1.77.54,1,.6,2,1.12A48.22,48.22,0,0,0,34,118.87c.45-1-.17,0,.41-.58l.19-.17.41-.39c-.8-.28-2-.69-3-1.1.86-1.12-.19-.34,1.27-.71v-.34l-1.18,0c-.5-1.31-2-1.29-.93-2.52-2.07-1.64.45,0-1.68-2.17l-1.27-1.79c-.65-2.63.13-1.38.32-1.74,2.07.34,1.87.34,1.87,2.54l.82-.9c.6.26.77.45,1.36.37,1.25-.22-.9.37.45-.22l.54-.37c1,.86.32.69,1.55.45-2.3,0-.43.15-1.21-.77v-.39c-3.29,0-2.95-1.53-6.54-1.53l.45,2-1.36-.28c-.06-.13-.22-.06-.3-.09Z"/><path class="cls-14" d="M24.35,119.25l.11.69c1.12.15,1.4.58,3.44,1.46.65.28.47.17.8.43,1.05.93.67.93.93,1.92a3.54,3.54,0,0,1-1.81-.82v.95c1.31.34.6.3,1.92.93l6.89-.19.26-.93a4.76,4.76,0,0,1-4.52-.58c1.49-2.41.88-.69,4.09-1.27,1.46-.28,2.17-.43,2.84-1.72l-4.18-.32c-2-.41-.93-.41-1.08-.93a48.22,48.22,0,0,1-4.87-1.36c-.95-.52-.19-.58-2-1.12A11.26,11.26,0,0,0,24.3,116l-1.1,0c-.88.11-.6.13-.84.22l.75,1.23a5.25,5.25,0,0,1,1.23,1.87Z"/><path class="cls-15" d="M20.84,78.14c1.51,2.35,1.53,1.16,3.34,5.58-3.08.11-3.72-1.55-4.65-4.87-1.1-3.83-.65-1.53-.17-2.35,1.53.65.47,0,1.49,1.64Zm-3.4-2.71L17,76.56a7.49,7.49,0,0,1,1.77,3.85L19.25,82a3.91,3.91,0,0,0-.06,1.85s.26.69.28.71c.62,1.12.26.41.67.73.86.6.37-.71.75.65l-.11,0,.95-.37c-.34-1-.28-.71-.67-1.81l2.13.5a2.61,2.61,0,0,0-.17.54c-.06,1.21.95.24-.17,1.49.39.88-.41.77.67.67.39-1.61,0-.43.84-1l1.7-.3c.82,2.54,4,6.61,4.07,7.19a8.6,8.6,0,0,0,.84.69l.45,0,2.17-.32v-.3c-2.3-1.29-2.52-2.5-3.29-5.49l-.95-5.73c-1,1.38.45,2.35-.37,6.2-1.64-1.08-1.4-1.59-2.37-3.1-2-3.16-4.24-5.88-5.7-9.69-.62-.17-.06.24-.62-.52-.47-.6-.06-.37-.5-.65-.88-.15-.39-.28-.88,0a10.92,10.92,0,0,1,.69,1.72c-2.88-.86-.73-1.29-2.65-2.15Z"/><path class="cls-12" d="M85.31,78.8l1.59.54c.22.5.15.62.34,1.14a11.94,11.94,0,0,0,2.43,4.26,2.72,2.72,0,0,1,.71,1.92l-1.85,0c.19,1.44.19,1.53,1.49,2.17.88.52,1.14.17,1.72.5,1.49.82.26,1.44,3.59,1.87,0-1.42-.17-1.74.75-2.43l0,2.32c.11,0,.28-.28.37-.17.41.67.5-.28.62-.34l1,.32,1.21-.47c-.84-1-.5-.93-2-.62.45-1.46.22-1.59.95-2.2.39,1,.17.73,1.14,1.29l3-2.54-1.46-.22c-2.67,1.23.9-2-1.29,1.14,0,.06.09,1.42-.24.39,0,0-.09.13-.13.17-.88-.54-.82,0-.43-2-1,.8-.09.34-1.31.8-.69-1.33-.19-.62-1.4-1.21-.82,1.57-.65.75-.15,2.48-1.49.41-2,.3-1.66-1.44l-.88.11c-.8-1.87-2-2.37-2.52-4.54-.39-.47-1.29-1.89-1.46-2.07-.67-.71-.82-.34-1.83-1.61a15.54,15.54,0,0,0-3.72-3.51Z"/><path class="cls-16" d="M29.73,124.81c1.83,2,6.09,3.38,10.35,2.88,1.64-.19,3.77-.56,5.64-.9,3-.52,3.1-.34,5.14-1.77l-.32-1.66c-1.94.71-.54.45-2.71.45-2,0-7.34.54-8.93-.43l-2,.3-.26.93Z"/><path class="cls-17" d="M51.64,26.19l-.69.22c-1.18.39-.62,1.18-.6,1.05s.11.19.13.28c-1.79,1.16-.19,1.14-1,4.63-1.05.41-2.07.24-3.62.39l.56-1.31c0-.11.28-.5.32-.62-.47-.37.9-1-.9,0-.52-.09,0-1.49-.86,1.44-.93,3.21-.13,5.45-2.2,8.57,1,2.09-.28,4.24,1.53,5-.84-2.95-.39-1.89-.09-2.37.06,0,.17-.13.19,0l.84.34c.58.54.15.3.5.69.6.69.19.24.47.43l2.24-6.82.22-1c-.5-1.74.86-2.86,1.57-6.33s1.08-2.54,1.89-3.66c.37-.5.15-.52.8-1.21-.5.62.3.06-1.33.37Z"/><path class="cls-18" d="M20.13,31.49l.34-.67.75-2.93c-.15-4.11-.62-4.26.6-5.7.65.6.41.15.9.65.71.69.06,0,.62.93a23.6,23.6,0,0,1,1.27,2c.17,1.05.45,1.85.69,3,.41,2,.34,1,1,2.22.37.32.3.15.65.71.13.22.28.56.39.8.32.73.47,1.16.75,1.83,4.11.24-.6.93,4.09,1.92,1,.22.75.09,1.42.56L32.1,33.47c-1.4-3.14-1.38-2.82-2.82-4.48a10.9,10.9,0,0,1-.75-1.16L28,27.18a1.56,1.56,0,0,0-.19-.17c-4.26-3.92-1.79-3.59-4-5.27a3.58,3.58,0,0,0-2.93-.9c0,1.66-.67,4.07-.67,5.6Z"/><path class="cls-19" d="M34.92,52.17l.9-1.23.13,0,1.46-.5c.09,1.29.47,1.94.22,3.12-.32,1.51-.6.17-.77,2.11-1,3-.6,1.85,1.27,5.62.82,1.68,0,.71,1.23,1.85,0-2.52-.11-1,.52-2.2.77-1.46.26-7,.26-7-1-1.44-1.12-.5-1.16-2.69-.37-.3-.39-.13-.78-.28-1.12-1.7.41-3.16-3-7.3L34,43.13c-1.89,1.36-1.53,1.44-1.42,2.69.65.19-.09,0,.77.15.15,0,.6.26.67.15s.24,0,.37.09Z"/><path class="cls-20" d="M95,52.76c.69.47.32-.34.52,2.28a10.57,10.57,0,0,1-.13,2.82l1.36.95c-.56,1.1,0,.06-.67,1.08-1.72,2.58-1.49,5.55-1.61,7.94-.11.09-.41.24-.45.28l-.56.34c.47,1.77.17,1.61,2.07,2.24,1.31-1.55,1.74-5.08,2-7.17C98,58.44,96.48,47.09,95.06,42c-.58-2-.17-1-1.12-1.59.15,1.16.15,2.35.41,3.47.43,1.87.56.37.8,2.28A42.21,42.21,0,0,1,95,52.76Z"/><path class="cls-21" d="M40.3,65l.47.82A9.29,9.29,0,0,1,39,68.15L36.7,66.62c-1.4-1-.09-.86-2-1.53l-1.49-.34c1.44,1.64-.3-1.16,2.6,2.3.62.73.5.41,1.08.84,3.38,2.48-.56.13,4,2.54v2l.77-.86c-.67-1.77-.6-1.42.06-5a2.13,2.13,0,0,1,.32-1l2,0c0,1.25.41,1.44-.52,2.15h.39C49,63.8,49.53,59,52.66,61.37c.71-.86,0,1.16.43-1.31l-1.44-1c-1.1.47-1,.88-.77.67l-1-.84c-2.15,1-1.08.45-3.21,3.14l-2.91,3c.41-1.44.69-3.57,1.12-5.12-1,.43,0,.17-1.57.32l.37-3.57c-.86,0-.32,2-.75,3.21-.69,2-.62.8-.11,2.95-.95,1.79-.56,1.51-2.52,2.3Z"/><path class="cls-11" d="M32.89,54.8l.28,1c3,5.4.9,3,2.17,5.58,1,1.92,1.51-.54,2.58,5.21-.71-.3-.77.43-.52-.45-.88.19-1.16-.45-.71.45L39,68.15a9.29,9.29,0,0,0,1.81-2.28L40.3,65c-.11-.5.17,0-.3-1.05s-.19-.52-.65-.86c-1.18-1.14-.41-.17-1.23-1.85-1.87-3.77-2.28-2.58-1.27-5.62a3.32,3.32,0,0,0-.58-.15L35,55.77a65.13,65.13,0,0,0-2-6.61l-1.44-4.63c-.77-1.44-.45-.71-1.33-1.12.77,1.85.52,1.44.34,4.33l-.84.65c0-.06-.11.09-.15.13,2.58.69,4.13,6,3.38,6.29Z"/><path class="cls-21" d="M120.66,53.12l.13,2.78c2.54.82.88,1.49.24,3.19-.15.43-.39,3.23-.67,4.41-2.11.73-.84.17-2.17,1.57s-2.84,1.74-2.15.71l-.93,1.12c-.62,2.15.22,0,0,1.23-.06,0-.19,0-.24.15-.13.39-.73-.17-1.66,1.61l1.46.75c.28,1.87-.3.93-.82,2.86s-.39.5.13,1.1c.8.19.47-.77,1.36-1.57,1.68-1.53,1.57.17,1.64-2.22l1.92-.39c.56-4,0-2.56,1.33-5.19.56-1.08,6.67-18.45.39-12.12Z"/><path class="cls-22" d="M70.5,68.86c1.74-.54,1.29-.86,2.24-2.37,1.42-2.28,1.31.95,1.46-2.41l.9-.06c.45-.41,0-.17.78-.28,1.44,1.16,2.2,3.29,2.69,5.06a6.71,6.71,0,0,0,.8.77c.52.54.45.65.88,1.1,1.27,1.33,1.25,0,1.89,2l1.7,2.15a15.54,15.54,0,0,1,3.72,3.51c1,1.27,1.16.9,1.83,1.61.17.17,1.08,1.59,1.46,2.07.6-1.21.41-.5,0-.84-.58-2.52-1.38-2-2.8-3.36-.32-.32-.52-.65-.69-.84l-1.94-1.92c-.47-.52-.17-.28-.5-.65L81.74,71.1c-1.66-1.94-.34-1.87-3.16-3.36,0-2-.6-1.53.13-3.32a30.15,30.15,0,0,0,1.51-3.19c.88-3.38-4.15.86-5.1,1.12-.34-1.51-.43-1.57-1.55-2.3-2.3,1.7-.56,5.83-3.06,7.69Z"/><path class="cls-23" d="M26.65,32.89a27.6,27.6,0,0,1,1.66,7.17c1.72.78.62-.45,1.4,1.16a21.39,21.39,0,0,1,.69,2.17l-.24,0c.88.41.56-.32,1.33,1.12l1.44,4.63a65.13,65.13,0,0,1,2,6.61c.69-.52,1.1,1,.65-1.79,0,0-.67-1.7-.71-1.81l-.56-6c-.13,0-.3-.22-.37-.09s-.52-.13-.67-.15c-.86-.17-.13,0-.77-.15-.11-1.25-.47-1.33,1.42-2.69l1.21.5c-1.18-1.7-.39-1.29-.88-2.76s-1-.5-3-.93c-.28-3-.22-3.29-3.25-5.6-.28-.67-.43-1.1-.75-1.83-.11-.24-.26-.58-.39-.8-.34-.56-.28-.39-.65-.71Z"/><path class="cls-21" d="M102.79,75c1.44,0,.58-.84,1.79-2.09l1.7-2.11c1.55-2.41,1.68-.15,2.82-4.91.95,0,.45,0,1.42.37l.8-1.61s.13,0,.15.13l.34.37c.93-1,0-.28,1.14-.75a12.12,12.12,0,0,0,0,1.77c.09.73.11.39.32.82l.67-.8,2.26-3.57c1-2.2-1.53,1,1.74-3.36-2.17-1.79,1.1-.54-2.45-1.79-1.21,1.33-2.58,2.41-3.53,3.64-.41.54-.22.37-.6.93-1.42,2,1.16-1.21-.32.45-1.29,1.46,1.38-1.23-.62.54l-4.46,6.31c-1.64,2.07-2.67,3-3.14,5.68Z"/><path class="cls-2" d="M13.93,110c1.89-.22,1.74,1,1.83,1.18-.3.15,0,1-1.36,0-.37-.26-.73-.88-.47-1.18Zm-6.24-6.11c.15,1.66-.54.22.47.82.54.32.58.15,1.21.19l.73.54-.34.75a15,15,0,0,0,2.07,4.46,14.1,14.1,0,0,0,1.46,2l.78.8c.71.6.43.43,1.08.43.82-.32.22.52.75-.5l.56.37.71.6c-1.25-3-1.85-.54-1.08-2.2a.85.85,0,0,1,.6-.43c1.08-.28,2.07.88,3.06,1.33l-2.32-2.65s-.09-.13-.13-.15l-.65-.28c-2.15-1.46.13.54-.71-.71.62-.73-.11-.47,1-.8-.54-1.92-1.25-1.72-2.58-2.69s-.32-.73-1.36-1.33c-1.72-1-1.42.45-1.79-1.53-1.36.73-.47-.3-1,1.42Z"/><path class="cls-24" d="M96,98.61l.62.28c.22,1.4,0,2.17-1.85,1.81l-.41,0a44.16,44.16,0,0,1-.54,7.66,21.26,21.26,0,0,1-.67,3.19,17.49,17.49,0,0,0-.67,3.29c.56-.77.88-1.46,1.38-2.2.82-1.21,1.12-.65,1.77-1.85a5,5,0,0,0,.9-1.64c1.25.62.69.84,1.31,1.31l1.55,0,1-1.4,1.66.11-2.69-1.77c-.34,1.59-.28,1.21-2.32,1.14.15-3.79.84-8.24.41-12.72l-1.27,2.6s-.13.15-.17.24Z"/><path class="cls-25" d="M51.64,82.81l-4.11,3.87c-.93,1.08-.11.58-1.27,1.44l.39.75c-.54,1.94-.34,3-2.3,5.38l-.22-.71c-.8-2.24.62.06-.5-.9l-1.21,1.92-.26.09H42c-.11,3.23.8,1.36,1.23,4H41.87c.19,1.1-.45.28.58.75,1.49.71.09.22,1.12-.13,0,1.77.19.71-.65,1.14l.3.88.34,1.77,1.53.58c.56-.47.24,0,.45-.88-.71-1.64.54-2.13.26-3.12-.22-.78-1.51-.75-.3-.75-.15-2.37-.26-5.6,1-7.41l.82-1.64a11.51,11.51,0,0,1,3.12-3.66c.09-.95-.26-.28.82-.77,1.7-.58.56-.45,1.31-2.32l.28-.26.67-.62.17-.17.5-.58c.54-.67,1.1-1.25.39-1.66-1.92.8-1.4,1.94-2.93,3Z"/><path class="cls-26" d="M90.87,82c.54,2.17,1.72,2.67,2.52,4.54l.88-.11c-.39,1.74.17,1.85,1.66,1.44-.5-1.72-.67-.9.15-2.48,3,.86,1.57,0,2.09-.39-1.25,0-.52.09-1-1.36L96.33,75c-.19-1.21-.22-3.42-.86-4.26-1.89-.62-1.59-.47-2.07-2.24l0-.65L92,68c1.87,4.18,3.47,13.8,3.08,18.58-1-.69-.93-1.1-1.7-2.15-.88-1.21-1-.73-1.38-2.45Z"/><path class="cls-27" d="M88.58,44.79,90.11,54c.19.65.11,1.21.39,2.07A15.48,15.48,0,0,1,91.32,58c.06-.06.41-.56.41-.56,1-1.21.8-.45.82-2.24l-.47-2.11-.13.24c.13-1.55-.17-1.53,1.14-2.2-.06-3.57.41-2.3-.54-4.22-2.09.84.24-.11-1.29,1.18L90.52,42c-.32-2.41,0-2.63-.8-3.77-1.27.5-.71-.6-1.23,1Z"/><path class="cls-21" d="M36.42,87.78c-1.59-.6-1.85-.56-2.15-2.07l2.37-.28Zm-7.08-6.16c1.57,1.05,1.74,2.45,3.08,3.77,1.74,1.7,2.24.95,3.06,4.22l-2.37-.84L33,90a2.45,2.45,0,0,0,.47.52,3.93,3.93,0,0,0,.69.56v-.8a13.12,13.12,0,0,1,1.66,1.31,12.43,12.43,0,0,1,1.53,1.1l0,2L39,93.53l.86,1.08c.93.28.65-.24,1.05.34l1.12-.3h.17c-1.89-1.12-.45-.75-2.15-3-1-1.27-1.27-1.94-2.13-3.25-.13-.22-.86-1.23-.9-1.36-.58-1.42,1.23.41-1.55-3.12-.71-.9-.24-.77-1.46-1.4-1.55-.88-1.42-.09-2.69-.62-.8-.34-.69-.65-2.17-1.12Z"/><path class="cls-28" d="M102.12,108.94l-.11.17-1.66-.11-1,1.4-1.55,0c.11.09.28.06.37.22s.26.15.34.15c2.54.09-.15-.75,2.82-.5-.8,2.32-.56,1-2.8,1.61-1,1.49-.28.8-1.77,1.57l-.56,2.2.11,2.07a5,5,0,0,1,4.89-3.14c-.52-1.61-.3-.56,0-1.14.6.17.58-.45,1.72,1.36,1.74-1.7.22-1.29,2.76-1.59.93-.24.43.24,1-.65a2.26,2.26,0,0,1,.28-1c.73,0,.15.15,0-.37v-.8c-1,.3-.78.34-2.26-.11.71-4.5.75-1.61,2.71-2.2-1.16-.17-.71-.17-1.31-.93l.86-.43c-1.1.11-1.49.41-3,.6.26,1.44-.09,1.1-1.81,1.59Z"/><path class="cls-29" d="M78.81,93.12c-1.27,1.21.13.06-1.4.62l-.88.45c-.06-.09-.15.15-.24.24,1.66-.6,1.23-.45,3-.3-.8.75,1.33.82-1.87.9-.3,2.73.15.6-.84,1.92-.82,1.08-.54,4.31-4.31,2l-.39.84.93-.11c.24.37.43.69.71,1.08,1.18-.54.06-.54,1.77-.22a6.11,6.11,0,0,1-.88,2.09A11,11,0,0,1,73,105.22c-1,1.23-1,1.31-2.3,1.18,0,2.11.15.95-.56,1.33,0,3.08-.15.32.75,1.53l2-1.92a1.58,1.58,0,0,0,.17-.19l3.25-4-1.53.77c.84-2.28-.26-.43,1.53-2.11.28.45.88-1.23,0,.95,1.31,0-.13.62,1.83-1.61.73-.84,2.45-3.44,2.39-4.52L81,95c-.09,0-.22-.13-.28-.15a2.87,2.87,0,0,0-.26-.13l-.22-.09c-.09,0-.3,0-.43,0,.47-1.51.47.22.62-1.53.09-.58.47-.22,0-.77a2.67,2.67,0,0,0-1.68.77Z"/><path class="cls-17" d="M40.36,115.42l-.3.39-.06.93.41.28c1.27.75.8.19,1.42,1.36l-1.55-.22c1.29,1.44,2.71.24,3.49.28,1.53.06,2.26.62,4.31.56a9.51,9.51,0,0,0-1.64-3.49l-.26-.26-.06.62c-1.81-1.33-1.66-1.51-2.82-3.68-2.07.6.11-.39-.71.6,0,.06-.06.19-.11.26-.73.88.52.5-1.21.67l-2.32-3c-.41-.41-.52-.3-.75-1.1a3.62,3.62,0,0,0-2.3-.39c.6,1.23.06.15.65,1,1.21,1.72.22.77.84,2.11.52,1.1,1.77,1.36,1.83,1.14,0-.06.13,0,.19,0Z"/><path class="cls-17" d="M87.79,61.58c.13.15.41.06.5.34l.67.69c-.15-1.83.11-1.08-.67-2.37-1.12-1-1.92-5.19-2.24-7-.11-2.76,1.05-3.68.52-5.49s-.37-5.58-.37-8c-.47-1.87-.84-.58-.86-2.39.19-1,.41-.77-.62-.77-.67,2.24-.17,1.85-.09,3.51,0,.52-.3,2.09-.3,3.42s.32,2.86.3,3.4a18.1,18.1,0,0,0-.3,3.51c.11,1.33.88,7.84,1.57,9.21S87,60,87.79,61.58Z"/><path class="cls-29" d="M73.58,71.89c-.17-1.21.28-1.1-.93-1,.62,1.94.86,1.29,1.27,1.44a4.4,4.4,0,0,1,1.16.5c-1.25.58-.5.41-.93.75.73.28,2.37,4.15,2.24,6.09L78.17,82c1.33,1.77,1,1.4,2.63,1.77,1.94,0,.52.09,1.05-.39.34-1.72-.41-.93-1.74-2.8l.39-.62a3.24,3.24,0,0,0-.24-.28c0-.09-.15-.19-.19-.28l-.22-.26c0-.09-.11-.17-.15-.26-.56-1,.09-.69-1.14-1.83s-.5-.09-1-2.56c-.41-2.2-.52-1-.56-1,.95.13.22-.17.77,1.14a7.55,7.55,0,0,1,1.53.39L79.2,73.9c-1.53-1.05-.54-.06-1.59-1.74-.62-1-1.14,0-.41-2.3l-1.42-.11L75.11,72Z"/><path class="cls-30" d="M64.28,103c.9-.8-.06-.06,1.08-.52-.32,2.43.24,1-1.16,2-1,.71-.41.62-1.87.95ZM62,103.5c.28,0-2.09.37-2.69,5,4.28-2,.56-.75,2.15-2.11,1.33-1.12.22-.22.69.06l-.88,1.25c2-1.05,1.51-.34,3.34-.19l3.53-1.12c1.08-1.14.47,0,.77-2-2.73.69-.39,0-2.2,1.05l-1.57.78c.65-1,.11.22.65-.8a3.38,3.38,0,0,0,.43-1.51c1.89-.22,2.35-.52,2.63-2.76l1.44.17c.06-.11.17.09.26.15.15-.8,0,.06-.17-1.05l1.51-.6-3,.32c-1.46,2.43.17.43-1.66,1.4-1.64.86.19.45-2,1.1,1.74-1.66,1.36-1.79,2.54-2.2V99.28l-.75.09c-1.53.22-3.6,3-4.63,3.36-.84,0,0-.11-.37.77Z"/><path class="cls-20" d="M48.2,22.86c.95,1.14-1.08-1.25.52.75.37.45.75.88,1.31.65l2.86-1.83a36.48,36.48,0,0,1-1.25,3.77c1.64-.3.84.26,1.33-.37.62-1.49,1.14-2,1.61-3.36l-.84-4.41c-.5-1.59-1.38-2.67-1.33-4.15-1.59,1.18-4.11,8-4.22,9Z"/><path class="cls-31" d="M86.56,47.72c1.1-1.14.34-1.33,1.81-1.77.06,1.53.41,3.25-.09,4.63-.62,1.72.13.28-1.23,1.42-.71.58-.47.41-1,1.21.32,1.85,1.12,6,2.24,7l-.11-2.13,2.93.39a5.26,5.26,0,0,0-.5-1.68c-.3-.58-.82-1.08-.28-.34L90.11,54l-1.53-9.26c-.88.52.09.17-1.46.47a8.31,8.31,0,0,0,.73-4l-1.66-1.55c0,2.39-.19,6.07.37,8Z"/><path class="cls-4" d="M46.43,115.51A9.51,9.51,0,0,1,48.07,119c-2,.06-2.78-.5-4.31-.56-.77,0-2.2,1.16-3.49-.28l-2.45-.84c-1.7-.3-.62-.22-2-.8-.69-.28-1.89-.15-1.89-.6h-.58c-1.46.37-.41-.41-1.27.71,1,.41,2.2.82,3,1.1l-.41.39-.19.17c-.58.6,0-.39-.41.58a5.74,5.74,0,0,0,3.75.19c2-.5-.24-.58,1.59-.45,1.31.09,1.18.32,1.27,1.16,3.87.26,3.55,1.83,8.2.69l1.08-.82c-.58-2.95-.26-1.66.19-2.13-.56-1.46-1.23-1.77-1.31-2.13a.85.85,0,0,0-.19-.34l.43-1.14-.47,0L47.21,113c-.65.67-.28-.6-.8,1.23-.24.84,0,.5,0,1.27Z"/><path class="cls-32" d="M31.21,113.1l.28-.75c1.16.78,1.85,1.14,2.8,1.89-.34.43-.6.82-1,1.33v.34h.58l.84-.06c.19-1.7.32-.65.09-2.32,3.23.24,2.8.84,5.53,1.89l-1-1.94c-.06,0-.17-.06-.19,0-.06.22-1.31,0-1.83-1.14-.62-1.33.37-.39-.84-2.11-.58-.82,0,.26-.65-1,0-.06,0-.24,0-.19a.89.89,0,0,1,0-.19c-.37-.56-.34-.39-1.85-.39.77.93-1.1.77,1.21.77-1.23.24-.52.41-1.55-.45l-.54.37c-1.36.58.8,0-.45.22-.58.09-.75-.11-1.36-.37l-.82.9c0-2.2.19-2.2-1.87-2.54-.19.37-1-.88-.32,1.74l1.27,1.79c2.13,2.17-.39.54,1.68,2.17Z"/><path class="cls-33" d="M68.33,73.21c-.5.43-.77,0-.54,1.44l-.37.78.37,1.14.3,1c-1.68,1-1.87,2.91-3,4.61A35.22,35.22,0,0,1,61.83,86a5.36,5.36,0,0,0,2.86-2.52c0-.06.13-.15.17-.22.24-.3,1-1.16,1.21-1.38,1.59-2.28-.58-1.12,2.11-1.81l-.75,1.53c2.26-.95,1-.52,2.09-2.52.8-1.46,1.49-.95,1.38-2.86.45-1.68.39-1.14,1.14-2.26l2.13-.37c.43-.34-.32-.17.93-.75a4.4,4.4,0,0,0-1.16-.5c-.41-.15-.65.5-1.27-1.44l-.22-.13-1.94-.52c-.73,1.14-1.23,2.32-2.17,3Z"/><path class="cls-34" d="M66.24,46.21c-.69,1-.28.22-.69,1.66-.22.71-.39,1.21-.52,1.77-.39,1.68-.11,1.72-.8,3.36l2.22-.65L66.28,54c.58-.67.67,1,.45-1.16,1.36,1-.5.8,3.1-1a7.54,7.54,0,0,1-1.12,1.46c-1,1.38.41-.15-1.51,3.16-1.12,1.92-.6,1.51-.17,1.92a22.45,22.45,0,0,0,1.79-2c.8-1.27.15-1.31,1.1-2.76l2.86-4c.3-2.24,0-.71.75-2.13l-1.05-.06c-1.72,2-1.29.34-3.38,2l-3,2.13c-.06-.11-.24.11-.37.15a10.46,10.46,0,0,1,1.25-3.66c2.76-3.83,1.18-3,.86-3.27-1.16.69-.9.47-1.57,1.42Z"/><path class="cls-26" d="M106.39,81.19l2.48-2.28a9.93,9.93,0,0,0,3.21.45,17.91,17.91,0,0,1,4.26-5.79,9.31,9.31,0,0,0,.88-.65,1.65,1.65,0,0,1,.19-.19c.09-.06.15-.15.24-.22.75-.56-.32.09.9-.54.75.73.39-.54.39-1.55l-1.92.39c-.06,2.39,0,.69-1.64,2.22-.88.8-.56,1.77-1.36,1.57-.52-.6-.67.9-.13-1.1s1.1-1,.82-2.86l-1.46-.75c-.86,1.14-.69,1.64-1.59,2.84Z"/><path class="cls-6" d="M112.78,100.31l3.08.13c.09-.39.17-.58.47-.3.15.15.24-.88-.09,1.44l.84-.58c2.07,0,1.23-1.18,5.88-3.06,1.36-.56,1,.09,1.87-1.21-.39-1.66,1.33-2.15,2.88-2.48l-.65,2.32a8.27,8.27,0,0,0,1.49-1.94c-.45-.9-.34-1.4-.77-2.3l-12.46,6.39c-.24.13-.5.24-.77.37-.09.06-.43.19-.52.26a2.34,2.34,0,0,0-.24.13c-2.65,1.44.58-1.27-1,.82Z"/><path class="cls-35" d="M40.88,73.9c0,2.41-.39,3-.39,5.38,0,.86,0,1.87,0,2.71.15,3.64.39-1.31.8,5,.15,2.43,1.16.65,1.16,7.58l1.21-1.92L45,91.18c-1.49,0-1,.24-1.64-3.59-.26-1.64-.45-3.23-.62-4.78-.28-2.69.19-2.22,0-3.75-.41-2.78.17-2.71.09-4.78l.09-.34-1.18.71c-.32-1.42,0-.13-.77-.75Z"/><path class="cls-10" d="M29.34,81.62l-.24-.82a12.46,12.46,0,0,0-1.16-1.68c-.8-1-.56-.8-2.07-1.08l-.13-.56C22.58,79,24.15,76.84,20.9,75c1.46,3.81,3.66,6.52,5.7,9.69,1,1.51.73,2,2.37,3.1.82-3.85-.67-4.82.37-6.2Z"/><path class="cls-36" d="M66.28,54a14.46,14.46,0,0,1-2,1.36l-4.07,3.29c-1,.84-1.36.6-1.66,2.13,2.41.24,4.09.84,5.77-.69.3.32.17-.19.11.71,1.55-.69.43,0,1.66-1.31.09-.09.32-.3.41-.37.41-.45.26-.13.52-.71-.43-.41-.95,0,.17-1.92,1.92-3.32.47-1.79,1.51-3.16a7.54,7.54,0,0,0,1.12-1.46c-3.59,1.77-1.74,2-3.1,1,.22,2.15.13.5-.45,1.16Z"/><path class="cls-37" d="M48.2,22.86a21.74,21.74,0,0,0-1.51,3.4c-.58,1.55-.32,3-.82,4.56,1.81-1,.43-.37.9,0,0,.13-.28.52-.32.62l-.56,1.31c1.55-.15,2.56,0,3.62-.39.77-3.49-.82-3.47,1-4.63,0-.09-.11-.37-.13-.28s-.58-.67.6-1.05l.69-.22a36.48,36.48,0,0,0,1.25-3.77L50,24.25c-.56.24-.95-.19-1.31-.65-1.59-2,.43.39-.52-.75Z"/><path class="cls-38" d="M54.33,132.73a10.4,10.4,0,0,0,.56,1.77l3.49,5.7c1,1.92.84,1.89,3.29,3l.73.32c.11-1.53.47-.47,0-2.15l-1.29.11a5.94,5.94,0,0,1-1.29.15l0-1.79c1.72-.3.93-.32,2.26.22,0-2.3-2.8-5.25-5.06-9.17-1.55-2.63-.06-1-1.49-1.59,0,1.12.19.69-.32,1.53l.77,1.12c0,.06.13.15.17.22,4.61,4.78,1.77,4,1.29,4.43-.95-2.5-.26-2.39-3.08-3.83Z"/><path class="cls-39" d="M49.71,65.61c-1.27.19-.8-.09-1.77,1.05-.58.71-.22.37-.62.88a3.85,3.85,0,0,1-.69.73l-.77.52c-.5.84-.37.5-.88,1.12-.9,1.16.56.52-1.27,1.08l.75.86a5.88,5.88,0,0,0,1.05.69L47,72c.9,0,0,.45,1.46-.45l3.92-1.87a1.32,1.32,0,0,1,.26-.11,1.36,1.36,0,0,0,.26-.15,1.13,1.13,0,0,0,.26-.15V68.06a15,15,0,0,1,1.55-.82l2.56-2c-3.08.34-1,.34-1.77-.32a7.32,7.32,0,0,0-.8.58c-.37.34-.09.11-.41.54-1.25-.28-.95-.13-1.31-1-1.25.93-1.27.9-1.79,2.67-3.21.5.09.45-4.82,2.09.52-1.23-.09-.58,1.81-2.09,1.1-.88.88-.67,1.49-2.11Z"/><path class="cls-40" d="M31.65,97.88l-.93-.28a2.17,2.17,0,0,0,.56.9l1.12.9c2.88,0,2.73,0,4.65-1.21,1.61.73,3.51,2.09,5.88,2.22.84-.43.65.62.65-1.14-1,.34.37.84-1.12.13-1-.47-.39.34-.58-.75l-.52-.28-.28-.09a10.13,10.13,0,0,1-3.64-2.09,9.26,9.26,0,0,0-3.85-3.06l-2.17.32c.88,1.55,2,2.35,2.39,3.75Z"/><path class="cls-41" d="M88.56,96.59c.65,1.08,0,.22.56.95.39.45,3.92,3,5.21,3.14l.41,0c-1.18-.47,0-.09-.62-.67l.47-1.92c.17.09,1.21.43,1.38.5,0-.09.15-.28.17-.24l1.27-2.6a22.84,22.84,0,0,1,.47-4.39l-1.51-.09.3,1.74a3.84,3.84,0,0,1-.43,3.27l-1.14-.11,0,1.4c-2-.3-2.78-1.38-3.25-3.16l1.42.28c-1-.86-1.57-.9-2.54-1.85s-.11,0-.86-1.05c-.56-.77-.09-.32-.84-.95l-1.08-.32a4.92,4.92,0,0,0,.8,1.81l-.24.19-.39.45a2.52,2.52,0,0,0-.11.24,2.67,2.67,0,0,0-.11.93c.56-.34-.56-.65.84-.13l.73.5c1.05.82,1.12,1.29,1.4,2.71Z"/><path class="cls-42" d="M15.13,113.87c.43,1.08-.17.47.47,1s-.22.24.67.15l3,2.43c0-.09.15.17.22.26l8.29,5.21a3.54,3.54,0,0,0,1.81.82c-.26-1,.13-1-.93-1.92-.32-.26-.15-.15-.8-.43-2-.88-2.32-1.31-3.44-1.46l-.11-.69a6.77,6.77,0,0,1-3.23-2.3L20.9,115c.78-.93-1.27-.8,1.53-.71-.9-.32-1.89-.9-2.69-1.27-1-.45-2-1.61-3.06-1.33a.85.85,0,0,0-.6.43c-.78,1.66-.17-.8,1.08,2.2l-.71-.6-.56-.37c-.54,1,.06.17-.75.5Z"/><path class="cls-26" d="M100.49,106.19l1.38,1.1c.09,0,.19.09.28.11,1.21.24,1-.45,1-.45-.41.32-.26.11-.37.8-.9.73-.88-1.12-.67,1.21,1.72-.5,2.07-.15,1.81-1.59,1.55-.19,1.94-.5,3-.6l3.55-2c.47.26.54.28.6.26a.46.46,0,0,0,.15-.06s.11-.13.15-.15l.41-.37c1-.54,1.05-.45,1.31.22l.32-.73c-1.05-1.29-.22-.86-1.68-1.92l0-1.16c-1.77.39-6.63,4.39-7.45,4.61-2-.15-2.6-.95-3.83.78Z"/><path class="cls-43" d="M74.72,94.84,74,94.63l-.37.8a31.91,31.91,0,0,1-2.93,2.09,11.07,11.07,0,0,1-1.7,1c-.86.39-.73,0-1.18.73v1.14c-1.18.41-.8.54-2.54,2.2,2.24-.65.41-.24,2-1.1,1.83-1,.19,1,1.66-1.4l3-.32.39-.84c3.77,2.3,3.49-.93,4.31-2,1-1.31.54.82.84-1.92,3.21-.09,1.08-.15,1.87-.9-1.81-.15-1.38-.3-3,.3Z"/><path class="cls-29" d="M54,110.79c1.81-.06,1.89-.19,3.14-1.83,0,0,.11-.15.17-.22l.52-.67c.5,3.38-1,1-1.33,4.41l-2,.26,1.87.17-.75,2.52.45.39-.17-1.12,3.64-.62c1.68-.77.22.06,1-.77l-2.15,0a4.84,4.84,0,0,1,1.44-2.86,16.41,16.41,0,0,0,1.51-2.8l.88-1.25c-.47-.28.65-1.18-.69-.06-1.59,1.36,2.13.13-2.15,2.11.6-4.63,3-5,2.69-5-.88-.09.22-.65-1.38.13-.15.09-6,5.38-6.69,7.17Z"/><path class="cls-44" d="M88,90.26c1.74.15.73-.06,1.05.6.75.62.28.17.84.95.75,1.05-.15.06.86,1.05s1.53,1,2.54,1.85l1.85,1.49,1.14.11A3.84,3.84,0,0,0,96.68,93l-.3-1.74,1.51.09.19-.52-1-.32c-.13.06-.22,1-.62.34-.09-.11-.26.13-.37.17l0-2.32c-.93.69-.77,1-.75,2.43-.52,1.4-.32,1.33,0,2.84a11.47,11.47,0,0,1-2.76-2.6c-1.49-1.94-1.74-.93-2.54-2.6-1.29-.65-1.29-.73-1.49-2.17-1.14-.6-.69-.24-1.44-1.21A5,5,0,0,1,87.27,87c.15,2.73,1.1,1.31.69,3.27Z"/><path class="cls-14" d="M38.9,123.39c1.59,1,6.91.45,8.93.43,2.17,0,.77.26,2.71-.45L50.2,123l-.95-2.56-.41,0c-4.65,1.14-4.33-.43-8.2-.69l-.11,1.08.88.19c-.47.9-.86,1.53-1.29,2.24Z"/><path class="cls-45" d="M80.79,76.87l.47,1.05c.09,0,.28.22.32.11s.24.06.34.11c-1.74,1.21.69.45-1.44,1.81l-.39.62c1.33,1.87,2.09,1.08,1.74,2.8-.54.47.88.41-1.05.39l2.13.39c.41,2.09-.73,2,1.81,2.69,1.64.45,1.81.88,2.32,2.48l-1.83,0,.93,1c1.89,1.79-.47-1.08.52.62l1.29-.6c.41-2-.54-.54-.69-3.27a5,5,0,0,0-.17-1.57c-1-1.57-1.53-1.44-2.37-2.6-.65-.5.13-.17-.82-.47-.73-.24-1.38,0-1.94-.69a4.93,4.93,0,0,1-.71-1.51c1.77.52,1.68.5,2.58,1.53l.52-.82c.39-.58-.15-.09.69-.93A5.38,5.38,0,0,1,83.7,80a10.49,10.49,0,0,0-1.31,0c1-1.05.95-4.43,0-5.08l.19,2.86c-1.21-.28-.32.06-1.08-.3s-.11,0-.69-.65Z"/><path class="cls-35" d="M50.87,125,53,130.64c2.45,4.39.17,1.68,1.38,2.09,2.82,1.44,2.13,1.33,3.08,3.83.47-.41,3.32.34-1.29-4.43,0-.06-.13-.15-.17-.22l-.77-1.12c.52-.84.37-.41.32-1.53.56-1,.45-.39,0-.78l-2.22-4.61.17-.28h-.26c-.15.67-.11.56-.39.86-1.18-.09-.28.28-1.33-.3l-.93-.8Z"/><path class="cls-46" d="M35.18,43.63c3.42,4.13,1.89,5.6,3,7.3-.28-1.51-.3-.56-.09-1.74.56-2.86.34-1.92-1-5.73-.28-.82-.39-.84-.65-1.64-.15-.41-.15-.67-.24-.93L35,38.2c-.32-1-.37-.88-1.46-1.38-.67-.47-.41-.34-1.42-.56-4.69-1,0-1.68-4.09-1.92,3,2.3,3,2.63,3.25,5.6,2,.43,2.48-.56,3,.93s-.3,1.05.88,2.76Z"/><path class="cls-47" d="M64.24,53l-1.55.8c-1.25,1.49-3.62,2.52-5.47,4.59l-.41.3c.06.11.19.15.22.37.11.9,1.29.52,0,.67l.15,1.59,6,.41c.52-.06.28.28.86-.06.86-.5.54.22.41-.84.06-.9.19-.39-.11-.71-1.68,1.53-3.36.93-5.77.69.3-1.53.65-1.29,1.66-2.13l4.07-3.29a14.46,14.46,0,0,0,2-1.36l.17-1.66Z"/><path class="cls-24" d="M88.22,28.13c1.46-.69.67-.28.8-.56l.58,3.16a53,53,0,0,0,1.64,5.12c.84,2.22,1,3,3.1,4.18-.43-1.36-.71-3-1.1-4.26l-3.06-9.62c-.43-.86-.56-.6-.84-1.85l-.77,0-.62.19c.65,1.25.39,1.89.28,3.59Z"/><path class="cls-26" d="M89.7,125c-.47,1.57-.69,2.5,0,3.83,1.33-.24,2.15-.88,2.71-.75.84-1.42,1.14-4.56,1.51-6.14l-2.67-.41a15,15,0,0,1,.19-3.14l1.05-2.69-.06-.9c-.95.88-.43.67-1.59,1,0,1.53.13,3.53,0,5-.13,1.74-1,2.15-1.18,4.22Z"/><path class="cls-37" d="M34.68,65.09c1.94.67.62.5,2,1.53-.45-.9-.17-.26.71-.45l-.43-.6c-.06-.11-.28-.41-.32-.52a6.11,6.11,0,0,1-.34-.75c-.6-1.49.09-.67-.86-1.53L33,60.18l-1.83,0c-.47-.75-1.7-1.51-1.57-2.86a1.93,1.93,0,0,1,.5-1.14c1.66.82.75.8,1.29,1.51-.75-1.44-.58-.73-.19-2.39-2,1.4-2.88.06-3.25-2.3-.75.43-.65.22-1.12.8-.78-1.23-.5-.43-1.57-1.44l1.16,2.13c.95,1.16.3.45,1,1.79a21.49,21.49,0,0,0,4.87,5.86c.67,1.08-.37.84.9,1.79s.58-.58,1.51,1.16Z"/><path class="cls-12" d="M115.47,57.49c3.55,1.25.28,0,2.45,1.79-3.27,4.39-.77,1.16-1.74,3.36l-2.26,3.57,1.51-.39-.32,1.08.93-1.12a23.18,23.18,0,0,1,2.39-5.14,13.76,13.76,0,0,0,1.31-2.2c.41-1,.69-1.72,1.05-2.54l-.13-2.78a13.42,13.42,0,0,0-2.78,2c-.9.84-1.53,1.59-2.41,2.35Z"/><path class="cls-48" d="M113.25,67,108,76.29c-1.33,1.72-3.06,2.93-3.36,5.12l1.36.13.39-.34,5.27-8.46c.9-1.21.73-1.7,1.59-2.84.93-1.79,1.53-1.23,1.66-1.61,0-.13.17-.11.24-.15.17-1.18-.67.93,0-1.23l.32-1.08-1.51.39Z"/><path class="cls-49" d="M69,44.55l.9-.45c1.44,1.12,1.36,0,2,1.85l1.79-.32-.71.93a.56.56,0,0,1,.19.39,2.42,2.42,0,0,0,.39.6c-.73,1.42-.45-.11-.75,2.13,1.89-.5,1.25-1,2.43-2.22l1.08-.86c-.19-1.21-.95-3.49-.9-4.93l-2.58.28a13.47,13.47,0,0,1-2.09,1c-1.49.6-1.23.17-1.77,1.59Z"/><path class="cls-25" d="M20.13,31.49c-.8,1.77-.6,1.44-.95,3.81-.15,1.1.15,9.9,1.72,11.3l1.38-.77c-.6-1.21-.28-4.07-1.92-8.07,1.7-3.29.45-1.61.6-6.54l-.5-.39Z"/><path class="cls-50" d="M75.78,69.74l1.42.11c-.73,2.26-.22,1.31.41,2.3,1.05,1.68.06.69,1.59,1.74L79.33,75c.54.28.19,0,.82.71.82,1,.3-.06.65,1.12.58.69-.19.24.69.65s-.13,0,1.08.3L82.36,75c-.09-.15-.6-.84-.62-.88-.75-2.09-.34-.82.41-1.38-.65-2-.62-.69-1.89-2-.43-.45-.37-.56-.88-1.1a6.71,6.71,0,0,1-.8-.77H76.16c-.34.39-.09.39-.39.95Z"/><path class="cls-17" d="M11.24,102.91c.37,2,.06.54,1.79,1.53,1,.6.15.47,1.36,1.33s2,.78,2.58,2.69a5.31,5.31,0,0,1,1.42.62c.62.41.41.47,1.31,1,1.51.93,1.27,1.25,3.38,1.42-.06-.09-.17-.34-.19-.28l-.5-1.23.93-.54c-.39-1.1,0-.3-.67-1.14l-.54-.67-.37-.47-.17-.24c1-.82.95-.22,1.05-1.68l1.33.5c-.45-1.08.86-.43-1.55-1.16l-2.28,0c-1.18,0-2.67-.26-3.68.13,1.38-.19,2.09-.67,3.49,0,.56.26,1.64.9,2.11,1.21l-1.25.58.93.82c.56,1,.26,1.14.15,1.94-2.15.3-1.68-.26-2.91-1.29s-1,.24-1.66-1.44c2-.39,1.42.39,2.69.86-.17-1,.11-.34-.67-.84l-1-.58c-1.92-1-1.12.84-3.75-2l-1.21-1.12c-.09-.06-.22-.11-.28-.28s-.17-.22-.26-.32l-.39.37-1.25-.3.47.52Z"/><path class="cls-14" d="M52.81,12.5c.3-.24.65-.24.86-.52l.77,5.21c1.36-.84.19.56.88-.65l1.21-3.47c.34-1.57-.22-1,.11-2.58.09-.43.56-1.61.71-2.3l.15-1.79c-1.53.41-.24.82-.09-1.29C55,6.49,56.57,6.54,54.74,8.54c-.26.3-.24.09-.54.62-.45.86-.06.52-.32,1.21-.58,1.51-.62.19-1.08,2.13Z"/><path class="cls-36" d="M69,44.55l-.75-.32-.39.56c.32.28,1.89-.56-.86,3.27a10.46,10.46,0,0,0-1.25,3.66c.13,0,.3-.26.37-.15l3-2.13c2.09-1.61,1.66.09,3.38-2l1.05.06a2.42,2.42,0,0,1-.39-.6.56.56,0,0,0-.19-.39l.71-.93L71.88,46c-.67-1.85-.58-.73-2-1.85Z"/><path class="cls-42" d="M52.35,122a7.28,7.28,0,0,0,.84,1.64h.26a5,5,0,0,0,1.16-2.17c2.65-.34,3.62-1.77,5.49-3.23l4.24-1.64a4,4,0,0,0,.39-1.14c-2,.41-1.27.95-3.47.56-1-.17.45-.41-1.08-.09-1,.19.52.09-1.16.26a13.43,13.43,0,0,0,.43,1.31c-.09,0-1.21-.86-2.11,1.51l-2.24-.52c-.41.54-.34-.84-.45,1.1-.47-.62-1.4-1.05-2.32.17l1.61.3c-.73,1.61-.19.93-1.59,1.94Z"/><path class="cls-51" d="M61.83,86c-1,1.21-.67.11-.6,2-1.27.47-1.83,1.27-3.1,2.35-2.86,2.45-1.85.88-2.63,2.65L55,93c-.09.11-.19.13-.24.32l-.86,1.44c.11,0,.26-.26.32-.17.73,1.05-.26-.26,1.7-.67.67.11.22.3.88-.26a2.71,2.71,0,0,0,.62-.9L59,91.12c1.05-.19.28.26,1.08-.39s.52-.67.71-1.08c.56-1.27-.24-.34,1.12-1.36A25.66,25.66,0,0,1,64.11,86c.5-.52.6-.73,1.08-1.25a4.86,4.86,0,0,1,1.08-.95l.78-.65c.32-.34.11-.3.77-.77l-.39-.77.75-1.53c-2.69.69-.52-.47-2.11,1.81-.17.22-1,1.08-1.21,1.38,0,.06-.13.15-.17.22A5.36,5.36,0,0,1,61.83,86Z"/><path class="cls-52" d="M87.92,130l.6,1.16.24.17c.13.09.65.5.67.52-.19,2-1.46,3.1-1.44,5.08l.22.75c2.73-.73,3.08-5.64,3.53-6.82.56-1.53.65-.19.71-2.78-.56-.13-1.38.52-2.71.75-.71-1.33-.5-2.26,0-3.83-.34.5-.06-.5-.54,1a6.63,6.63,0,0,0-.24,1.29,14.57,14.57,0,0,1-1,2.71Z"/><path class="cls-53" d="M69.23,106.38c-.15.62-.09.32-.41.84-.06.09-.26.73-.37.47,0-.06-.13.17-.19.26,1.66.37-.56,1.51-1.23,2.07-.88.73-1.31,1.42-2.09,1.94l-.06,1.79c1.42-1.87,1.49-.8,3.64-3.62.62-.84.67-1.05,2-1l.37.13c-.9-1.21-.75,1.55-.75-1.53.71-.39.56.78.56-1.33,1.27.13,1.33,0,2.3-1.18a11,11,0,0,0,1.46-2.58l-1.18-.39c-.34-.34-.13-.17-.45-.5A5.23,5.23,0,0,0,69,104.64c1.44-.58,1.23-.58,1.83-.37-.17,1.74-.26.58-1.64,2.11Z"/><path class="cls-54" d="M36.88,123.69l2-.3,1.23-.11c.43-.71.82-1.33,1.29-2.24l-.88-.19.11-1.08c-.09-.84,0-1.08-1.27-1.16-1.83-.13.37,0-1.59.45a5.74,5.74,0,0,1-3.75-.19c.15.52-1,.52,1.08.93l4.18.32c-.67,1.29-1.38,1.44-2.84,1.72-3.21.58-2.6-1.14-4.09,1.27a4.76,4.76,0,0,0,4.52.58Z"/><path class="cls-55" d="M72.8,41.95l2.58-.28c0,1.44.71,3.72.9,4.93,1.7-1.33.62-1.89,2.26-4.24.65-.93,2.91-2.63,2.67-3.83-.58-2.78-4.33,1.89-6,2.45-.47.17-.69.19-1.18.37l-.56.19c-.86.37-.37.19-.71.41Z"/><path class="cls-35" d="M43.57,103.06l-.11.43c1.18,1.7.71,2,1.18,3.92s.37,2.48,1.23,4.09c.65,1.16,0,2.43.3,3.75l.26.26c0-.77-.26-.43,0-1.27.52-1.83.15-.56.8-1.23l1.36.86a46.46,46.46,0,0,0-1.29-5.62,25,25,0,0,0-.73-2.71,24.09,24.09,0,0,0-1-2.78h0c-.22.88.11.41-.45.88Z"/><path class="cls-54" d="M22.95,36.76c-.52,1.29-.43,1.38.24,2.2s.67.3.78,1.49c-.6.54-.34.41-.67,1.14a3.57,3.57,0,0,0,.26.28l.26.24c2,1.89,1,1.77,2.35,2.56l1.27.93c1.12.45.67-1.31.11-2.15l-.71-3a15.62,15.62,0,0,1-2.5-4.59c-1.74.52-.6-.19-1.38.9Z"/><path class="cls-37" d="M20.13,104.66c-.37-.88.71-.69-1.21-1a5.08,5.08,0,0,1-3.94-.82c-1.12-.69,0-.52-2.15-.52.09.11.22.13.26.32s.19.22.28.28l1.21,1.12c2.63,2.82,1.83.95,3.75,2l1,.58c.77.5.5-.17.67.84-1.27-.47-.67-1.25-2.69-.86.65,1.68.43.41,1.66,1.44s.75,1.59,2.91,1.29c.11-.8.41-.9-.15-1.94l-.93-.82L22,106c-.47-.3-1.55-.95-2.11-1.21-1.4-.67-2.11-.19-3.49,0,1-.39,2.5-.13,3.68-.13Z"/><path class="cls-56" d="M53.09,60.05c-.43,2.48.28.45-.43,1.31l-.24.43c.43.34.73.54,1.18.86-.56,1-.09.54-1.83,1.7-1.25.84-1.08,1-2.07,1.25-.6,1.44-.39,1.23-1.49,2.11-1.89,1.51-1.29.86-1.81,2.09,4.91-1.64,1.61-1.59,4.82-2.09C51.75,66,51.77,66,53,65c.56-1.72.56-.67,1.89-1.74s0-1,1.61-1.59c.41-.54-.22-.56.67-.41L57,59.71c1.27-.15.09.24,0-.67,0-.22-.15-.26-.22-.37l.41-.3a15.52,15.52,0,0,0-1.89,1.55,3.69,3.69,0,0,1-2.39,1.14Z"/><path class="cls-50" d="M93.34,59.67c0,2.11.24,1.7.65,3.44a22.19,22.19,0,0,1,.17,3.81c-1-.65-.95.75-.82-.67-1.12,1,1.29.69-.93.69-.84-1.89-.37-.45-.56-.43l-.15,0-.88.41c.06,1.16.32.95,1.21,1l1.42-.19,0,.65L94,68.1s.34-.19.45-.28c.13-2.39-.11-5.36,1.61-7.94.67-1,.11,0,.67-1.08l-1.36-.95A10.57,10.57,0,0,0,95.47,55c-.19-2.63.17-1.81-.52-2.28Z"/><path class="cls-57" d="M55.54,64.92c.75.67-1.31.67,1.77.32l-2.56,2a15,15,0,0,0-1.55.82v1.18c1.38-.06,3.4-1.49,4.43-2.45l3.14-2.6c2-1.49,1.68-.86,2.41-2.48l-6-.41c-.88-.15-.26-.13-.67.41,2.11,0,2.2,0,3.62,1.42-1.46,1.38-.32-.65-1.68,1,0,0-.11.32-.13.26s-.09.17-.15.26c-.06-.06-.13-.17-.17-.19l-1-.65c-.06.06-.19.15-.24.19Z"/><path class="cls-32" d="M59.67,79.66c.28.8.32.9.56,1.53a8.74,8.74,0,0,0-1.36,2.39l1.61-.47-1.36,2.67,2.69.19a35.22,35.22,0,0,0,3.25-3.77l-1.51.15c.06-.06.86-1,.09.06-1.16,1.64-1.42,1.27-2.6,1.46l.77-1.77c.95-1.14,0,.77,1-1-1.38-.71-1.33,1.21-.54-1.57,0-.06.5-.9.54-1-.71-1.89.71-.47-1.08-1.53-.5,1.42-.67.86-2,2.69Z"/><path class="cls-23" d="M96.23,115.7c-.11.09-1-.24-.24,1.16l-.8,3,0,1.66,1.83-.37,0-1.55a6.53,6.53,0,0,1,2.43-.95c-.28-2.13-.86-1.66.43-2.13,2.15-.24,1.25-.84,3-1.72-1.14-1.81-1.12-1.18-1.72-1.36-.32.58-.54-.47,0,1.14a5,5,0,0,0-4.89,3.14Z"/><path class="cls-58" d="M116,65.78c-.69,1,.77.73,2.15-.71s.06-.84,2.17-1.57c.28-1.18.52-4,.67-4.41.65-1.7,2.3-2.37-.24-3.19-.37.82-.65,1.51-1.05,2.54a13.76,13.76,0,0,1-1.31,2.2A23.18,23.18,0,0,0,116,65.78Z"/><path class="cls-59" d="M27.4,46.21c.56.43.45,1.14.15,2.39l1.05.54a17.51,17.51,0,0,1-.67,1.66l.52,1,.52,0,1.83-1.23c.75,1.81.17,1.25,1.33,3l.75,1.21c.75-.32-.8-5.6-3.38-6.29,0,0,.13-.19.15-.13l.84-.65c.17-2.88.43-2.48-.34-4.33l.24,0c-1.94.52-.28-.88-1.42.88.65.5.52,1.42.39,2.48-.28-1-1-.69-2-.54Z"/><path class="cls-60" d="M25.75,77.49l.13.56c1.51.28,1.27.11,2.07,1.08a12.46,12.46,0,0,1,1.16,1.68c1.49.47,1.38.78,2.17,1.12,1.27.54,1.14-.26,2.69.62-1.74-1.61-.34.41-3-3-.75-.95-.88-.75-1.7-1.38L25.6,75.34c-.86-.88-.17-.73-1.38-1.68l-2.76-1.87a3.36,3.36,0,0,1-.43-.34L20.67,71c-.9-1,.73-.37-.8-.22,1.33,2.71,1.49,1.31,3.19,2.82Z"/><path class="cls-61" d="M31.28,98.5c-.09,1-.52.54,0,1.14a18,18,0,0,1,3.47.75c.6.32.56.5,1.08.86L40,103.67c3.19,1.16,2.43-.13,2.45-.17.9-1.66.32-.41,0-.77-.69.58-.17.22-1.16.6-1.64-.82-3.21-1.53-4-2.69,2.35-.88.8-.41,2.69.24,1.29.43,1.66,0,3.25.43l-.3-.88c-2.37-.13-4.26-1.49-5.88-2.22-1.92,1.16-1.77,1.21-4.65,1.21Z"/><path class="cls-62" d="M68.18,106.38h1.05c1.38-1.53,1.46-.37,1.64-2.11-.6-.22-.39-.22-1.83.37a5.23,5.23,0,0,1,3.77-2.88c.32.32.11.15.45.5l1.18.39a6.11,6.11,0,0,0,.88-2.09c-1.7-.32-.58-.32-1.77.22-.28-.39-.47-.71-.71-1.08l-.93.11-1.51.6c.22,1.12.32.26.17,1.05-.09-.06-.19-.26-.26-.15l-1.44-.17c-.28,2.24-.73,2.54-2.63,2.76a3.38,3.38,0,0,1-.43,1.51c-.54,1,0-.22-.65.8l1.57-.78c1.81-1.05-.54-.37,2.2-1.05-.3,2,.3.88-.77,2Z"/><path class="cls-63" d="M85.05,79.92c-.84.84-.3.34-.69.93l-.52.82c-.9-1-.82-1-2.58-1.53A4.93,4.93,0,0,0,82,81.65c.56.67,1.21.45,1.94.69.95.3.17,0,.82.47.93-.09.86-.28,1.68.09,1.14.54.17,0,.95,1.05a5.46,5.46,0,0,1,1.18,2.67l1.85,0a2.72,2.72,0,0,0-.71-1.92,11.94,11.94,0,0,1-2.43-4.26c-.19-.52-.13-.65-.34-1.14l-1.59-.54c.15,1.23.52,1.18-.26,1.12Z"/><path class="cls-60" d="M117.09,101c-1.36,1.61-1.14,1.44-3.21,2.24l.22,1.7c1.23.06.24.22,1.49-.3l8-5.64a8.62,8.62,0,0,1,2.07-2.24l-.84,0c-.84,1.29-.52.65-1.87,1.21-4.65,1.87-3.81,3.1-5.88,3.06Z"/><path class="cls-52" d="M112.78,100.31c-.09,0-.24-.09-.26,0s-.22,0-.24,0c-.67.37-.17,0-.52.43l0,1.16c1.46,1.05.62.62,1.68,1.92l-.32.73a5.83,5.83,0,0,0-1.1.82c-.56.5-.3.39-1,.95-1.42,1.14-1.46.22-2.78,1.72.22.15,0,1,2-.11.71-.41,1-.56,1.77-.95a13.53,13.53,0,0,0,3.49-2.41c-1.25.52-.26.37-1.49.3l-.22-1.7c2.07-.8,1.85-.62,3.21-2.24l-.84.58c.32-2.32.24-1.29.09-1.44-.3-.28-.39-.09-.47.3Z"/><path class="cls-28" d="M111.81,65.18c1.42.8.62-.67.75,1,.11,1.36-1.29,1-2.09,1.1-.19,1.1-1.49,6.42-1.92,7.58-.8-.62-1.46.78-.75-2.37.3-1.36.84-.47-.22-1.92-.73.09-.15-1.1-.58,1.12l-1.31,1.79a2.18,2.18,0,0,1,.22.69l.34.43c.45.6.37-.58.6,1.66H108L113.25,67c-.22-.43-.24-.09-.32-.82a12.12,12.12,0,0,1,0-1.77c-1.18.47-.22-.22-1.14.75Z"/><path class="cls-64" d="M43.92,67.74,44,69.1c.73.17-.67.56,1.05.15,0,0,.82-.45.82-.45l.77-.52.15-1.7c1.83-1.49,4.31-2.63,5.64-4.78l.24-.43C49.53,59,49,63.8,43.92,67.74Z"/><path class="cls-41" d="M93.94,122l.3,0,1-.39,0-1.66.8-3c-.39.22-.56.09-.88.5a5.36,5.36,0,0,1-2.58-1.64l-1.05,2.69a15,15,0,0,0-.19,3.14Z"/><path class="cls-14" d="M61.31,107.69a16.41,16.41,0,0,1-1.51,2.8,4.84,4.84,0,0,0-1.44,2.86l2.15,0a32.63,32.63,0,0,0,3.06-1.81c1.46-1.16,2.07-.8,2.88-2.69l-6.39,3.44,3.34-3.53c.86-.75.6-.34,1.25-1.23-1.83-.15-1.29-.86-3.34.19Z"/><path class="cls-65" d="M24.89,88.06c.5.93.69.8,1.23,1.72a8.69,8.69,0,0,0,1.29,1.77c-1.31.6-.32.09-2.41-.37l.11.56c.11.06.26,0,.3.17s.24.13.32.15a9.19,9.19,0,0,0,.93.41c1.74.32.19,0,1.31.62a2.26,2.26,0,0,0,.24.15c.11.06.43.17.52.22.88.47.88.65,1.57,1.46a4.42,4.42,0,0,0-.17-2.11c-.06-.58-3.25-4.65-4.07-7.19l-1.7.3c0,1.14.22,1.1.54,2.13Z"/><path class="cls-10" d="M30.29,87.35c1.77,1.46-.93,1.72,2.52,1.46-.45,2.5-.11.24.22,1.23l.09-1.27,2.37.84c-.82-3.27-1.31-2.52-3.06-4.22-1.33-1.31-1.51-2.71-3.08-3.77Z"/><path class="cls-11" d="M16.15,72.73c0,.62-.15.41,0,.93.28,1.05.32.69.54,1,0,1.55-.15.17.78.78l-.5-2c1.92.86-.24,1.29,2.65,2.15a10.92,10.92,0,0,0-.69-1.72c.5-.3,0-.17.88,0l-1.1-3.23-.82-.75L18,71l-1.18-.69a2.59,2.59,0,0,1-.41-1.42l.95.26C16.49,66.62,16.3,66.55,15,66c.15,1.33.73,3.14.73,3.7,0,1.66-.67.67.41,3Z"/><path class="cls-63" d="M21.72,26.32c1.57-.75.43,0,1,.28a5.18,5.18,0,0,1-.22,2c-.47,2.15.11.62-.6,1.31l3.38,2.37a6.88,6.88,0,0,1,1.38.65L26.29,31c-.62-1.21-.56-.24-1-2.22-.24-1.14-.52-1.94-.69-3l-1.55-.73c0-.13-.17-.13-.26-.17l-.47.65s-.58-.09-.71-.09Z"/><path class="cls-66" d="M70.5,68.86c-.11,0-.24-.11-.28,0s-.52,0-.54,0c-.54,0-.15,0-.73.06v.34c1.61.58,2.28.19,3.92.3l-.22,1.33c1.21-.09.75-.19.93,1l1-.52s.22,0,.26-.09.15-.06.24-.09c-1.14-3.42-1.14-1.44.71-4.24-.26-1.31-.69-1.66-.67-2.95l-.9.06c-.15,3.36,0,.13-1.46,2.41-.95,1.51-.5,1.83-2.24,2.37Z"/><path class="cls-67" d="M40.88,72.47c-.54.54-.32-1-.39.71,0,2,0,.58.39.71.8.62.45-.67.77.75l1.18-.71.69-6.2c.93-.71.56-.9.52-2.15l-2,0a2.13,2.13,0,0,0-.32,1c-.67,3.6-.73,3.25-.06,5Z"/><path class="cls-50" d="M92.46,114.82l.06.9a5.36,5.36,0,0,0,2.58,1.64c.32-.41.5-.28.88-.5-.78-1.4.13-1.08.24-1.16l.56-2.2-.24-2.67c-.5-.15-.13-.09-.95-.06-.65,1.21-.95.65-1.77,1.85-.5.73-.82,1.42-1.38,2.2Z"/><path class="cls-68" d="M45.51,59.06l-.62.77c-.43,1.55-.71,3.68-1.12,5.12l2.91-3c2.13-2.69,1.05-2.13,3.21-3.14.17-.39-.37,0,.45-.84.56-.58-.82-.39.86-.52a5.84,5.84,0,0,0,1.51-1.38c-.75-.43.15.06-.69-.28-.39-.17-.34.32-.54-.26,0-.11-.17-.09-.26-.15L48,58.37c-1.23,1.46-1.08,1.55-2.54,1.68Z"/><path class="cls-5" d="M115.08,113.55c.54,0,.28.24,1-.17a6.6,6.6,0,0,0,.84-.73c1.05-1,1.1-.65,1-1.85l.22-1.14a31.25,31.25,0,0,0-4.41,1.72,4.93,4.93,0,0,0-3,3.83c1.7-.32,1-.45,2-1s1-.09,2.35-.69Z"/><path class="cls-69" d="M24.37,50.52,24,48.62c2,.77.73-.58,1.59,1.25,0,0,.26,1.14.34,1.51l2.56.43-.52-1a17.51,17.51,0,0,0,.67-1.66l-1.05-.54A6.47,6.47,0,0,1,26,47.65c-.84-.6-.54-.58-1.49-1.05-1-1.36-1-2.15-2.13-2.95a11.13,11.13,0,0,0,.56,3.53,11.25,11.25,0,0,1,.75,1.7c.37,1.21-.15.54.71,1.64Z"/><path class="cls-21" d="M19.78,73.87c.43.28,0,0,.5.65.56.75,0,.34.62.52,3.25,1.81,1.68,4,4.84,2.45l-2.69-3.85c-1.7-1.51-1.85-.11-3.19-2.82l-1.18-.17Z"/><path class="cls-6" d="M16.15,72.73c-1.08-2.37-.39-1.38-.41-3,0-.56-.58-2.37-.73-3.7,1.29.56,1.49.62,2.35,3.19l.52.71.82.75,1.18.17c0-.13-.06-.41-.09-.34l-.22-.65a1.45,1.45,0,0,0-.13-.26c-1.21-2.15-1.55,0-1.61-3-2.86-.24-2-2.48-4.24-3.06,0,5,1.33,6.57,1.92,8.44,0,1.57-.11.17.65.78Z"/><path class="cls-43" d="M91.1,58.5l.06,3.08.56.39a4.79,4.79,0,0,0,1.61,2.69v1.59c-.13,1.42-.19,0,.82.67A22.19,22.19,0,0,0,94,63.11c-.41-1.74-.69-1.33-.65-3.44l-.26.17-.54-4.61c0,1.79.19,1-.82,2.24,0,0-.34.5-.41.56a15.48,15.48,0,0,0-.82-1.92c-.28-.86-.19-1.42-.39-2.07l.22,2.43c-.54-.73,0-.24.28.34a5.26,5.26,0,0,1,.5,1.68Z"/><path class="cls-5" d="M95.21,121.56l-1,.39,1.23-.22a10.46,10.46,0,0,0,5-1l0-1.44c2.22-.32,2.09-.88,2-2.58l-2.63-.17c-1.29.47-.71,0-.43,2.13a6.53,6.53,0,0,0-2.43.95l0,1.55Z"/><path class="cls-70" d="M58.19,75.62l1.87-.41c1.85-.95,3.64-2.48,5.17-2.6l.88-.84c.58-.67.39-.62.43-1.85,1.59.09,1.12.09,2.41-.67V68.9l-1.12-.47C66.8,70,66.39,70,64,70l-1.14,1.55a2.29,2.29,0,0,0-.15.24c-.54.77-.11.67-1.05,1.25L59,74.71c-.8.67-.34.28-.84.9Z"/><path class="cls-71" d="M88.22,28.13l-.34,1.33-1.23,0a25.87,25.87,0,0,0-1.16,3.25c-.24.82-.26.9-.52,1.81l-.62,1.66c1.31,1.59-1.46-.71.37.39,1,0,.82-.24.62.77l.13.19c.65-.67-.82-.32.73-.58l-.28-1.92c1.85-1.51.3-1,1.81-2.5l.19-2.26a1.75,1.75,0,0,1,.82,0l.86.43L89,27.57c-.13.28.67-.13-.8.56Z"/><path class="cls-17" d="M64.62,78.89l-1.83,2.2c-1,1.81,0-.11-1,1l-.77,1.77c1.18-.19,1.44.17,2.6-1.46.77-1.05,0-.13-.09-.06l1.51-.15c1.14-1.7,1.33-3.59,3-4.61l-.3-1c-1.81.56-1.81,1.59-3.16,2.32Z"/><path class="cls-20" d="M24.37,50.52l.9,1.85c1.08,1,.8.22,1.57,1.44.47-.58.37-.37,1.12-.8.37,2.37,1.21,3.7,3.25,2.3l-.8-1.08C29.82,53,29.49,53,29,51.83l-.52,0-2.56-.43c-.09-.37-.32-1.46-.34-1.51-.86-1.83.39-.47-1.59-1.25Z"/><path class="cls-42" d="M24.18,83.71c-1.81-4.41-1.83-3.23-3.34-5.58-1-1.59,0-1-1.49-1.64-.47.82-.93-1.49.17,2.35.93,3.32,1.57,5,4.65,4.87Z"/><path class="cls-72" d="M92.07,53.12c.69-.5.34-.58,1.49-.6.13-1.66,1-2.76.37-4.33-.75-1.85-.45-2.84-.37-5.06-1.18.93-.93.24-1.51,2.28-.86-1.7-.17-1.94-1.53-3.4l.73,6.11c1.53-1.29-.8-.34,1.29-1.18.95,1.92.47.65.54,4.22-1.31.67-1,.65-1.14,2.2Z"/><path class="cls-20" d="M55.71,84.25c.69.41.8-.06.15,1.51-.37.9-.34.8-1.08,1.31-1.57,1.12-1.51.52-2.37,2.39l-.86-.26c-.19,1.94-.17.47.47.93a1.39,1.39,0,0,1,.82-.58l6-6a8.74,8.74,0,0,1,1.36-2.39c-.24-.62-.28-.73-.56-1.53-1.92,1-.95.69-2.91,3.19-.15.19-.41.52-.52.67l-.34.47-.19.26Z"/><path class="cls-20" d="M75.11,64c0,1.29.41,1.64.67,2.95-1.85,2.8-1.85.82-.71,4.24-.09,0-.19,0-.24.09s-.22.06-.26.09l-1,.52,1.53.09.67-2.24c.3-.56,0-.56.39-.95h2.41c-.5-1.77-1.25-3.9-2.69-5.06-.8.11-.32-.13-.78.28Z"/><path class="cls-69" d="M57.41,5.12c-.15,2.11-1.44,1.7.09,1.29L57.35,8.2c1.46-2.11,0-3.42,2.78-3.66l-1,3.23c.28.47.73-.22,1,.65.52-1.89,0-2.15,1.25-3.4-.11-1.57-.11-2.65-.9-3.83-2.17.26-1.66,2.17-3.08,3.94Z"/><path class="cls-73" d="M62.69,53.79l1.55-.8c.69-1.64.41-1.68.8-3.36.13-.56.3-1.05.52-1.77.41-1.44,0-.65.69-1.66H64.73c2.22,0,.37-.26,1.14,1.14a4.74,4.74,0,0,0-2.65,1.23A6.52,6.52,0,0,1,60.6,50c.13.15-1.18,1.25,1.08,0-.26,2,.28,1.4,1.57,2l-.62.93c-.06.06-.17.13-.24.19l-.47.41c.56.5-.13.22.77.28Z"/><path class="cls-37" d="M88.28,60.25c.77,1.29.52.54.67,2.37l-.67-.69c-.09-.28-.37-.19-.5-.34A2.87,2.87,0,0,0,89,63.89l.71-.75a15.54,15.54,0,0,1,1.66,1.14c-1-3.44-.17-1.61.41-2.3l-.56-.39L91.1,58.5l-2.93-.39Z"/><path class="cls-2" d="M33.58,92.84v.3a9.26,9.26,0,0,1,3.85,3.06,10.13,10.13,0,0,0,3.64,2.09l.28.09.52.28c-.41-1.44-.43-.65-1.14-1.57a9.55,9.55,0,0,1-.9-2.48L39,93.53l-1.55,1.23a9.1,9.1,0,0,1-3.27-3.19c-.95.45-.9-.3-.19,1.36Z"/><path class="cls-74" d="M33,60.18l2.43,2.58c.95.86.26,0,.86,1.53a6.11,6.11,0,0,0,.34.75c0,.11.26.41.32.52l.43.6c-.26.88-.19.15.52.45-1.08-5.75-1.59-3.29-2.58-5.21-1.27-2.54.84-.17-2.17-5.58-1.25.09-.15-.52-1,.41Z"/><path class="cls-75" d="M53,65c.37.86.06.71,1.31,1,.32-.43,0-.19.41-.54a7.32,7.32,0,0,1,.8-.58L56.79,64s.17-.13.24-.19l1,.65s.11.13.17.19c.06-.09.11-.32.15-.26s.09-.22.13-.26c1.36-1.64.22.39,1.68-1-1.42-1.44-1.51-1.46-3.62-1.42-1.61.6-.32.56-1.61,1.59S53.58,63.33,53,65Z"/><path class="cls-76" d="M86.65,29.49l1.23,0,.34-1.33c.11-1.7.37-2.35-.28-3.59l.62-.19c-.71-1.46-.62-2.28-2.3-2.73-.73,1.53-.43,1.89,0,3.4a13.15,13.15,0,0,1,.34,4.48Z"/><path class="cls-61" d="M22.35,43.65c1.1.8,1.1,1.59,2.13,2.95L24.74,45l1.42-.39c-1.38-.8-.37-.67-2.35-2.56l-.26-.24a3.57,3.57,0,0,1-.26-.28c.32-.73.06-.6.67-1.14-.11-1.18-.11-.67-.78-1.49s-.75-.9-.24-2.2a3.82,3.82,0,0,0-1.29,2.91c.5.41,1,.75,1.38,1.16-.45,1,.41.22-1.05.9Z"/><path class="cls-17" d="M30.42,54.24l.8,1.08c-.39,1.66-.56.95.19,2.39-.54-.71.37-.69-1.29-1.51a1.93,1.93,0,0,0-.5,1.14c-.13,1.36,1.1,2.11,1.57,2.86l1.83,0-.88-3.94c.88-.93-.22-.32,1-.41l-.28-1-.75-1.21c-.93,1.79,0,.28-.88,1Z"/><path class="cls-67" d="M25.51,93.51c0,.3-.67,0,.84,1.44,3.44,3.38,3,3.9,4.93,3.55a2.17,2.17,0,0,1-.56-.9c-.52-.47-.19.19,0-.17l-.22-1.18c-.8-.3-1.08-.17-2.28-1.68l-.65-.86a6.77,6.77,0,0,1-.95-1.23,9.19,9.19,0,0,1-.93-.41c-.09,0-.26,0-.32-.15s-.19-.11-.3-.17Z"/><path class="cls-24" d="M23.08,111.55a26,26,0,0,0,4.71,2.28l1.55.43c-.5-1.85.19-1.38-1.36-2.2-2.45-1.31-1.42-1.08-3.19-1.66l-1.49-.9-.93.54.5,1.23c0-.06.13.19.19.28Z"/><path class="cls-77" d="M64.65,107.5c-.65.88-.39.47-1.25,1.23l-3.34,3.53,6.39-3.44c.88-.73.67-.71,1.81-.86.06-.09.17-.32.19-.26.11.26.3-.39.37-.47.32-.52.26-.22.41-.84H68.18Z"/><path class="cls-73" d="M89,63.89a3.54,3.54,0,0,0,.47,1.05s.39.73.41.77c.73,1.31-.15.37,1,1.25l.88-.41.15,0c.19,0-.28-1.46.56.43,2.22,0-.19.28.93-.69V64.66A4.79,4.79,0,0,1,91.73,62c-.58.69-1.4-1.14-.41,2.3a15.54,15.54,0,0,0-1.66-1.14Z"/><path class="cls-78" d="M65.23,72.6c1.59-.19.52-.15,1.05.34l2.3-1.05c-.15,1.55.13.5-.26,1.31.95-.65,1.44-1.83,2.17-3l1.94.52.22.13.22-1.33c-1.64-.11-2.3.28-3.92-.3-1.29.75-.82.75-2.41.67,0,1.23.15,1.18-.43,1.85Z"/><path class="cls-79" d="M51.64,82.81c1.53-1.08,1-2.22,2.93-3,.39-.62,0-.45,1-1.27.37-.26.8-.41,1.18-.69,1.36-1,.58-.8,2.71-1.27l.56-1.36-1.87.41-2.07,1.21a6.81,6.81,0,0,0-2.07,1.38,8.34,8.34,0,0,0-1.77,1.7,12,12,0,0,0-.65,2.91Z"/><path class="cls-42" d="M52.83,92C56,93.33,57.2,88.49,60,88c-1.64-.45-.19-.52-1.79-.28-4.59.69-2,.82-3.79,2.41-.95.86-1.36-.22-1.61,1.81Z"/><path class="cls-80" d="M82.36,75c1,.65,1,4,0,5.08a10.49,10.49,0,0,1,1.31,0,5.38,5.38,0,0,0,1.36-.06c.77.06.41.11.26-1.12l-1.46-4-1.7-2.15c-.75.56-1.16-.71-.41,1.38,0,0,.54.73.62.88Z"/><path class="cls-2" d="M54.57,79.79c.71.41.15,1-.39,1.66l-.5.58-.17.17-.67.62-.28.26,2-.22c1.68-.84-.95.22.9-.52.06-1.74.8-2.3,2.32-3.49.13-.11.47-.32.69-.52,1.16-1-.41-.19,1.42-1.12,0-.15-.15-.54-.17-.41s-.19-.17-.26-.26c-2.13.47-1.36.28-2.71,1.27-.39.28-.82.43-1.18.69-1.08.82-.65.65-1,1.27Z"/><path class="cls-62" d="M23.31,109.5l1.42.11c.24-.45,1.23.71.39-1.12l1.1-.26c-.88-1.21-2.24-1.89-2.69-2.48l3.12.43c-.43-1,.82-.67-1.12-.82-1.14-.11-1.08.24-1.57.43l-1.33-.5c-.11,1.46-.06.86-1.05,1.68l.17.24.37.47.54.67c.67.84.28,0,.67,1.14Z"/><path class="cls-16" d="M106.73,112.6c-.58.88-.09.41-1,.65-.73,1.55-.88,1.05-2,2.37,2-.47,7.41-3.77,7.81-4.22,1.94-2.11.19-.8-.28-1.21-.93.45-1.31.71-2.13,1.1-1.16.54-1.27.8-2.39,1.31Z"/><path class="cls-59" d="M50.12,97.92c1.66,0,3.47-1.94,5-2.88.58.11.22.47.78,0V93.89c-2,.41-1,1.72-1.7.67-.06-.09-.22.13-.32.17l.86-1.44c0-.19.15-.22.24-.32-1.94.13-1.83.6-3,2a6.71,6.71,0,0,1-2.52,2.32Z"/><path class="cls-39" d="M50.12,97.92c-.19.5-.41,1.51-1.08,1.49l-.24,1.27a4.35,4.35,0,0,0-1.53,1.66c.84.19.73.06,1.29.39L55.11,95c-1.53.95-3.34,2.91-5,2.88Z"/><path class="cls-53" d="M52.42,40.83a4.24,4.24,0,0,0,1.16-.39l-.39-1.16a2.58,2.58,0,0,1-.45-.28c-.84-1.25-.22,0,.06-.5-.28.88.56.69-.71.95-2.52.52-.17.15-1.21-.56-.06-1.42-.09-.9.54-1.79-1.44,3.4-2,4.26-2.67,8.55,1.05-.67.17.65,1.16-1.14a12.29,12.29,0,0,0,.6-1.61Z"/><path class="cls-11" d="M43.68,56.59l-.37,3.57c1.55-.15.6.11,1.57-.32l.62-.77c.9-1.14,1.14-1.92,1.14-4-.93,1.08-.75-1.55-.77,1.68-.95.19-.62.19-1.61-.3l.47-2.54c-.95.41-.77-.65-.77.78-.26.39-.28,0-.37.77a4.64,4.64,0,0,0,.09,1.14Z"/><path class="cls-32" d="M51.43,37.11c-.62.88-.6.37-.54,1.79,1,.71-1.31,1.08,1.21.56,1.27-.26.43-.06.71-.95-.28.45-.9-.75-.06.5a2.58,2.58,0,0,0,.45.28c1.59-.67-.06,1.49,1.21-1.49l1.1-3.9c-.62.5-.54.28-1.05.95-.24.3-.39.82-.69,1.14a5.72,5.72,0,0,1-2.32,1.12Z"/><path class="cls-35" d="M62.41,143.49v.26l1.31,1c.09.06.13.15.22.22.39.32.09.19,1.05.58l-.58-1.72.37-.73a4.47,4.47,0,0,1-2-3.1c-.56-.47-.17-.06-.75,0-1.33-.54-.54-.52-2.26-.22l0,1.79a5.94,5.94,0,0,0,1.29-.15l1.29-.11c.47,1.68.11.62,0,2.15Z"/><path class="cls-32" d="M56.06,115.83l-.45-.39.75-2.52-1.87-.17c-2,1.85-1.77-.5-2,2.09.65.78-1,.65,1.55.69.37,1.05.17,1.38.82,2.28.54-.75.82-1.4,1.21-2Z"/><path class="cls-53" d="M33.91,115.92c0,.45,1.21.32,1.89.6,1.4.58.32.5,2,.8-1.18-1.36-1.29-.06-1.87-1.89.9-.32,2.65.82,4,1.31l.06-.93.3-.39c-2.73-1.05-2.3-1.66-5.53-1.89.24,1.68.11.62-.09,2.32Z"/><path class="cls-81" d="M42.43,103.5h1l.11-.43-.34-1.77c-1.59-.39-2,0-3.25-.43-1.89-.65-.34-1.12-2.69-.24.77,1.16,2.35,1.87,4,2.69,1-.39.47,0,1.16-.6.32.37.9-.88,0,.77Z"/><path class="cls-23" d="M98.16,85c-.52.43.88,1.25-2.09.39,1.21.58.71-.13,1.4,1.21,1.23-.45.32,0,1.31-.8-.39,1.94-.45,1.42.43,2,0,0,.11-.22.13-.17.32,1,.19-.32.24-.39,2.2-3.12-1.38.09,1.29-1.14l.8-1.38-.3-.78a4.6,4.6,0,0,0-2.2.54l.15-1.74c-.95.39-.77-.65-.77.75-.24.34-.26,0-.41.73-.22,1.08-.06-.22,0,.82Z"/><path class="cls-82" d="M42.84,73.94l-.09.34a6.68,6.68,0,0,0,2.5-.65,2.35,2.35,0,0,0,.95-.56c.65-.58.32-.28.84-1.1l-1.53.56a5.88,5.88,0,0,1-1.05-.69L43.7,71c1.83-.56.37.09,1.27-1.08.52-.62.39-.28.88-1.12,0,0-.8.45-.82.45-1.72.41-.32,0-1.05-.15l-.06-1.36h-.39Z"/><path class="cls-55" d="M5.4,100.8c0-.73-.19-.58.5-.54a6,6,0,0,0,1.92,1c-1.14-1.18-5-4.41-6.31-4.61-1.7-.24-2.41,1.36.3,2.07,3.08.8.22,0,3.6,2.07Z"/><path class="cls-83" d="M86.56,47.72c.54,1.81-.62,2.73-.52,5.49.54-.8.3-.62,1-1.21,1.36-1.14.6.3,1.23-1.42.5-1.38.15-3.1.09-4.63-1.46.43-.71.62-1.81,1.77Z"/><path class="cls-37" d="M66.28,72.95A7.22,7.22,0,0,0,64,77.6c1.49-.45.69.3,1.94-1.29.88-1.14.6-1,1.85-1.66-.24-1.42,0-1,.54-1.44.39-.82.11.24.26-1.31Z"/><path class="cls-2" d="M80.49,79.94c2.13-1.36-.3-.6,1.44-1.81-.11,0-.28-.19-.34-.11s-.24-.06-.32-.11l-.47-1.05c-.34-1.18.17-.15-.65-1.12-.62-.75-.28-.43-.82-.71a7.55,7.55,0,0,0-1.53-.39c-.56-1.31.17-1-.77-1.14,0,0,.15-1.23.56,1,.47,2.48-.39,1.33,1,2.56s.58.86,1.14,1.83c0,.09.11.17.15.26l.22.26c0,.09.15.19.19.28a3.24,3.24,0,0,1,.24.28Z"/><path class="cls-44" d="M34.92,52.17c0,.11.69,1.79.71,1.81.45,2.76,0,1.27-.65,1.79l1.29-.26a3.32,3.32,0,0,1,.58.15c.17-1.94.45-.6.77-2.11.26-1.18-.13-1.83-.22-3.12l-1.46.5-.13,0Z"/><path class="cls-9" d="M95.6,110.77c.82,0,.45-.09.95.06l.24,2.67c1.49-.78.8-.09,1.77-1.57,2.24-.6,2,.71,2.8-1.61-3-.26-.28.58-2.82.5-.09,0-.28,0-.34-.15s-.26-.13-.37-.22c-.62-.47-.06-.69-1.31-1.31a5,5,0,0,1-.9,1.64Z"/><path class="cls-84" d="M88,136.95c0-2,1.25-3.08,1.44-5.08,0,0-.54-.43-.67-.52l-.24-.17-.6-1.16c-.24.9-.54,1.81-.75,2.84-.5,2.45.09,2.76.24,3.32,0,1.55-.11.17.58.77Z"/><path class="cls-10" d="M52.7,56.11a5.84,5.84,0,0,1-1.51,1.38c0,.13-.43,1.05-.43,1.05l2.82-.32c.69.58,0-.22.75.73,1.05-.41,1.08-.34,1.16-1.59-1.42-.6-.13.17-1.1-1.16.26-.24,1.72-1.14.32-1.16l-.45.8c-.06.06-.26.39-.3.3s-.24.24-.37.34c-.17-.73.26-.43-.9-.37Z"/><path class="cls-4" d="M50.2,123l.34.37.93.8c1.05.58.15.22,1.33.3.28-.3.24-.19.39-.86a7.28,7.28,0,0,1-.84-1.64c-.73-1.12-.22-.93-.71-2.24,0-.09-.15-.13-.17-.28s-.13-.19-.19-.28c-.69,2.17.17,1.16-1.51,2.39Z"/><path class="cls-37" d="M43.29,112.19V112A10.67,10.67,0,0,0,39.35,110c-.6-.73.32-.13-1.16-.39.24.8.34.69.75,1.1l2.32,3c1.72-.17.47.22,1.21-.67,0-.06.06-.19.11-.26.82-1-1.36,0,.71-.6Z"/><path class="cls-85" d="M46.63,68.28a3.85,3.85,0,0,0,.69-.73c.41-.52,0-.17.62-.88,1-1.14.5-.86,1.77-1.05,1-.24.82-.41,2.07-1.25,1.74-1.16,1.27-.67,1.83-1.7-.45-.32-.75-.52-1.18-.86-1.33,2.15-3.81,3.29-5.64,4.78Z"/><path class="cls-76" d="M57.41,5.12c1.42-1.77.9-3.68,3.08-3.94.8,1.18.8,2.26.9,3.83l-.24,2.76L61.83,6c.62-2.91-.39-6.5-2.11-5.94a8.73,8.73,0,0,0-2.3,4.24c-.62.54-.24-.13,0,.82Z"/><path class="cls-69" d="M23.31,109.5l1.49.9c1.77.58.73.34,3.19,1.66,1.55.82.86.34,1.36,2.2l-1.55-.43c1,.88.37.47,1.94.75-.37-2.65-2.26-4-3.51-6.35l-1.1.26c.84,1.83-.15.67-.39,1.12Z"/><path class="cls-13" d="M24.48,46.6c.95.47.65.45,1.49,1.05a6.47,6.47,0,0,0,1.59.95c.3-1.25.41-2-.15-2.39l0-.62-1.27-.93L24.74,45Z"/><path class="cls-42" d="M44.82,49.48c.11,0,.26-.11.3,0l1.77-.56.39-1.53a13.66,13.66,0,0,0-1.4-1l-1.44-1a4.59,4.59,0,0,1-.47-.22c.06,2.65.73,2.26.86,4.35Z"/><path class="cls-12" d="M21.23,27.89c.73,0,.45-.71.5-1.57l-.09-.86c.13,0,.67.11.71.09l.47-.65c.09,0,.22,0,.26.17l1.55.73a23.6,23.6,0,0,0-1.27-2c-.56-.95.09-.24-.62-.93-.5-.5-.26,0-.9-.65-1.23,1.44-.75,1.59-.6,5.7Z"/><path class="cls-17" d="M24.35,119.25a5.25,5.25,0,0,0-1.23-1.87l-.75-1.23c.24-.09,0-.11.84-.22l1.1,0c-.41-.3-.6,0-1.87-1.64-2.8-.09-.75-.22-1.53.71l.22,1.92a6.77,6.77,0,0,0,3.23,2.3Z"/><path class="cls-69" d="M30.72,97.6l.93.28c.13-1.44.32-1.29.13-2.24a2.42,2.42,0,0,0-1.49-.71c-.69-.82-.69-1-1.57-1.46-.09,0-.41-.15-.52-.22A2.26,2.26,0,0,1,28,93.1c-1.12-.62.43-.3-1.31-.62a6.77,6.77,0,0,0,.95,1.23l.65.86c1.21,1.51,1.49,1.38,2.28,1.68l.22,1.18c-.22.37-.54-.3,0,.17Z"/><path class="cls-65" d="M33.58,92.84l.37.09c-.71-1.66-.75-.9.19-1.36l0-.45a3.93,3.93,0,0,1-.69-.56A2.45,2.45,0,0,1,33,90c-.32-1-.67,1.27-.22-1.23-3.44.26-.75,0-2.52-1.46.78,3,1,4.2,3.29,5.49Z"/><path class="cls-41" d="M95.34,91.16c-3.34-.43-2.11-1.05-3.59-1.87-.58-.32-.84,0-1.72-.5.8,1.68,1.05.67,2.54,2.6A11.47,11.47,0,0,0,95.32,94c-.3-1.51-.5-1.44,0-2.84Z"/><path class="cls-48" d="M101.67,84.72l-.8,1.38,1.46.22c1.12-1,1.23-1.89,2.41-3.06l.22-2c-2.3,1.44-2,2.52-3.29,3.42Z"/><path class="cls-85" d="M7.69,103.88c-.88-2.3,1.59-2.2,3.51-1.49l1.25.3c0-1-.88-.75-2-1.1a5.08,5.08,0,0,0-2.65-.32,6,6,0,0,1-1.92-1c-.69,0-.5-.19-.5.54a6.23,6.23,0,0,1,1.66,2.69c0,1.57-.13.24.62.39Z"/><path class="cls-61" d="M22.84,86.23l-.8-.06c.15,1.68-.24.15,0,2l-.45.73c.65.52.26.09.84,0A7.26,7.26,0,0,0,24.65,90c-.09-.11-.39-.47-.43-.54s-.11-.24-.13-.32c-.71-2,.3-.93.8-1.12-.32-1-.58-1-.54-2.13-.82.54-.45-.65-.84,1-1.08.11-.28.22-.67-.67Z"/><path class="cls-11" d="M30.29,94.93a2.42,2.42,0,0,1,1.49.71c.19.95,0,.8-.13,2.24l2.15-.67c-.37-1.4-1.51-2.2-2.39-3.75l-.45,0a8.6,8.6,0,0,1-.84-.69,4.42,4.42,0,0,1,.17,2.11Z"/><path class="cls-69" d="M41.87,98.65h1.36c-.43-2.65-1.33-.78-1.23-4l-1.12.3c-.41-.58-.13-.06-1.05-.34a9.55,9.55,0,0,0,.9,2.48c.71.93.73.13,1.14,1.57Z"/><path class="cls-68" d="M37.82,117.32l2.45.84,1.55.22c-.62-1.16-.15-.6-1.42-1.36l-.41-.28c-1.4-.5-3.14-1.64-4-1.31.58,1.83.69.54,1.87,1.89Z"/><path class="cls-59" d="M7.69,103.88l2.52.45c.56-1.72-.32-.69,1-1.42h.43l-.47-.52c-1.92-.71-4.39-.82-3.51,1.49Z"/><path class="cls-53" d="M29,51.83c.52,1.21.84,1.21,1.44,2.41l.84.34c.93-.71,0,.8.88-1-1.16-1.74-.58-1.18-1.33-3Z"/><path class="cls-86" d="M53.45,123.6l-.17.28c1.05-.47.45,0,1.38-.86,1.38-1.27,1.59-1.87,3.53-1.46C59,120,59.44,120,60.1,118.2c-1.87,1.46-2.84,2.88-5.49,3.23a5,5,0,0,1-1.16,2.17Z"/><path class="cls-24" d="M51.56,89.2l.86.26c.86-1.87.8-1.27,2.37-2.39.73-.52.71-.41,1.08-1.31.65-1.57.54-1.1-.15-1.51-1.33,1.7-3.1,2.86-4.15,5Z"/><path class="cls-17" d="M33.32,115.57c.37-.52.62-.9,1-1.33-.95-.75-1.64-1.12-2.8-1.89l-.28.75c-1,1.23.43,1.21.93,2.52Z"/><path class="cls-54" d="M48.61,115a.85.85,0,0,1,.19.34c.09.37.75.67,1.31,2.13.52,1.08.13.95,1.38,1.14,0-1.25-.54-2-.6-4,1-.6.71-.43,1.53-1.94-2.24,1.4-.71,1.36-2.69,2.69-.6-.73.32-.13-1.12-.39Z"/><path class="cls-2" d="M45,91.18l-1.33,1.46c1.12,1-.3-1.33.5.9l.22.71c2-2.35,1.77-3.44,2.3-5.38a3.92,3.92,0,0,0-1.14.39c-.45,1.66-.58.39-.54,1.92Z"/><path class="cls-77" d="M34.19,91.12l0,.45a9.1,9.1,0,0,0,3.27,3.19l0-2a12.43,12.43,0,0,0-1.53-1.1,13.12,13.12,0,0,0-1.66-1.31Z"/><path class="cls-60" d="M67,99.36l.75-.09c.45-.69.32-.34,1.18-.73a11.07,11.07,0,0,0,1.7-1,31.91,31.91,0,0,0,2.93-2.09,6.85,6.85,0,0,0-3.77,1.27c-1.38.82-.45.19-1.42,1.25s-.47,0-1.38,1.42Z"/><path class="cls-11" d="M80.88,87.35l1.53,2,2.69.24c-.95-1.44,0-.32-1.25-1.36-.34-.3-.47-.37-.86-.67-1.25-.9-.65-.45-2.5-1V87l-.13.26Z"/><path class="cls-87" d="M85.46,37.56l1.81-.77s.69-.47.75-.52l-.3-3.7c-1.51,1.53,0,1-1.81,2.5L86.19,37c-1.55.26-.09-.09-.73.58Z"/><path class="cls-2" d="M24.65,90,25,91.18c2.09.45,1.1,1,2.41.37a8.69,8.69,0,0,1-1.29-1.77c-.54-.93-.73-.8-1.23-1.72-.5.19-1.51-.9-.8,1.12,0,.09.11.24.13.32s.34.43.43.54Z"/><path class="cls-59" d="M26.22,108.23c.09,0,.24,0,.3.09l1.36.28-.45-2,.13-.26c-.71-.6-.3-.19-.9-.13l-3.12-.43c.45.58,1.81,1.27,2.69,2.48Z"/><path class="cls-86" d="M64.41,143.86l.58,1.72c-1-.39-.67-.26-1.05-.58-.09-.06-.13-.15-.22-.22l-1.31-1a7.24,7.24,0,0,0,1.55,2.8h2.3c-.15-1.77-.45-2.17-1.85-2.69Z"/><path class="cls-35" d="M25.51,93.51l-.41-1.77L25,91.18,24.65,90a7.26,7.26,0,0,1-2.22-1.16V90c1.61,1.18.6,1.89,3.08,3.47Z"/><path class="cls-68" d="M95.11,96.2l-1.85-1.49-1.42-.28c.47,1.79,1.23,2.86,3.25,3.16Z"/><path class="cls-24" d="M43.29,112v.24c1.16,2.17,1,2.35,2.82,3.68l.06-.62c-.3-1.31.34-2.58-.3-3.75v2c-1.18-.8-.9-1.1-2.58-1.53Z"/><path class="cls-63" d="M28.2,60.83c.47,1.1.06,1.08,1,2s.9.65,2,1l.69-.75c-.11-.06-.26-.13-.34-.17a6.36,6.36,0,0,1-2.54-2.63,2.79,2.79,0,0,1-.88.5Z"/><path class="cls-11" d="M94.74,100.7c1.81.37,2.07-.41,1.85-1.81L96,98.61c-.17-.06-1.21-.41-1.38-.5L94.12,100c.65.58-.56.19.62.67Z"/><path class="cls-58" d="M74.72,94.84l1.57-.41c.09-.09.17-.32.24-.24l.88-.45c1.53-.56.13.58,1.4-.62L78.17,92a2.9,2.9,0,0,0-2,1,4.46,4.46,0,0,0-1.42,1.83Z"/><path class="cls-2" d="M62.79,81.09l1.83-2.2.5-1.14a19,19,0,0,1-2.32.75c0,.11-.52.95-.54,1-.8,2.78-.84.86.54,1.57Z"/><path class="cls-41" d="M87.1,85.41c.75,1,.3.6,1.44,1.21a5.46,5.46,0,0,0-1.18-2.67c-.77-1.1.19-.52-.95-1.05-.82-.37-.75-.17-1.68-.09.84,1.16,1.33,1,2.37,2.6Z"/><path class="cls-82" d="M61.87,88.3l2-1c1.23-.84,1-1.29,2.39-2.22V83.78a4.86,4.86,0,0,0-1.08.95c-.47.52-.58.73-1.08,1.25a25.66,25.66,0,0,0-2.24,2.32Z"/><path class="cls-69" d="M45.55,102.76a10,10,0,0,0,1.72-.43,4.35,4.35,0,0,1,1.53-1.66L49,99.41l-1.61.54c-.71,1.36-.15.75-.39,1.55a5.44,5.44,0,0,0-1.49,1.27Z"/><path class="cls-50" d="M80.49,96.59c.73-.3,1.55-.26,1.55-1.55a1.24,1.24,0,0,0-.41-1.1c-.54-.65-.37-.34-1.14-.82-.15,1.74-.15,0-.62,1.53.13,0,.34,0,.43,0l.22.09a2.87,2.87,0,0,1,.26.13c.06,0,.19.11.28.15Z"/><path class="cls-88" d="M36.42,87.78l.22-2.35-2.37.28c.3,1.51.56,1.46,2.15,2.07Z"/><path class="cls-35" d="M22,88.12c-.24-1.81.15-.28,0-2,0-.45,0-.32-.32-.65l-.95.37.11,0c-.39-1.36.11,0-.75-.65v1.31c.52.39,0-.11.62.54l.34.41c1.33,1.51-1.16-.28.95.6Z"/><path class="cls-89" d="M21.72,85.52c.32.32.28.19.32.65l.8.06C24,85,22.95,86,23,84.75a2.61,2.61,0,0,1,.17-.54l-2.13-.5c.39,1.1.32.84.67,1.81Z"/><path class="cls-39" d="M48.72,37l-.22,1,.13,1.21c1.53-1.05,1.61-1.1,1.49-3.06Z"/><path class="cls-43" d="M62.32,105.48c1.46-.32.88-.24,1.87-.95,1.4-1,.84.41,1.16-2-1.14.45-.17-.28-1.08.52Z"/><path class="cls-75" d="M47.42,53.6c.32-1,.28-.58.39-.84L49,50.28l-1.44.6c0,.45-.15,1-.22,1.38-.13.88-.67.54.13,1.33Z"/><path class="cls-32" d="M15.76,111.18c-.09-.22.06-1.4-1.83-1.18-.26.3.11.93.47,1.18,1.38,1,1.05.15,1.36,0Z"/><path class="cls-12" d="M19.53,117.72c-.06-.09-.17-.34-.22-.26l-3-2.43c.5,1.18,0,.28.47,1l.77.82a3,3,0,0,0,2,.84Z"/><path class="cls-90" d="M17.87,69.89l-.52-.71-.95-.26a2.59,2.59,0,0,0,.41,1.42L18,71Z"/><path class="cls-91" d="M19.25,82l-.52-1.55H17.05c.32.45.15.39.73.8a6.71,6.71,0,0,0,1.46.75Z"/><path class="cls-90" d="M76.25,103.11l0-.39c.86-2.17.26-.5,0-.95-1.79,1.68-.69-.17-1.53,2.11Z"/><path class="cls-6" d="M65.68,115c1.08-.54.47-.26,1.25-.88,1.1-.86-.09-.3,1.25-.67v-.9a3.59,3.59,0,0,0-1.38,1.05,6.93,6.93,0,0,0-1.12,1.4Z"/><path class="cls-6" d="M57.39,92.73c.77-.19.6-.06,1.18-.39A2.75,2.75,0,0,0,59,91.12Z"/><path class="cls-85" d="M60.75,89.65c1.21-.75.82.15,1.12-1.36-1.36,1-.56.09-1.12,1.36Z"/><path class="cls-75" d="M9.75,106.19l.34-.75-.73-.54c0,1.36-.15.9.39,1.29Z"/></g></g></svg>